G04 MADE WITH FRITZING*
G04 WWW.FRITZING.ORG*
G04 DOUBLE SIDED*
G04 HOLES PLATED*
G04 CONTOUR ON CENTER OF CONTOUR VECTOR*
%ASAXBY*%
%FSLAX23Y23*%
%MOIN*%
%OFA0B0*%
%SFA1.0B1.0*%
%ADD10C,0.283590X0.26759*%
%ADD11C,0.051181X-0.0039371*%
%ADD12C,0.008000*%
%ADD13C,0.010000*%
%ADD14R,0.001000X0.001000*%
%LNSILK1*%
G90*
G70*
G54D10*
X1457Y349D03*
G54D11*
X1280Y526D03*
X1635Y526D03*
X1635Y172D03*
X1280Y172D03*
G54D10*
X457Y349D03*
G54D11*
X280Y526D03*
X635Y526D03*
X635Y172D03*
X280Y172D03*
G54D12*
X1221Y507D02*
X1221Y546D01*
D02*
X1261Y585D02*
X1654Y585D01*
D02*
X1694Y546D02*
X1694Y507D01*
D02*
X1694Y388D02*
X1694Y310D01*
D02*
X1694Y192D02*
X1694Y152D01*
D02*
X1654Y113D02*
X1261Y113D01*
D02*
X1221Y152D02*
X1221Y192D01*
D02*
X1221Y310D02*
X1221Y388D01*
D02*
X221Y507D02*
X221Y546D01*
D02*
X261Y585D02*
X654Y585D01*
D02*
X694Y546D02*
X694Y507D01*
D02*
X694Y388D02*
X694Y310D01*
D02*
X694Y192D02*
X694Y152D01*
D02*
X654Y113D02*
X261Y113D01*
D02*
X221Y152D02*
X221Y192D01*
D02*
X221Y310D02*
X221Y388D01*
G54D13*
D02*
X753Y598D02*
X1253Y598D01*
D02*
X1253Y598D02*
X1253Y698D01*
D02*
X1253Y698D02*
X753Y698D01*
D02*
X753Y698D02*
X753Y598D01*
D02*
X753Y298D02*
X853Y298D01*
D02*
X853Y298D02*
X853Y398D01*
D02*
X853Y398D02*
X753Y398D01*
D02*
X753Y398D02*
X753Y298D01*
D02*
X53Y298D02*
X153Y298D01*
D02*
X153Y298D02*
X153Y398D01*
D02*
X153Y398D02*
X53Y398D01*
D02*
X53Y398D02*
X53Y298D01*
D02*
X1053Y298D02*
X1153Y298D01*
D02*
X1153Y298D02*
X1153Y398D01*
D02*
X1153Y398D02*
X1053Y398D01*
D02*
X1053Y398D02*
X1053Y298D01*
D02*
X1753Y298D02*
X1853Y298D01*
D02*
X1853Y298D02*
X1853Y398D01*
D02*
X1853Y398D02*
X1753Y398D01*
D02*
X1753Y398D02*
X1753Y298D01*
G54D14*
X1Y793D02*
X1898Y793D01*
X1Y792D02*
X1898Y792D01*
X1Y791D02*
X1898Y791D01*
X1Y790D02*
X1898Y790D01*
X1Y789D02*
X1898Y789D01*
X1Y788D02*
X1898Y788D01*
X1Y787D02*
X1898Y787D01*
X1Y786D02*
X1898Y786D01*
X1Y785D02*
X8Y785D01*
X1891Y785D02*
X1898Y785D01*
X1Y784D02*
X8Y784D01*
X1891Y784D02*
X1898Y784D01*
X1Y783D02*
X8Y783D01*
X1891Y783D02*
X1898Y783D01*
X1Y782D02*
X8Y782D01*
X1891Y782D02*
X1898Y782D01*
X1Y781D02*
X8Y781D01*
X1891Y781D02*
X1898Y781D01*
X1Y780D02*
X8Y780D01*
X1891Y780D02*
X1898Y780D01*
X1Y779D02*
X8Y779D01*
X1891Y779D02*
X1898Y779D01*
X1Y778D02*
X8Y778D01*
X1891Y778D02*
X1898Y778D01*
X1Y777D02*
X8Y777D01*
X1891Y777D02*
X1898Y777D01*
X1Y776D02*
X8Y776D01*
X1891Y776D02*
X1898Y776D01*
X1Y775D02*
X8Y775D01*
X1891Y775D02*
X1898Y775D01*
X1Y774D02*
X8Y774D01*
X1891Y774D02*
X1898Y774D01*
X1Y773D02*
X8Y773D01*
X1891Y773D02*
X1898Y773D01*
X1Y772D02*
X8Y772D01*
X1891Y772D02*
X1898Y772D01*
X1Y771D02*
X8Y771D01*
X1891Y771D02*
X1898Y771D01*
X1Y770D02*
X8Y770D01*
X1891Y770D02*
X1898Y770D01*
X1Y769D02*
X8Y769D01*
X1891Y769D02*
X1898Y769D01*
X1Y768D02*
X8Y768D01*
X1891Y768D02*
X1898Y768D01*
X1Y767D02*
X8Y767D01*
X1891Y767D02*
X1898Y767D01*
X1Y766D02*
X8Y766D01*
X1891Y766D02*
X1898Y766D01*
X1Y765D02*
X8Y765D01*
X1891Y765D02*
X1898Y765D01*
X1Y764D02*
X8Y764D01*
X1891Y764D02*
X1898Y764D01*
X1Y763D02*
X8Y763D01*
X1891Y763D02*
X1898Y763D01*
X1Y762D02*
X8Y762D01*
X1891Y762D02*
X1898Y762D01*
X1Y761D02*
X8Y761D01*
X1891Y761D02*
X1898Y761D01*
X1Y760D02*
X8Y760D01*
X1891Y760D02*
X1898Y760D01*
X1Y759D02*
X8Y759D01*
X1891Y759D02*
X1898Y759D01*
X1Y758D02*
X8Y758D01*
X1891Y758D02*
X1898Y758D01*
X1Y757D02*
X8Y757D01*
X1891Y757D02*
X1898Y757D01*
X1Y756D02*
X8Y756D01*
X1891Y756D02*
X1898Y756D01*
X1Y755D02*
X8Y755D01*
X1891Y755D02*
X1898Y755D01*
X1Y754D02*
X8Y754D01*
X1891Y754D02*
X1898Y754D01*
X1Y753D02*
X8Y753D01*
X1891Y753D02*
X1898Y753D01*
X1Y752D02*
X8Y752D01*
X1891Y752D02*
X1898Y752D01*
X1Y751D02*
X8Y751D01*
X1891Y751D02*
X1898Y751D01*
X1Y750D02*
X8Y750D01*
X1891Y750D02*
X1898Y750D01*
X1Y749D02*
X8Y749D01*
X1891Y749D02*
X1898Y749D01*
X1Y748D02*
X8Y748D01*
X1891Y748D02*
X1898Y748D01*
X1Y747D02*
X8Y747D01*
X1891Y747D02*
X1898Y747D01*
X1Y746D02*
X8Y746D01*
X1891Y746D02*
X1898Y746D01*
X1Y745D02*
X8Y745D01*
X684Y745D02*
X687Y745D01*
X701Y745D02*
X703Y745D01*
X715Y745D02*
X733Y745D01*
X744Y745D02*
X749Y745D01*
X761Y745D02*
X763Y745D01*
X775Y745D02*
X786Y745D01*
X835Y745D02*
X837Y745D01*
X852Y745D02*
X854Y745D01*
X865Y745D02*
X884Y745D01*
X895Y745D02*
X900Y745D01*
X912Y745D02*
X914Y745D01*
X925Y745D02*
X943Y745D01*
X994Y745D02*
X1004Y745D01*
X1015Y745D02*
X1020Y745D01*
X1032Y745D02*
X1034Y745D01*
X1046Y745D02*
X1057Y745D01*
X1108Y745D02*
X1122Y745D01*
X1136Y745D02*
X1147Y745D01*
X1198Y745D02*
X1213Y745D01*
X1227Y745D02*
X1244Y745D01*
X1891Y745D02*
X1898Y745D01*
X1Y744D02*
X8Y744D01*
X684Y744D02*
X687Y744D01*
X701Y744D02*
X704Y744D01*
X714Y744D02*
X734Y744D01*
X744Y744D02*
X749Y744D01*
X761Y744D02*
X764Y744D01*
X774Y744D02*
X786Y744D01*
X835Y744D02*
X838Y744D01*
X851Y744D02*
X854Y744D01*
X865Y744D02*
X884Y744D01*
X895Y744D02*
X900Y744D01*
X911Y744D02*
X914Y744D01*
X925Y744D02*
X944Y744D01*
X993Y744D02*
X1005Y744D01*
X1015Y744D02*
X1021Y744D01*
X1032Y744D02*
X1035Y744D01*
X1045Y744D02*
X1058Y744D01*
X1107Y744D02*
X1124Y744D01*
X1136Y744D02*
X1147Y744D01*
X1197Y744D02*
X1214Y744D01*
X1226Y744D02*
X1245Y744D01*
X1891Y744D02*
X1898Y744D01*
X1Y743D02*
X8Y743D01*
X684Y743D02*
X687Y743D01*
X700Y743D02*
X704Y743D01*
X714Y743D02*
X734Y743D01*
X744Y743D02*
X750Y743D01*
X761Y743D02*
X764Y743D01*
X774Y743D02*
X786Y743D01*
X834Y743D02*
X838Y743D01*
X851Y743D02*
X854Y743D01*
X865Y743D02*
X884Y743D01*
X895Y743D02*
X900Y743D01*
X911Y743D02*
X914Y743D01*
X925Y743D02*
X944Y743D01*
X992Y743D02*
X1005Y743D01*
X1015Y743D02*
X1021Y743D01*
X1032Y743D02*
X1035Y743D01*
X1045Y743D02*
X1059Y743D01*
X1106Y743D02*
X1124Y743D01*
X1136Y743D02*
X1147Y743D01*
X1196Y743D02*
X1215Y743D01*
X1226Y743D02*
X1245Y743D01*
X1891Y743D02*
X1898Y743D01*
X1Y742D02*
X8Y742D01*
X684Y742D02*
X687Y742D01*
X700Y742D02*
X704Y742D01*
X715Y742D02*
X733Y742D01*
X744Y742D02*
X750Y742D01*
X761Y742D02*
X764Y742D01*
X775Y742D02*
X786Y742D01*
X834Y742D02*
X838Y742D01*
X851Y742D02*
X854Y742D01*
X865Y742D02*
X883Y742D01*
X895Y742D02*
X901Y742D01*
X911Y742D02*
X914Y742D01*
X926Y742D02*
X945Y742D01*
X991Y742D02*
X1004Y742D01*
X1015Y742D02*
X1021Y742D01*
X1032Y742D02*
X1035Y742D01*
X1046Y742D02*
X1060Y742D01*
X1106Y742D02*
X1125Y742D01*
X1137Y742D02*
X1147Y742D01*
X1196Y742D02*
X1215Y742D01*
X1227Y742D02*
X1246Y742D01*
X1891Y742D02*
X1898Y742D01*
X1Y741D02*
X8Y741D01*
X684Y741D02*
X687Y741D01*
X700Y741D02*
X704Y741D01*
X722Y741D02*
X725Y741D01*
X744Y741D02*
X751Y741D01*
X761Y741D02*
X764Y741D01*
X782Y741D02*
X786Y741D01*
X834Y741D02*
X838Y741D01*
X851Y741D02*
X854Y741D01*
X873Y741D02*
X876Y741D01*
X895Y741D02*
X901Y741D01*
X911Y741D02*
X914Y741D01*
X941Y741D02*
X945Y741D01*
X991Y741D02*
X995Y741D01*
X1015Y741D02*
X1022Y741D01*
X1032Y741D02*
X1035Y741D01*
X1049Y741D02*
X1053Y741D01*
X1056Y741D02*
X1060Y741D01*
X1106Y741D02*
X1109Y741D01*
X1122Y741D02*
X1125Y741D01*
X1144Y741D02*
X1147Y741D01*
X1196Y741D02*
X1199Y741D01*
X1212Y741D02*
X1216Y741D01*
X1243Y741D02*
X1246Y741D01*
X1891Y741D02*
X1898Y741D01*
X1Y740D02*
X8Y740D01*
X684Y740D02*
X687Y740D01*
X700Y740D02*
X704Y740D01*
X722Y740D02*
X725Y740D01*
X744Y740D02*
X751Y740D01*
X761Y740D02*
X764Y740D01*
X782Y740D02*
X786Y740D01*
X834Y740D02*
X838Y740D01*
X851Y740D02*
X854Y740D01*
X873Y740D02*
X876Y740D01*
X895Y740D02*
X902Y740D01*
X911Y740D02*
X914Y740D01*
X941Y740D02*
X945Y740D01*
X990Y740D02*
X994Y740D01*
X1015Y740D02*
X1022Y740D01*
X1032Y740D02*
X1035Y740D01*
X1049Y740D02*
X1053Y740D01*
X1057Y740D02*
X1061Y740D01*
X1106Y740D02*
X1109Y740D01*
X1122Y740D02*
X1125Y740D01*
X1144Y740D02*
X1147Y740D01*
X1196Y740D02*
X1200Y740D01*
X1212Y740D02*
X1216Y740D01*
X1243Y740D02*
X1246Y740D01*
X1891Y740D02*
X1898Y740D01*
X1Y739D02*
X8Y739D01*
X684Y739D02*
X687Y739D01*
X700Y739D02*
X704Y739D01*
X722Y739D02*
X725Y739D01*
X744Y739D02*
X752Y739D01*
X761Y739D02*
X764Y739D01*
X782Y739D02*
X786Y739D01*
X834Y739D02*
X838Y739D01*
X851Y739D02*
X854Y739D01*
X873Y739D02*
X876Y739D01*
X895Y739D02*
X902Y739D01*
X911Y739D02*
X914Y739D01*
X941Y739D02*
X945Y739D01*
X989Y739D02*
X994Y739D01*
X1015Y739D02*
X1023Y739D01*
X1032Y739D02*
X1035Y739D01*
X1049Y739D02*
X1053Y739D01*
X1058Y739D02*
X1061Y739D01*
X1106Y739D02*
X1110Y739D01*
X1122Y739D02*
X1125Y739D01*
X1144Y739D02*
X1147Y739D01*
X1196Y739D02*
X1201Y739D01*
X1213Y739D02*
X1215Y739D01*
X1243Y739D02*
X1246Y739D01*
X1891Y739D02*
X1898Y739D01*
X1Y738D02*
X8Y738D01*
X684Y738D02*
X687Y738D01*
X700Y738D02*
X704Y738D01*
X722Y738D02*
X725Y738D01*
X744Y738D02*
X752Y738D01*
X761Y738D02*
X764Y738D01*
X782Y738D02*
X786Y738D01*
X834Y738D02*
X838Y738D01*
X851Y738D02*
X854Y738D01*
X873Y738D02*
X876Y738D01*
X895Y738D02*
X903Y738D01*
X911Y738D02*
X914Y738D01*
X941Y738D02*
X945Y738D01*
X988Y738D02*
X993Y738D01*
X1015Y738D02*
X1023Y738D01*
X1032Y738D02*
X1035Y738D01*
X1049Y738D02*
X1053Y738D01*
X1058Y738D02*
X1062Y738D01*
X1107Y738D02*
X1111Y738D01*
X1144Y738D02*
X1147Y738D01*
X1197Y738D02*
X1201Y738D01*
X1243Y738D02*
X1246Y738D01*
X1891Y738D02*
X1898Y738D01*
X1Y737D02*
X8Y737D01*
X684Y737D02*
X687Y737D01*
X700Y737D02*
X704Y737D01*
X722Y737D02*
X725Y737D01*
X744Y737D02*
X747Y737D01*
X749Y737D02*
X753Y737D01*
X761Y737D02*
X764Y737D01*
X782Y737D02*
X786Y737D01*
X834Y737D02*
X838Y737D01*
X851Y737D02*
X854Y737D01*
X873Y737D02*
X876Y737D01*
X895Y737D02*
X903Y737D01*
X911Y737D02*
X914Y737D01*
X941Y737D02*
X945Y737D01*
X988Y737D02*
X992Y737D01*
X1015Y737D02*
X1024Y737D01*
X1032Y737D02*
X1035Y737D01*
X1049Y737D02*
X1053Y737D01*
X1059Y737D02*
X1062Y737D01*
X1107Y737D02*
X1112Y737D01*
X1144Y737D02*
X1147Y737D01*
X1198Y737D02*
X1202Y737D01*
X1243Y737D02*
X1246Y737D01*
X1891Y737D02*
X1898Y737D01*
X1Y736D02*
X8Y736D01*
X684Y736D02*
X687Y736D01*
X700Y736D02*
X704Y736D01*
X722Y736D02*
X725Y736D01*
X744Y736D02*
X747Y736D01*
X749Y736D02*
X753Y736D01*
X761Y736D02*
X764Y736D01*
X782Y736D02*
X786Y736D01*
X835Y736D02*
X838Y736D01*
X851Y736D02*
X854Y736D01*
X873Y736D02*
X876Y736D01*
X895Y736D02*
X898Y736D01*
X900Y736D02*
X904Y736D01*
X911Y736D02*
X914Y736D01*
X941Y736D02*
X945Y736D01*
X987Y736D02*
X991Y736D01*
X1015Y736D02*
X1018Y736D01*
X1020Y736D02*
X1024Y736D01*
X1032Y736D02*
X1035Y736D01*
X1049Y736D02*
X1053Y736D01*
X1059Y736D02*
X1063Y736D01*
X1108Y736D02*
X1113Y736D01*
X1144Y736D02*
X1147Y736D01*
X1199Y736D02*
X1203Y736D01*
X1243Y736D02*
X1246Y736D01*
X1891Y736D02*
X1898Y736D01*
X1Y735D02*
X8Y735D01*
X684Y735D02*
X688Y735D01*
X700Y735D02*
X703Y735D01*
X722Y735D02*
X725Y735D01*
X744Y735D02*
X747Y735D01*
X750Y735D02*
X753Y735D01*
X761Y735D02*
X764Y735D01*
X782Y735D02*
X786Y735D01*
X835Y735D02*
X838Y735D01*
X850Y735D02*
X854Y735D01*
X873Y735D02*
X876Y735D01*
X895Y735D02*
X898Y735D01*
X900Y735D02*
X904Y735D01*
X911Y735D02*
X914Y735D01*
X941Y735D02*
X945Y735D01*
X986Y735D02*
X990Y735D01*
X1015Y735D02*
X1018Y735D01*
X1021Y735D02*
X1024Y735D01*
X1032Y735D02*
X1035Y735D01*
X1049Y735D02*
X1053Y735D01*
X1060Y735D02*
X1063Y735D01*
X1109Y735D02*
X1113Y735D01*
X1144Y735D02*
X1147Y735D01*
X1199Y735D02*
X1204Y735D01*
X1243Y735D02*
X1246Y735D01*
X1891Y735D02*
X1898Y735D01*
X1Y734D02*
X8Y734D01*
X685Y734D02*
X688Y734D01*
X699Y734D02*
X703Y734D01*
X722Y734D02*
X725Y734D01*
X744Y734D02*
X747Y734D01*
X750Y734D02*
X754Y734D01*
X761Y734D02*
X764Y734D01*
X782Y734D02*
X786Y734D01*
X835Y734D02*
X839Y734D01*
X850Y734D02*
X853Y734D01*
X873Y734D02*
X876Y734D01*
X895Y734D02*
X898Y734D01*
X901Y734D02*
X904Y734D01*
X911Y734D02*
X914Y734D01*
X941Y734D02*
X945Y734D01*
X986Y734D02*
X990Y734D01*
X1015Y734D02*
X1018Y734D01*
X1021Y734D02*
X1025Y734D01*
X1032Y734D02*
X1035Y734D01*
X1049Y734D02*
X1053Y734D01*
X1060Y734D02*
X1064Y734D01*
X1110Y734D02*
X1114Y734D01*
X1144Y734D02*
X1147Y734D01*
X1200Y734D02*
X1204Y734D01*
X1243Y734D02*
X1246Y734D01*
X1891Y734D02*
X1898Y734D01*
X1Y733D02*
X8Y733D01*
X685Y733D02*
X689Y733D01*
X699Y733D02*
X702Y733D01*
X722Y733D02*
X725Y733D01*
X744Y733D02*
X747Y733D01*
X751Y733D02*
X754Y733D01*
X761Y733D02*
X764Y733D01*
X782Y733D02*
X786Y733D01*
X836Y733D02*
X839Y733D01*
X849Y733D02*
X853Y733D01*
X873Y733D02*
X876Y733D01*
X895Y733D02*
X898Y733D01*
X901Y733D02*
X905Y733D01*
X911Y733D02*
X914Y733D01*
X941Y733D02*
X945Y733D01*
X985Y733D02*
X989Y733D01*
X1015Y733D02*
X1018Y733D01*
X1022Y733D02*
X1025Y733D01*
X1032Y733D02*
X1035Y733D01*
X1049Y733D02*
X1053Y733D01*
X1061Y733D02*
X1064Y733D01*
X1110Y733D02*
X1115Y733D01*
X1144Y733D02*
X1147Y733D01*
X1201Y733D02*
X1205Y733D01*
X1243Y733D02*
X1246Y733D01*
X1891Y733D02*
X1898Y733D01*
X1Y732D02*
X8Y732D01*
X685Y732D02*
X689Y732D01*
X698Y732D02*
X702Y732D01*
X722Y732D02*
X725Y732D01*
X744Y732D02*
X747Y732D01*
X751Y732D02*
X755Y732D01*
X761Y732D02*
X764Y732D01*
X782Y732D02*
X786Y732D01*
X836Y732D02*
X840Y732D01*
X849Y732D02*
X853Y732D01*
X873Y732D02*
X876Y732D01*
X895Y732D02*
X898Y732D01*
X902Y732D02*
X905Y732D01*
X911Y732D02*
X914Y732D01*
X941Y732D02*
X945Y732D01*
X985Y732D02*
X989Y732D01*
X1015Y732D02*
X1018Y732D01*
X1022Y732D02*
X1026Y732D01*
X1032Y732D02*
X1035Y732D01*
X1049Y732D02*
X1053Y732D01*
X1061Y732D02*
X1065Y732D01*
X1111Y732D02*
X1116Y732D01*
X1144Y732D02*
X1147Y732D01*
X1202Y732D02*
X1206Y732D01*
X1243Y732D02*
X1246Y732D01*
X1891Y732D02*
X1898Y732D01*
X1Y731D02*
X8Y731D01*
X686Y731D02*
X689Y731D01*
X698Y731D02*
X702Y731D01*
X722Y731D02*
X725Y731D01*
X744Y731D02*
X747Y731D01*
X752Y731D02*
X755Y731D01*
X761Y731D02*
X764Y731D01*
X782Y731D02*
X786Y731D01*
X836Y731D02*
X840Y731D01*
X849Y731D02*
X852Y731D01*
X873Y731D02*
X876Y731D01*
X895Y731D02*
X898Y731D01*
X902Y731D02*
X906Y731D01*
X911Y731D02*
X914Y731D01*
X927Y731D02*
X944Y731D01*
X985Y731D02*
X988Y731D01*
X1015Y731D02*
X1018Y731D01*
X1023Y731D02*
X1026Y731D01*
X1032Y731D02*
X1035Y731D01*
X1049Y731D02*
X1053Y731D01*
X1062Y731D02*
X1065Y731D01*
X1112Y731D02*
X1116Y731D01*
X1144Y731D02*
X1147Y731D01*
X1202Y731D02*
X1207Y731D01*
X1228Y731D02*
X1246Y731D01*
X1891Y731D02*
X1898Y731D01*
X1Y730D02*
X8Y730D01*
X686Y730D02*
X690Y730D01*
X698Y730D02*
X701Y730D01*
X722Y730D02*
X725Y730D01*
X744Y730D02*
X747Y730D01*
X752Y730D02*
X756Y730D01*
X761Y730D02*
X764Y730D01*
X782Y730D02*
X786Y730D01*
X837Y730D02*
X840Y730D01*
X848Y730D02*
X852Y730D01*
X873Y730D02*
X876Y730D01*
X895Y730D02*
X898Y730D01*
X903Y730D02*
X906Y730D01*
X911Y730D02*
X914Y730D01*
X926Y730D02*
X944Y730D01*
X985Y730D02*
X988Y730D01*
X1015Y730D02*
X1018Y730D01*
X1023Y730D02*
X1027Y730D01*
X1032Y730D02*
X1035Y730D01*
X1049Y730D02*
X1053Y730D01*
X1062Y730D02*
X1065Y730D01*
X1113Y730D02*
X1117Y730D01*
X1144Y730D02*
X1147Y730D01*
X1203Y730D02*
X1208Y730D01*
X1227Y730D02*
X1245Y730D01*
X1891Y730D02*
X1898Y730D01*
X1Y729D02*
X8Y729D01*
X687Y729D02*
X690Y729D01*
X697Y729D02*
X701Y729D01*
X722Y729D02*
X725Y729D01*
X744Y729D02*
X747Y729D01*
X752Y729D02*
X756Y729D01*
X761Y729D02*
X764Y729D01*
X782Y729D02*
X786Y729D01*
X837Y729D02*
X841Y729D01*
X848Y729D02*
X851Y729D01*
X873Y729D02*
X876Y729D01*
X895Y729D02*
X898Y729D01*
X903Y729D02*
X907Y729D01*
X911Y729D02*
X914Y729D01*
X925Y729D02*
X944Y729D01*
X985Y729D02*
X988Y729D01*
X1015Y729D02*
X1018Y729D01*
X1023Y729D02*
X1027Y729D01*
X1032Y729D02*
X1035Y729D01*
X1049Y729D02*
X1053Y729D01*
X1062Y729D02*
X1065Y729D01*
X1114Y729D02*
X1118Y729D01*
X1144Y729D02*
X1147Y729D01*
X1204Y729D02*
X1208Y729D01*
X1226Y729D02*
X1245Y729D01*
X1891Y729D02*
X1898Y729D01*
X1Y728D02*
X8Y728D01*
X687Y728D02*
X691Y728D01*
X697Y728D02*
X700Y728D01*
X722Y728D02*
X725Y728D01*
X744Y728D02*
X747Y728D01*
X753Y728D02*
X756Y728D01*
X761Y728D02*
X764Y728D01*
X782Y728D02*
X786Y728D01*
X792Y728D02*
X792Y728D01*
X838Y728D02*
X841Y728D01*
X848Y728D02*
X851Y728D01*
X873Y728D02*
X876Y728D01*
X895Y728D02*
X898Y728D01*
X903Y728D02*
X907Y728D01*
X911Y728D02*
X914Y728D01*
X925Y728D02*
X942Y728D01*
X985Y728D02*
X988Y728D01*
X997Y728D02*
X1005Y728D01*
X1015Y728D02*
X1018Y728D01*
X1024Y728D02*
X1028Y728D01*
X1032Y728D02*
X1035Y728D01*
X1049Y728D02*
X1053Y728D01*
X1062Y728D02*
X1065Y728D01*
X1114Y728D02*
X1119Y728D01*
X1144Y728D02*
X1147Y728D01*
X1154Y728D02*
X1154Y728D01*
X1205Y728D02*
X1209Y728D01*
X1226Y728D02*
X1244Y728D01*
X1891Y728D02*
X1898Y728D01*
X1Y727D02*
X8Y727D01*
X687Y727D02*
X691Y727D01*
X697Y727D02*
X700Y727D01*
X722Y727D02*
X725Y727D01*
X744Y727D02*
X747Y727D01*
X753Y727D02*
X757Y727D01*
X761Y727D02*
X764Y727D01*
X782Y727D02*
X786Y727D01*
X791Y727D02*
X794Y727D01*
X838Y727D02*
X842Y727D01*
X847Y727D02*
X851Y727D01*
X873Y727D02*
X876Y727D01*
X895Y727D02*
X898Y727D01*
X904Y727D02*
X908Y727D01*
X911Y727D02*
X914Y727D01*
X925Y727D02*
X928Y727D01*
X985Y727D02*
X988Y727D01*
X996Y727D02*
X1005Y727D01*
X1015Y727D02*
X1018Y727D01*
X1024Y727D02*
X1028Y727D01*
X1032Y727D02*
X1035Y727D01*
X1049Y727D02*
X1053Y727D01*
X1061Y727D02*
X1065Y727D01*
X1115Y727D02*
X1120Y727D01*
X1144Y727D02*
X1147Y727D01*
X1153Y727D02*
X1155Y727D01*
X1206Y727D02*
X1210Y727D01*
X1226Y727D02*
X1229Y727D01*
X1891Y727D02*
X1898Y727D01*
X1Y726D02*
X8Y726D01*
X688Y726D02*
X691Y726D01*
X696Y726D02*
X700Y726D01*
X722Y726D02*
X725Y726D01*
X744Y726D02*
X747Y726D01*
X754Y726D02*
X757Y726D01*
X761Y726D02*
X764Y726D01*
X782Y726D02*
X786Y726D01*
X791Y726D02*
X794Y726D01*
X838Y726D02*
X842Y726D01*
X847Y726D02*
X850Y726D01*
X873Y726D02*
X876Y726D01*
X895Y726D02*
X898Y726D01*
X904Y726D02*
X908Y726D01*
X911Y726D02*
X914Y726D01*
X925Y726D02*
X928Y726D01*
X985Y726D02*
X988Y726D01*
X995Y726D02*
X1005Y726D01*
X1015Y726D02*
X1018Y726D01*
X1025Y726D02*
X1028Y726D01*
X1032Y726D02*
X1035Y726D01*
X1049Y726D02*
X1053Y726D01*
X1061Y726D02*
X1064Y726D01*
X1116Y726D02*
X1120Y726D01*
X1144Y726D02*
X1147Y726D01*
X1152Y726D02*
X1155Y726D01*
X1206Y726D02*
X1211Y726D01*
X1226Y726D02*
X1229Y726D01*
X1891Y726D02*
X1898Y726D01*
X1Y725D02*
X8Y725D01*
X688Y725D02*
X692Y725D01*
X696Y725D02*
X699Y725D01*
X722Y725D02*
X725Y725D01*
X744Y725D02*
X747Y725D01*
X754Y725D02*
X758Y725D01*
X761Y725D02*
X764Y725D01*
X782Y725D02*
X786Y725D01*
X791Y725D02*
X794Y725D01*
X839Y725D02*
X842Y725D01*
X846Y725D02*
X850Y725D01*
X873Y725D02*
X876Y725D01*
X895Y725D02*
X898Y725D01*
X905Y725D02*
X908Y725D01*
X911Y725D02*
X914Y725D01*
X925Y725D02*
X928Y725D01*
X985Y725D02*
X988Y725D01*
X996Y725D02*
X1005Y725D01*
X1015Y725D02*
X1018Y725D01*
X1025Y725D02*
X1029Y725D01*
X1032Y725D02*
X1035Y725D01*
X1049Y725D02*
X1053Y725D01*
X1060Y725D02*
X1064Y725D01*
X1117Y725D02*
X1121Y725D01*
X1144Y725D02*
X1147Y725D01*
X1152Y725D02*
X1155Y725D01*
X1207Y725D02*
X1211Y725D01*
X1226Y725D02*
X1229Y725D01*
X1891Y725D02*
X1898Y725D01*
X1Y724D02*
X8Y724D01*
X689Y724D02*
X692Y724D01*
X695Y724D02*
X699Y724D01*
X722Y724D02*
X725Y724D01*
X744Y724D02*
X747Y724D01*
X755Y724D02*
X758Y724D01*
X761Y724D02*
X764Y724D01*
X782Y724D02*
X786Y724D01*
X791Y724D02*
X794Y724D01*
X839Y724D02*
X843Y724D01*
X846Y724D02*
X849Y724D01*
X873Y724D02*
X876Y724D01*
X895Y724D02*
X898Y724D01*
X905Y724D02*
X909Y724D01*
X911Y724D02*
X914Y724D01*
X925Y724D02*
X928Y724D01*
X985Y724D02*
X988Y724D01*
X997Y724D02*
X1005Y724D01*
X1015Y724D02*
X1018Y724D01*
X1026Y724D02*
X1029Y724D01*
X1032Y724D02*
X1035Y724D01*
X1049Y724D02*
X1053Y724D01*
X1060Y724D02*
X1063Y724D01*
X1117Y724D02*
X1122Y724D01*
X1144Y724D02*
X1147Y724D01*
X1152Y724D02*
X1155Y724D01*
X1208Y724D02*
X1212Y724D01*
X1226Y724D02*
X1229Y724D01*
X1891Y724D02*
X1898Y724D01*
X1Y723D02*
X8Y723D01*
X689Y723D02*
X693Y723D01*
X695Y723D02*
X699Y723D01*
X722Y723D02*
X725Y723D01*
X744Y723D02*
X747Y723D01*
X755Y723D02*
X759Y723D01*
X761Y723D02*
X764Y723D01*
X782Y723D02*
X786Y723D01*
X791Y723D02*
X794Y723D01*
X840Y723D02*
X843Y723D01*
X846Y723D02*
X849Y723D01*
X873Y723D02*
X876Y723D01*
X895Y723D02*
X898Y723D01*
X906Y723D02*
X909Y723D01*
X911Y723D02*
X914Y723D01*
X925Y723D02*
X928Y723D01*
X985Y723D02*
X988Y723D01*
X1002Y723D02*
X1005Y723D01*
X1015Y723D02*
X1018Y723D01*
X1026Y723D02*
X1030Y723D01*
X1032Y723D02*
X1035Y723D01*
X1049Y723D02*
X1053Y723D01*
X1059Y723D02*
X1063Y723D01*
X1118Y723D02*
X1123Y723D01*
X1144Y723D02*
X1147Y723D01*
X1152Y723D02*
X1155Y723D01*
X1209Y723D02*
X1213Y723D01*
X1226Y723D02*
X1229Y723D01*
X1891Y723D02*
X1898Y723D01*
X1Y722D02*
X8Y722D01*
X689Y722D02*
X693Y722D01*
X695Y722D02*
X698Y722D01*
X722Y722D02*
X725Y722D01*
X744Y722D02*
X747Y722D01*
X755Y722D02*
X759Y722D01*
X761Y722D02*
X764Y722D01*
X782Y722D02*
X786Y722D01*
X791Y722D02*
X794Y722D01*
X840Y722D02*
X849Y722D01*
X873Y722D02*
X876Y722D01*
X895Y722D02*
X898Y722D01*
X906Y722D02*
X914Y722D01*
X925Y722D02*
X928Y722D01*
X985Y722D02*
X988Y722D01*
X1002Y722D02*
X1005Y722D01*
X1015Y722D02*
X1018Y722D01*
X1027Y722D02*
X1030Y722D01*
X1032Y722D02*
X1035Y722D01*
X1049Y722D02*
X1053Y722D01*
X1059Y722D02*
X1062Y722D01*
X1119Y722D02*
X1123Y722D01*
X1144Y722D02*
X1147Y722D01*
X1152Y722D02*
X1155Y722D01*
X1209Y722D02*
X1214Y722D01*
X1226Y722D02*
X1229Y722D01*
X1891Y722D02*
X1898Y722D01*
X1Y721D02*
X8Y721D01*
X690Y721D02*
X698Y721D01*
X722Y721D02*
X725Y721D01*
X744Y721D02*
X747Y721D01*
X756Y721D02*
X764Y721D01*
X782Y721D02*
X786Y721D01*
X791Y721D02*
X794Y721D01*
X840Y721D02*
X848Y721D01*
X873Y721D02*
X876Y721D01*
X895Y721D02*
X898Y721D01*
X907Y721D02*
X914Y721D01*
X925Y721D02*
X928Y721D01*
X985Y721D02*
X988Y721D01*
X1002Y721D02*
X1005Y721D01*
X1015Y721D02*
X1018Y721D01*
X1027Y721D02*
X1035Y721D01*
X1049Y721D02*
X1053Y721D01*
X1058Y721D02*
X1062Y721D01*
X1120Y721D02*
X1124Y721D01*
X1144Y721D02*
X1147Y721D01*
X1152Y721D02*
X1155Y721D01*
X1210Y721D02*
X1215Y721D01*
X1226Y721D02*
X1229Y721D01*
X1891Y721D02*
X1898Y721D01*
X1Y720D02*
X8Y720D01*
X690Y720D02*
X697Y720D01*
X722Y720D02*
X725Y720D01*
X744Y720D02*
X747Y720D01*
X756Y720D02*
X764Y720D01*
X782Y720D02*
X786Y720D01*
X791Y720D02*
X794Y720D01*
X841Y720D02*
X848Y720D01*
X873Y720D02*
X876Y720D01*
X895Y720D02*
X898Y720D01*
X907Y720D02*
X914Y720D01*
X925Y720D02*
X928Y720D01*
X985Y720D02*
X988Y720D01*
X1002Y720D02*
X1005Y720D01*
X1015Y720D02*
X1018Y720D01*
X1027Y720D02*
X1035Y720D01*
X1049Y720D02*
X1053Y720D01*
X1058Y720D02*
X1061Y720D01*
X1106Y720D02*
X1108Y720D01*
X1121Y720D02*
X1125Y720D01*
X1144Y720D02*
X1147Y720D01*
X1152Y720D02*
X1155Y720D01*
X1196Y720D02*
X1199Y720D01*
X1211Y720D02*
X1215Y720D01*
X1226Y720D02*
X1229Y720D01*
X1891Y720D02*
X1898Y720D01*
X1Y719D02*
X8Y719D01*
X691Y719D02*
X697Y719D01*
X722Y719D02*
X725Y719D01*
X744Y719D02*
X747Y719D01*
X757Y719D02*
X764Y719D01*
X782Y719D02*
X786Y719D01*
X791Y719D02*
X794Y719D01*
X841Y719D02*
X848Y719D01*
X873Y719D02*
X876Y719D01*
X895Y719D02*
X898Y719D01*
X907Y719D02*
X914Y719D01*
X925Y719D02*
X928Y719D01*
X985Y719D02*
X988Y719D01*
X1002Y719D02*
X1005Y719D01*
X1015Y719D02*
X1018Y719D01*
X1028Y719D02*
X1035Y719D01*
X1049Y719D02*
X1053Y719D01*
X1057Y719D02*
X1061Y719D01*
X1106Y719D02*
X1109Y719D01*
X1121Y719D02*
X1125Y719D01*
X1144Y719D02*
X1147Y719D01*
X1152Y719D02*
X1155Y719D01*
X1196Y719D02*
X1199Y719D01*
X1212Y719D02*
X1216Y719D01*
X1226Y719D02*
X1229Y719D01*
X1891Y719D02*
X1898Y719D01*
X1Y718D02*
X8Y718D01*
X691Y718D02*
X697Y718D01*
X722Y718D02*
X725Y718D01*
X744Y718D02*
X747Y718D01*
X757Y718D02*
X764Y718D01*
X782Y718D02*
X786Y718D01*
X791Y718D02*
X794Y718D01*
X842Y718D02*
X847Y718D01*
X873Y718D02*
X876Y718D01*
X895Y718D02*
X898Y718D01*
X908Y718D02*
X914Y718D01*
X925Y718D02*
X928Y718D01*
X985Y718D02*
X989Y718D01*
X1001Y718D02*
X1005Y718D01*
X1015Y718D02*
X1018Y718D01*
X1028Y718D02*
X1035Y718D01*
X1049Y718D02*
X1053Y718D01*
X1056Y718D02*
X1060Y718D01*
X1106Y718D02*
X1109Y718D01*
X1122Y718D02*
X1125Y718D01*
X1144Y718D02*
X1147Y718D01*
X1152Y718D02*
X1155Y718D01*
X1196Y718D02*
X1200Y718D01*
X1212Y718D02*
X1216Y718D01*
X1226Y718D02*
X1229Y718D01*
X1891Y718D02*
X1898Y718D01*
X1Y717D02*
X8Y717D01*
X691Y717D02*
X696Y717D01*
X715Y717D02*
X733Y717D01*
X744Y717D02*
X747Y717D01*
X758Y717D02*
X764Y717D01*
X775Y717D02*
X794Y717D01*
X842Y717D02*
X847Y717D01*
X865Y717D02*
X883Y717D01*
X895Y717D02*
X898Y717D01*
X908Y717D02*
X914Y717D01*
X925Y717D02*
X944Y717D01*
X986Y717D02*
X1004Y717D01*
X1015Y717D02*
X1018Y717D01*
X1029Y717D02*
X1035Y717D01*
X1046Y717D02*
X1060Y717D01*
X1106Y717D02*
X1125Y717D01*
X1137Y717D02*
X1155Y717D01*
X1196Y717D02*
X1215Y717D01*
X1226Y717D02*
X1245Y717D01*
X1891Y717D02*
X1898Y717D01*
X1Y716D02*
X8Y716D01*
X692Y716D02*
X696Y716D01*
X714Y716D02*
X734Y716D01*
X744Y716D02*
X747Y716D01*
X758Y716D02*
X764Y716D01*
X774Y716D02*
X794Y716D01*
X842Y716D02*
X846Y716D01*
X865Y716D02*
X884Y716D01*
X895Y716D02*
X898Y716D01*
X909Y716D02*
X914Y716D01*
X925Y716D02*
X944Y716D01*
X986Y716D02*
X1004Y716D01*
X1015Y716D02*
X1018Y716D01*
X1029Y716D02*
X1035Y716D01*
X1045Y716D02*
X1059Y716D01*
X1107Y716D02*
X1125Y716D01*
X1136Y716D02*
X1155Y716D01*
X1197Y716D02*
X1215Y716D01*
X1226Y716D02*
X1246Y716D01*
X1891Y716D02*
X1898Y716D01*
X1Y715D02*
X8Y715D01*
X692Y715D02*
X695Y715D01*
X714Y715D02*
X734Y715D01*
X744Y715D02*
X747Y715D01*
X759Y715D02*
X764Y715D01*
X774Y715D02*
X794Y715D01*
X843Y715D02*
X846Y715D01*
X865Y715D02*
X884Y715D01*
X895Y715D02*
X898Y715D01*
X909Y715D02*
X914Y715D01*
X925Y715D02*
X945Y715D01*
X987Y715D02*
X1003Y715D01*
X1015Y715D02*
X1018Y715D01*
X1030Y715D02*
X1035Y715D01*
X1045Y715D02*
X1059Y715D01*
X1107Y715D02*
X1124Y715D01*
X1136Y715D02*
X1155Y715D01*
X1198Y715D02*
X1214Y715D01*
X1226Y715D02*
X1246Y715D01*
X1891Y715D02*
X1898Y715D01*
X1Y714D02*
X8Y714D01*
X693Y714D02*
X695Y714D01*
X715Y714D02*
X733Y714D01*
X745Y714D02*
X747Y714D01*
X759Y714D02*
X764Y714D01*
X775Y714D02*
X793Y714D01*
X843Y714D02*
X845Y714D01*
X865Y714D02*
X884Y714D01*
X895Y714D02*
X897Y714D01*
X910Y714D02*
X914Y714D01*
X925Y714D02*
X944Y714D01*
X989Y714D02*
X1001Y714D01*
X1016Y714D02*
X1018Y714D01*
X1030Y714D02*
X1035Y714D01*
X1046Y714D02*
X1057Y714D01*
X1109Y714D02*
X1123Y714D01*
X1136Y714D02*
X1155Y714D01*
X1199Y714D02*
X1213Y714D01*
X1226Y714D02*
X1245Y714D01*
X1891Y714D02*
X1898Y714D01*
X1Y713D02*
X8Y713D01*
X1891Y713D02*
X1898Y713D01*
X1Y712D02*
X8Y712D01*
X1891Y712D02*
X1898Y712D01*
X1Y711D02*
X8Y711D01*
X1891Y711D02*
X1898Y711D01*
X1Y710D02*
X8Y710D01*
X1891Y710D02*
X1898Y710D01*
X1Y709D02*
X8Y709D01*
X1891Y709D02*
X1898Y709D01*
X1Y708D02*
X8Y708D01*
X1891Y708D02*
X1898Y708D01*
X1Y707D02*
X8Y707D01*
X1891Y707D02*
X1898Y707D01*
X1Y706D02*
X8Y706D01*
X1891Y706D02*
X1898Y706D01*
X1Y705D02*
X8Y705D01*
X1891Y705D02*
X1898Y705D01*
X1Y704D02*
X8Y704D01*
X1891Y704D02*
X1898Y704D01*
X1Y703D02*
X8Y703D01*
X1891Y703D02*
X1898Y703D01*
X1Y702D02*
X8Y702D01*
X1891Y702D02*
X1898Y702D01*
X1Y701D02*
X8Y701D01*
X1891Y701D02*
X1898Y701D01*
X1Y700D02*
X8Y700D01*
X1891Y700D02*
X1898Y700D01*
X1Y699D02*
X8Y699D01*
X1891Y699D02*
X1898Y699D01*
X1Y698D02*
X8Y698D01*
X1891Y698D02*
X1898Y698D01*
X1Y697D02*
X8Y697D01*
X1891Y697D02*
X1898Y697D01*
X1Y696D02*
X8Y696D01*
X1891Y696D02*
X1898Y696D01*
X1Y695D02*
X8Y695D01*
X1891Y695D02*
X1898Y695D01*
X1Y694D02*
X8Y694D01*
X1891Y694D02*
X1898Y694D01*
X1Y693D02*
X8Y693D01*
X1891Y693D02*
X1898Y693D01*
X1Y692D02*
X8Y692D01*
X1891Y692D02*
X1898Y692D01*
X1Y691D02*
X8Y691D01*
X1891Y691D02*
X1898Y691D01*
X1Y690D02*
X8Y690D01*
X1891Y690D02*
X1898Y690D01*
X1Y689D02*
X8Y689D01*
X1891Y689D02*
X1898Y689D01*
X1Y688D02*
X8Y688D01*
X1891Y688D02*
X1898Y688D01*
X1Y687D02*
X8Y687D01*
X1891Y687D02*
X1898Y687D01*
X1Y686D02*
X8Y686D01*
X1891Y686D02*
X1898Y686D01*
X1Y685D02*
X8Y685D01*
X1891Y685D02*
X1898Y685D01*
X1Y684D02*
X8Y684D01*
X1891Y684D02*
X1898Y684D01*
X1Y683D02*
X8Y683D01*
X1891Y683D02*
X1898Y683D01*
X1Y682D02*
X8Y682D01*
X1891Y682D02*
X1898Y682D01*
X1Y681D02*
X8Y681D01*
X1891Y681D02*
X1898Y681D01*
X1Y680D02*
X8Y680D01*
X1891Y680D02*
X1898Y680D01*
X1Y679D02*
X8Y679D01*
X1891Y679D02*
X1898Y679D01*
X1Y678D02*
X8Y678D01*
X1891Y678D02*
X1898Y678D01*
X1Y677D02*
X8Y677D01*
X1891Y677D02*
X1898Y677D01*
X1Y676D02*
X8Y676D01*
X1891Y676D02*
X1898Y676D01*
X1Y675D02*
X8Y675D01*
X1891Y675D02*
X1898Y675D01*
X1Y674D02*
X8Y674D01*
X1891Y674D02*
X1898Y674D01*
X1Y673D02*
X8Y673D01*
X1891Y673D02*
X1898Y673D01*
X1Y672D02*
X8Y672D01*
X1891Y672D02*
X1898Y672D01*
X1Y671D02*
X8Y671D01*
X1891Y671D02*
X1898Y671D01*
X1Y670D02*
X8Y670D01*
X1891Y670D02*
X1898Y670D01*
X1Y669D02*
X8Y669D01*
X1891Y669D02*
X1898Y669D01*
X1Y668D02*
X8Y668D01*
X1891Y668D02*
X1898Y668D01*
X1Y667D02*
X8Y667D01*
X244Y667D02*
X266Y667D01*
X291Y667D02*
X309Y667D01*
X1891Y667D02*
X1898Y667D01*
X1Y666D02*
X8Y666D01*
X242Y666D02*
X268Y666D01*
X290Y666D02*
X309Y666D01*
X1891Y666D02*
X1898Y666D01*
X1Y665D02*
X8Y665D01*
X241Y665D02*
X270Y665D01*
X289Y665D02*
X309Y665D01*
X1891Y665D02*
X1898Y665D01*
X1Y664D02*
X8Y664D01*
X240Y664D02*
X270Y664D01*
X289Y664D02*
X309Y664D01*
X1891Y664D02*
X1898Y664D01*
X1Y663D02*
X8Y663D01*
X240Y663D02*
X271Y663D01*
X289Y663D02*
X309Y663D01*
X1891Y663D02*
X1898Y663D01*
X1Y662D02*
X8Y662D01*
X239Y662D02*
X272Y662D01*
X290Y662D02*
X309Y662D01*
X1891Y662D02*
X1898Y662D01*
X1Y661D02*
X8Y661D01*
X239Y661D02*
X272Y661D01*
X291Y661D02*
X309Y661D01*
X1891Y661D02*
X1898Y661D01*
X1Y660D02*
X8Y660D01*
X239Y660D02*
X245Y660D01*
X266Y660D02*
X272Y660D01*
X303Y660D02*
X309Y660D01*
X1891Y660D02*
X1898Y660D01*
X1Y659D02*
X8Y659D01*
X239Y659D02*
X245Y659D01*
X266Y659D02*
X272Y659D01*
X303Y659D02*
X309Y659D01*
X1578Y659D02*
X1601Y659D01*
X1625Y659D02*
X1653Y659D01*
X1891Y659D02*
X1898Y659D01*
X1Y658D02*
X8Y658D01*
X239Y658D02*
X246Y658D01*
X267Y658D02*
X272Y658D01*
X303Y658D02*
X309Y658D01*
X1577Y658D02*
X1603Y658D01*
X1624Y658D02*
X1655Y658D01*
X1891Y658D02*
X1898Y658D01*
X1Y657D02*
X8Y657D01*
X239Y657D02*
X247Y657D01*
X267Y657D02*
X272Y657D01*
X303Y657D02*
X309Y657D01*
X1576Y657D02*
X1604Y657D01*
X1624Y657D02*
X1656Y657D01*
X1891Y657D02*
X1898Y657D01*
X1Y656D02*
X8Y656D01*
X240Y656D02*
X248Y656D01*
X267Y656D02*
X272Y656D01*
X303Y656D02*
X309Y656D01*
X1575Y656D02*
X1605Y656D01*
X1624Y656D02*
X1657Y656D01*
X1891Y656D02*
X1898Y656D01*
X1Y655D02*
X8Y655D01*
X240Y655D02*
X248Y655D01*
X269Y655D02*
X270Y655D01*
X303Y655D02*
X309Y655D01*
X1574Y655D02*
X1606Y655D01*
X1624Y655D02*
X1657Y655D01*
X1891Y655D02*
X1898Y655D01*
X1Y654D02*
X8Y654D01*
X241Y654D02*
X249Y654D01*
X303Y654D02*
X309Y654D01*
X1574Y654D02*
X1607Y654D01*
X1625Y654D02*
X1657Y654D01*
X1891Y654D02*
X1898Y654D01*
X1Y653D02*
X8Y653D01*
X242Y653D02*
X250Y653D01*
X303Y653D02*
X309Y653D01*
X1574Y653D02*
X1607Y653D01*
X1626Y653D02*
X1657Y653D01*
X1891Y653D02*
X1898Y653D01*
X1Y652D02*
X8Y652D01*
X243Y652D02*
X251Y652D01*
X303Y652D02*
X309Y652D01*
X1574Y652D02*
X1580Y652D01*
X1600Y652D02*
X1607Y652D01*
X1651Y652D02*
X1658Y652D01*
X1891Y652D02*
X1898Y652D01*
X1Y651D02*
X8Y651D01*
X244Y651D02*
X252Y651D01*
X303Y651D02*
X309Y651D01*
X1574Y651D02*
X1580Y651D01*
X1601Y651D02*
X1607Y651D01*
X1651Y651D02*
X1658Y651D01*
X1891Y651D02*
X1898Y651D01*
X1Y650D02*
X8Y650D01*
X244Y650D02*
X252Y650D01*
X303Y650D02*
X309Y650D01*
X1574Y650D02*
X1581Y650D01*
X1601Y650D02*
X1607Y650D01*
X1651Y650D02*
X1658Y650D01*
X1891Y650D02*
X1898Y650D01*
X1Y649D02*
X8Y649D01*
X245Y649D02*
X253Y649D01*
X303Y649D02*
X309Y649D01*
X1574Y649D02*
X1582Y649D01*
X1602Y649D02*
X1607Y649D01*
X1651Y649D02*
X1658Y649D01*
X1891Y649D02*
X1898Y649D01*
X1Y648D02*
X8Y648D01*
X246Y648D02*
X254Y648D01*
X303Y648D02*
X309Y648D01*
X1575Y648D02*
X1582Y648D01*
X1602Y648D02*
X1606Y648D01*
X1651Y648D02*
X1658Y648D01*
X1891Y648D02*
X1898Y648D01*
X1Y647D02*
X8Y647D01*
X247Y647D02*
X255Y647D01*
X303Y647D02*
X309Y647D01*
X1575Y647D02*
X1583Y647D01*
X1604Y647D02*
X1605Y647D01*
X1651Y647D02*
X1658Y647D01*
X1891Y647D02*
X1898Y647D01*
X1Y646D02*
X8Y646D01*
X247Y646D02*
X255Y646D01*
X303Y646D02*
X309Y646D01*
X1576Y646D02*
X1584Y646D01*
X1651Y646D02*
X1658Y646D01*
X1891Y646D02*
X1898Y646D01*
X1Y645D02*
X8Y645D01*
X248Y645D02*
X256Y645D01*
X303Y645D02*
X309Y645D01*
X1577Y645D02*
X1585Y645D01*
X1651Y645D02*
X1658Y645D01*
X1891Y645D02*
X1898Y645D01*
X1Y644D02*
X8Y644D01*
X249Y644D02*
X257Y644D01*
X303Y644D02*
X309Y644D01*
X1578Y644D02*
X1586Y644D01*
X1651Y644D02*
X1658Y644D01*
X1891Y644D02*
X1898Y644D01*
X1Y643D02*
X8Y643D01*
X250Y643D02*
X258Y643D01*
X303Y643D02*
X309Y643D01*
X1578Y643D02*
X1586Y643D01*
X1651Y643D02*
X1658Y643D01*
X1891Y643D02*
X1898Y643D01*
X1Y642D02*
X8Y642D01*
X251Y642D02*
X259Y642D01*
X303Y642D02*
X309Y642D01*
X1579Y642D02*
X1587Y642D01*
X1651Y642D02*
X1658Y642D01*
X1891Y642D02*
X1898Y642D01*
X1Y641D02*
X8Y641D01*
X251Y641D02*
X259Y641D01*
X303Y641D02*
X309Y641D01*
X1580Y641D02*
X1588Y641D01*
X1651Y641D02*
X1658Y641D01*
X1891Y641D02*
X1898Y641D01*
X1Y640D02*
X8Y640D01*
X252Y640D02*
X260Y640D01*
X303Y640D02*
X309Y640D01*
X1581Y640D02*
X1589Y640D01*
X1651Y640D02*
X1658Y640D01*
X1891Y640D02*
X1898Y640D01*
X1Y639D02*
X8Y639D01*
X253Y639D02*
X261Y639D01*
X303Y639D02*
X309Y639D01*
X1581Y639D02*
X1589Y639D01*
X1651Y639D02*
X1658Y639D01*
X1891Y639D02*
X1898Y639D01*
X1Y638D02*
X8Y638D01*
X254Y638D02*
X262Y638D01*
X303Y638D02*
X309Y638D01*
X319Y638D02*
X320Y638D01*
X1582Y638D02*
X1590Y638D01*
X1651Y638D02*
X1658Y638D01*
X1891Y638D02*
X1898Y638D01*
X1Y637D02*
X8Y637D01*
X254Y637D02*
X262Y637D01*
X303Y637D02*
X309Y637D01*
X318Y637D02*
X322Y637D01*
X1583Y637D02*
X1591Y637D01*
X1651Y637D02*
X1658Y637D01*
X1891Y637D02*
X1898Y637D01*
X1Y636D02*
X8Y636D01*
X255Y636D02*
X263Y636D01*
X303Y636D02*
X309Y636D01*
X317Y636D02*
X322Y636D01*
X1584Y636D02*
X1592Y636D01*
X1630Y636D02*
X1657Y636D01*
X1891Y636D02*
X1898Y636D01*
X1Y635D02*
X8Y635D01*
X256Y635D02*
X264Y635D01*
X303Y635D02*
X309Y635D01*
X317Y635D02*
X323Y635D01*
X1585Y635D02*
X1593Y635D01*
X1627Y635D02*
X1657Y635D01*
X1891Y635D02*
X1898Y635D01*
X1Y634D02*
X8Y634D01*
X257Y634D02*
X265Y634D01*
X303Y634D02*
X309Y634D01*
X317Y634D02*
X323Y634D01*
X756Y634D02*
X756Y634D01*
X1585Y634D02*
X1593Y634D01*
X1626Y634D02*
X1657Y634D01*
X1891Y634D02*
X1898Y634D01*
X1Y633D02*
X8Y633D01*
X257Y633D02*
X266Y633D01*
X303Y633D02*
X309Y633D01*
X317Y633D02*
X323Y633D01*
X755Y633D02*
X757Y633D01*
X1586Y633D02*
X1594Y633D01*
X1625Y633D02*
X1657Y633D01*
X1891Y633D02*
X1898Y633D01*
X1Y632D02*
X8Y632D01*
X258Y632D02*
X266Y632D01*
X303Y632D02*
X309Y632D01*
X317Y632D02*
X323Y632D01*
X754Y632D02*
X758Y632D01*
X1587Y632D02*
X1595Y632D01*
X1625Y632D02*
X1656Y632D01*
X1891Y632D02*
X1898Y632D01*
X1Y631D02*
X8Y631D01*
X259Y631D02*
X267Y631D01*
X303Y631D02*
X309Y631D01*
X317Y631D02*
X323Y631D01*
X753Y631D02*
X759Y631D01*
X1588Y631D02*
X1596Y631D01*
X1624Y631D02*
X1655Y631D01*
X1891Y631D02*
X1898Y631D01*
X1Y630D02*
X8Y630D01*
X260Y630D02*
X268Y630D01*
X303Y630D02*
X309Y630D01*
X317Y630D02*
X323Y630D01*
X753Y630D02*
X760Y630D01*
X1588Y630D02*
X1596Y630D01*
X1624Y630D02*
X1654Y630D01*
X1891Y630D02*
X1898Y630D01*
X1Y629D02*
X8Y629D01*
X261Y629D02*
X269Y629D01*
X303Y629D02*
X309Y629D01*
X317Y629D02*
X323Y629D01*
X754Y629D02*
X761Y629D01*
X1589Y629D02*
X1597Y629D01*
X1624Y629D02*
X1630Y629D01*
X1891Y629D02*
X1898Y629D01*
X1Y628D02*
X8Y628D01*
X261Y628D02*
X269Y628D01*
X303Y628D02*
X309Y628D01*
X317Y628D02*
X323Y628D01*
X755Y628D02*
X762Y628D01*
X1590Y628D02*
X1598Y628D01*
X1624Y628D02*
X1630Y628D01*
X1891Y628D02*
X1898Y628D01*
X1Y627D02*
X8Y627D01*
X262Y627D02*
X270Y627D01*
X303Y627D02*
X309Y627D01*
X317Y627D02*
X323Y627D01*
X756Y627D02*
X763Y627D01*
X1591Y627D02*
X1599Y627D01*
X1624Y627D02*
X1630Y627D01*
X1891Y627D02*
X1898Y627D01*
X1Y626D02*
X8Y626D01*
X241Y626D02*
X243Y626D01*
X263Y626D02*
X271Y626D01*
X303Y626D02*
X309Y626D01*
X317Y626D02*
X323Y626D01*
X757Y626D02*
X764Y626D01*
X1592Y626D02*
X1600Y626D01*
X1624Y626D02*
X1630Y626D01*
X1891Y626D02*
X1898Y626D01*
X1Y625D02*
X8Y625D01*
X240Y625D02*
X244Y625D01*
X264Y625D02*
X272Y625D01*
X303Y625D02*
X309Y625D01*
X317Y625D02*
X323Y625D01*
X758Y625D02*
X765Y625D01*
X1592Y625D02*
X1600Y625D01*
X1624Y625D02*
X1630Y625D01*
X1891Y625D02*
X1898Y625D01*
X1Y624D02*
X8Y624D01*
X239Y624D02*
X245Y624D01*
X264Y624D02*
X272Y624D01*
X303Y624D02*
X309Y624D01*
X317Y624D02*
X323Y624D01*
X759Y624D02*
X766Y624D01*
X1593Y624D02*
X1601Y624D01*
X1624Y624D02*
X1630Y624D01*
X1891Y624D02*
X1898Y624D01*
X1Y623D02*
X8Y623D01*
X239Y623D02*
X245Y623D01*
X265Y623D02*
X272Y623D01*
X303Y623D02*
X309Y623D01*
X317Y623D02*
X323Y623D01*
X760Y623D02*
X767Y623D01*
X1594Y623D02*
X1602Y623D01*
X1624Y623D02*
X1630Y623D01*
X1891Y623D02*
X1898Y623D01*
X1Y622D02*
X8Y622D01*
X239Y622D02*
X245Y622D01*
X266Y622D02*
X272Y622D01*
X303Y622D02*
X309Y622D01*
X317Y622D02*
X323Y622D01*
X761Y622D02*
X768Y622D01*
X1595Y622D02*
X1603Y622D01*
X1624Y622D02*
X1630Y622D01*
X1891Y622D02*
X1898Y622D01*
X1Y621D02*
X8Y621D01*
X239Y621D02*
X246Y621D01*
X266Y621D02*
X272Y621D01*
X303Y621D02*
X309Y621D01*
X317Y621D02*
X323Y621D01*
X762Y621D02*
X768Y621D01*
X1595Y621D02*
X1603Y621D01*
X1624Y621D02*
X1630Y621D01*
X1891Y621D02*
X1898Y621D01*
X1Y620D02*
X8Y620D01*
X239Y620D02*
X272Y620D01*
X291Y620D02*
X323Y620D01*
X763Y620D02*
X769Y620D01*
X1596Y620D02*
X1604Y620D01*
X1624Y620D02*
X1630Y620D01*
X1891Y620D02*
X1898Y620D01*
X1Y619D02*
X8Y619D01*
X240Y619D02*
X272Y619D01*
X290Y619D02*
X323Y619D01*
X764Y619D02*
X770Y619D01*
X1597Y619D02*
X1605Y619D01*
X1624Y619D02*
X1630Y619D01*
X1891Y619D02*
X1898Y619D01*
X1Y618D02*
X8Y618D01*
X240Y618D02*
X272Y618D01*
X289Y618D02*
X323Y618D01*
X765Y618D02*
X771Y618D01*
X1576Y618D02*
X1578Y618D01*
X1598Y618D02*
X1606Y618D01*
X1624Y618D02*
X1630Y618D01*
X1891Y618D02*
X1898Y618D01*
X1Y617D02*
X8Y617D01*
X241Y617D02*
X271Y617D01*
X289Y617D02*
X323Y617D01*
X766Y617D02*
X772Y617D01*
X1574Y617D02*
X1579Y617D01*
X1599Y617D02*
X1606Y617D01*
X1624Y617D02*
X1630Y617D01*
X1891Y617D02*
X1898Y617D01*
X1Y616D02*
X8Y616D01*
X242Y616D02*
X270Y616D01*
X289Y616D02*
X323Y616D01*
X767Y616D02*
X773Y616D01*
X1574Y616D02*
X1580Y616D01*
X1599Y616D02*
X1607Y616D01*
X1624Y616D02*
X1630Y616D01*
X1891Y616D02*
X1898Y616D01*
X1Y615D02*
X8Y615D01*
X243Y615D02*
X269Y615D01*
X290Y615D02*
X322Y615D01*
X768Y615D02*
X774Y615D01*
X1574Y615D02*
X1580Y615D01*
X1600Y615D02*
X1607Y615D01*
X1624Y615D02*
X1630Y615D01*
X1891Y615D02*
X1898Y615D01*
X1Y614D02*
X8Y614D01*
X245Y614D02*
X267Y614D01*
X291Y614D02*
X321Y614D01*
X769Y614D02*
X775Y614D01*
X1574Y614D02*
X1580Y614D01*
X1601Y614D02*
X1607Y614D01*
X1624Y614D02*
X1630Y614D01*
X1891Y614D02*
X1898Y614D01*
X1Y613D02*
X8Y613D01*
X770Y613D02*
X776Y613D01*
X1574Y613D02*
X1581Y613D01*
X1601Y613D02*
X1607Y613D01*
X1624Y613D02*
X1630Y613D01*
X1891Y613D02*
X1898Y613D01*
X1Y612D02*
X8Y612D01*
X771Y612D02*
X778Y612D01*
X1574Y612D02*
X1607Y612D01*
X1624Y612D02*
X1656Y612D01*
X1891Y612D02*
X1898Y612D01*
X1Y611D02*
X8Y611D01*
X772Y611D02*
X779Y611D01*
X1575Y611D02*
X1607Y611D01*
X1624Y611D02*
X1657Y611D01*
X1891Y611D02*
X1898Y611D01*
X1Y610D02*
X8Y610D01*
X773Y610D02*
X780Y610D01*
X1575Y610D02*
X1606Y610D01*
X1624Y610D02*
X1657Y610D01*
X1891Y610D02*
X1898Y610D01*
X1Y609D02*
X8Y609D01*
X774Y609D02*
X781Y609D01*
X1576Y609D02*
X1606Y609D01*
X1624Y609D02*
X1657Y609D01*
X1891Y609D02*
X1898Y609D01*
X1Y608D02*
X8Y608D01*
X775Y608D02*
X782Y608D01*
X1577Y608D02*
X1605Y608D01*
X1624Y608D02*
X1657Y608D01*
X1891Y608D02*
X1898Y608D01*
X1Y607D02*
X8Y607D01*
X776Y607D02*
X783Y607D01*
X1578Y607D02*
X1604Y607D01*
X1624Y607D02*
X1657Y607D01*
X1891Y607D02*
X1898Y607D01*
X1Y606D02*
X8Y606D01*
X777Y606D02*
X784Y606D01*
X1580Y606D02*
X1602Y606D01*
X1624Y606D02*
X1656Y606D01*
X1891Y606D02*
X1898Y606D01*
X1Y605D02*
X8Y605D01*
X778Y605D02*
X785Y605D01*
X1891Y605D02*
X1898Y605D01*
X1Y604D02*
X8Y604D01*
X779Y604D02*
X786Y604D01*
X1891Y604D02*
X1898Y604D01*
X1Y603D02*
X8Y603D01*
X780Y603D02*
X787Y603D01*
X1891Y603D02*
X1898Y603D01*
X1Y602D02*
X8Y602D01*
X781Y602D02*
X788Y602D01*
X1891Y602D02*
X1898Y602D01*
X1Y601D02*
X8Y601D01*
X782Y601D02*
X789Y601D01*
X1891Y601D02*
X1898Y601D01*
X1Y600D02*
X8Y600D01*
X783Y600D02*
X790Y600D01*
X1891Y600D02*
X1898Y600D01*
X1Y599D02*
X8Y599D01*
X784Y599D02*
X790Y599D01*
X1891Y599D02*
X1898Y599D01*
X1Y598D02*
X8Y598D01*
X785Y598D02*
X789Y598D01*
X1891Y598D02*
X1898Y598D01*
X1Y597D02*
X8Y597D01*
X786Y597D02*
X788Y597D01*
X1891Y597D02*
X1898Y597D01*
X1Y596D02*
X8Y596D01*
X1891Y596D02*
X1898Y596D01*
X1Y595D02*
X8Y595D01*
X1891Y595D02*
X1898Y595D01*
X1Y594D02*
X8Y594D01*
X1891Y594D02*
X1898Y594D01*
X1Y593D02*
X8Y593D01*
X1891Y593D02*
X1898Y593D01*
X1Y592D02*
X8Y592D01*
X1891Y592D02*
X1898Y592D01*
X1Y591D02*
X8Y591D01*
X1891Y591D02*
X1898Y591D01*
X1Y590D02*
X8Y590D01*
X1891Y590D02*
X1898Y590D01*
X1Y589D02*
X8Y589D01*
X256Y589D02*
X260Y589D01*
X655Y589D02*
X660Y589D01*
X1256Y589D02*
X1260Y589D01*
X1655Y589D02*
X1660Y589D01*
X1891Y589D02*
X1898Y589D01*
X1Y588D02*
X8Y588D01*
X251Y588D02*
X261Y588D01*
X655Y588D02*
X665Y588D01*
X1251Y588D02*
X1260Y588D01*
X1655Y588D02*
X1665Y588D01*
X1891Y588D02*
X1898Y588D01*
X1Y587D02*
X8Y587D01*
X248Y587D02*
X261Y587D01*
X655Y587D02*
X668Y587D01*
X1247Y587D02*
X1260Y587D01*
X1655Y587D02*
X1668Y587D01*
X1891Y587D02*
X1898Y587D01*
X1Y586D02*
X8Y586D01*
X245Y586D02*
X261Y586D01*
X655Y586D02*
X671Y586D01*
X1245Y586D02*
X1260Y586D01*
X1655Y586D02*
X1671Y586D01*
X1891Y586D02*
X1898Y586D01*
X1Y585D02*
X8Y585D01*
X243Y585D02*
X261Y585D01*
X655Y585D02*
X673Y585D01*
X1243Y585D02*
X1260Y585D01*
X1655Y585D02*
X1673Y585D01*
X1891Y585D02*
X1898Y585D01*
X1Y584D02*
X8Y584D01*
X241Y584D02*
X261Y584D01*
X655Y584D02*
X675Y584D01*
X1241Y584D02*
X1260Y584D01*
X1655Y584D02*
X1675Y584D01*
X1891Y584D02*
X1898Y584D01*
X1Y583D02*
X8Y583D01*
X239Y583D02*
X261Y583D01*
X655Y583D02*
X677Y583D01*
X1239Y583D02*
X1260Y583D01*
X1655Y583D02*
X1677Y583D01*
X1891Y583D02*
X1898Y583D01*
X1Y582D02*
X8Y582D01*
X237Y582D02*
X261Y582D01*
X655Y582D02*
X678Y582D01*
X1237Y582D02*
X1260Y582D01*
X1655Y582D02*
X1678Y582D01*
X1891Y582D02*
X1898Y582D01*
X1Y581D02*
X8Y581D01*
X236Y581D02*
X255Y581D01*
X661Y581D02*
X680Y581D01*
X1236Y581D02*
X1255Y581D01*
X1661Y581D02*
X1680Y581D01*
X1891Y581D02*
X1898Y581D01*
X1Y580D02*
X8Y580D01*
X235Y580D02*
X250Y580D01*
X665Y580D02*
X681Y580D01*
X1235Y580D02*
X1250Y580D01*
X1665Y580D02*
X1681Y580D01*
X1891Y580D02*
X1898Y580D01*
X1Y579D02*
X8Y579D01*
X233Y579D02*
X248Y579D01*
X668Y579D02*
X682Y579D01*
X1233Y579D02*
X1247Y579D01*
X1668Y579D02*
X1682Y579D01*
X1891Y579D02*
X1898Y579D01*
X1Y578D02*
X8Y578D01*
X232Y578D02*
X245Y578D01*
X670Y578D02*
X683Y578D01*
X1232Y578D02*
X1245Y578D01*
X1670Y578D02*
X1683Y578D01*
X1891Y578D02*
X1898Y578D01*
X1Y577D02*
X8Y577D01*
X231Y577D02*
X243Y577D01*
X672Y577D02*
X685Y577D01*
X1231Y577D02*
X1243Y577D01*
X1672Y577D02*
X1684Y577D01*
X1891Y577D02*
X1898Y577D01*
X1Y576D02*
X8Y576D01*
X230Y576D02*
X242Y576D01*
X674Y576D02*
X686Y576D01*
X1230Y576D02*
X1242Y576D01*
X1674Y576D02*
X1685Y576D01*
X1891Y576D02*
X1898Y576D01*
X1Y575D02*
X8Y575D01*
X229Y575D02*
X240Y575D01*
X676Y575D02*
X686Y575D01*
X1229Y575D02*
X1240Y575D01*
X1675Y575D02*
X1686Y575D01*
X1891Y575D02*
X1898Y575D01*
X1Y574D02*
X8Y574D01*
X228Y574D02*
X239Y574D01*
X677Y574D02*
X687Y574D01*
X1228Y574D02*
X1239Y574D01*
X1677Y574D02*
X1687Y574D01*
X1891Y574D02*
X1898Y574D01*
X1Y573D02*
X8Y573D01*
X228Y573D02*
X238Y573D01*
X678Y573D02*
X688Y573D01*
X1228Y573D02*
X1238Y573D01*
X1678Y573D02*
X1688Y573D01*
X1891Y573D02*
X1898Y573D01*
X1Y572D02*
X8Y572D01*
X227Y572D02*
X237Y572D01*
X679Y572D02*
X689Y572D01*
X1227Y572D02*
X1236Y572D01*
X1679Y572D02*
X1689Y572D01*
X1891Y572D02*
X1898Y572D01*
X1Y571D02*
X8Y571D01*
X226Y571D02*
X236Y571D01*
X680Y571D02*
X690Y571D01*
X1226Y571D02*
X1235Y571D01*
X1680Y571D02*
X1690Y571D01*
X1891Y571D02*
X1898Y571D01*
X1Y570D02*
X8Y570D01*
X225Y570D02*
X235Y570D01*
X681Y570D02*
X690Y570D01*
X1225Y570D02*
X1234Y570D01*
X1681Y570D02*
X1690Y570D01*
X1891Y570D02*
X1898Y570D01*
X1Y569D02*
X8Y569D01*
X225Y569D02*
X234Y569D01*
X682Y569D02*
X691Y569D01*
X1225Y569D02*
X1234Y569D01*
X1682Y569D02*
X1691Y569D01*
X1891Y569D02*
X1898Y569D01*
X1Y568D02*
X8Y568D01*
X224Y568D02*
X233Y568D01*
X683Y568D02*
X692Y568D01*
X1224Y568D02*
X1233Y568D01*
X1683Y568D02*
X1691Y568D01*
X1891Y568D02*
X1898Y568D01*
X1Y567D02*
X8Y567D01*
X224Y567D02*
X232Y567D01*
X684Y567D02*
X692Y567D01*
X1224Y567D02*
X1232Y567D01*
X1684Y567D02*
X1692Y567D01*
X1891Y567D02*
X1898Y567D01*
X1Y566D02*
X8Y566D01*
X223Y566D02*
X231Y566D01*
X684Y566D02*
X693Y566D01*
X1223Y566D02*
X1231Y566D01*
X1684Y566D02*
X1693Y566D01*
X1891Y566D02*
X1898Y566D01*
X1Y565D02*
X8Y565D01*
X223Y565D02*
X231Y565D01*
X685Y565D02*
X693Y565D01*
X1223Y565D02*
X1231Y565D01*
X1685Y565D02*
X1693Y565D01*
X1891Y565D02*
X1898Y565D01*
X1Y564D02*
X8Y564D01*
X222Y564D02*
X230Y564D01*
X686Y564D02*
X694Y564D01*
X1222Y564D02*
X1230Y564D01*
X1686Y564D02*
X1693Y564D01*
X1891Y564D02*
X1898Y564D01*
X1Y563D02*
X8Y563D01*
X222Y563D02*
X229Y563D01*
X686Y563D02*
X694Y563D01*
X1222Y563D02*
X1229Y563D01*
X1686Y563D02*
X1694Y563D01*
X1891Y563D02*
X1898Y563D01*
X1Y562D02*
X8Y562D01*
X221Y562D02*
X229Y562D01*
X687Y562D02*
X694Y562D01*
X1221Y562D02*
X1229Y562D01*
X1687Y562D02*
X1694Y562D01*
X1891Y562D02*
X1898Y562D01*
X1Y561D02*
X8Y561D01*
X221Y561D02*
X228Y561D01*
X687Y561D02*
X695Y561D01*
X1221Y561D02*
X1228Y561D01*
X1687Y561D02*
X1695Y561D01*
X1891Y561D02*
X1898Y561D01*
X1Y560D02*
X8Y560D01*
X221Y560D02*
X228Y560D01*
X688Y560D02*
X695Y560D01*
X1220Y560D02*
X1228Y560D01*
X1688Y560D02*
X1695Y560D01*
X1891Y560D02*
X1898Y560D01*
X1Y559D02*
X8Y559D01*
X220Y559D02*
X228Y559D01*
X688Y559D02*
X696Y559D01*
X1220Y559D02*
X1227Y559D01*
X1688Y559D02*
X1695Y559D01*
X1891Y559D02*
X1898Y559D01*
X1Y558D02*
X8Y558D01*
X220Y558D02*
X227Y558D01*
X689Y558D02*
X696Y558D01*
X1220Y558D02*
X1227Y558D01*
X1688Y558D02*
X1696Y558D01*
X1891Y558D02*
X1898Y558D01*
X1Y557D02*
X8Y557D01*
X220Y557D02*
X227Y557D01*
X689Y557D02*
X696Y557D01*
X1220Y557D02*
X1227Y557D01*
X1689Y557D02*
X1696Y557D01*
X1891Y557D02*
X1898Y557D01*
X1Y556D02*
X8Y556D01*
X219Y556D02*
X227Y556D01*
X689Y556D02*
X696Y556D01*
X1219Y556D02*
X1226Y556D01*
X1689Y556D02*
X1696Y556D01*
X1891Y556D02*
X1898Y556D01*
X1Y555D02*
X8Y555D01*
X219Y555D02*
X226Y555D01*
X689Y555D02*
X697Y555D01*
X1219Y555D02*
X1226Y555D01*
X1689Y555D02*
X1697Y555D01*
X1891Y555D02*
X1898Y555D01*
X1Y554D02*
X8Y554D01*
X219Y554D02*
X226Y554D01*
X690Y554D02*
X697Y554D01*
X1219Y554D02*
X1226Y554D01*
X1690Y554D02*
X1697Y554D01*
X1891Y554D02*
X1898Y554D01*
X1Y553D02*
X8Y553D01*
X219Y553D02*
X226Y553D01*
X690Y553D02*
X697Y553D01*
X1219Y553D02*
X1226Y553D01*
X1690Y553D02*
X1697Y553D01*
X1891Y553D02*
X1898Y553D01*
X1Y552D02*
X8Y552D01*
X219Y552D02*
X226Y552D01*
X690Y552D02*
X697Y552D01*
X1219Y552D02*
X1226Y552D01*
X1690Y552D02*
X1697Y552D01*
X1891Y552D02*
X1898Y552D01*
X1Y551D02*
X8Y551D01*
X219Y551D02*
X226Y551D01*
X690Y551D02*
X697Y551D01*
X1218Y551D02*
X1225Y551D01*
X1690Y551D02*
X1697Y551D01*
X1891Y551D02*
X1898Y551D01*
X1Y550D02*
X8Y550D01*
X218Y550D02*
X225Y550D01*
X690Y550D02*
X697Y550D01*
X1218Y550D02*
X1225Y550D01*
X1690Y550D02*
X1697Y550D01*
X1891Y550D02*
X1898Y550D01*
X1Y549D02*
X8Y549D01*
X218Y549D02*
X225Y549D01*
X690Y549D02*
X697Y549D01*
X1218Y549D02*
X1225Y549D01*
X1690Y549D02*
X1697Y549D01*
X1891Y549D02*
X1898Y549D01*
X1Y548D02*
X8Y548D01*
X218Y548D02*
X225Y548D01*
X690Y548D02*
X697Y548D01*
X1218Y548D02*
X1225Y548D01*
X1690Y548D02*
X1697Y548D01*
X1891Y548D02*
X1898Y548D01*
X1Y547D02*
X8Y547D01*
X218Y547D02*
X225Y547D01*
X691Y547D02*
X698Y547D01*
X1218Y547D02*
X1225Y547D01*
X1690Y547D02*
X1697Y547D01*
X1891Y547D02*
X1898Y547D01*
X1Y546D02*
X8Y546D01*
X1891Y546D02*
X1898Y546D01*
X1Y545D02*
X8Y545D01*
X1891Y545D02*
X1898Y545D01*
X1Y544D02*
X8Y544D01*
X1891Y544D02*
X1898Y544D01*
X1Y543D02*
X8Y543D01*
X1891Y543D02*
X1898Y543D01*
X1Y542D02*
X8Y542D01*
X1891Y542D02*
X1898Y542D01*
X1Y541D02*
X8Y541D01*
X1891Y541D02*
X1898Y541D01*
X1Y540D02*
X8Y540D01*
X1891Y540D02*
X1898Y540D01*
X1Y539D02*
X8Y539D01*
X1891Y539D02*
X1898Y539D01*
X1Y538D02*
X8Y538D01*
X1891Y538D02*
X1898Y538D01*
X1Y537D02*
X8Y537D01*
X1891Y537D02*
X1898Y537D01*
X1Y536D02*
X8Y536D01*
X1891Y536D02*
X1898Y536D01*
X1Y535D02*
X8Y535D01*
X1891Y535D02*
X1898Y535D01*
X1Y534D02*
X8Y534D01*
X1891Y534D02*
X1898Y534D01*
X1Y533D02*
X8Y533D01*
X1891Y533D02*
X1898Y533D01*
X1Y532D02*
X8Y532D01*
X1891Y532D02*
X1898Y532D01*
X1Y531D02*
X8Y531D01*
X1891Y531D02*
X1898Y531D01*
X1Y530D02*
X8Y530D01*
X1891Y530D02*
X1898Y530D01*
X1Y529D02*
X8Y529D01*
X1891Y529D02*
X1898Y529D01*
X1Y528D02*
X8Y528D01*
X1891Y528D02*
X1898Y528D01*
X1Y527D02*
X8Y527D01*
X1891Y527D02*
X1898Y527D01*
X1Y526D02*
X8Y526D01*
X1891Y526D02*
X1898Y526D01*
X1Y525D02*
X8Y525D01*
X1891Y525D02*
X1898Y525D01*
X1Y524D02*
X8Y524D01*
X1891Y524D02*
X1898Y524D01*
X1Y523D02*
X8Y523D01*
X1891Y523D02*
X1898Y523D01*
X1Y522D02*
X8Y522D01*
X1891Y522D02*
X1898Y522D01*
X1Y521D02*
X8Y521D01*
X1891Y521D02*
X1898Y521D01*
X1Y520D02*
X8Y520D01*
X1891Y520D02*
X1898Y520D01*
X1Y519D02*
X8Y519D01*
X1891Y519D02*
X1898Y519D01*
X1Y518D02*
X8Y518D01*
X1891Y518D02*
X1898Y518D01*
X1Y517D02*
X8Y517D01*
X1891Y517D02*
X1898Y517D01*
X1Y516D02*
X8Y516D01*
X1891Y516D02*
X1898Y516D01*
X1Y515D02*
X8Y515D01*
X1891Y515D02*
X1898Y515D01*
X1Y514D02*
X8Y514D01*
X1891Y514D02*
X1898Y514D01*
X1Y513D02*
X8Y513D01*
X1891Y513D02*
X1898Y513D01*
X1Y512D02*
X8Y512D01*
X1891Y512D02*
X1898Y512D01*
X1Y511D02*
X8Y511D01*
X1891Y511D02*
X1898Y511D01*
X1Y510D02*
X8Y510D01*
X1891Y510D02*
X1898Y510D01*
X1Y509D02*
X8Y509D01*
X1891Y509D02*
X1898Y509D01*
X1Y508D02*
X8Y508D01*
X1891Y508D02*
X1898Y508D01*
X1Y507D02*
X8Y507D01*
X1891Y507D02*
X1898Y507D01*
X1Y506D02*
X8Y506D01*
X1891Y506D02*
X1898Y506D01*
X1Y505D02*
X8Y505D01*
X1891Y505D02*
X1898Y505D01*
X1Y504D02*
X8Y504D01*
X1891Y504D02*
X1898Y504D01*
X1Y503D02*
X8Y503D01*
X1891Y503D02*
X1898Y503D01*
X1Y502D02*
X8Y502D01*
X1891Y502D02*
X1898Y502D01*
X1Y501D02*
X8Y501D01*
X1891Y501D02*
X1898Y501D01*
X1Y500D02*
X8Y500D01*
X1891Y500D02*
X1898Y500D01*
X1Y499D02*
X8Y499D01*
X1891Y499D02*
X1898Y499D01*
X1Y498D02*
X8Y498D01*
X1891Y498D02*
X1898Y498D01*
X1Y497D02*
X8Y497D01*
X1891Y497D02*
X1898Y497D01*
X1Y496D02*
X8Y496D01*
X1891Y496D02*
X1898Y496D01*
X1Y495D02*
X8Y495D01*
X1891Y495D02*
X1898Y495D01*
X1Y494D02*
X8Y494D01*
X1891Y494D02*
X1898Y494D01*
X1Y493D02*
X8Y493D01*
X1891Y493D02*
X1898Y493D01*
X1Y492D02*
X8Y492D01*
X1891Y492D02*
X1898Y492D01*
X1Y491D02*
X8Y491D01*
X1891Y491D02*
X1898Y491D01*
X1Y490D02*
X8Y490D01*
X1891Y490D02*
X1898Y490D01*
X1Y489D02*
X8Y489D01*
X1891Y489D02*
X1898Y489D01*
X1Y488D02*
X8Y488D01*
X1891Y488D02*
X1898Y488D01*
X1Y487D02*
X8Y487D01*
X1891Y487D02*
X1898Y487D01*
X1Y486D02*
X8Y486D01*
X1891Y486D02*
X1898Y486D01*
X1Y485D02*
X8Y485D01*
X1891Y485D02*
X1898Y485D01*
X1Y484D02*
X8Y484D01*
X1891Y484D02*
X1898Y484D01*
X1Y483D02*
X8Y483D01*
X1891Y483D02*
X1898Y483D01*
X1Y482D02*
X8Y482D01*
X1891Y482D02*
X1898Y482D01*
X1Y481D02*
X8Y481D01*
X1891Y481D02*
X1898Y481D01*
X1Y480D02*
X8Y480D01*
X1891Y480D02*
X1898Y480D01*
X1Y479D02*
X8Y479D01*
X1891Y479D02*
X1898Y479D01*
X1Y478D02*
X8Y478D01*
X1891Y478D02*
X1898Y478D01*
X1Y477D02*
X8Y477D01*
X1891Y477D02*
X1898Y477D01*
X1Y476D02*
X8Y476D01*
X1891Y476D02*
X1898Y476D01*
X1Y475D02*
X8Y475D01*
X1891Y475D02*
X1898Y475D01*
X1Y474D02*
X8Y474D01*
X1891Y474D02*
X1898Y474D01*
X1Y473D02*
X8Y473D01*
X1891Y473D02*
X1898Y473D01*
X1Y472D02*
X8Y472D01*
X1891Y472D02*
X1898Y472D01*
X1Y471D02*
X8Y471D01*
X1891Y471D02*
X1898Y471D01*
X1Y470D02*
X8Y470D01*
X1891Y470D02*
X1898Y470D01*
X1Y469D02*
X8Y469D01*
X1891Y469D02*
X1898Y469D01*
X1Y468D02*
X8Y468D01*
X1891Y468D02*
X1898Y468D01*
X1Y467D02*
X8Y467D01*
X1891Y467D02*
X1898Y467D01*
X1Y466D02*
X8Y466D01*
X1891Y466D02*
X1898Y466D01*
X1Y465D02*
X8Y465D01*
X1891Y465D02*
X1898Y465D01*
X1Y464D02*
X8Y464D01*
X1891Y464D02*
X1898Y464D01*
X1Y463D02*
X8Y463D01*
X1891Y463D02*
X1898Y463D01*
X1Y462D02*
X8Y462D01*
X1891Y462D02*
X1898Y462D01*
X1Y461D02*
X8Y461D01*
X1891Y461D02*
X1898Y461D01*
X1Y460D02*
X8Y460D01*
X1891Y460D02*
X1898Y460D01*
X1Y459D02*
X8Y459D01*
X1891Y459D02*
X1898Y459D01*
X1Y458D02*
X8Y458D01*
X1891Y458D02*
X1898Y458D01*
X1Y457D02*
X8Y457D01*
X1891Y457D02*
X1898Y457D01*
X1Y456D02*
X8Y456D01*
X1891Y456D02*
X1898Y456D01*
X1Y455D02*
X8Y455D01*
X1891Y455D02*
X1898Y455D01*
X1Y454D02*
X8Y454D01*
X1891Y454D02*
X1898Y454D01*
X1Y453D02*
X8Y453D01*
X1891Y453D02*
X1898Y453D01*
X1Y452D02*
X8Y452D01*
X1891Y452D02*
X1898Y452D01*
X1Y451D02*
X8Y451D01*
X1891Y451D02*
X1898Y451D01*
X1Y450D02*
X8Y450D01*
X1891Y450D02*
X1898Y450D01*
X1Y449D02*
X8Y449D01*
X1891Y449D02*
X1898Y449D01*
X1Y448D02*
X8Y448D01*
X1891Y448D02*
X1898Y448D01*
X1Y447D02*
X8Y447D01*
X1891Y447D02*
X1898Y447D01*
X1Y446D02*
X8Y446D01*
X1891Y446D02*
X1898Y446D01*
X1Y445D02*
X8Y445D01*
X1891Y445D02*
X1898Y445D01*
X1Y444D02*
X8Y444D01*
X1891Y444D02*
X1898Y444D01*
X1Y443D02*
X8Y443D01*
X1891Y443D02*
X1898Y443D01*
X1Y442D02*
X8Y442D01*
X1891Y442D02*
X1898Y442D01*
X1Y441D02*
X8Y441D01*
X1891Y441D02*
X1898Y441D01*
X1Y440D02*
X8Y440D01*
X1891Y440D02*
X1898Y440D01*
X1Y439D02*
X8Y439D01*
X1891Y439D02*
X1898Y439D01*
X1Y438D02*
X8Y438D01*
X1891Y438D02*
X1898Y438D01*
X1Y437D02*
X8Y437D01*
X1891Y437D02*
X1898Y437D01*
X1Y436D02*
X8Y436D01*
X1891Y436D02*
X1898Y436D01*
X1Y435D02*
X8Y435D01*
X1891Y435D02*
X1898Y435D01*
X1Y434D02*
X8Y434D01*
X1891Y434D02*
X1898Y434D01*
X1Y433D02*
X8Y433D01*
X1891Y433D02*
X1898Y433D01*
X1Y432D02*
X8Y432D01*
X1891Y432D02*
X1898Y432D01*
X1Y431D02*
X8Y431D01*
X1891Y431D02*
X1898Y431D01*
X1Y430D02*
X8Y430D01*
X1891Y430D02*
X1898Y430D01*
X1Y429D02*
X8Y429D01*
X1891Y429D02*
X1898Y429D01*
X1Y428D02*
X8Y428D01*
X1891Y428D02*
X1898Y428D01*
X1Y427D02*
X8Y427D01*
X1891Y427D02*
X1898Y427D01*
X1Y426D02*
X8Y426D01*
X1891Y426D02*
X1898Y426D01*
X1Y425D02*
X8Y425D01*
X1891Y425D02*
X1898Y425D01*
X1Y424D02*
X8Y424D01*
X1891Y424D02*
X1898Y424D01*
X1Y423D02*
X8Y423D01*
X1891Y423D02*
X1898Y423D01*
X1Y422D02*
X8Y422D01*
X1891Y422D02*
X1898Y422D01*
X1Y421D02*
X8Y421D01*
X1891Y421D02*
X1898Y421D01*
X1Y420D02*
X8Y420D01*
X1891Y420D02*
X1898Y420D01*
X1Y419D02*
X8Y419D01*
X1891Y419D02*
X1898Y419D01*
X1Y418D02*
X8Y418D01*
X1891Y418D02*
X1898Y418D01*
X1Y417D02*
X8Y417D01*
X1891Y417D02*
X1898Y417D01*
X1Y416D02*
X8Y416D01*
X1891Y416D02*
X1898Y416D01*
X1Y415D02*
X8Y415D01*
X1891Y415D02*
X1898Y415D01*
X1Y414D02*
X8Y414D01*
X1891Y414D02*
X1898Y414D01*
X1Y413D02*
X8Y413D01*
X1891Y413D02*
X1898Y413D01*
X1Y412D02*
X8Y412D01*
X1891Y412D02*
X1898Y412D01*
X1Y411D02*
X8Y411D01*
X1891Y411D02*
X1898Y411D01*
X1Y410D02*
X8Y410D01*
X1891Y410D02*
X1898Y410D01*
X1Y409D02*
X8Y409D01*
X1891Y409D02*
X1898Y409D01*
X1Y408D02*
X8Y408D01*
X1891Y408D02*
X1898Y408D01*
X1Y407D02*
X8Y407D01*
X1891Y407D02*
X1898Y407D01*
X1Y406D02*
X8Y406D01*
X1891Y406D02*
X1898Y406D01*
X1Y405D02*
X8Y405D01*
X1891Y405D02*
X1898Y405D01*
X1Y404D02*
X8Y404D01*
X1891Y404D02*
X1898Y404D01*
X1Y403D02*
X8Y403D01*
X1891Y403D02*
X1898Y403D01*
X1Y402D02*
X8Y402D01*
X1891Y402D02*
X1898Y402D01*
X1Y401D02*
X8Y401D01*
X1891Y401D02*
X1898Y401D01*
X1Y400D02*
X8Y400D01*
X1891Y400D02*
X1898Y400D01*
X1Y399D02*
X8Y399D01*
X1891Y399D02*
X1898Y399D01*
X1Y398D02*
X8Y398D01*
X1891Y398D02*
X1898Y398D01*
X1Y397D02*
X8Y397D01*
X1891Y397D02*
X1898Y397D01*
X1Y396D02*
X8Y396D01*
X1891Y396D02*
X1898Y396D01*
X1Y395D02*
X8Y395D01*
X1891Y395D02*
X1898Y395D01*
X1Y394D02*
X8Y394D01*
X1891Y394D02*
X1898Y394D01*
X1Y393D02*
X8Y393D01*
X1891Y393D02*
X1898Y393D01*
X1Y392D02*
X8Y392D01*
X1891Y392D02*
X1898Y392D01*
X1Y391D02*
X8Y391D01*
X1891Y391D02*
X1898Y391D01*
X1Y390D02*
X8Y390D01*
X1891Y390D02*
X1898Y390D01*
X1Y389D02*
X8Y389D01*
X1891Y389D02*
X1898Y389D01*
X1Y388D02*
X8Y388D01*
X1891Y388D02*
X1898Y388D01*
X1Y387D02*
X8Y387D01*
X1891Y387D02*
X1898Y387D01*
X1Y386D02*
X8Y386D01*
X1891Y386D02*
X1898Y386D01*
X1Y385D02*
X8Y385D01*
X1891Y385D02*
X1898Y385D01*
X1Y384D02*
X8Y384D01*
X1891Y384D02*
X1898Y384D01*
X1Y383D02*
X8Y383D01*
X1891Y383D02*
X1898Y383D01*
X1Y382D02*
X8Y382D01*
X1891Y382D02*
X1898Y382D01*
X1Y381D02*
X8Y381D01*
X1891Y381D02*
X1898Y381D01*
X1Y380D02*
X8Y380D01*
X1891Y380D02*
X1898Y380D01*
X1Y379D02*
X8Y379D01*
X1891Y379D02*
X1898Y379D01*
X1Y378D02*
X8Y378D01*
X1891Y378D02*
X1898Y378D01*
X1Y377D02*
X8Y377D01*
X1891Y377D02*
X1898Y377D01*
X1Y376D02*
X8Y376D01*
X1891Y376D02*
X1898Y376D01*
X1Y375D02*
X8Y375D01*
X1891Y375D02*
X1898Y375D01*
X1Y374D02*
X8Y374D01*
X1891Y374D02*
X1898Y374D01*
X1Y373D02*
X8Y373D01*
X1891Y373D02*
X1898Y373D01*
X1Y372D02*
X8Y372D01*
X1891Y372D02*
X1898Y372D01*
X1Y371D02*
X8Y371D01*
X1891Y371D02*
X1898Y371D01*
X1Y370D02*
X8Y370D01*
X1891Y370D02*
X1898Y370D01*
X1Y369D02*
X8Y369D01*
X1891Y369D02*
X1898Y369D01*
X1Y368D02*
X8Y368D01*
X1891Y368D02*
X1898Y368D01*
X1Y367D02*
X8Y367D01*
X1891Y367D02*
X1898Y367D01*
X1Y366D02*
X8Y366D01*
X1891Y366D02*
X1898Y366D01*
X1Y365D02*
X8Y365D01*
X1891Y365D02*
X1898Y365D01*
X1Y364D02*
X8Y364D01*
X1891Y364D02*
X1898Y364D01*
X1Y363D02*
X8Y363D01*
X1891Y363D02*
X1898Y363D01*
X1Y362D02*
X8Y362D01*
X1891Y362D02*
X1898Y362D01*
X1Y361D02*
X8Y361D01*
X1891Y361D02*
X1898Y361D01*
X1Y360D02*
X8Y360D01*
X1891Y360D02*
X1898Y360D01*
X1Y359D02*
X8Y359D01*
X1891Y359D02*
X1898Y359D01*
X1Y358D02*
X8Y358D01*
X1891Y358D02*
X1898Y358D01*
X1Y357D02*
X8Y357D01*
X1891Y357D02*
X1898Y357D01*
X1Y356D02*
X8Y356D01*
X1891Y356D02*
X1898Y356D01*
X1Y355D02*
X8Y355D01*
X1891Y355D02*
X1898Y355D01*
X1Y354D02*
X8Y354D01*
X1891Y354D02*
X1898Y354D01*
X1Y353D02*
X8Y353D01*
X1891Y353D02*
X1898Y353D01*
X1Y352D02*
X8Y352D01*
X1891Y352D02*
X1898Y352D01*
X1Y351D02*
X8Y351D01*
X1891Y351D02*
X1898Y351D01*
X1Y350D02*
X8Y350D01*
X1891Y350D02*
X1898Y350D01*
X1Y349D02*
X8Y349D01*
X1891Y349D02*
X1898Y349D01*
X1Y348D02*
X8Y348D01*
X1891Y348D02*
X1898Y348D01*
X1Y347D02*
X8Y347D01*
X1891Y347D02*
X1898Y347D01*
X1Y346D02*
X8Y346D01*
X1891Y346D02*
X1898Y346D01*
X1Y345D02*
X8Y345D01*
X1891Y345D02*
X1898Y345D01*
X1Y344D02*
X8Y344D01*
X1891Y344D02*
X1898Y344D01*
X1Y343D02*
X8Y343D01*
X1891Y343D02*
X1898Y343D01*
X1Y342D02*
X8Y342D01*
X1891Y342D02*
X1898Y342D01*
X1Y341D02*
X8Y341D01*
X1891Y341D02*
X1898Y341D01*
X1Y340D02*
X8Y340D01*
X1891Y340D02*
X1898Y340D01*
X1Y339D02*
X8Y339D01*
X1891Y339D02*
X1898Y339D01*
X1Y338D02*
X8Y338D01*
X1891Y338D02*
X1898Y338D01*
X1Y337D02*
X8Y337D01*
X1891Y337D02*
X1898Y337D01*
X1Y336D02*
X8Y336D01*
X1891Y336D02*
X1898Y336D01*
X1Y335D02*
X8Y335D01*
X1891Y335D02*
X1898Y335D01*
X1Y334D02*
X8Y334D01*
X56Y334D02*
X56Y334D01*
X756Y334D02*
X756Y334D01*
X1056Y334D02*
X1056Y334D01*
X1755Y334D02*
X1756Y334D01*
X1891Y334D02*
X1898Y334D01*
X1Y333D02*
X8Y333D01*
X55Y333D02*
X57Y333D01*
X755Y333D02*
X757Y333D01*
X1055Y333D02*
X1057Y333D01*
X1755Y333D02*
X1757Y333D01*
X1891Y333D02*
X1898Y333D01*
X1Y332D02*
X8Y332D01*
X54Y332D02*
X58Y332D01*
X754Y332D02*
X758Y332D01*
X1054Y332D02*
X1058Y332D01*
X1754Y332D02*
X1758Y332D01*
X1891Y332D02*
X1898Y332D01*
X1Y331D02*
X8Y331D01*
X53Y331D02*
X59Y331D01*
X753Y331D02*
X759Y331D01*
X1053Y331D02*
X1059Y331D01*
X1753Y331D02*
X1759Y331D01*
X1891Y331D02*
X1898Y331D01*
X1Y330D02*
X8Y330D01*
X54Y330D02*
X60Y330D01*
X754Y330D02*
X760Y330D01*
X1054Y330D02*
X1060Y330D01*
X1754Y330D02*
X1760Y330D01*
X1891Y330D02*
X1898Y330D01*
X1Y329D02*
X8Y329D01*
X55Y329D02*
X61Y329D01*
X755Y329D02*
X761Y329D01*
X1055Y329D02*
X1061Y329D01*
X1755Y329D02*
X1761Y329D01*
X1891Y329D02*
X1898Y329D01*
X1Y328D02*
X8Y328D01*
X56Y328D02*
X62Y328D01*
X756Y328D02*
X762Y328D01*
X1056Y328D02*
X1062Y328D01*
X1756Y328D02*
X1762Y328D01*
X1891Y328D02*
X1898Y328D01*
X1Y327D02*
X8Y327D01*
X57Y327D02*
X63Y327D01*
X757Y327D02*
X763Y327D01*
X1057Y327D02*
X1063Y327D01*
X1757Y327D02*
X1763Y327D01*
X1891Y327D02*
X1898Y327D01*
X1Y326D02*
X8Y326D01*
X58Y326D02*
X64Y326D01*
X758Y326D02*
X764Y326D01*
X1058Y326D02*
X1064Y326D01*
X1758Y326D02*
X1764Y326D01*
X1891Y326D02*
X1898Y326D01*
X1Y325D02*
X8Y325D01*
X59Y325D02*
X65Y325D01*
X759Y325D02*
X765Y325D01*
X1059Y325D02*
X1065Y325D01*
X1759Y325D02*
X1765Y325D01*
X1891Y325D02*
X1898Y325D01*
X1Y324D02*
X8Y324D01*
X60Y324D02*
X66Y324D01*
X760Y324D02*
X766Y324D01*
X1060Y324D02*
X1066Y324D01*
X1760Y324D02*
X1766Y324D01*
X1891Y324D02*
X1898Y324D01*
X1Y323D02*
X8Y323D01*
X61Y323D02*
X67Y323D01*
X761Y323D02*
X767Y323D01*
X1061Y323D02*
X1067Y323D01*
X1761Y323D02*
X1767Y323D01*
X1891Y323D02*
X1898Y323D01*
X1Y322D02*
X8Y322D01*
X62Y322D02*
X68Y322D01*
X762Y322D02*
X768Y322D01*
X1062Y322D02*
X1068Y322D01*
X1762Y322D02*
X1768Y322D01*
X1891Y322D02*
X1898Y322D01*
X1Y321D02*
X8Y321D01*
X63Y321D02*
X69Y321D01*
X763Y321D02*
X769Y321D01*
X1063Y321D02*
X1069Y321D01*
X1763Y321D02*
X1769Y321D01*
X1891Y321D02*
X1898Y321D01*
X1Y320D02*
X8Y320D01*
X64Y320D02*
X69Y320D01*
X764Y320D02*
X769Y320D01*
X1064Y320D02*
X1069Y320D01*
X1764Y320D02*
X1769Y320D01*
X1891Y320D02*
X1898Y320D01*
X1Y319D02*
X8Y319D01*
X65Y319D02*
X70Y319D01*
X765Y319D02*
X770Y319D01*
X1065Y319D02*
X1070Y319D01*
X1765Y319D02*
X1770Y319D01*
X1891Y319D02*
X1898Y319D01*
X1Y318D02*
X8Y318D01*
X66Y318D02*
X71Y318D01*
X766Y318D02*
X771Y318D01*
X1066Y318D02*
X1071Y318D01*
X1766Y318D02*
X1771Y318D01*
X1891Y318D02*
X1898Y318D01*
X1Y317D02*
X8Y317D01*
X67Y317D02*
X72Y317D01*
X767Y317D02*
X772Y317D01*
X1067Y317D02*
X1072Y317D01*
X1767Y317D02*
X1772Y317D01*
X1891Y317D02*
X1898Y317D01*
X1Y316D02*
X8Y316D01*
X68Y316D02*
X73Y316D01*
X768Y316D02*
X773Y316D01*
X1068Y316D02*
X1073Y316D01*
X1768Y316D02*
X1773Y316D01*
X1891Y316D02*
X1898Y316D01*
X1Y315D02*
X8Y315D01*
X69Y315D02*
X74Y315D01*
X769Y315D02*
X774Y315D01*
X1069Y315D02*
X1074Y315D01*
X1769Y315D02*
X1774Y315D01*
X1891Y315D02*
X1898Y315D01*
X1Y314D02*
X8Y314D01*
X70Y314D02*
X75Y314D01*
X770Y314D02*
X775Y314D01*
X1070Y314D02*
X1075Y314D01*
X1770Y314D02*
X1775Y314D01*
X1891Y314D02*
X1898Y314D01*
X1Y313D02*
X8Y313D01*
X71Y313D02*
X77Y313D01*
X771Y313D02*
X777Y313D01*
X1071Y313D02*
X1077Y313D01*
X1771Y313D02*
X1777Y313D01*
X1891Y313D02*
X1898Y313D01*
X1Y312D02*
X8Y312D01*
X72Y312D02*
X78Y312D01*
X772Y312D02*
X778Y312D01*
X1072Y312D02*
X1078Y312D01*
X1772Y312D02*
X1778Y312D01*
X1891Y312D02*
X1898Y312D01*
X1Y311D02*
X8Y311D01*
X73Y311D02*
X79Y311D01*
X773Y311D02*
X779Y311D01*
X1073Y311D02*
X1079Y311D01*
X1773Y311D02*
X1779Y311D01*
X1891Y311D02*
X1898Y311D01*
X1Y310D02*
X8Y310D01*
X74Y310D02*
X80Y310D01*
X774Y310D02*
X780Y310D01*
X1074Y310D02*
X1080Y310D01*
X1774Y310D02*
X1780Y310D01*
X1891Y310D02*
X1898Y310D01*
X1Y309D02*
X8Y309D01*
X75Y309D02*
X81Y309D01*
X775Y309D02*
X781Y309D01*
X1075Y309D02*
X1081Y309D01*
X1775Y309D02*
X1781Y309D01*
X1891Y309D02*
X1898Y309D01*
X1Y308D02*
X8Y308D01*
X76Y308D02*
X82Y308D01*
X776Y308D02*
X782Y308D01*
X1076Y308D02*
X1082Y308D01*
X1776Y308D02*
X1782Y308D01*
X1891Y308D02*
X1898Y308D01*
X1Y307D02*
X8Y307D01*
X77Y307D02*
X83Y307D01*
X777Y307D02*
X783Y307D01*
X1077Y307D02*
X1083Y307D01*
X1777Y307D02*
X1783Y307D01*
X1891Y307D02*
X1898Y307D01*
X1Y306D02*
X8Y306D01*
X78Y306D02*
X84Y306D01*
X778Y306D02*
X784Y306D01*
X1078Y306D02*
X1084Y306D01*
X1778Y306D02*
X1784Y306D01*
X1891Y306D02*
X1898Y306D01*
X1Y305D02*
X8Y305D01*
X79Y305D02*
X85Y305D01*
X779Y305D02*
X785Y305D01*
X1079Y305D02*
X1085Y305D01*
X1779Y305D02*
X1785Y305D01*
X1891Y305D02*
X1898Y305D01*
X1Y304D02*
X8Y304D01*
X80Y304D02*
X86Y304D01*
X780Y304D02*
X786Y304D01*
X1080Y304D02*
X1086Y304D01*
X1780Y304D02*
X1786Y304D01*
X1891Y304D02*
X1898Y304D01*
X1Y303D02*
X8Y303D01*
X81Y303D02*
X87Y303D01*
X781Y303D02*
X787Y303D01*
X1081Y303D02*
X1087Y303D01*
X1781Y303D02*
X1787Y303D01*
X1891Y303D02*
X1898Y303D01*
X1Y302D02*
X8Y302D01*
X82Y302D02*
X88Y302D01*
X782Y302D02*
X788Y302D01*
X1082Y302D02*
X1088Y302D01*
X1782Y302D02*
X1788Y302D01*
X1891Y302D02*
X1898Y302D01*
X1Y301D02*
X8Y301D01*
X83Y301D02*
X89Y301D01*
X783Y301D02*
X789Y301D01*
X1083Y301D02*
X1089Y301D01*
X1783Y301D02*
X1789Y301D01*
X1891Y301D02*
X1898Y301D01*
X1Y300D02*
X8Y300D01*
X84Y300D02*
X90Y300D01*
X784Y300D02*
X790Y300D01*
X1084Y300D02*
X1090Y300D01*
X1784Y300D02*
X1790Y300D01*
X1891Y300D02*
X1898Y300D01*
X1Y299D02*
X8Y299D01*
X85Y299D02*
X90Y299D01*
X785Y299D02*
X790Y299D01*
X1085Y299D02*
X1090Y299D01*
X1785Y299D02*
X1789Y299D01*
X1891Y299D02*
X1898Y299D01*
X1Y298D02*
X8Y298D01*
X86Y298D02*
X89Y298D01*
X786Y298D02*
X789Y298D01*
X1086Y298D02*
X1089Y298D01*
X1786Y298D02*
X1788Y298D01*
X1891Y298D02*
X1898Y298D01*
X1Y297D02*
X8Y297D01*
X87Y297D02*
X88Y297D01*
X787Y297D02*
X788Y297D01*
X1087Y297D02*
X1088Y297D01*
X1787Y297D02*
X1787Y297D01*
X1891Y297D02*
X1898Y297D01*
X1Y296D02*
X8Y296D01*
X1891Y296D02*
X1898Y296D01*
X1Y295D02*
X8Y295D01*
X1891Y295D02*
X1898Y295D01*
X1Y294D02*
X8Y294D01*
X1891Y294D02*
X1898Y294D01*
X1Y293D02*
X8Y293D01*
X1891Y293D02*
X1898Y293D01*
X1Y292D02*
X8Y292D01*
X1891Y292D02*
X1898Y292D01*
X1Y291D02*
X8Y291D01*
X1891Y291D02*
X1898Y291D01*
X1Y290D02*
X8Y290D01*
X1891Y290D02*
X1898Y290D01*
X1Y289D02*
X8Y289D01*
X1891Y289D02*
X1898Y289D01*
X1Y288D02*
X8Y288D01*
X1891Y288D02*
X1898Y288D01*
X1Y287D02*
X8Y287D01*
X1891Y287D02*
X1898Y287D01*
X1Y286D02*
X8Y286D01*
X1891Y286D02*
X1898Y286D01*
X1Y285D02*
X8Y285D01*
X1891Y285D02*
X1898Y285D01*
X1Y284D02*
X8Y284D01*
X1891Y284D02*
X1898Y284D01*
X1Y283D02*
X8Y283D01*
X1891Y283D02*
X1898Y283D01*
X1Y282D02*
X8Y282D01*
X1891Y282D02*
X1898Y282D01*
X1Y281D02*
X8Y281D01*
X1891Y281D02*
X1898Y281D01*
X1Y280D02*
X8Y280D01*
X1891Y280D02*
X1898Y280D01*
X1Y279D02*
X8Y279D01*
X1891Y279D02*
X1898Y279D01*
X1Y278D02*
X8Y278D01*
X1891Y278D02*
X1898Y278D01*
X1Y277D02*
X8Y277D01*
X906Y277D02*
X1035Y277D01*
X1891Y277D02*
X1898Y277D01*
X1Y276D02*
X8Y276D01*
X906Y276D02*
X1035Y276D01*
X1891Y276D02*
X1898Y276D01*
X1Y275D02*
X8Y275D01*
X906Y275D02*
X1035Y275D01*
X1891Y275D02*
X1898Y275D01*
X1Y274D02*
X8Y274D01*
X906Y274D02*
X908Y274D01*
X966Y274D02*
X975Y274D01*
X1033Y274D02*
X1035Y274D01*
X1891Y274D02*
X1898Y274D01*
X1Y273D02*
X8Y273D01*
X906Y273D02*
X908Y273D01*
X1033Y273D02*
X1035Y273D01*
X1891Y273D02*
X1898Y273D01*
X1Y272D02*
X8Y272D01*
X906Y272D02*
X908Y272D01*
X1033Y272D02*
X1035Y272D01*
X1891Y272D02*
X1898Y272D01*
X1Y271D02*
X8Y271D01*
X906Y271D02*
X908Y271D01*
X1033Y271D02*
X1035Y271D01*
X1891Y271D02*
X1898Y271D01*
X1Y270D02*
X8Y270D01*
X906Y270D02*
X908Y270D01*
X1033Y270D02*
X1035Y270D01*
X1891Y270D02*
X1898Y270D01*
X1Y269D02*
X8Y269D01*
X906Y269D02*
X908Y269D01*
X1033Y269D02*
X1035Y269D01*
X1891Y269D02*
X1898Y269D01*
X1Y268D02*
X8Y268D01*
X906Y268D02*
X908Y268D01*
X1033Y268D02*
X1035Y268D01*
X1891Y268D02*
X1898Y268D01*
X1Y267D02*
X8Y267D01*
X906Y267D02*
X908Y267D01*
X1033Y267D02*
X1035Y267D01*
X1891Y267D02*
X1898Y267D01*
X1Y266D02*
X8Y266D01*
X906Y266D02*
X908Y266D01*
X1033Y266D02*
X1035Y266D01*
X1891Y266D02*
X1898Y266D01*
X1Y265D02*
X8Y265D01*
X906Y265D02*
X908Y265D01*
X1033Y265D02*
X1035Y265D01*
X1891Y265D02*
X1898Y265D01*
X1Y264D02*
X8Y264D01*
X906Y264D02*
X908Y264D01*
X1033Y264D02*
X1035Y264D01*
X1047Y264D02*
X1062Y264D01*
X1078Y264D02*
X1088Y264D01*
X1891Y264D02*
X1898Y264D01*
X1Y263D02*
X8Y263D01*
X906Y263D02*
X908Y263D01*
X1033Y263D02*
X1035Y263D01*
X1047Y263D02*
X1064Y263D01*
X1077Y263D02*
X1089Y263D01*
X1891Y263D02*
X1898Y263D01*
X1Y262D02*
X8Y262D01*
X906Y262D02*
X908Y262D01*
X1033Y262D02*
X1035Y262D01*
X1047Y262D02*
X1065Y262D01*
X1077Y262D02*
X1089Y262D01*
X1891Y262D02*
X1898Y262D01*
X1Y261D02*
X8Y261D01*
X906Y261D02*
X908Y261D01*
X1033Y261D02*
X1035Y261D01*
X1047Y261D02*
X1066Y261D01*
X1078Y261D02*
X1089Y261D01*
X1891Y261D02*
X1898Y261D01*
X1Y260D02*
X8Y260D01*
X906Y260D02*
X908Y260D01*
X1033Y260D02*
X1035Y260D01*
X1047Y260D02*
X1050Y260D01*
X1062Y260D02*
X1066Y260D01*
X1085Y260D02*
X1089Y260D01*
X1891Y260D02*
X1898Y260D01*
X1Y259D02*
X8Y259D01*
X906Y259D02*
X908Y259D01*
X1033Y259D02*
X1035Y259D01*
X1047Y259D02*
X1050Y259D01*
X1063Y259D02*
X1067Y259D01*
X1085Y259D02*
X1089Y259D01*
X1891Y259D02*
X1898Y259D01*
X1Y258D02*
X8Y258D01*
X906Y258D02*
X908Y258D01*
X1033Y258D02*
X1035Y258D01*
X1047Y258D02*
X1050Y258D01*
X1063Y258D02*
X1067Y258D01*
X1085Y258D02*
X1089Y258D01*
X1891Y258D02*
X1898Y258D01*
X1Y257D02*
X8Y257D01*
X906Y257D02*
X908Y257D01*
X1033Y257D02*
X1035Y257D01*
X1047Y257D02*
X1050Y257D01*
X1063Y257D02*
X1067Y257D01*
X1085Y257D02*
X1089Y257D01*
X1891Y257D02*
X1898Y257D01*
X1Y256D02*
X8Y256D01*
X906Y256D02*
X908Y256D01*
X1033Y256D02*
X1035Y256D01*
X1047Y256D02*
X1050Y256D01*
X1063Y256D02*
X1067Y256D01*
X1085Y256D02*
X1089Y256D01*
X1891Y256D02*
X1898Y256D01*
X1Y255D02*
X8Y255D01*
X906Y255D02*
X908Y255D01*
X1033Y255D02*
X1035Y255D01*
X1047Y255D02*
X1050Y255D01*
X1063Y255D02*
X1067Y255D01*
X1085Y255D02*
X1089Y255D01*
X1891Y255D02*
X1898Y255D01*
X1Y254D02*
X8Y254D01*
X906Y254D02*
X908Y254D01*
X1033Y254D02*
X1035Y254D01*
X1047Y254D02*
X1050Y254D01*
X1062Y254D02*
X1066Y254D01*
X1085Y254D02*
X1089Y254D01*
X1891Y254D02*
X1898Y254D01*
X1Y253D02*
X8Y253D01*
X906Y253D02*
X908Y253D01*
X1033Y253D02*
X1035Y253D01*
X1047Y253D02*
X1066Y253D01*
X1085Y253D02*
X1089Y253D01*
X1891Y253D02*
X1898Y253D01*
X1Y252D02*
X8Y252D01*
X906Y252D02*
X908Y252D01*
X1033Y252D02*
X1035Y252D01*
X1047Y252D02*
X1065Y252D01*
X1085Y252D02*
X1089Y252D01*
X1891Y252D02*
X1898Y252D01*
X1Y251D02*
X8Y251D01*
X906Y251D02*
X908Y251D01*
X1033Y251D02*
X1035Y251D01*
X1047Y251D02*
X1064Y251D01*
X1085Y251D02*
X1089Y251D01*
X1891Y251D02*
X1898Y251D01*
X1Y250D02*
X8Y250D01*
X906Y250D02*
X908Y250D01*
X1033Y250D02*
X1035Y250D01*
X1047Y250D02*
X1063Y250D01*
X1085Y250D02*
X1089Y250D01*
X1891Y250D02*
X1898Y250D01*
X1Y249D02*
X8Y249D01*
X906Y249D02*
X908Y249D01*
X1033Y249D02*
X1035Y249D01*
X1047Y249D02*
X1050Y249D01*
X1054Y249D02*
X1058Y249D01*
X1085Y249D02*
X1089Y249D01*
X1891Y249D02*
X1898Y249D01*
X1Y248D02*
X8Y248D01*
X906Y248D02*
X908Y248D01*
X1033Y248D02*
X1035Y248D01*
X1047Y248D02*
X1050Y248D01*
X1055Y248D02*
X1059Y248D01*
X1085Y248D02*
X1089Y248D01*
X1891Y248D02*
X1898Y248D01*
X1Y247D02*
X8Y247D01*
X906Y247D02*
X908Y247D01*
X1033Y247D02*
X1035Y247D01*
X1047Y247D02*
X1050Y247D01*
X1055Y247D02*
X1059Y247D01*
X1085Y247D02*
X1089Y247D01*
X1891Y247D02*
X1898Y247D01*
X1Y246D02*
X8Y246D01*
X906Y246D02*
X908Y246D01*
X1033Y246D02*
X1035Y246D01*
X1047Y246D02*
X1050Y246D01*
X1056Y246D02*
X1060Y246D01*
X1085Y246D02*
X1089Y246D01*
X1094Y246D02*
X1096Y246D01*
X1891Y246D02*
X1898Y246D01*
X1Y245D02*
X8Y245D01*
X906Y245D02*
X908Y245D01*
X1033Y245D02*
X1035Y245D01*
X1047Y245D02*
X1050Y245D01*
X1057Y245D02*
X1061Y245D01*
X1085Y245D02*
X1089Y245D01*
X1094Y245D02*
X1097Y245D01*
X1891Y245D02*
X1898Y245D01*
X1Y244D02*
X8Y244D01*
X906Y244D02*
X908Y244D01*
X1033Y244D02*
X1035Y244D01*
X1047Y244D02*
X1050Y244D01*
X1057Y244D02*
X1061Y244D01*
X1085Y244D02*
X1089Y244D01*
X1094Y244D02*
X1097Y244D01*
X1891Y244D02*
X1898Y244D01*
X1Y243D02*
X8Y243D01*
X906Y243D02*
X908Y243D01*
X1033Y243D02*
X1035Y243D01*
X1047Y243D02*
X1050Y243D01*
X1058Y243D02*
X1062Y243D01*
X1085Y243D02*
X1089Y243D01*
X1094Y243D02*
X1097Y243D01*
X1891Y243D02*
X1898Y243D01*
X1Y242D02*
X8Y242D01*
X906Y242D02*
X908Y242D01*
X1033Y242D02*
X1035Y242D01*
X1047Y242D02*
X1050Y242D01*
X1058Y242D02*
X1062Y242D01*
X1085Y242D02*
X1089Y242D01*
X1094Y242D02*
X1097Y242D01*
X1891Y242D02*
X1898Y242D01*
X1Y241D02*
X8Y241D01*
X906Y241D02*
X908Y241D01*
X1033Y241D02*
X1035Y241D01*
X1047Y241D02*
X1050Y241D01*
X1059Y241D02*
X1063Y241D01*
X1085Y241D02*
X1089Y241D01*
X1094Y241D02*
X1097Y241D01*
X1891Y241D02*
X1898Y241D01*
X1Y240D02*
X8Y240D01*
X906Y240D02*
X908Y240D01*
X1033Y240D02*
X1035Y240D01*
X1047Y240D02*
X1050Y240D01*
X1060Y240D02*
X1064Y240D01*
X1085Y240D02*
X1089Y240D01*
X1094Y240D02*
X1097Y240D01*
X1891Y240D02*
X1898Y240D01*
X1Y239D02*
X8Y239D01*
X906Y239D02*
X908Y239D01*
X1033Y239D02*
X1035Y239D01*
X1047Y239D02*
X1050Y239D01*
X1060Y239D02*
X1064Y239D01*
X1085Y239D02*
X1089Y239D01*
X1094Y239D02*
X1097Y239D01*
X1891Y239D02*
X1898Y239D01*
X1Y238D02*
X8Y238D01*
X906Y238D02*
X908Y238D01*
X1033Y238D02*
X1035Y238D01*
X1047Y238D02*
X1050Y238D01*
X1061Y238D02*
X1065Y238D01*
X1085Y238D02*
X1089Y238D01*
X1094Y238D02*
X1097Y238D01*
X1891Y238D02*
X1898Y238D01*
X1Y237D02*
X8Y237D01*
X906Y237D02*
X908Y237D01*
X1033Y237D02*
X1035Y237D01*
X1047Y237D02*
X1050Y237D01*
X1061Y237D02*
X1065Y237D01*
X1085Y237D02*
X1089Y237D01*
X1094Y237D02*
X1097Y237D01*
X1891Y237D02*
X1898Y237D01*
X1Y236D02*
X8Y236D01*
X906Y236D02*
X908Y236D01*
X1033Y236D02*
X1035Y236D01*
X1047Y236D02*
X1050Y236D01*
X1062Y236D02*
X1066Y236D01*
X1079Y236D02*
X1097Y236D01*
X1891Y236D02*
X1898Y236D01*
X1Y235D02*
X8Y235D01*
X906Y235D02*
X908Y235D01*
X1033Y235D02*
X1035Y235D01*
X1047Y235D02*
X1050Y235D01*
X1062Y235D02*
X1066Y235D01*
X1077Y235D02*
X1097Y235D01*
X1891Y235D02*
X1898Y235D01*
X1Y234D02*
X8Y234D01*
X906Y234D02*
X908Y234D01*
X1033Y234D02*
X1035Y234D01*
X1047Y234D02*
X1050Y234D01*
X1063Y234D02*
X1067Y234D01*
X1077Y234D02*
X1097Y234D01*
X1891Y234D02*
X1898Y234D01*
X1Y233D02*
X8Y233D01*
X906Y233D02*
X908Y233D01*
X1033Y233D02*
X1035Y233D01*
X1047Y233D02*
X1050Y233D01*
X1064Y233D02*
X1066Y233D01*
X1077Y233D02*
X1096Y233D01*
X1891Y233D02*
X1898Y233D01*
X1Y232D02*
X8Y232D01*
X906Y232D02*
X908Y232D01*
X1033Y232D02*
X1035Y232D01*
X1048Y232D02*
X1049Y232D01*
X1065Y232D02*
X1065Y232D01*
X1079Y232D02*
X1095Y232D01*
X1891Y232D02*
X1898Y232D01*
X1Y231D02*
X8Y231D01*
X906Y231D02*
X908Y231D01*
X1033Y231D02*
X1035Y231D01*
X1891Y231D02*
X1898Y231D01*
X1Y230D02*
X8Y230D01*
X906Y230D02*
X908Y230D01*
X1033Y230D02*
X1035Y230D01*
X1891Y230D02*
X1898Y230D01*
X1Y229D02*
X8Y229D01*
X906Y229D02*
X908Y229D01*
X1033Y229D02*
X1035Y229D01*
X1891Y229D02*
X1898Y229D01*
X1Y228D02*
X8Y228D01*
X906Y228D02*
X908Y228D01*
X1033Y228D02*
X1035Y228D01*
X1891Y228D02*
X1898Y228D01*
X1Y227D02*
X8Y227D01*
X906Y227D02*
X908Y227D01*
X1033Y227D02*
X1035Y227D01*
X1891Y227D02*
X1898Y227D01*
X1Y226D02*
X8Y226D01*
X906Y226D02*
X908Y226D01*
X1033Y226D02*
X1035Y226D01*
X1891Y226D02*
X1898Y226D01*
X1Y225D02*
X8Y225D01*
X906Y225D02*
X908Y225D01*
X1033Y225D02*
X1035Y225D01*
X1891Y225D02*
X1898Y225D01*
X1Y224D02*
X8Y224D01*
X906Y224D02*
X908Y224D01*
X1033Y224D02*
X1035Y224D01*
X1891Y224D02*
X1898Y224D01*
X1Y223D02*
X8Y223D01*
X906Y223D02*
X908Y223D01*
X1033Y223D02*
X1035Y223D01*
X1891Y223D02*
X1898Y223D01*
X1Y222D02*
X8Y222D01*
X906Y222D02*
X908Y222D01*
X966Y222D02*
X975Y222D01*
X1033Y222D02*
X1035Y222D01*
X1891Y222D02*
X1898Y222D01*
X1Y221D02*
X8Y221D01*
X906Y221D02*
X1035Y221D01*
X1891Y221D02*
X1898Y221D01*
X1Y220D02*
X8Y220D01*
X906Y220D02*
X1035Y220D01*
X1891Y220D02*
X1898Y220D01*
X1Y219D02*
X8Y219D01*
X906Y219D02*
X1035Y219D01*
X1891Y219D02*
X1898Y219D01*
X1Y218D02*
X8Y218D01*
X1891Y218D02*
X1898Y218D01*
X1Y217D02*
X8Y217D01*
X1891Y217D02*
X1898Y217D01*
X1Y216D02*
X8Y216D01*
X1891Y216D02*
X1898Y216D01*
X1Y215D02*
X8Y215D01*
X1891Y215D02*
X1898Y215D01*
X1Y214D02*
X8Y214D01*
X1891Y214D02*
X1898Y214D01*
X1Y213D02*
X8Y213D01*
X1891Y213D02*
X1898Y213D01*
X1Y212D02*
X8Y212D01*
X1891Y212D02*
X1898Y212D01*
X1Y211D02*
X8Y211D01*
X1891Y211D02*
X1898Y211D01*
X1Y210D02*
X8Y210D01*
X1891Y210D02*
X1898Y210D01*
X1Y209D02*
X8Y209D01*
X1891Y209D02*
X1898Y209D01*
X1Y208D02*
X8Y208D01*
X1891Y208D02*
X1898Y208D01*
X1Y207D02*
X8Y207D01*
X1891Y207D02*
X1898Y207D01*
X1Y206D02*
X8Y206D01*
X1891Y206D02*
X1898Y206D01*
X1Y205D02*
X8Y205D01*
X1891Y205D02*
X1898Y205D01*
X1Y204D02*
X8Y204D01*
X1891Y204D02*
X1898Y204D01*
X1Y203D02*
X8Y203D01*
X1891Y203D02*
X1898Y203D01*
X1Y202D02*
X8Y202D01*
X1891Y202D02*
X1898Y202D01*
X1Y201D02*
X8Y201D01*
X1891Y201D02*
X1898Y201D01*
X1Y200D02*
X8Y200D01*
X1891Y200D02*
X1898Y200D01*
X1Y199D02*
X8Y199D01*
X1891Y199D02*
X1898Y199D01*
X1Y198D02*
X8Y198D01*
X1891Y198D02*
X1898Y198D01*
X1Y197D02*
X8Y197D01*
X1891Y197D02*
X1898Y197D01*
X1Y196D02*
X8Y196D01*
X1891Y196D02*
X1898Y196D01*
X1Y195D02*
X8Y195D01*
X1891Y195D02*
X1898Y195D01*
X1Y194D02*
X8Y194D01*
X1891Y194D02*
X1898Y194D01*
X1Y193D02*
X8Y193D01*
X1891Y193D02*
X1898Y193D01*
X1Y192D02*
X8Y192D01*
X1891Y192D02*
X1898Y192D01*
X1Y191D02*
X8Y191D01*
X1891Y191D02*
X1898Y191D01*
X1Y190D02*
X8Y190D01*
X1891Y190D02*
X1898Y190D01*
X1Y189D02*
X8Y189D01*
X1891Y189D02*
X1898Y189D01*
X1Y188D02*
X8Y188D01*
X1891Y188D02*
X1898Y188D01*
X1Y187D02*
X8Y187D01*
X1891Y187D02*
X1898Y187D01*
X1Y186D02*
X8Y186D01*
X1891Y186D02*
X1898Y186D01*
X1Y185D02*
X8Y185D01*
X1891Y185D02*
X1898Y185D01*
X1Y184D02*
X8Y184D01*
X1891Y184D02*
X1898Y184D01*
X1Y183D02*
X8Y183D01*
X1891Y183D02*
X1898Y183D01*
X1Y182D02*
X8Y182D01*
X1891Y182D02*
X1898Y182D01*
X1Y181D02*
X8Y181D01*
X1891Y181D02*
X1898Y181D01*
X1Y180D02*
X8Y180D01*
X1891Y180D02*
X1898Y180D01*
X1Y179D02*
X8Y179D01*
X1891Y179D02*
X1898Y179D01*
X1Y178D02*
X8Y178D01*
X1891Y178D02*
X1898Y178D01*
X1Y177D02*
X8Y177D01*
X906Y177D02*
X1035Y177D01*
X1891Y177D02*
X1898Y177D01*
X1Y176D02*
X8Y176D01*
X906Y176D02*
X1035Y176D01*
X1891Y176D02*
X1898Y176D01*
X1Y175D02*
X8Y175D01*
X906Y175D02*
X1035Y175D01*
X1891Y175D02*
X1898Y175D01*
X1Y174D02*
X8Y174D01*
X906Y174D02*
X908Y174D01*
X966Y174D02*
X975Y174D01*
X1033Y174D02*
X1035Y174D01*
X1891Y174D02*
X1898Y174D01*
X1Y173D02*
X8Y173D01*
X906Y173D02*
X908Y173D01*
X1033Y173D02*
X1035Y173D01*
X1891Y173D02*
X1898Y173D01*
X1Y172D02*
X8Y172D01*
X906Y172D02*
X908Y172D01*
X1033Y172D02*
X1035Y172D01*
X1891Y172D02*
X1898Y172D01*
X1Y171D02*
X8Y171D01*
X906Y171D02*
X908Y171D01*
X1033Y171D02*
X1035Y171D01*
X1891Y171D02*
X1898Y171D01*
X1Y170D02*
X8Y170D01*
X906Y170D02*
X908Y170D01*
X1033Y170D02*
X1035Y170D01*
X1891Y170D02*
X1898Y170D01*
X1Y169D02*
X8Y169D01*
X906Y169D02*
X908Y169D01*
X1033Y169D02*
X1035Y169D01*
X1891Y169D02*
X1898Y169D01*
X1Y168D02*
X8Y168D01*
X906Y168D02*
X908Y168D01*
X1033Y168D02*
X1035Y168D01*
X1891Y168D02*
X1898Y168D01*
X1Y167D02*
X8Y167D01*
X906Y167D02*
X908Y167D01*
X1033Y167D02*
X1035Y167D01*
X1891Y167D02*
X1898Y167D01*
X1Y166D02*
X8Y166D01*
X906Y166D02*
X908Y166D01*
X1033Y166D02*
X1035Y166D01*
X1891Y166D02*
X1898Y166D01*
X1Y165D02*
X8Y165D01*
X906Y165D02*
X908Y165D01*
X1033Y165D02*
X1035Y165D01*
X1891Y165D02*
X1898Y165D01*
X1Y164D02*
X8Y164D01*
X847Y164D02*
X863Y164D01*
X878Y164D02*
X894Y164D01*
X906Y164D02*
X908Y164D01*
X1033Y164D02*
X1035Y164D01*
X1891Y164D02*
X1898Y164D01*
X1Y163D02*
X8Y163D01*
X847Y163D02*
X864Y163D01*
X877Y163D02*
X896Y163D01*
X906Y163D02*
X908Y163D01*
X1033Y163D02*
X1035Y163D01*
X1891Y163D02*
X1898Y163D01*
X1Y162D02*
X8Y162D01*
X847Y162D02*
X865Y162D01*
X877Y162D02*
X896Y162D01*
X906Y162D02*
X908Y162D01*
X1033Y162D02*
X1035Y162D01*
X1891Y162D02*
X1898Y162D01*
X1Y161D02*
X8Y161D01*
X847Y161D02*
X866Y161D01*
X878Y161D02*
X897Y161D01*
X906Y161D02*
X908Y161D01*
X1033Y161D02*
X1035Y161D01*
X1891Y161D02*
X1898Y161D01*
X1Y160D02*
X8Y160D01*
X847Y160D02*
X850Y160D01*
X862Y160D02*
X866Y160D01*
X893Y160D02*
X897Y160D01*
X906Y160D02*
X908Y160D01*
X1033Y160D02*
X1035Y160D01*
X1891Y160D02*
X1898Y160D01*
X1Y159D02*
X8Y159D01*
X847Y159D02*
X850Y159D01*
X863Y159D02*
X867Y159D01*
X894Y159D02*
X897Y159D01*
X906Y159D02*
X908Y159D01*
X1033Y159D02*
X1035Y159D01*
X1891Y159D02*
X1898Y159D01*
X1Y158D02*
X8Y158D01*
X847Y158D02*
X850Y158D01*
X863Y158D02*
X867Y158D01*
X894Y158D02*
X897Y158D01*
X906Y158D02*
X908Y158D01*
X1033Y158D02*
X1035Y158D01*
X1891Y158D02*
X1898Y158D01*
X1Y157D02*
X8Y157D01*
X847Y157D02*
X850Y157D01*
X863Y157D02*
X867Y157D01*
X894Y157D02*
X897Y157D01*
X906Y157D02*
X908Y157D01*
X1033Y157D02*
X1035Y157D01*
X1891Y157D02*
X1898Y157D01*
X1Y156D02*
X8Y156D01*
X847Y156D02*
X850Y156D01*
X863Y156D02*
X867Y156D01*
X894Y156D02*
X897Y156D01*
X906Y156D02*
X908Y156D01*
X1033Y156D02*
X1035Y156D01*
X1891Y156D02*
X1898Y156D01*
X1Y155D02*
X8Y155D01*
X847Y155D02*
X850Y155D01*
X863Y155D02*
X867Y155D01*
X894Y155D02*
X897Y155D01*
X906Y155D02*
X908Y155D01*
X1033Y155D02*
X1035Y155D01*
X1891Y155D02*
X1898Y155D01*
X1Y154D02*
X8Y154D01*
X847Y154D02*
X850Y154D01*
X862Y154D02*
X866Y154D01*
X894Y154D02*
X897Y154D01*
X906Y154D02*
X908Y154D01*
X1033Y154D02*
X1035Y154D01*
X1891Y154D02*
X1898Y154D01*
X1Y153D02*
X8Y153D01*
X847Y153D02*
X866Y153D01*
X894Y153D02*
X897Y153D01*
X906Y153D02*
X908Y153D01*
X1033Y153D02*
X1035Y153D01*
X1891Y153D02*
X1898Y153D01*
X1Y152D02*
X8Y152D01*
X218Y152D02*
X225Y152D01*
X691Y152D02*
X698Y152D01*
X847Y152D02*
X865Y152D01*
X894Y152D02*
X897Y152D01*
X906Y152D02*
X908Y152D01*
X1033Y152D02*
X1035Y152D01*
X1218Y152D02*
X1225Y152D01*
X1690Y152D02*
X1697Y152D01*
X1891Y152D02*
X1898Y152D01*
X1Y151D02*
X8Y151D01*
X218Y151D02*
X225Y151D01*
X690Y151D02*
X697Y151D01*
X847Y151D02*
X864Y151D01*
X894Y151D02*
X897Y151D01*
X906Y151D02*
X908Y151D01*
X1033Y151D02*
X1035Y151D01*
X1218Y151D02*
X1225Y151D01*
X1690Y151D02*
X1697Y151D01*
X1891Y151D02*
X1898Y151D01*
X1Y150D02*
X8Y150D01*
X218Y150D02*
X225Y150D01*
X690Y150D02*
X697Y150D01*
X847Y150D02*
X862Y150D01*
X880Y150D02*
X897Y150D01*
X906Y150D02*
X908Y150D01*
X1033Y150D02*
X1035Y150D01*
X1218Y150D02*
X1225Y150D01*
X1690Y150D02*
X1697Y150D01*
X1891Y150D02*
X1898Y150D01*
X1Y149D02*
X8Y149D01*
X218Y149D02*
X225Y149D01*
X690Y149D02*
X697Y149D01*
X847Y149D02*
X850Y149D01*
X854Y149D02*
X858Y149D01*
X878Y149D02*
X897Y149D01*
X906Y149D02*
X908Y149D01*
X1033Y149D02*
X1035Y149D01*
X1218Y149D02*
X1225Y149D01*
X1690Y149D02*
X1697Y149D01*
X1891Y149D02*
X1898Y149D01*
X1Y148D02*
X8Y148D01*
X218Y148D02*
X226Y148D01*
X690Y148D02*
X697Y148D01*
X847Y148D02*
X850Y148D01*
X855Y148D02*
X859Y148D01*
X878Y148D02*
X896Y148D01*
X906Y148D02*
X908Y148D01*
X1033Y148D02*
X1035Y148D01*
X1218Y148D02*
X1225Y148D01*
X1690Y148D02*
X1697Y148D01*
X1891Y148D02*
X1898Y148D01*
X1Y147D02*
X8Y147D01*
X219Y147D02*
X226Y147D01*
X690Y147D02*
X697Y147D01*
X847Y147D02*
X850Y147D01*
X856Y147D02*
X859Y147D01*
X877Y147D02*
X895Y147D01*
X906Y147D02*
X908Y147D01*
X1033Y147D02*
X1035Y147D01*
X1219Y147D02*
X1226Y147D01*
X1690Y147D02*
X1697Y147D01*
X1891Y147D02*
X1898Y147D01*
X1Y146D02*
X8Y146D01*
X219Y146D02*
X226Y146D01*
X690Y146D02*
X697Y146D01*
X847Y146D02*
X850Y146D01*
X856Y146D02*
X860Y146D01*
X877Y146D02*
X881Y146D01*
X906Y146D02*
X908Y146D01*
X1033Y146D02*
X1035Y146D01*
X1219Y146D02*
X1226Y146D01*
X1690Y146D02*
X1697Y146D01*
X1891Y146D02*
X1898Y146D01*
X1Y145D02*
X8Y145D01*
X219Y145D02*
X226Y145D01*
X690Y145D02*
X697Y145D01*
X847Y145D02*
X850Y145D01*
X857Y145D02*
X861Y145D01*
X877Y145D02*
X880Y145D01*
X906Y145D02*
X908Y145D01*
X1033Y145D02*
X1035Y145D01*
X1219Y145D02*
X1226Y145D01*
X1690Y145D02*
X1697Y145D01*
X1891Y145D02*
X1898Y145D01*
X1Y144D02*
X8Y144D01*
X219Y144D02*
X226Y144D01*
X690Y144D02*
X697Y144D01*
X847Y144D02*
X850Y144D01*
X857Y144D02*
X861Y144D01*
X877Y144D02*
X880Y144D01*
X906Y144D02*
X908Y144D01*
X1033Y144D02*
X1035Y144D01*
X1219Y144D02*
X1226Y144D01*
X1689Y144D02*
X1697Y144D01*
X1891Y144D02*
X1898Y144D01*
X1Y143D02*
X8Y143D01*
X219Y143D02*
X226Y143D01*
X689Y143D02*
X696Y143D01*
X847Y143D02*
X850Y143D01*
X858Y143D02*
X862Y143D01*
X877Y143D02*
X880Y143D01*
X906Y143D02*
X908Y143D01*
X1033Y143D02*
X1035Y143D01*
X1219Y143D02*
X1226Y143D01*
X1689Y143D02*
X1696Y143D01*
X1891Y143D02*
X1898Y143D01*
X1Y142D02*
X8Y142D01*
X220Y142D02*
X227Y142D01*
X689Y142D02*
X696Y142D01*
X847Y142D02*
X850Y142D01*
X858Y142D02*
X862Y142D01*
X877Y142D02*
X880Y142D01*
X906Y142D02*
X908Y142D01*
X1033Y142D02*
X1035Y142D01*
X1220Y142D02*
X1227Y142D01*
X1689Y142D02*
X1696Y142D01*
X1891Y142D02*
X1898Y142D01*
X1Y141D02*
X8Y141D01*
X220Y141D02*
X227Y141D01*
X689Y141D02*
X696Y141D01*
X847Y141D02*
X850Y141D01*
X859Y141D02*
X863Y141D01*
X877Y141D02*
X880Y141D01*
X906Y141D02*
X908Y141D01*
X1033Y141D02*
X1035Y141D01*
X1220Y141D02*
X1227Y141D01*
X1689Y141D02*
X1696Y141D01*
X1891Y141D02*
X1898Y141D01*
X1Y140D02*
X8Y140D01*
X220Y140D02*
X227Y140D01*
X688Y140D02*
X696Y140D01*
X847Y140D02*
X850Y140D01*
X860Y140D02*
X864Y140D01*
X877Y140D02*
X880Y140D01*
X906Y140D02*
X908Y140D01*
X1033Y140D02*
X1035Y140D01*
X1220Y140D02*
X1227Y140D01*
X1688Y140D02*
X1696Y140D01*
X1891Y140D02*
X1898Y140D01*
X1Y139D02*
X8Y139D01*
X220Y139D02*
X228Y139D01*
X688Y139D02*
X695Y139D01*
X847Y139D02*
X850Y139D01*
X860Y139D02*
X864Y139D01*
X877Y139D02*
X880Y139D01*
X906Y139D02*
X908Y139D01*
X1033Y139D02*
X1035Y139D01*
X1220Y139D02*
X1228Y139D01*
X1688Y139D02*
X1695Y139D01*
X1891Y139D02*
X1898Y139D01*
X1Y138D02*
X8Y138D01*
X221Y138D02*
X228Y138D01*
X687Y138D02*
X695Y138D01*
X847Y138D02*
X850Y138D01*
X861Y138D02*
X865Y138D01*
X877Y138D02*
X880Y138D01*
X906Y138D02*
X908Y138D01*
X1033Y138D02*
X1035Y138D01*
X1221Y138D02*
X1228Y138D01*
X1687Y138D02*
X1695Y138D01*
X1891Y138D02*
X1898Y138D01*
X1Y137D02*
X8Y137D01*
X221Y137D02*
X229Y137D01*
X687Y137D02*
X695Y137D01*
X847Y137D02*
X850Y137D01*
X861Y137D02*
X865Y137D01*
X877Y137D02*
X880Y137D01*
X906Y137D02*
X908Y137D01*
X1033Y137D02*
X1035Y137D01*
X1221Y137D02*
X1229Y137D01*
X1687Y137D02*
X1694Y137D01*
X1891Y137D02*
X1898Y137D01*
X1Y136D02*
X8Y136D01*
X222Y136D02*
X229Y136D01*
X686Y136D02*
X694Y136D01*
X847Y136D02*
X850Y136D01*
X862Y136D02*
X866Y136D01*
X877Y136D02*
X895Y136D01*
X906Y136D02*
X908Y136D01*
X1033Y136D02*
X1035Y136D01*
X1222Y136D02*
X1229Y136D01*
X1686Y136D02*
X1694Y136D01*
X1891Y136D02*
X1898Y136D01*
X1Y135D02*
X8Y135D01*
X222Y135D02*
X230Y135D01*
X686Y135D02*
X694Y135D01*
X847Y135D02*
X850Y135D01*
X863Y135D02*
X866Y135D01*
X877Y135D02*
X897Y135D01*
X906Y135D02*
X908Y135D01*
X1033Y135D02*
X1035Y135D01*
X1222Y135D02*
X1230Y135D01*
X1686Y135D02*
X1694Y135D01*
X1891Y135D02*
X1898Y135D01*
X1Y134D02*
X8Y134D01*
X223Y134D02*
X230Y134D01*
X685Y134D02*
X693Y134D01*
X847Y134D02*
X850Y134D01*
X863Y134D02*
X867Y134D01*
X877Y134D02*
X897Y134D01*
X906Y134D02*
X908Y134D01*
X1033Y134D02*
X1035Y134D01*
X1222Y134D02*
X1230Y134D01*
X1685Y134D02*
X1693Y134D01*
X1891Y134D02*
X1898Y134D01*
X1Y133D02*
X8Y133D01*
X223Y133D02*
X231Y133D01*
X685Y133D02*
X693Y133D01*
X847Y133D02*
X850Y133D01*
X864Y133D02*
X866Y133D01*
X877Y133D02*
X896Y133D01*
X906Y133D02*
X908Y133D01*
X1033Y133D02*
X1035Y133D01*
X1223Y133D02*
X1231Y133D01*
X1685Y133D02*
X1693Y133D01*
X1891Y133D02*
X1898Y133D01*
X1Y132D02*
X8Y132D01*
X224Y132D02*
X232Y132D01*
X684Y132D02*
X692Y132D01*
X877Y132D02*
X895Y132D01*
X906Y132D02*
X908Y132D01*
X1033Y132D02*
X1035Y132D01*
X1223Y132D02*
X1232Y132D01*
X1684Y132D02*
X1692Y132D01*
X1891Y132D02*
X1898Y132D01*
X1Y131D02*
X8Y131D01*
X224Y131D02*
X233Y131D01*
X683Y131D02*
X692Y131D01*
X906Y131D02*
X908Y131D01*
X1033Y131D02*
X1035Y131D01*
X1224Y131D02*
X1233Y131D01*
X1683Y131D02*
X1692Y131D01*
X1891Y131D02*
X1898Y131D01*
X1Y130D02*
X8Y130D01*
X225Y130D02*
X233Y130D01*
X682Y130D02*
X691Y130D01*
X906Y130D02*
X908Y130D01*
X1033Y130D02*
X1035Y130D01*
X1225Y130D02*
X1233Y130D01*
X1682Y130D02*
X1691Y130D01*
X1891Y130D02*
X1898Y130D01*
X1Y129D02*
X8Y129D01*
X225Y129D02*
X234Y129D01*
X681Y129D02*
X690Y129D01*
X906Y129D02*
X908Y129D01*
X1033Y129D02*
X1035Y129D01*
X1225Y129D02*
X1234Y129D01*
X1681Y129D02*
X1690Y129D01*
X1891Y129D02*
X1898Y129D01*
X1Y128D02*
X8Y128D01*
X226Y128D02*
X235Y128D01*
X681Y128D02*
X690Y128D01*
X906Y128D02*
X908Y128D01*
X1033Y128D02*
X1035Y128D01*
X1226Y128D02*
X1235Y128D01*
X1680Y128D02*
X1690Y128D01*
X1891Y128D02*
X1898Y128D01*
X1Y127D02*
X8Y127D01*
X227Y127D02*
X236Y127D01*
X679Y127D02*
X689Y127D01*
X906Y127D02*
X908Y127D01*
X1033Y127D02*
X1035Y127D01*
X1227Y127D02*
X1236Y127D01*
X1679Y127D02*
X1689Y127D01*
X1891Y127D02*
X1898Y127D01*
X1Y126D02*
X8Y126D01*
X227Y126D02*
X237Y126D01*
X678Y126D02*
X688Y126D01*
X906Y126D02*
X908Y126D01*
X1033Y126D02*
X1035Y126D01*
X1227Y126D02*
X1237Y126D01*
X1678Y126D02*
X1688Y126D01*
X1891Y126D02*
X1898Y126D01*
X1Y125D02*
X8Y125D01*
X228Y125D02*
X239Y125D01*
X677Y125D02*
X688Y125D01*
X906Y125D02*
X908Y125D01*
X1033Y125D02*
X1035Y125D01*
X1228Y125D02*
X1238Y125D01*
X1677Y125D02*
X1687Y125D01*
X1891Y125D02*
X1898Y125D01*
X1Y124D02*
X8Y124D01*
X229Y124D02*
X240Y124D01*
X676Y124D02*
X687Y124D01*
X906Y124D02*
X908Y124D01*
X1033Y124D02*
X1035Y124D01*
X1229Y124D02*
X1240Y124D01*
X1676Y124D02*
X1687Y124D01*
X1891Y124D02*
X1898Y124D01*
X1Y123D02*
X8Y123D01*
X230Y123D02*
X241Y123D01*
X674Y123D02*
X686Y123D01*
X906Y123D02*
X908Y123D01*
X1033Y123D02*
X1035Y123D01*
X1230Y123D02*
X1241Y123D01*
X1674Y123D02*
X1686Y123D01*
X1891Y123D02*
X1898Y123D01*
X1Y122D02*
X8Y122D01*
X231Y122D02*
X243Y122D01*
X673Y122D02*
X685Y122D01*
X906Y122D02*
X908Y122D01*
X966Y122D02*
X975Y122D01*
X1033Y122D02*
X1035Y122D01*
X1231Y122D02*
X1243Y122D01*
X1673Y122D02*
X1685Y122D01*
X1891Y122D02*
X1898Y122D01*
X1Y121D02*
X8Y121D01*
X232Y121D02*
X245Y121D01*
X671Y121D02*
X684Y121D01*
X906Y121D02*
X1035Y121D01*
X1232Y121D02*
X1245Y121D01*
X1671Y121D02*
X1684Y121D01*
X1891Y121D02*
X1898Y121D01*
X1Y120D02*
X8Y120D01*
X233Y120D02*
X247Y120D01*
X669Y120D02*
X683Y120D01*
X906Y120D02*
X1035Y120D01*
X1233Y120D02*
X1247Y120D01*
X1669Y120D02*
X1683Y120D01*
X1891Y120D02*
X1898Y120D01*
X1Y119D02*
X8Y119D01*
X234Y119D02*
X250Y119D01*
X666Y119D02*
X681Y119D01*
X906Y119D02*
X1035Y119D01*
X1234Y119D02*
X1250Y119D01*
X1666Y119D02*
X1681Y119D01*
X1891Y119D02*
X1898Y119D01*
X1Y118D02*
X8Y118D01*
X236Y118D02*
X253Y118D01*
X662Y118D02*
X680Y118D01*
X1236Y118D02*
X1253Y118D01*
X1662Y118D02*
X1680Y118D01*
X1891Y118D02*
X1898Y118D01*
X1Y117D02*
X8Y117D01*
X237Y117D02*
X260Y117D01*
X655Y117D02*
X679Y117D01*
X1237Y117D02*
X1260Y117D01*
X1655Y117D02*
X1679Y117D01*
X1891Y117D02*
X1898Y117D01*
X1Y116D02*
X8Y116D01*
X239Y116D02*
X261Y116D01*
X655Y116D02*
X677Y116D01*
X1239Y116D02*
X1260Y116D01*
X1655Y116D02*
X1677Y116D01*
X1891Y116D02*
X1898Y116D01*
X1Y115D02*
X8Y115D01*
X240Y115D02*
X261Y115D01*
X655Y115D02*
X676Y115D01*
X1240Y115D02*
X1260Y115D01*
X1655Y115D02*
X1675Y115D01*
X1891Y115D02*
X1898Y115D01*
X1Y114D02*
X8Y114D01*
X242Y114D02*
X261Y114D01*
X655Y114D02*
X674Y114D01*
X1242Y114D02*
X1260Y114D01*
X1655Y114D02*
X1673Y114D01*
X1891Y114D02*
X1898Y114D01*
X1Y113D02*
X8Y113D01*
X244Y113D02*
X261Y113D01*
X655Y113D02*
X672Y113D01*
X1244Y113D02*
X1260Y113D01*
X1655Y113D02*
X1671Y113D01*
X1891Y113D02*
X1898Y113D01*
X1Y112D02*
X8Y112D01*
X247Y112D02*
X261Y112D01*
X655Y112D02*
X669Y112D01*
X1247Y112D02*
X1260Y112D01*
X1655Y112D02*
X1669Y112D01*
X1891Y112D02*
X1898Y112D01*
X1Y111D02*
X8Y111D01*
X250Y111D02*
X261Y111D01*
X655Y111D02*
X666Y111D01*
X1250Y111D02*
X1260Y111D01*
X1655Y111D02*
X1666Y111D01*
X1891Y111D02*
X1898Y111D01*
X1Y110D02*
X8Y110D01*
X254Y110D02*
X261Y110D01*
X655Y110D02*
X661Y110D01*
X1254Y110D02*
X1260Y110D01*
X1655Y110D02*
X1661Y110D01*
X1891Y110D02*
X1898Y110D01*
X1Y109D02*
X8Y109D01*
X1891Y109D02*
X1898Y109D01*
X1Y108D02*
X8Y108D01*
X1891Y108D02*
X1898Y108D01*
X1Y107D02*
X8Y107D01*
X1891Y107D02*
X1898Y107D01*
X1Y106D02*
X8Y106D01*
X1891Y106D02*
X1898Y106D01*
X1Y105D02*
X8Y105D01*
X1891Y105D02*
X1898Y105D01*
X1Y104D02*
X8Y104D01*
X1891Y104D02*
X1898Y104D01*
X1Y103D02*
X8Y103D01*
X1891Y103D02*
X1898Y103D01*
X1Y102D02*
X8Y102D01*
X1891Y102D02*
X1898Y102D01*
X1Y101D02*
X8Y101D01*
X1891Y101D02*
X1898Y101D01*
X1Y100D02*
X8Y100D01*
X1891Y100D02*
X1898Y100D01*
X1Y99D02*
X8Y99D01*
X1891Y99D02*
X1898Y99D01*
X1Y98D02*
X8Y98D01*
X1891Y98D02*
X1898Y98D01*
X1Y97D02*
X8Y97D01*
X1891Y97D02*
X1898Y97D01*
X1Y96D02*
X8Y96D01*
X1891Y96D02*
X1898Y96D01*
X1Y95D02*
X8Y95D01*
X1891Y95D02*
X1898Y95D01*
X1Y94D02*
X8Y94D01*
X1891Y94D02*
X1898Y94D01*
X1Y93D02*
X8Y93D01*
X1891Y93D02*
X1898Y93D01*
X1Y92D02*
X8Y92D01*
X1891Y92D02*
X1898Y92D01*
X1Y91D02*
X8Y91D01*
X1891Y91D02*
X1898Y91D01*
X1Y90D02*
X8Y90D01*
X1891Y90D02*
X1898Y90D01*
X1Y89D02*
X8Y89D01*
X1891Y89D02*
X1898Y89D01*
X1Y88D02*
X8Y88D01*
X1891Y88D02*
X1898Y88D01*
X1Y87D02*
X8Y87D01*
X1891Y87D02*
X1898Y87D01*
X1Y86D02*
X8Y86D01*
X1891Y86D02*
X1898Y86D01*
X1Y85D02*
X8Y85D01*
X1891Y85D02*
X1898Y85D01*
X1Y84D02*
X8Y84D01*
X1891Y84D02*
X1898Y84D01*
X1Y83D02*
X8Y83D01*
X1891Y83D02*
X1898Y83D01*
X1Y82D02*
X8Y82D01*
X1891Y82D02*
X1898Y82D01*
X1Y81D02*
X8Y81D01*
X1891Y81D02*
X1898Y81D01*
X1Y80D02*
X8Y80D01*
X1891Y80D02*
X1898Y80D01*
X1Y79D02*
X8Y79D01*
X1891Y79D02*
X1898Y79D01*
X1Y78D02*
X8Y78D01*
X1891Y78D02*
X1898Y78D01*
X1Y77D02*
X8Y77D01*
X1891Y77D02*
X1898Y77D01*
X1Y76D02*
X8Y76D01*
X1891Y76D02*
X1898Y76D01*
X1Y75D02*
X8Y75D01*
X1891Y75D02*
X1898Y75D01*
X1Y74D02*
X8Y74D01*
X197Y74D02*
X201Y74D01*
X1891Y74D02*
X1898Y74D01*
X1Y73D02*
X8Y73D01*
X197Y73D02*
X202Y73D01*
X1891Y73D02*
X1898Y73D01*
X1Y72D02*
X8Y72D01*
X47Y72D02*
X59Y72D01*
X100Y72D02*
X103Y72D01*
X197Y72D02*
X202Y72D01*
X341Y72D02*
X356Y72D01*
X582Y72D02*
X585Y72D01*
X599Y72D02*
X601Y72D01*
X613Y72D02*
X624Y72D01*
X673Y72D02*
X684Y72D01*
X733Y72D02*
X751Y72D01*
X764Y72D02*
X781Y72D01*
X793Y72D02*
X811Y72D01*
X823Y72D02*
X841Y72D01*
X1891Y72D02*
X1898Y72D01*
X1Y71D02*
X8Y71D01*
X46Y71D02*
X59Y71D01*
X100Y71D02*
X103Y71D01*
X197Y71D02*
X202Y71D01*
X286Y71D02*
X287Y71D01*
X341Y71D02*
X358Y71D01*
X407Y71D02*
X407Y71D01*
X437Y71D02*
X437Y71D01*
X582Y71D02*
X585Y71D01*
X599Y71D02*
X602Y71D01*
X612Y71D02*
X624Y71D01*
X672Y71D02*
X684Y71D01*
X733Y71D02*
X752Y71D01*
X763Y71D02*
X782Y71D01*
X793Y71D02*
X812Y71D01*
X823Y71D02*
X842Y71D01*
X1891Y71D02*
X1898Y71D01*
X1Y70D02*
X8Y70D01*
X45Y70D02*
X59Y70D01*
X100Y70D02*
X103Y70D01*
X197Y70D02*
X202Y70D01*
X285Y70D02*
X288Y70D01*
X341Y70D02*
X359Y70D01*
X406Y70D02*
X408Y70D01*
X436Y70D02*
X438Y70D01*
X582Y70D02*
X585Y70D01*
X599Y70D02*
X602Y70D01*
X612Y70D02*
X624Y70D01*
X673Y70D02*
X684Y70D01*
X733Y70D02*
X752Y70D01*
X763Y70D02*
X782Y70D01*
X793Y70D02*
X812Y70D01*
X823Y70D02*
X842Y70D01*
X1891Y70D02*
X1898Y70D01*
X1Y69D02*
X8Y69D01*
X45Y69D02*
X58Y69D01*
X100Y69D02*
X103Y69D01*
X198Y69D02*
X201Y69D01*
X285Y69D02*
X288Y69D01*
X341Y69D02*
X359Y69D01*
X405Y69D02*
X409Y69D01*
X436Y69D02*
X439Y69D01*
X582Y69D02*
X585Y69D01*
X599Y69D02*
X602Y69D01*
X613Y69D02*
X624Y69D01*
X674Y69D02*
X684Y69D01*
X734Y69D02*
X752Y69D01*
X763Y69D02*
X782Y69D01*
X794Y69D02*
X813Y69D01*
X824Y69D02*
X843Y69D01*
X1891Y69D02*
X1898Y69D01*
X1Y68D02*
X8Y68D01*
X44Y68D02*
X48Y68D01*
X100Y68D02*
X103Y68D01*
X285Y68D02*
X288Y68D01*
X341Y68D02*
X344Y68D01*
X356Y68D02*
X360Y68D01*
X405Y68D02*
X409Y68D01*
X435Y68D02*
X439Y68D01*
X582Y68D02*
X585Y68D01*
X599Y68D02*
X602Y68D01*
X620Y68D02*
X624Y68D01*
X681Y68D02*
X684Y68D01*
X749Y68D02*
X752Y68D01*
X763Y68D02*
X766Y68D01*
X779Y68D02*
X782Y68D01*
X809Y68D02*
X813Y68D01*
X839Y68D02*
X843Y68D01*
X1891Y68D02*
X1898Y68D01*
X1Y67D02*
X8Y67D01*
X44Y67D02*
X48Y67D01*
X100Y67D02*
X103Y67D01*
X285Y67D02*
X288Y67D01*
X341Y67D02*
X344Y67D01*
X357Y67D02*
X360Y67D01*
X405Y67D02*
X409Y67D01*
X435Y67D02*
X439Y67D01*
X582Y67D02*
X585Y67D01*
X599Y67D02*
X602Y67D01*
X620Y67D02*
X624Y67D01*
X681Y67D02*
X684Y67D01*
X749Y67D02*
X752Y67D01*
X763Y67D02*
X766Y67D01*
X779Y67D02*
X782Y67D01*
X809Y67D02*
X813Y67D01*
X839Y67D02*
X843Y67D01*
X1891Y67D02*
X1898Y67D01*
X1Y66D02*
X8Y66D01*
X43Y66D02*
X47Y66D01*
X100Y66D02*
X103Y66D01*
X285Y66D02*
X288Y66D01*
X341Y66D02*
X344Y66D01*
X357Y66D02*
X361Y66D01*
X405Y66D02*
X409Y66D01*
X435Y66D02*
X439Y66D01*
X582Y66D02*
X585Y66D01*
X599Y66D02*
X602Y66D01*
X620Y66D02*
X624Y66D01*
X681Y66D02*
X684Y66D01*
X749Y66D02*
X752Y66D01*
X763Y66D02*
X766Y66D01*
X779Y66D02*
X782Y66D01*
X809Y66D02*
X813Y66D01*
X839Y66D02*
X843Y66D01*
X1891Y66D02*
X1898Y66D01*
X1Y65D02*
X8Y65D01*
X43Y65D02*
X47Y65D01*
X100Y65D02*
X103Y65D01*
X285Y65D02*
X288Y65D01*
X341Y65D02*
X344Y65D01*
X357Y65D02*
X361Y65D01*
X405Y65D02*
X409Y65D01*
X435Y65D02*
X439Y65D01*
X582Y65D02*
X585Y65D01*
X599Y65D02*
X602Y65D01*
X620Y65D02*
X624Y65D01*
X681Y65D02*
X684Y65D01*
X749Y65D02*
X752Y65D01*
X763Y65D02*
X766Y65D01*
X779Y65D02*
X782Y65D01*
X809Y65D02*
X813Y65D01*
X839Y65D02*
X843Y65D01*
X1891Y65D02*
X1898Y65D01*
X1Y64D02*
X8Y64D01*
X42Y64D02*
X46Y64D01*
X71Y64D02*
X72Y64D01*
X88Y64D02*
X88Y64D01*
X100Y64D02*
X103Y64D01*
X109Y64D02*
X113Y64D01*
X137Y64D02*
X143Y64D01*
X162Y64D02*
X162Y64D01*
X170Y64D02*
X175Y64D01*
X194Y64D02*
X200Y64D01*
X222Y64D02*
X222Y64D01*
X231Y64D02*
X235Y64D01*
X258Y64D02*
X264Y64D01*
X282Y64D02*
X297Y64D01*
X341Y64D02*
X344Y64D01*
X358Y64D02*
X361Y64D01*
X373Y64D02*
X373Y64D01*
X389Y64D02*
X389Y64D01*
X403Y64D02*
X417Y64D01*
X433Y64D02*
X447Y64D01*
X469Y64D02*
X475Y64D01*
X493Y64D02*
X493Y64D01*
X502Y64D02*
X506Y64D01*
X527Y64D02*
X537Y64D01*
X582Y64D02*
X585Y64D01*
X598Y64D02*
X602Y64D01*
X620Y64D02*
X624Y64D01*
X681Y64D02*
X684Y64D01*
X749Y64D02*
X752Y64D01*
X763Y64D02*
X766Y64D01*
X779Y64D02*
X782Y64D01*
X809Y64D02*
X813Y64D01*
X839Y64D02*
X843Y64D01*
X1891Y64D02*
X1898Y64D01*
X1Y63D02*
X8Y63D01*
X42Y63D02*
X46Y63D01*
X70Y63D02*
X73Y63D01*
X87Y63D02*
X89Y63D01*
X100Y63D02*
X103Y63D01*
X106Y63D02*
X115Y63D01*
X135Y63D02*
X146Y63D01*
X161Y63D02*
X163Y63D01*
X169Y63D02*
X177Y63D01*
X193Y63D02*
X202Y63D01*
X221Y63D02*
X223Y63D01*
X229Y63D02*
X237Y63D01*
X255Y63D02*
X266Y63D01*
X281Y63D02*
X298Y63D01*
X341Y63D02*
X344Y63D01*
X358Y63D02*
X361Y63D01*
X371Y63D02*
X374Y63D01*
X388Y63D02*
X391Y63D01*
X402Y63D02*
X419Y63D01*
X432Y63D02*
X449Y63D01*
X466Y63D02*
X477Y63D01*
X492Y63D02*
X495Y63D01*
X500Y63D02*
X508Y63D01*
X524Y63D02*
X539Y63D01*
X582Y63D02*
X586Y63D01*
X598Y63D02*
X602Y63D01*
X620Y63D02*
X624Y63D01*
X681Y63D02*
X684Y63D01*
X749Y63D02*
X752Y63D01*
X763Y63D02*
X766Y63D01*
X779Y63D02*
X782Y63D01*
X809Y63D02*
X813Y63D01*
X839Y63D02*
X843Y63D01*
X1891Y63D02*
X1898Y63D01*
X1Y62D02*
X8Y62D01*
X41Y62D02*
X45Y62D01*
X70Y62D02*
X73Y62D01*
X86Y62D02*
X90Y62D01*
X100Y62D02*
X103Y62D01*
X105Y62D02*
X117Y62D01*
X133Y62D02*
X147Y62D01*
X160Y62D02*
X163Y62D01*
X167Y62D02*
X178Y62D01*
X192Y62D02*
X202Y62D01*
X221Y62D02*
X224Y62D01*
X227Y62D02*
X238Y62D01*
X254Y62D02*
X267Y62D01*
X281Y62D02*
X298Y62D01*
X341Y62D02*
X344Y62D01*
X357Y62D02*
X361Y62D01*
X371Y62D02*
X374Y62D01*
X388Y62D02*
X391Y62D01*
X401Y62D02*
X419Y62D01*
X431Y62D02*
X449Y62D01*
X464Y62D02*
X478Y62D01*
X492Y62D02*
X495Y62D01*
X498Y62D02*
X509Y62D01*
X523Y62D02*
X540Y62D01*
X582Y62D02*
X586Y62D01*
X598Y62D02*
X601Y62D01*
X620Y62D02*
X624Y62D01*
X681Y62D02*
X684Y62D01*
X749Y62D02*
X752Y62D01*
X763Y62D02*
X766Y62D01*
X779Y62D02*
X782Y62D01*
X809Y62D02*
X813Y62D01*
X839Y62D02*
X843Y62D01*
X1891Y62D02*
X1898Y62D01*
X1Y61D02*
X8Y61D01*
X41Y61D02*
X45Y61D01*
X70Y61D02*
X73Y61D01*
X86Y61D02*
X90Y61D01*
X100Y61D02*
X118Y61D01*
X132Y61D02*
X148Y61D01*
X160Y61D02*
X164Y61D01*
X166Y61D02*
X179Y61D01*
X193Y61D02*
X202Y61D01*
X221Y61D02*
X239Y61D01*
X253Y61D02*
X269Y61D01*
X281Y61D02*
X298Y61D01*
X341Y61D02*
X344Y61D01*
X357Y61D02*
X361Y61D01*
X371Y61D02*
X374Y61D01*
X388Y61D02*
X391Y61D01*
X402Y61D02*
X419Y61D01*
X432Y61D02*
X449Y61D01*
X463Y61D02*
X479Y61D01*
X492Y61D02*
X510Y61D01*
X523Y61D02*
X541Y61D01*
X583Y61D02*
X586Y61D01*
X597Y61D02*
X601Y61D01*
X620Y61D02*
X624Y61D01*
X681Y61D02*
X684Y61D01*
X749Y61D02*
X752Y61D01*
X763Y61D02*
X766Y61D01*
X779Y61D02*
X782Y61D01*
X809Y61D02*
X813Y61D01*
X839Y61D02*
X843Y61D01*
X1891Y61D02*
X1898Y61D01*
X1Y60D02*
X8Y60D01*
X40Y60D02*
X44Y60D01*
X70Y60D02*
X73Y60D01*
X86Y60D02*
X90Y60D01*
X100Y60D02*
X119Y60D01*
X131Y60D02*
X149Y60D01*
X160Y60D02*
X180Y60D01*
X194Y60D02*
X202Y60D01*
X221Y60D02*
X239Y60D01*
X252Y60D02*
X269Y60D01*
X282Y60D02*
X297Y60D01*
X341Y60D02*
X344Y60D01*
X356Y60D02*
X360Y60D01*
X371Y60D02*
X374Y60D01*
X388Y60D02*
X391Y60D01*
X403Y60D02*
X417Y60D01*
X433Y60D02*
X447Y60D01*
X463Y60D02*
X480Y60D01*
X492Y60D02*
X510Y60D01*
X522Y60D02*
X541Y60D01*
X583Y60D02*
X587Y60D01*
X597Y60D02*
X600Y60D01*
X620Y60D02*
X624Y60D01*
X681Y60D02*
X684Y60D01*
X749Y60D02*
X752Y60D01*
X763Y60D02*
X766Y60D01*
X779Y60D02*
X782Y60D01*
X809Y60D02*
X813Y60D01*
X839Y60D02*
X843Y60D01*
X1891Y60D02*
X1898Y60D01*
X1Y59D02*
X8Y59D01*
X40Y59D02*
X44Y59D01*
X70Y59D02*
X73Y59D01*
X86Y59D02*
X90Y59D01*
X100Y59D02*
X107Y59D01*
X115Y59D02*
X119Y59D01*
X131Y59D02*
X135Y59D01*
X145Y59D02*
X149Y59D01*
X160Y59D02*
X169Y59D01*
X176Y59D02*
X180Y59D01*
X199Y59D02*
X202Y59D01*
X221Y59D02*
X229Y59D01*
X236Y59D02*
X240Y59D01*
X251Y59D02*
X256Y59D01*
X266Y59D02*
X270Y59D01*
X285Y59D02*
X288Y59D01*
X341Y59D02*
X344Y59D01*
X354Y59D02*
X360Y59D01*
X371Y59D02*
X374Y59D01*
X388Y59D02*
X391Y59D01*
X405Y59D02*
X409Y59D01*
X435Y59D02*
X439Y59D01*
X462Y59D02*
X466Y59D01*
X476Y59D02*
X481Y59D01*
X492Y59D02*
X500Y59D01*
X507Y59D02*
X511Y59D01*
X522Y59D02*
X526Y59D01*
X538Y59D02*
X541Y59D01*
X584Y59D02*
X587Y59D01*
X596Y59D02*
X600Y59D01*
X620Y59D02*
X624Y59D01*
X681Y59D02*
X684Y59D01*
X749Y59D02*
X752Y59D01*
X763Y59D02*
X766Y59D01*
X779Y59D02*
X782Y59D01*
X809Y59D02*
X813Y59D01*
X838Y59D02*
X842Y59D01*
X1891Y59D02*
X1898Y59D01*
X1Y58D02*
X8Y58D01*
X40Y58D02*
X43Y58D01*
X70Y58D02*
X74Y58D01*
X86Y58D02*
X90Y58D01*
X100Y58D02*
X106Y58D01*
X116Y58D02*
X120Y58D01*
X130Y58D02*
X134Y58D01*
X146Y58D02*
X150Y58D01*
X160Y58D02*
X168Y58D01*
X177Y58D02*
X180Y58D01*
X199Y58D02*
X202Y58D01*
X221Y58D02*
X228Y58D01*
X236Y58D02*
X240Y58D01*
X251Y58D02*
X254Y58D01*
X267Y58D02*
X270Y58D01*
X285Y58D02*
X288Y58D01*
X341Y58D02*
X359Y58D01*
X371Y58D02*
X374Y58D01*
X388Y58D02*
X391Y58D01*
X405Y58D02*
X409Y58D01*
X435Y58D02*
X439Y58D01*
X462Y58D02*
X465Y58D01*
X477Y58D02*
X481Y58D01*
X492Y58D02*
X499Y58D01*
X508Y58D02*
X511Y58D01*
X522Y58D02*
X526Y58D01*
X584Y58D02*
X588Y58D01*
X596Y58D02*
X600Y58D01*
X620Y58D02*
X624Y58D01*
X681Y58D02*
X684Y58D01*
X734Y58D02*
X752Y58D01*
X763Y58D02*
X766Y58D01*
X779Y58D02*
X782Y58D01*
X795Y58D02*
X812Y58D01*
X828Y58D02*
X842Y58D01*
X1891Y58D02*
X1898Y58D01*
X1Y57D02*
X8Y57D01*
X40Y57D02*
X43Y57D01*
X70Y57D02*
X74Y57D01*
X86Y57D02*
X89Y57D01*
X100Y57D02*
X105Y57D01*
X116Y57D02*
X120Y57D01*
X130Y57D02*
X133Y57D01*
X147Y57D02*
X150Y57D01*
X160Y57D02*
X167Y57D01*
X177Y57D02*
X180Y57D01*
X199Y57D02*
X202Y57D01*
X221Y57D02*
X226Y57D01*
X237Y57D02*
X240Y57D01*
X251Y57D02*
X254Y57D01*
X267Y57D02*
X270Y57D01*
X285Y57D02*
X288Y57D01*
X341Y57D02*
X358Y57D01*
X371Y57D02*
X374Y57D01*
X388Y57D02*
X391Y57D01*
X405Y57D02*
X409Y57D01*
X435Y57D02*
X439Y57D01*
X462Y57D02*
X465Y57D01*
X478Y57D02*
X481Y57D01*
X492Y57D02*
X497Y57D01*
X508Y57D02*
X511Y57D01*
X523Y57D02*
X528Y57D01*
X584Y57D02*
X588Y57D01*
X596Y57D02*
X599Y57D01*
X620Y57D02*
X624Y57D01*
X681Y57D02*
X684Y57D01*
X733Y57D02*
X752Y57D01*
X763Y57D02*
X766Y57D01*
X779Y57D02*
X782Y57D01*
X794Y57D02*
X812Y57D01*
X827Y57D02*
X841Y57D01*
X1891Y57D02*
X1898Y57D01*
X1Y56D02*
X8Y56D01*
X40Y56D02*
X43Y56D01*
X71Y56D02*
X74Y56D01*
X85Y56D02*
X89Y56D01*
X100Y56D02*
X104Y56D01*
X117Y56D02*
X120Y56D01*
X130Y56D02*
X133Y56D01*
X147Y56D02*
X150Y56D01*
X160Y56D02*
X166Y56D01*
X177Y56D02*
X180Y56D01*
X199Y56D02*
X202Y56D01*
X221Y56D02*
X224Y56D01*
X237Y56D02*
X240Y56D01*
X251Y56D02*
X254Y56D01*
X267Y56D02*
X270Y56D01*
X285Y56D02*
X288Y56D01*
X341Y56D02*
X359Y56D01*
X371Y56D02*
X375Y56D01*
X388Y56D02*
X391Y56D01*
X405Y56D02*
X409Y56D01*
X435Y56D02*
X439Y56D01*
X461Y56D02*
X465Y56D01*
X478Y56D02*
X481Y56D01*
X492Y56D02*
X496Y56D01*
X508Y56D02*
X511Y56D01*
X523Y56D02*
X530Y56D01*
X585Y56D02*
X588Y56D01*
X595Y56D02*
X599Y56D01*
X620Y56D02*
X624Y56D01*
X681Y56D02*
X684Y56D01*
X733Y56D02*
X751Y56D01*
X763Y56D02*
X766Y56D01*
X779Y56D02*
X782Y56D01*
X793Y56D02*
X811Y56D01*
X827Y56D02*
X841Y56D01*
X1891Y56D02*
X1898Y56D01*
X1Y55D02*
X8Y55D01*
X40Y55D02*
X43Y55D01*
X71Y55D02*
X75Y55D01*
X85Y55D02*
X88Y55D01*
X100Y55D02*
X103Y55D01*
X117Y55D02*
X120Y55D01*
X130Y55D02*
X133Y55D01*
X147Y55D02*
X150Y55D01*
X160Y55D02*
X165Y55D01*
X178Y55D02*
X179Y55D01*
X199Y55D02*
X202Y55D01*
X221Y55D02*
X224Y55D01*
X237Y55D02*
X240Y55D01*
X251Y55D02*
X254Y55D01*
X267Y55D02*
X270Y55D01*
X285Y55D02*
X288Y55D01*
X341Y55D02*
X359Y55D01*
X371Y55D02*
X375Y55D01*
X388Y55D02*
X391Y55D01*
X405Y55D02*
X409Y55D01*
X435Y55D02*
X439Y55D01*
X461Y55D02*
X465Y55D01*
X478Y55D02*
X481Y55D01*
X492Y55D02*
X495Y55D01*
X508Y55D02*
X511Y55D01*
X524Y55D02*
X532Y55D01*
X585Y55D02*
X589Y55D01*
X595Y55D02*
X598Y55D01*
X620Y55D02*
X624Y55D01*
X630Y55D02*
X631Y55D01*
X681Y55D02*
X684Y55D01*
X690Y55D02*
X691Y55D01*
X733Y55D02*
X750Y55D01*
X763Y55D02*
X766Y55D01*
X779Y55D02*
X782Y55D01*
X793Y55D02*
X810Y55D01*
X828Y55D02*
X842Y55D01*
X1891Y55D02*
X1898Y55D01*
X1Y54D02*
X8Y54D01*
X40Y54D02*
X44Y54D01*
X72Y54D02*
X75Y54D01*
X84Y54D02*
X88Y54D01*
X100Y54D02*
X103Y54D01*
X117Y54D02*
X120Y54D01*
X130Y54D02*
X133Y54D01*
X147Y54D02*
X150Y54D01*
X160Y54D02*
X164Y54D01*
X199Y54D02*
X202Y54D01*
X221Y54D02*
X224Y54D01*
X237Y54D02*
X240Y54D01*
X251Y54D02*
X254Y54D01*
X267Y54D02*
X270Y54D01*
X285Y54D02*
X288Y54D01*
X341Y54D02*
X344Y54D01*
X355Y54D02*
X360Y54D01*
X371Y54D02*
X375Y54D01*
X388Y54D02*
X391Y54D01*
X405Y54D02*
X409Y54D01*
X435Y54D02*
X439Y54D01*
X461Y54D02*
X465Y54D01*
X478Y54D02*
X481Y54D01*
X492Y54D02*
X495Y54D01*
X508Y54D02*
X511Y54D01*
X525Y54D02*
X535Y54D01*
X586Y54D02*
X589Y54D01*
X595Y54D02*
X598Y54D01*
X620Y54D02*
X624Y54D01*
X629Y54D02*
X632Y54D01*
X681Y54D02*
X684Y54D01*
X689Y54D02*
X692Y54D01*
X733Y54D02*
X736Y54D01*
X763Y54D02*
X766Y54D01*
X779Y54D02*
X782Y54D01*
X793Y54D02*
X796Y54D01*
X839Y54D02*
X842Y54D01*
X1891Y54D02*
X1898Y54D01*
X1Y53D02*
X8Y53D01*
X41Y53D02*
X44Y53D01*
X72Y53D02*
X76Y53D01*
X84Y53D02*
X87Y53D01*
X100Y53D02*
X103Y53D01*
X117Y53D02*
X120Y53D01*
X130Y53D02*
X150Y53D01*
X160Y53D02*
X164Y53D01*
X199Y53D02*
X202Y53D01*
X221Y53D02*
X224Y53D01*
X237Y53D02*
X240Y53D01*
X251Y53D02*
X270Y53D01*
X285Y53D02*
X288Y53D01*
X341Y53D02*
X344Y53D01*
X357Y53D02*
X360Y53D01*
X371Y53D02*
X375Y53D01*
X388Y53D02*
X391Y53D01*
X405Y53D02*
X409Y53D01*
X435Y53D02*
X439Y53D01*
X461Y53D02*
X465Y53D01*
X478Y53D02*
X481Y53D01*
X492Y53D02*
X495Y53D01*
X508Y53D02*
X511Y53D01*
X527Y53D02*
X537Y53D01*
X586Y53D02*
X590Y53D01*
X594Y53D02*
X598Y53D01*
X620Y53D02*
X624Y53D01*
X629Y53D02*
X632Y53D01*
X649Y53D02*
X655Y53D01*
X681Y53D02*
X684Y53D01*
X689Y53D02*
X692Y53D01*
X733Y53D02*
X736Y53D01*
X763Y53D02*
X766Y53D01*
X779Y53D02*
X782Y53D01*
X793Y53D02*
X796Y53D01*
X839Y53D02*
X843Y53D01*
X1891Y53D02*
X1898Y53D01*
X1Y52D02*
X8Y52D01*
X41Y52D02*
X45Y52D01*
X73Y52D02*
X76Y52D01*
X83Y52D02*
X87Y52D01*
X100Y52D02*
X103Y52D01*
X117Y52D02*
X120Y52D01*
X130Y52D02*
X150Y52D01*
X160Y52D02*
X164Y52D01*
X199Y52D02*
X202Y52D01*
X221Y52D02*
X224Y52D01*
X237Y52D02*
X240Y52D01*
X251Y52D02*
X270Y52D01*
X285Y52D02*
X288Y52D01*
X341Y52D02*
X344Y52D01*
X357Y52D02*
X361Y52D01*
X371Y52D02*
X375Y52D01*
X388Y52D02*
X391Y52D01*
X405Y52D02*
X409Y52D01*
X435Y52D02*
X439Y52D01*
X461Y52D02*
X465Y52D01*
X478Y52D02*
X481Y52D01*
X492Y52D02*
X495Y52D01*
X508Y52D02*
X511Y52D01*
X530Y52D02*
X539Y52D01*
X586Y52D02*
X590Y52D01*
X594Y52D02*
X597Y52D01*
X620Y52D02*
X624Y52D01*
X629Y52D02*
X632Y52D01*
X649Y52D02*
X656Y52D01*
X681Y52D02*
X684Y52D01*
X689Y52D02*
X692Y52D01*
X733Y52D02*
X736Y52D01*
X763Y52D02*
X766Y52D01*
X779Y52D02*
X782Y52D01*
X793Y52D02*
X796Y52D01*
X839Y52D02*
X843Y52D01*
X1891Y52D02*
X1898Y52D01*
X1Y51D02*
X8Y51D01*
X41Y51D02*
X45Y51D01*
X73Y51D02*
X77Y51D01*
X83Y51D02*
X87Y51D01*
X100Y51D02*
X103Y51D01*
X117Y51D02*
X120Y51D01*
X130Y51D02*
X150Y51D01*
X160Y51D02*
X164Y51D01*
X199Y51D02*
X202Y51D01*
X221Y51D02*
X224Y51D01*
X237Y51D02*
X240Y51D01*
X251Y51D02*
X270Y51D01*
X285Y51D02*
X288Y51D01*
X341Y51D02*
X344Y51D01*
X357Y51D02*
X361Y51D01*
X371Y51D02*
X375Y51D01*
X388Y51D02*
X391Y51D01*
X405Y51D02*
X409Y51D01*
X435Y51D02*
X439Y51D01*
X461Y51D02*
X465Y51D01*
X478Y51D02*
X481Y51D01*
X492Y51D02*
X495Y51D01*
X508Y51D02*
X511Y51D01*
X532Y51D02*
X540Y51D01*
X587Y51D02*
X590Y51D01*
X593Y51D02*
X597Y51D01*
X620Y51D02*
X624Y51D01*
X629Y51D02*
X632Y51D01*
X648Y51D02*
X656Y51D01*
X681Y51D02*
X684Y51D01*
X689Y51D02*
X692Y51D01*
X733Y51D02*
X736Y51D01*
X763Y51D02*
X766Y51D01*
X779Y51D02*
X782Y51D01*
X793Y51D02*
X796Y51D01*
X839Y51D02*
X843Y51D01*
X1891Y51D02*
X1898Y51D01*
X1Y50D02*
X8Y50D01*
X42Y50D02*
X46Y50D01*
X73Y50D02*
X77Y50D01*
X82Y50D02*
X86Y50D01*
X100Y50D02*
X103Y50D01*
X117Y50D02*
X120Y50D01*
X130Y50D02*
X149Y50D01*
X160Y50D02*
X164Y50D01*
X199Y50D02*
X202Y50D01*
X221Y50D02*
X224Y50D01*
X237Y50D02*
X240Y50D01*
X251Y50D02*
X270Y50D01*
X285Y50D02*
X288Y50D01*
X341Y50D02*
X344Y50D01*
X358Y50D02*
X361Y50D01*
X372Y50D02*
X375Y50D01*
X388Y50D02*
X391Y50D01*
X405Y50D02*
X409Y50D01*
X435Y50D02*
X439Y50D01*
X461Y50D02*
X465Y50D01*
X478Y50D02*
X481Y50D01*
X492Y50D02*
X495Y50D01*
X508Y50D02*
X511Y50D01*
X534Y50D02*
X541Y50D01*
X587Y50D02*
X591Y50D01*
X593Y50D02*
X597Y50D01*
X620Y50D02*
X624Y50D01*
X629Y50D02*
X632Y50D01*
X648Y50D02*
X656Y50D01*
X681Y50D02*
X684Y50D01*
X689Y50D02*
X692Y50D01*
X733Y50D02*
X736Y50D01*
X763Y50D02*
X766Y50D01*
X779Y50D02*
X782Y50D01*
X793Y50D02*
X796Y50D01*
X839Y50D02*
X843Y50D01*
X1891Y50D02*
X1898Y50D01*
X1Y49D02*
X8Y49D01*
X43Y49D02*
X46Y49D01*
X74Y49D02*
X77Y49D01*
X82Y49D02*
X86Y49D01*
X100Y49D02*
X103Y49D01*
X117Y49D02*
X120Y49D01*
X130Y49D02*
X134Y49D01*
X160Y49D02*
X164Y49D01*
X199Y49D02*
X202Y49D01*
X221Y49D02*
X224Y49D01*
X237Y49D02*
X240Y49D01*
X251Y49D02*
X254Y49D01*
X285Y49D02*
X288Y49D01*
X341Y49D02*
X344Y49D01*
X358Y49D02*
X361Y49D01*
X372Y49D02*
X375Y49D01*
X387Y49D02*
X391Y49D01*
X405Y49D02*
X409Y49D01*
X435Y49D02*
X439Y49D01*
X461Y49D02*
X465Y49D01*
X478Y49D02*
X481Y49D01*
X492Y49D02*
X495Y49D01*
X508Y49D02*
X511Y49D01*
X537Y49D02*
X541Y49D01*
X588Y49D02*
X596Y49D01*
X620Y49D02*
X624Y49D01*
X629Y49D02*
X632Y49D01*
X648Y49D02*
X656Y49D01*
X681Y49D02*
X684Y49D01*
X689Y49D02*
X692Y49D01*
X733Y49D02*
X736Y49D01*
X763Y49D02*
X766Y49D01*
X779Y49D02*
X782Y49D01*
X793Y49D02*
X796Y49D01*
X839Y49D02*
X843Y49D01*
X1891Y49D02*
X1898Y49D01*
X1Y48D02*
X8Y48D01*
X43Y48D02*
X47Y48D01*
X74Y48D02*
X78Y48D01*
X82Y48D02*
X85Y48D01*
X100Y48D02*
X104Y48D01*
X117Y48D02*
X120Y48D01*
X130Y48D02*
X133Y48D01*
X160Y48D02*
X164Y48D01*
X199Y48D02*
X202Y48D01*
X221Y48D02*
X224Y48D01*
X237Y48D02*
X240Y48D01*
X251Y48D02*
X254Y48D01*
X285Y48D02*
X288Y48D01*
X299Y48D02*
X299Y48D01*
X341Y48D02*
X344Y48D01*
X357Y48D02*
X361Y48D01*
X372Y48D02*
X375Y48D01*
X386Y48D02*
X391Y48D01*
X405Y48D02*
X409Y48D01*
X419Y48D02*
X420Y48D01*
X435Y48D02*
X439Y48D01*
X449Y48D02*
X450Y48D01*
X462Y48D02*
X465Y48D01*
X478Y48D02*
X481Y48D01*
X492Y48D02*
X495Y48D01*
X508Y48D02*
X511Y48D01*
X538Y48D02*
X541Y48D01*
X588Y48D02*
X596Y48D01*
X620Y48D02*
X624Y48D01*
X629Y48D02*
X632Y48D01*
X648Y48D02*
X656Y48D01*
X681Y48D02*
X684Y48D01*
X689Y48D02*
X692Y48D01*
X733Y48D02*
X736Y48D01*
X763Y48D02*
X766Y48D01*
X779Y48D02*
X782Y48D01*
X793Y48D02*
X796Y48D01*
X839Y48D02*
X843Y48D01*
X1891Y48D02*
X1898Y48D01*
X1Y47D02*
X8Y47D01*
X44Y47D02*
X47Y47D01*
X75Y47D02*
X78Y47D01*
X81Y47D02*
X85Y47D01*
X100Y47D02*
X105Y47D01*
X116Y47D02*
X120Y47D01*
X130Y47D02*
X134Y47D01*
X160Y47D02*
X164Y47D01*
X199Y47D02*
X202Y47D01*
X221Y47D02*
X224Y47D01*
X237Y47D02*
X240Y47D01*
X251Y47D02*
X254Y47D01*
X285Y47D02*
X288Y47D01*
X298Y47D02*
X300Y47D01*
X341Y47D02*
X344Y47D01*
X357Y47D02*
X361Y47D01*
X372Y47D02*
X375Y47D01*
X385Y47D02*
X391Y47D01*
X405Y47D02*
X409Y47D01*
X418Y47D02*
X421Y47D01*
X435Y47D02*
X439Y47D01*
X448Y47D02*
X451Y47D01*
X462Y47D02*
X465Y47D01*
X478Y47D02*
X481Y47D01*
X492Y47D02*
X495Y47D01*
X508Y47D02*
X511Y47D01*
X538Y47D02*
X541Y47D01*
X588Y47D02*
X595Y47D01*
X620Y47D02*
X624Y47D01*
X629Y47D02*
X632Y47D01*
X649Y47D02*
X656Y47D01*
X681Y47D02*
X684Y47D01*
X689Y47D02*
X692Y47D01*
X733Y47D02*
X736Y47D01*
X763Y47D02*
X766Y47D01*
X779Y47D02*
X782Y47D01*
X793Y47D02*
X796Y47D01*
X839Y47D02*
X843Y47D01*
X1891Y47D02*
X1898Y47D01*
X1Y46D02*
X8Y46D01*
X44Y46D02*
X48Y46D01*
X75Y46D02*
X84Y46D01*
X100Y46D02*
X107Y46D01*
X115Y46D02*
X119Y46D01*
X130Y46D02*
X135Y46D01*
X160Y46D02*
X164Y46D01*
X199Y46D02*
X202Y46D01*
X221Y46D02*
X224Y46D01*
X237Y46D02*
X240Y46D01*
X251Y46D02*
X255Y46D01*
X285Y46D02*
X288Y46D01*
X297Y46D02*
X300Y46D01*
X341Y46D02*
X344Y46D01*
X356Y46D02*
X360Y46D01*
X372Y46D02*
X375Y46D01*
X383Y46D02*
X391Y46D01*
X405Y46D02*
X409Y46D01*
X418Y46D02*
X421Y46D01*
X436Y46D02*
X439Y46D01*
X448Y46D02*
X451Y46D01*
X462Y46D02*
X466Y46D01*
X477Y46D02*
X481Y46D01*
X492Y46D02*
X495Y46D01*
X508Y46D02*
X511Y46D01*
X523Y46D02*
X524Y46D01*
X538Y46D02*
X541Y46D01*
X589Y46D02*
X595Y46D01*
X620Y46D02*
X624Y46D01*
X629Y46D02*
X632Y46D01*
X650Y46D02*
X655Y46D01*
X681Y46D02*
X684Y46D01*
X689Y46D02*
X692Y46D01*
X733Y46D02*
X736Y46D01*
X763Y46D02*
X766Y46D01*
X779Y46D02*
X782Y46D01*
X793Y46D02*
X796Y46D01*
X839Y46D02*
X843Y46D01*
X1891Y46D02*
X1898Y46D01*
X1Y45D02*
X8Y45D01*
X45Y45D02*
X49Y45D01*
X76Y45D02*
X84Y45D01*
X100Y45D02*
X108Y45D01*
X114Y45D02*
X119Y45D01*
X131Y45D02*
X136Y45D01*
X160Y45D02*
X164Y45D01*
X199Y45D02*
X202Y45D01*
X221Y45D02*
X224Y45D01*
X237Y45D02*
X240Y45D01*
X251Y45D02*
X256Y45D01*
X285Y45D02*
X289Y45D01*
X296Y45D02*
X300Y45D01*
X341Y45D02*
X344Y45D01*
X355Y45D02*
X360Y45D01*
X372Y45D02*
X376Y45D01*
X381Y45D02*
X391Y45D01*
X406Y45D02*
X410Y45D01*
X417Y45D02*
X421Y45D01*
X436Y45D02*
X440Y45D01*
X447Y45D02*
X451Y45D01*
X462Y45D02*
X467Y45D01*
X476Y45D02*
X480Y45D01*
X492Y45D02*
X495Y45D01*
X508Y45D02*
X511Y45D01*
X522Y45D02*
X526Y45D01*
X537Y45D02*
X541Y45D01*
X589Y45D02*
X595Y45D01*
X620Y45D02*
X624Y45D01*
X629Y45D02*
X632Y45D01*
X680Y45D02*
X684Y45D01*
X689Y45D02*
X692Y45D01*
X733Y45D02*
X736Y45D01*
X763Y45D02*
X766Y45D01*
X779Y45D02*
X782Y45D01*
X793Y45D02*
X796Y45D01*
X839Y45D02*
X843Y45D01*
X1891Y45D02*
X1898Y45D01*
X1Y44D02*
X8Y44D01*
X45Y44D02*
X59Y44D01*
X76Y44D02*
X83Y44D01*
X100Y44D02*
X118Y44D01*
X132Y44D02*
X149Y44D01*
X160Y44D02*
X164Y44D01*
X193Y44D02*
X207Y44D01*
X221Y44D02*
X224Y44D01*
X237Y44D02*
X240Y44D01*
X252Y44D02*
X270Y44D01*
X286Y44D02*
X300Y44D01*
X341Y44D02*
X359Y44D01*
X372Y44D02*
X391Y44D01*
X406Y44D02*
X420Y44D01*
X436Y44D02*
X450Y44D01*
X463Y44D02*
X480Y44D01*
X492Y44D02*
X495Y44D01*
X508Y44D02*
X511Y44D01*
X522Y44D02*
X541Y44D01*
X589Y44D02*
X594Y44D01*
X613Y44D02*
X632Y44D01*
X673Y44D02*
X692Y44D01*
X733Y44D02*
X752Y44D01*
X763Y44D02*
X782Y44D01*
X793Y44D02*
X812Y44D01*
X824Y44D02*
X843Y44D01*
X1891Y44D02*
X1898Y44D01*
X1Y43D02*
X8Y43D01*
X46Y43D02*
X59Y43D01*
X77Y43D02*
X83Y43D01*
X100Y43D02*
X117Y43D01*
X133Y43D02*
X150Y43D01*
X160Y43D02*
X164Y43D01*
X193Y43D02*
X208Y43D01*
X221Y43D02*
X224Y43D01*
X237Y43D02*
X240Y43D01*
X253Y43D02*
X270Y43D01*
X286Y43D02*
X299Y43D01*
X341Y43D02*
X358Y43D01*
X373Y43D02*
X385Y43D01*
X388Y43D02*
X391Y43D01*
X407Y43D02*
X420Y43D01*
X437Y43D02*
X450Y43D01*
X464Y43D02*
X479Y43D01*
X492Y43D02*
X495Y43D01*
X508Y43D02*
X511Y43D01*
X522Y43D02*
X540Y43D01*
X590Y43D02*
X594Y43D01*
X612Y43D02*
X632Y43D01*
X672Y43D02*
X692Y43D01*
X733Y43D02*
X752Y43D01*
X763Y43D02*
X782Y43D01*
X793Y43D02*
X812Y43D01*
X823Y43D02*
X842Y43D01*
X1891Y43D02*
X1898Y43D01*
X1Y42D02*
X8Y42D01*
X47Y42D02*
X59Y42D01*
X79Y42D02*
X83Y42D01*
X100Y42D02*
X103Y42D01*
X106Y42D02*
X116Y42D01*
X134Y42D02*
X150Y42D01*
X160Y42D02*
X163Y42D01*
X193Y42D02*
X208Y42D01*
X221Y42D02*
X224Y42D01*
X237Y42D02*
X240Y42D01*
X254Y42D02*
X270Y42D01*
X287Y42D02*
X298Y42D01*
X341Y42D02*
X357Y42D01*
X374Y42D02*
X383Y42D01*
X388Y42D02*
X391Y42D01*
X408Y42D02*
X419Y42D01*
X438Y42D02*
X449Y42D01*
X465Y42D02*
X478Y42D01*
X492Y42D02*
X495Y42D01*
X508Y42D02*
X511Y42D01*
X523Y42D02*
X539Y42D01*
X590Y42D02*
X593Y42D01*
X612Y42D02*
X632Y42D01*
X672Y42D02*
X692Y42D01*
X733Y42D02*
X752Y42D01*
X764Y42D02*
X781Y42D01*
X793Y42D02*
X812Y42D01*
X823Y42D02*
X842Y42D01*
X1891Y42D02*
X1898Y42D01*
X1Y41D02*
X8Y41D01*
X48Y41D02*
X59Y41D01*
X79Y41D02*
X82Y41D01*
X101Y41D02*
X102Y41D01*
X107Y41D02*
X114Y41D01*
X135Y41D02*
X149Y41D01*
X161Y41D02*
X163Y41D01*
X193Y41D02*
X207Y41D01*
X221Y41D02*
X223Y41D01*
X238Y41D02*
X239Y41D01*
X256Y41D02*
X270Y41D01*
X289Y41D02*
X297Y41D01*
X341Y41D02*
X355Y41D01*
X375Y41D02*
X382Y41D01*
X388Y41D02*
X390Y41D01*
X409Y41D02*
X417Y41D01*
X439Y41D02*
X447Y41D01*
X467Y41D02*
X476Y41D01*
X492Y41D02*
X494Y41D01*
X509Y41D02*
X511Y41D01*
X525Y41D02*
X538Y41D01*
X591Y41D02*
X593Y41D01*
X613Y41D02*
X631Y41D01*
X673Y41D02*
X691Y41D01*
X733Y41D02*
X752Y41D01*
X765Y41D02*
X780Y41D01*
X793Y41D02*
X812Y41D01*
X824Y41D02*
X840Y41D01*
X1891Y41D02*
X1898Y41D01*
X1Y40D02*
X8Y40D01*
X78Y40D02*
X82Y40D01*
X1891Y40D02*
X1898Y40D01*
X1Y39D02*
X8Y39D01*
X78Y39D02*
X81Y39D01*
X1891Y39D02*
X1898Y39D01*
X1Y38D02*
X8Y38D01*
X77Y38D02*
X81Y38D01*
X1891Y38D02*
X1898Y38D01*
X1Y37D02*
X8Y37D01*
X77Y37D02*
X80Y37D01*
X1891Y37D02*
X1898Y37D01*
X1Y36D02*
X8Y36D01*
X76Y36D02*
X80Y36D01*
X1891Y36D02*
X1898Y36D01*
X1Y35D02*
X8Y35D01*
X70Y35D02*
X80Y35D01*
X1891Y35D02*
X1898Y35D01*
X1Y34D02*
X8Y34D01*
X70Y34D02*
X79Y34D01*
X1891Y34D02*
X1898Y34D01*
X1Y33D02*
X8Y33D01*
X70Y33D02*
X79Y33D01*
X1891Y33D02*
X1898Y33D01*
X1Y32D02*
X8Y32D01*
X71Y32D02*
X78Y32D01*
X1891Y32D02*
X1898Y32D01*
X1Y31D02*
X8Y31D01*
X1891Y31D02*
X1898Y31D01*
X1Y30D02*
X8Y30D01*
X1891Y30D02*
X1898Y30D01*
X1Y29D02*
X8Y29D01*
X1891Y29D02*
X1898Y29D01*
X1Y28D02*
X8Y28D01*
X1891Y28D02*
X1898Y28D01*
X1Y27D02*
X8Y27D01*
X1891Y27D02*
X1898Y27D01*
X1Y26D02*
X8Y26D01*
X1891Y26D02*
X1898Y26D01*
X1Y25D02*
X8Y25D01*
X1891Y25D02*
X1898Y25D01*
X1Y24D02*
X8Y24D01*
X1891Y24D02*
X1898Y24D01*
X1Y23D02*
X8Y23D01*
X1891Y23D02*
X1898Y23D01*
X1Y22D02*
X8Y22D01*
X1891Y22D02*
X1898Y22D01*
X1Y21D02*
X8Y21D01*
X1891Y21D02*
X1898Y21D01*
X1Y20D02*
X8Y20D01*
X1891Y20D02*
X1898Y20D01*
X1Y19D02*
X8Y19D01*
X1891Y19D02*
X1898Y19D01*
X1Y18D02*
X8Y18D01*
X1891Y18D02*
X1898Y18D01*
X1Y17D02*
X8Y17D01*
X1891Y17D02*
X1898Y17D01*
X1Y16D02*
X8Y16D01*
X1891Y16D02*
X1898Y16D01*
X1Y15D02*
X8Y15D01*
X1891Y15D02*
X1898Y15D01*
X1Y14D02*
X8Y14D01*
X1891Y14D02*
X1898Y14D01*
X1Y13D02*
X8Y13D01*
X1891Y13D02*
X1898Y13D01*
X1Y12D02*
X8Y12D01*
X1891Y12D02*
X1898Y12D01*
X1Y11D02*
X8Y11D01*
X1891Y11D02*
X1898Y11D01*
X1Y10D02*
X8Y10D01*
X1891Y10D02*
X1898Y10D01*
X1Y9D02*
X8Y9D01*
X1891Y9D02*
X1898Y9D01*
X1Y8D02*
X1898Y8D01*
X1Y7D02*
X1898Y7D01*
X1Y6D02*
X1898Y6D01*
X1Y5D02*
X1898Y5D01*
X1Y4D02*
X1898Y4D01*
X1Y3D02*
X1898Y3D01*
X1Y2D02*
X1898Y2D01*
X1Y1D02*
X1898Y1D01*
D02*
G04 End of Silk1*
M02*