G04 MADE WITH FRITZING*
G04 WWW.FRITZING.ORG*
G04 DOUBLE SIDED*
G04 HOLES PLATED*
G04 CONTOUR ON CENTER OF CONTOUR VECTOR*
%ASAXBY*%
%FSLAX23Y23*%
%MOIN*%
%OFA0B0*%
%SFA1.0B1.0*%
%ADD10C,0.039370*%
%ADD11C,0.085000*%
%ADD12C,0.078000*%
%ADD13C,0.024000*%
%LNCOPPER0*%
G90*
G70*
G54D10*
X573Y203D03*
X973Y203D03*
G54D11*
X1473Y596D03*
X1276Y596D03*
X1276Y103D03*
X1473Y103D03*
X473Y596D03*
X276Y596D03*
X276Y103D03*
X473Y103D03*
G54D10*
X773Y403D03*
G54D12*
X673Y603D03*
X773Y603D03*
X873Y603D03*
X973Y603D03*
X1073Y603D03*
X673Y353D03*
X73Y353D03*
X1073Y353D03*
X1673Y353D03*
G54D13*
X965Y203D02*
X580Y203D01*
D02*
X973Y203D02*
X1274Y203D01*
D02*
X1274Y203D02*
X1275Y127D01*
D02*
X1073Y453D02*
X1073Y584D01*
D02*
X1373Y453D02*
X1073Y453D01*
D02*
X1373Y203D02*
X1373Y453D01*
D02*
X1473Y203D02*
X1373Y203D01*
D02*
X1473Y127D02*
X1473Y203D01*
D02*
X473Y127D02*
X472Y453D01*
D02*
X974Y453D02*
X973Y584D01*
D02*
X472Y453D02*
X974Y453D01*
D02*
X1073Y403D02*
X1073Y372D01*
D02*
X781Y403D02*
X1073Y403D01*
G04 End of Copper0*
M02*