G04 MADE WITH FRITZING*
G04 WWW.FRITZING.ORG*
G04 DOUBLE SIDED*
G04 HOLES PLATED*
G04 CONTOUR ON CENTER OF CONTOUR VECTOR*
%ASAXBY*%
%FSLAX23Y23*%
%MOIN*%
%OFA0B0*%
%SFA1.0B1.0*%
%ADD10C,0.283590X0.26759*%
%ADD11C,0.051181X-0.0039371*%
%ADD12C,0.008000*%
%ADD13C,0.010000*%
%ADD14R,0.001000X0.001000*%
%LNSILK1*%
G90*
G70*
G54D10*
X1374Y350D03*
G54D11*
X1552Y527D03*
X1552Y172D03*
X1197Y172D03*
X1197Y527D03*
G54D10*
X374Y350D03*
G54D11*
X552Y527D03*
X197Y172D03*
X197Y527D03*
G54D12*
X1532Y586D02*
X1571Y586D01*
D02*
X1611Y546D02*
X1611Y153D01*
D02*
X1571Y113D02*
X1532Y113D01*
D02*
X1414Y113D02*
X1335Y113D01*
D02*
X1217Y113D02*
X1178Y113D01*
D02*
X1138Y153D02*
X1138Y546D01*
D02*
X1178Y586D02*
X1217Y586D01*
D02*
X1335Y586D02*
X1414Y586D01*
D02*
X532Y586D02*
X571Y586D01*
D02*
X611Y546D02*
X611Y153D01*
D02*
X571Y113D02*
X532Y113D01*
D02*
X414Y113D02*
X335Y113D01*
D02*
X217Y113D02*
X178Y113D01*
D02*
X138Y153D02*
X138Y546D01*
D02*
X178Y586D02*
X217Y586D01*
D02*
X335Y586D02*
X414Y586D01*
G54D13*
D02*
X623Y553D02*
X1123Y553D01*
D02*
X1123Y553D02*
X1123Y653D01*
D02*
X1123Y653D02*
X623Y653D01*
D02*
X623Y653D02*
X623Y553D01*
D02*
X623Y303D02*
X723Y303D01*
D02*
X723Y303D02*
X723Y403D01*
D02*
X723Y403D02*
X623Y403D01*
D02*
X623Y403D02*
X623Y303D01*
D02*
X23Y303D02*
X123Y303D01*
D02*
X123Y303D02*
X123Y403D01*
D02*
X123Y403D02*
X23Y403D01*
D02*
X23Y403D02*
X23Y303D01*
D02*
X1023Y303D02*
X1123Y303D01*
D02*
X1123Y303D02*
X1123Y403D01*
D02*
X1123Y403D02*
X1023Y403D01*
D02*
X1023Y403D02*
X1023Y303D01*
D02*
X1623Y303D02*
X1723Y303D01*
D02*
X1723Y303D02*
X1723Y403D01*
D02*
X1723Y403D02*
X1623Y403D01*
D02*
X1623Y403D02*
X1623Y303D01*
G54D14*
X1Y731D02*
X1746Y731D01*
X1Y730D02*
X1746Y730D01*
X1Y729D02*
X1746Y729D01*
X1Y728D02*
X1746Y728D01*
X1Y727D02*
X1746Y727D01*
X1Y726D02*
X1746Y726D01*
X1Y725D02*
X1746Y725D01*
X1Y724D02*
X1746Y724D01*
X1Y723D02*
X8Y723D01*
X1739Y723D02*
X1746Y723D01*
X1Y722D02*
X8Y722D01*
X1739Y722D02*
X1746Y722D01*
X1Y721D02*
X8Y721D01*
X1739Y721D02*
X1746Y721D01*
X1Y720D02*
X8Y720D01*
X1739Y720D02*
X1746Y720D01*
X1Y719D02*
X8Y719D01*
X1739Y719D02*
X1746Y719D01*
X1Y718D02*
X8Y718D01*
X1739Y718D02*
X1746Y718D01*
X1Y717D02*
X8Y717D01*
X1739Y717D02*
X1746Y717D01*
X1Y716D02*
X8Y716D01*
X1739Y716D02*
X1746Y716D01*
X1Y715D02*
X8Y715D01*
X1739Y715D02*
X1746Y715D01*
X1Y714D02*
X8Y714D01*
X1739Y714D02*
X1746Y714D01*
X1Y713D02*
X8Y713D01*
X1739Y713D02*
X1746Y713D01*
X1Y712D02*
X8Y712D01*
X1739Y712D02*
X1746Y712D01*
X1Y711D02*
X8Y711D01*
X1739Y711D02*
X1746Y711D01*
X1Y710D02*
X8Y710D01*
X1739Y710D02*
X1746Y710D01*
X1Y709D02*
X8Y709D01*
X1739Y709D02*
X1746Y709D01*
X1Y708D02*
X8Y708D01*
X1739Y708D02*
X1746Y708D01*
X1Y707D02*
X8Y707D01*
X1739Y707D02*
X1746Y707D01*
X1Y706D02*
X8Y706D01*
X1739Y706D02*
X1746Y706D01*
X1Y705D02*
X8Y705D01*
X1739Y705D02*
X1746Y705D01*
X1Y704D02*
X8Y704D01*
X1739Y704D02*
X1746Y704D01*
X1Y703D02*
X8Y703D01*
X1739Y703D02*
X1746Y703D01*
X1Y702D02*
X8Y702D01*
X1739Y702D02*
X1746Y702D01*
X1Y701D02*
X8Y701D01*
X559Y701D02*
X561Y701D01*
X576Y701D02*
X577Y701D01*
X589Y701D02*
X608Y701D01*
X619Y701D02*
X624Y701D01*
X636Y701D02*
X638Y701D01*
X650Y701D02*
X660Y701D01*
X710Y701D02*
X712Y701D01*
X726Y701D02*
X728Y701D01*
X740Y701D02*
X758Y701D01*
X769Y701D02*
X774Y701D01*
X787Y701D02*
X788Y701D01*
X800Y701D02*
X817Y701D01*
X869Y701D02*
X879Y701D01*
X890Y701D02*
X895Y701D01*
X907Y701D02*
X909Y701D01*
X921Y701D02*
X931Y701D01*
X983Y701D02*
X997Y701D01*
X1011Y701D02*
X1022Y701D01*
X1073Y701D02*
X1087Y701D01*
X1101Y701D02*
X1118Y701D01*
X1739Y701D02*
X1746Y701D01*
X1Y700D02*
X8Y700D01*
X559Y700D02*
X562Y700D01*
X575Y700D02*
X578Y700D01*
X589Y700D02*
X608Y700D01*
X619Y700D02*
X624Y700D01*
X635Y700D02*
X638Y700D01*
X649Y700D02*
X660Y700D01*
X709Y700D02*
X712Y700D01*
X726Y700D02*
X729Y700D01*
X739Y700D02*
X759Y700D01*
X769Y700D02*
X775Y700D01*
X786Y700D02*
X789Y700D01*
X800Y700D02*
X818Y700D01*
X868Y700D02*
X879Y700D01*
X890Y700D02*
X895Y700D01*
X906Y700D02*
X909Y700D01*
X920Y700D02*
X933Y700D01*
X981Y700D02*
X998Y700D01*
X1010Y700D02*
X1022Y700D01*
X1072Y700D02*
X1088Y700D01*
X1101Y700D02*
X1119Y700D01*
X1739Y700D02*
X1746Y700D01*
X1Y699D02*
X8Y699D01*
X558Y699D02*
X562Y699D01*
X575Y699D02*
X578Y699D01*
X589Y699D02*
X608Y699D01*
X619Y699D02*
X624Y699D01*
X635Y699D02*
X638Y699D01*
X649Y699D02*
X660Y699D01*
X709Y699D02*
X712Y699D01*
X726Y699D02*
X729Y699D01*
X739Y699D02*
X759Y699D01*
X769Y699D02*
X775Y699D01*
X786Y699D02*
X789Y699D01*
X799Y699D02*
X819Y699D01*
X867Y699D02*
X879Y699D01*
X890Y699D02*
X895Y699D01*
X906Y699D02*
X909Y699D01*
X920Y699D02*
X934Y699D01*
X981Y699D02*
X999Y699D01*
X1010Y699D02*
X1022Y699D01*
X1071Y699D02*
X1089Y699D01*
X1101Y699D02*
X1120Y699D01*
X1739Y699D02*
X1746Y699D01*
X1Y698D02*
X8Y698D01*
X558Y698D02*
X562Y698D01*
X575Y698D02*
X578Y698D01*
X589Y698D02*
X608Y698D01*
X619Y698D02*
X625Y698D01*
X635Y698D02*
X638Y698D01*
X650Y698D02*
X660Y698D01*
X709Y698D02*
X712Y698D01*
X726Y698D02*
X729Y698D01*
X740Y698D02*
X758Y698D01*
X769Y698D02*
X775Y698D01*
X786Y698D02*
X789Y698D01*
X800Y698D02*
X819Y698D01*
X866Y698D02*
X879Y698D01*
X890Y698D02*
X896Y698D01*
X906Y698D02*
X909Y698D01*
X921Y698D02*
X934Y698D01*
X980Y698D02*
X999Y698D01*
X1011Y698D02*
X1022Y698D01*
X1071Y698D02*
X1090Y698D01*
X1101Y698D02*
X1120Y698D01*
X1739Y698D02*
X1746Y698D01*
X1Y697D02*
X8Y697D01*
X558Y697D02*
X562Y697D01*
X575Y697D02*
X578Y697D01*
X597Y697D02*
X600Y697D01*
X619Y697D02*
X625Y697D01*
X635Y697D02*
X638Y697D01*
X657Y697D02*
X660Y697D01*
X709Y697D02*
X712Y697D01*
X726Y697D02*
X729Y697D01*
X747Y697D02*
X751Y697D01*
X769Y697D02*
X776Y697D01*
X786Y697D02*
X789Y697D01*
X816Y697D02*
X819Y697D01*
X865Y697D02*
X870Y697D01*
X890Y697D02*
X896Y697D01*
X906Y697D02*
X909Y697D01*
X924Y697D02*
X927Y697D01*
X931Y697D02*
X935Y697D01*
X980Y697D02*
X983Y697D01*
X996Y697D02*
X1000Y697D01*
X1018Y697D02*
X1022Y697D01*
X1070Y697D02*
X1074Y697D01*
X1086Y697D02*
X1090Y697D01*
X1117Y697D02*
X1120Y697D01*
X1739Y697D02*
X1746Y697D01*
X1Y696D02*
X8Y696D01*
X558Y696D02*
X562Y696D01*
X575Y696D02*
X578Y696D01*
X597Y696D02*
X600Y696D01*
X619Y696D02*
X626Y696D01*
X635Y696D02*
X638Y696D01*
X657Y696D02*
X660Y696D01*
X709Y696D02*
X712Y696D01*
X726Y696D02*
X729Y696D01*
X747Y696D02*
X751Y696D01*
X769Y696D02*
X776Y696D01*
X786Y696D02*
X789Y696D01*
X816Y696D02*
X819Y696D01*
X865Y696D02*
X869Y696D01*
X890Y696D02*
X897Y696D01*
X906Y696D02*
X909Y696D01*
X924Y696D02*
X927Y696D01*
X932Y696D02*
X935Y696D01*
X980Y696D02*
X984Y696D01*
X997Y696D02*
X1000Y696D01*
X1018Y696D02*
X1022Y696D01*
X1071Y696D02*
X1074Y696D01*
X1087Y696D02*
X1090Y696D01*
X1117Y696D02*
X1120Y696D01*
X1739Y696D02*
X1746Y696D01*
X1Y695D02*
X8Y695D01*
X558Y695D02*
X562Y695D01*
X575Y695D02*
X578Y695D01*
X597Y695D02*
X600Y695D01*
X619Y695D02*
X626Y695D01*
X635Y695D02*
X638Y695D01*
X657Y695D02*
X660Y695D01*
X709Y695D02*
X712Y695D01*
X726Y695D02*
X729Y695D01*
X747Y695D02*
X751Y695D01*
X769Y695D02*
X777Y695D01*
X786Y695D02*
X789Y695D01*
X816Y695D02*
X819Y695D01*
X864Y695D02*
X868Y695D01*
X890Y695D02*
X897Y695D01*
X906Y695D02*
X909Y695D01*
X924Y695D02*
X927Y695D01*
X932Y695D02*
X936Y695D01*
X980Y695D02*
X985Y695D01*
X997Y695D02*
X1000Y695D01*
X1018Y695D02*
X1022Y695D01*
X1071Y695D02*
X1075Y695D01*
X1087Y695D02*
X1090Y695D01*
X1117Y695D02*
X1120Y695D01*
X1739Y695D02*
X1746Y695D01*
X1Y694D02*
X8Y694D01*
X558Y694D02*
X562Y694D01*
X575Y694D02*
X578Y694D01*
X597Y694D02*
X600Y694D01*
X619Y694D02*
X627Y694D01*
X635Y694D02*
X638Y694D01*
X657Y694D02*
X660Y694D01*
X709Y694D02*
X712Y694D01*
X726Y694D02*
X729Y694D01*
X747Y694D02*
X751Y694D01*
X769Y694D02*
X777Y694D01*
X786Y694D02*
X789Y694D01*
X816Y694D02*
X819Y694D01*
X863Y694D02*
X867Y694D01*
X890Y694D02*
X898Y694D01*
X906Y694D02*
X909Y694D01*
X924Y694D02*
X927Y694D01*
X933Y694D02*
X936Y694D01*
X981Y694D02*
X985Y694D01*
X998Y694D02*
X998Y694D01*
X1018Y694D02*
X1022Y694D01*
X1071Y694D02*
X1076Y694D01*
X1088Y694D02*
X1089Y694D01*
X1117Y694D02*
X1120Y694D01*
X1739Y694D02*
X1746Y694D01*
X1Y693D02*
X8Y693D01*
X558Y693D02*
X562Y693D01*
X575Y693D02*
X578Y693D01*
X597Y693D02*
X600Y693D01*
X619Y693D02*
X627Y693D01*
X635Y693D02*
X638Y693D01*
X657Y693D02*
X660Y693D01*
X709Y693D02*
X712Y693D01*
X726Y693D02*
X729Y693D01*
X747Y693D02*
X751Y693D01*
X769Y693D02*
X778Y693D01*
X786Y693D02*
X789Y693D01*
X816Y693D02*
X819Y693D01*
X862Y693D02*
X867Y693D01*
X890Y693D02*
X898Y693D01*
X906Y693D02*
X909Y693D01*
X924Y693D02*
X927Y693D01*
X933Y693D02*
X937Y693D01*
X982Y693D02*
X986Y693D01*
X1018Y693D02*
X1022Y693D01*
X1072Y693D02*
X1077Y693D01*
X1117Y693D02*
X1120Y693D01*
X1739Y693D02*
X1746Y693D01*
X1Y692D02*
X8Y692D01*
X559Y692D02*
X562Y692D01*
X575Y692D02*
X578Y692D01*
X597Y692D02*
X600Y692D01*
X619Y692D02*
X622Y692D01*
X624Y692D02*
X627Y692D01*
X635Y692D02*
X638Y692D01*
X657Y692D02*
X660Y692D01*
X709Y692D02*
X713Y692D01*
X725Y692D02*
X729Y692D01*
X747Y692D02*
X751Y692D01*
X769Y692D02*
X778Y692D01*
X786Y692D02*
X789Y692D01*
X816Y692D02*
X819Y692D01*
X862Y692D02*
X866Y692D01*
X890Y692D02*
X893Y692D01*
X895Y692D02*
X898Y692D01*
X906Y692D02*
X909Y692D01*
X924Y692D02*
X927Y692D01*
X934Y692D02*
X937Y692D01*
X983Y692D02*
X987Y692D01*
X1018Y692D02*
X1022Y692D01*
X1073Y692D02*
X1077Y692D01*
X1117Y692D02*
X1120Y692D01*
X1739Y692D02*
X1746Y692D01*
X1Y691D02*
X8Y691D01*
X559Y691D02*
X562Y691D01*
X574Y691D02*
X578Y691D01*
X597Y691D02*
X600Y691D01*
X619Y691D02*
X622Y691D01*
X624Y691D02*
X628Y691D01*
X635Y691D02*
X638Y691D01*
X657Y691D02*
X660Y691D01*
X709Y691D02*
X713Y691D01*
X725Y691D02*
X728Y691D01*
X747Y691D02*
X751Y691D01*
X769Y691D02*
X773Y691D01*
X775Y691D02*
X778Y691D01*
X786Y691D02*
X789Y691D01*
X816Y691D02*
X819Y691D01*
X861Y691D02*
X865Y691D01*
X890Y691D02*
X893Y691D01*
X895Y691D02*
X899Y691D01*
X906Y691D02*
X909Y691D01*
X924Y691D02*
X927Y691D01*
X934Y691D02*
X938Y691D01*
X983Y691D02*
X988Y691D01*
X1018Y691D02*
X1022Y691D01*
X1074Y691D02*
X1078Y691D01*
X1117Y691D02*
X1120Y691D01*
X1739Y691D02*
X1746Y691D01*
X1Y690D02*
X8Y690D01*
X559Y690D02*
X563Y690D01*
X574Y690D02*
X577Y690D01*
X597Y690D02*
X600Y690D01*
X619Y690D02*
X622Y690D01*
X625Y690D02*
X628Y690D01*
X635Y690D02*
X638Y690D01*
X657Y690D02*
X660Y690D01*
X710Y690D02*
X713Y690D01*
X724Y690D02*
X728Y690D01*
X747Y690D02*
X751Y690D01*
X769Y690D02*
X773Y690D01*
X775Y690D02*
X779Y690D01*
X786Y690D02*
X789Y690D01*
X816Y690D02*
X819Y690D01*
X860Y690D02*
X864Y690D01*
X890Y690D02*
X893Y690D01*
X896Y690D02*
X899Y690D01*
X906Y690D02*
X909Y690D01*
X924Y690D02*
X927Y690D01*
X935Y690D02*
X938Y690D01*
X984Y690D02*
X988Y690D01*
X1018Y690D02*
X1022Y690D01*
X1074Y690D02*
X1079Y690D01*
X1117Y690D02*
X1120Y690D01*
X1739Y690D02*
X1746Y690D01*
X1Y689D02*
X8Y689D01*
X560Y689D02*
X563Y689D01*
X574Y689D02*
X577Y689D01*
X597Y689D02*
X600Y689D01*
X619Y689D02*
X622Y689D01*
X625Y689D02*
X629Y689D01*
X635Y689D02*
X638Y689D01*
X657Y689D02*
X660Y689D01*
X710Y689D02*
X714Y689D01*
X724Y689D02*
X728Y689D01*
X747Y689D02*
X751Y689D01*
X769Y689D02*
X773Y689D01*
X776Y689D02*
X779Y689D01*
X786Y689D02*
X789Y689D01*
X816Y689D02*
X819Y689D01*
X860Y689D02*
X864Y689D01*
X890Y689D02*
X893Y689D01*
X896Y689D02*
X900Y689D01*
X906Y689D02*
X909Y689D01*
X924Y689D02*
X927Y689D01*
X935Y689D02*
X939Y689D01*
X985Y689D02*
X989Y689D01*
X1018Y689D02*
X1022Y689D01*
X1075Y689D02*
X1080Y689D01*
X1117Y689D02*
X1120Y689D01*
X1739Y689D02*
X1746Y689D01*
X1Y688D02*
X8Y688D01*
X560Y688D02*
X564Y688D01*
X573Y688D02*
X577Y688D01*
X597Y688D02*
X600Y688D01*
X619Y688D02*
X622Y688D01*
X626Y688D02*
X629Y688D01*
X635Y688D02*
X638Y688D01*
X657Y688D02*
X660Y688D01*
X711Y688D02*
X714Y688D01*
X724Y688D02*
X727Y688D01*
X747Y688D02*
X751Y688D01*
X769Y688D02*
X773Y688D01*
X776Y688D02*
X780Y688D01*
X786Y688D02*
X789Y688D01*
X816Y688D02*
X819Y688D01*
X860Y688D02*
X863Y688D01*
X890Y688D02*
X893Y688D01*
X897Y688D02*
X900Y688D01*
X906Y688D02*
X909Y688D01*
X924Y688D02*
X927Y688D01*
X936Y688D02*
X939Y688D01*
X986Y688D02*
X990Y688D01*
X1018Y688D02*
X1022Y688D01*
X1076Y688D02*
X1080Y688D01*
X1117Y688D02*
X1120Y688D01*
X1739Y688D02*
X1746Y688D01*
X1Y687D02*
X8Y687D01*
X560Y687D02*
X564Y687D01*
X573Y687D02*
X576Y687D01*
X597Y687D02*
X600Y687D01*
X619Y687D02*
X622Y687D01*
X626Y687D02*
X630Y687D01*
X635Y687D02*
X638Y687D01*
X657Y687D02*
X660Y687D01*
X711Y687D02*
X715Y687D01*
X723Y687D02*
X727Y687D01*
X747Y687D02*
X751Y687D01*
X769Y687D02*
X773Y687D01*
X777Y687D02*
X780Y687D01*
X786Y687D02*
X789Y687D01*
X802Y687D02*
X819Y687D01*
X860Y687D02*
X863Y687D01*
X890Y687D02*
X893Y687D01*
X897Y687D02*
X901Y687D01*
X906Y687D02*
X909Y687D01*
X924Y687D02*
X927Y687D01*
X936Y687D02*
X939Y687D01*
X986Y687D02*
X991Y687D01*
X1018Y687D02*
X1022Y687D01*
X1077Y687D02*
X1081Y687D01*
X1103Y687D02*
X1120Y687D01*
X1739Y687D02*
X1746Y687D01*
X1Y686D02*
X8Y686D01*
X561Y686D02*
X564Y686D01*
X572Y686D02*
X576Y686D01*
X597Y686D02*
X600Y686D01*
X619Y686D02*
X622Y686D01*
X626Y686D02*
X630Y686D01*
X635Y686D02*
X638Y686D01*
X657Y686D02*
X660Y686D01*
X711Y686D02*
X715Y686D01*
X723Y686D02*
X726Y686D01*
X747Y686D02*
X751Y686D01*
X769Y686D02*
X773Y686D01*
X777Y686D02*
X781Y686D01*
X786Y686D02*
X789Y686D01*
X801Y686D02*
X819Y686D01*
X860Y686D02*
X863Y686D01*
X890Y686D02*
X893Y686D01*
X897Y686D02*
X901Y686D01*
X906Y686D02*
X909Y686D01*
X924Y686D02*
X927Y686D01*
X936Y686D02*
X940Y686D01*
X987Y686D02*
X992Y686D01*
X1018Y686D02*
X1022Y686D01*
X1078Y686D02*
X1082Y686D01*
X1102Y686D02*
X1120Y686D01*
X1739Y686D02*
X1746Y686D01*
X1Y685D02*
X8Y685D01*
X561Y685D02*
X565Y685D01*
X572Y685D02*
X575Y685D01*
X597Y685D02*
X600Y685D01*
X619Y685D02*
X622Y685D01*
X627Y685D02*
X631Y685D01*
X635Y685D02*
X638Y685D01*
X657Y685D02*
X660Y685D01*
X712Y685D02*
X715Y685D01*
X723Y685D02*
X726Y685D01*
X747Y685D02*
X751Y685D01*
X769Y685D02*
X773Y685D01*
X777Y685D02*
X781Y685D01*
X786Y685D02*
X789Y685D01*
X800Y685D02*
X818Y685D01*
X860Y685D02*
X863Y685D01*
X890Y685D02*
X893Y685D01*
X898Y685D02*
X902Y685D01*
X906Y685D02*
X909Y685D01*
X924Y685D02*
X927Y685D01*
X936Y685D02*
X940Y685D01*
X988Y685D02*
X992Y685D01*
X1018Y685D02*
X1022Y685D01*
X1078Y685D02*
X1083Y685D01*
X1101Y685D02*
X1119Y685D01*
X1739Y685D02*
X1746Y685D01*
X1Y684D02*
X8Y684D01*
X562Y684D02*
X565Y684D01*
X572Y684D02*
X575Y684D01*
X597Y684D02*
X600Y684D01*
X619Y684D02*
X622Y684D01*
X627Y684D02*
X631Y684D01*
X635Y684D02*
X638Y684D01*
X657Y684D02*
X660Y684D01*
X712Y684D02*
X716Y684D01*
X722Y684D02*
X726Y684D01*
X747Y684D02*
X751Y684D01*
X769Y684D02*
X773Y684D01*
X778Y684D02*
X782Y684D01*
X786Y684D02*
X789Y684D01*
X800Y684D02*
X817Y684D01*
X860Y684D02*
X863Y684D01*
X890Y684D02*
X893Y684D01*
X898Y684D02*
X902Y684D01*
X906Y684D02*
X909Y684D01*
X924Y684D02*
X927Y684D01*
X936Y684D02*
X939Y684D01*
X989Y684D02*
X993Y684D01*
X1018Y684D02*
X1022Y684D01*
X1079Y684D02*
X1084Y684D01*
X1101Y684D02*
X1118Y684D01*
X1739Y684D02*
X1746Y684D01*
X1Y683D02*
X8Y683D01*
X562Y683D02*
X566Y683D01*
X571Y683D02*
X575Y683D01*
X597Y683D02*
X600Y683D01*
X619Y683D02*
X622Y683D01*
X628Y683D02*
X631Y683D01*
X635Y683D02*
X638Y683D01*
X657Y683D02*
X660Y683D01*
X666Y683D02*
X668Y683D01*
X713Y683D02*
X716Y683D01*
X722Y683D02*
X725Y683D01*
X747Y683D02*
X751Y683D01*
X769Y683D02*
X773Y683D01*
X778Y683D02*
X782Y683D01*
X786Y683D02*
X789Y683D01*
X799Y683D02*
X803Y683D01*
X860Y683D02*
X863Y683D01*
X870Y683D02*
X879Y683D01*
X890Y683D02*
X893Y683D01*
X899Y683D02*
X902Y683D01*
X906Y683D02*
X909Y683D01*
X924Y683D02*
X927Y683D01*
X936Y683D02*
X939Y683D01*
X990Y683D02*
X994Y683D01*
X1018Y683D02*
X1022Y683D01*
X1027Y683D02*
X1030Y683D01*
X1080Y683D02*
X1084Y683D01*
X1101Y683D02*
X1104Y683D01*
X1739Y683D02*
X1746Y683D01*
X1Y682D02*
X8Y682D01*
X562Y682D02*
X566Y682D01*
X571Y682D02*
X574Y682D01*
X597Y682D02*
X600Y682D01*
X619Y682D02*
X622Y682D01*
X628Y682D02*
X632Y682D01*
X635Y682D02*
X638Y682D01*
X657Y682D02*
X660Y682D01*
X665Y682D02*
X669Y682D01*
X713Y682D02*
X716Y682D01*
X721Y682D02*
X725Y682D01*
X747Y682D02*
X751Y682D01*
X769Y682D02*
X773Y682D01*
X779Y682D02*
X782Y682D01*
X786Y682D02*
X789Y682D01*
X799Y682D02*
X803Y682D01*
X860Y682D02*
X863Y682D01*
X870Y682D02*
X879Y682D01*
X890Y682D02*
X893Y682D01*
X899Y682D02*
X903Y682D01*
X906Y682D02*
X909Y682D01*
X924Y682D02*
X927Y682D01*
X935Y682D02*
X939Y682D01*
X990Y682D02*
X995Y682D01*
X1018Y682D02*
X1022Y682D01*
X1027Y682D02*
X1030Y682D01*
X1081Y682D02*
X1085Y682D01*
X1101Y682D02*
X1104Y682D01*
X1739Y682D02*
X1746Y682D01*
X1Y681D02*
X8Y681D01*
X563Y681D02*
X566Y681D01*
X570Y681D02*
X574Y681D01*
X597Y681D02*
X600Y681D01*
X619Y681D02*
X622Y681D01*
X629Y681D02*
X632Y681D01*
X635Y681D02*
X638Y681D01*
X657Y681D02*
X660Y681D01*
X665Y681D02*
X669Y681D01*
X713Y681D02*
X717Y681D01*
X721Y681D02*
X725Y681D01*
X747Y681D02*
X751Y681D01*
X769Y681D02*
X773Y681D01*
X779Y681D02*
X783Y681D01*
X786Y681D02*
X789Y681D01*
X799Y681D02*
X803Y681D01*
X860Y681D02*
X863Y681D01*
X870Y681D02*
X879Y681D01*
X890Y681D02*
X893Y681D01*
X900Y681D02*
X903Y681D01*
X906Y681D02*
X909Y681D01*
X924Y681D02*
X927Y681D01*
X935Y681D02*
X939Y681D01*
X991Y681D02*
X996Y681D01*
X1018Y681D02*
X1022Y681D01*
X1027Y681D02*
X1030Y681D01*
X1081Y681D02*
X1086Y681D01*
X1101Y681D02*
X1104Y681D01*
X1739Y681D02*
X1746Y681D01*
X1Y680D02*
X8Y680D01*
X563Y680D02*
X567Y680D01*
X570Y680D02*
X574Y680D01*
X597Y680D02*
X600Y680D01*
X619Y680D02*
X622Y680D01*
X629Y680D02*
X633Y680D01*
X635Y680D02*
X638Y680D01*
X657Y680D02*
X660Y680D01*
X665Y680D02*
X669Y680D01*
X714Y680D02*
X717Y680D01*
X721Y680D02*
X724Y680D01*
X747Y680D02*
X751Y680D01*
X769Y680D02*
X773Y680D01*
X780Y680D02*
X783Y680D01*
X786Y680D02*
X789Y680D01*
X799Y680D02*
X803Y680D01*
X860Y680D02*
X863Y680D01*
X871Y680D02*
X879Y680D01*
X890Y680D02*
X893Y680D01*
X900Y680D02*
X904Y680D01*
X906Y680D02*
X909Y680D01*
X924Y680D02*
X927Y680D01*
X934Y680D02*
X938Y680D01*
X992Y680D02*
X996Y680D01*
X1018Y680D02*
X1022Y680D01*
X1027Y680D02*
X1030Y680D01*
X1082Y680D02*
X1087Y680D01*
X1101Y680D02*
X1104Y680D01*
X1739Y680D02*
X1746Y680D01*
X1Y679D02*
X8Y679D01*
X564Y679D02*
X567Y679D01*
X570Y679D02*
X573Y679D01*
X597Y679D02*
X600Y679D01*
X619Y679D02*
X622Y679D01*
X630Y679D02*
X633Y679D01*
X635Y679D02*
X638Y679D01*
X657Y679D02*
X660Y679D01*
X665Y679D02*
X669Y679D01*
X714Y679D02*
X718Y679D01*
X720Y679D02*
X724Y679D01*
X747Y679D02*
X751Y679D01*
X769Y679D02*
X773Y679D01*
X780Y679D02*
X784Y679D01*
X786Y679D02*
X789Y679D01*
X799Y679D02*
X803Y679D01*
X860Y679D02*
X863Y679D01*
X876Y679D02*
X879Y679D01*
X890Y679D02*
X893Y679D01*
X901Y679D02*
X904Y679D01*
X906Y679D02*
X909Y679D01*
X924Y679D02*
X927Y679D01*
X934Y679D02*
X938Y679D01*
X993Y679D02*
X997Y679D01*
X1018Y679D02*
X1022Y679D01*
X1027Y679D02*
X1030Y679D01*
X1083Y679D02*
X1087Y679D01*
X1101Y679D02*
X1104Y679D01*
X1739Y679D02*
X1746Y679D01*
X1Y678D02*
X8Y678D01*
X564Y678D02*
X567Y678D01*
X569Y678D02*
X573Y678D01*
X597Y678D02*
X600Y678D01*
X619Y678D02*
X622Y678D01*
X630Y678D02*
X638Y678D01*
X657Y678D02*
X660Y678D01*
X665Y678D02*
X669Y678D01*
X714Y678D02*
X718Y678D01*
X720Y678D02*
X723Y678D01*
X747Y678D02*
X751Y678D01*
X769Y678D02*
X773Y678D01*
X781Y678D02*
X784Y678D01*
X786Y678D02*
X789Y678D01*
X799Y678D02*
X803Y678D01*
X860Y678D02*
X863Y678D01*
X876Y678D02*
X879Y678D01*
X890Y678D02*
X893Y678D01*
X901Y678D02*
X909Y678D01*
X924Y678D02*
X927Y678D01*
X933Y678D02*
X937Y678D01*
X993Y678D02*
X998Y678D01*
X1018Y678D02*
X1022Y678D01*
X1027Y678D02*
X1030Y678D01*
X1084Y678D02*
X1088Y678D01*
X1101Y678D02*
X1104Y678D01*
X1739Y678D02*
X1746Y678D01*
X1Y677D02*
X8Y677D01*
X564Y677D02*
X572Y677D01*
X597Y677D02*
X600Y677D01*
X619Y677D02*
X622Y677D01*
X630Y677D02*
X638Y677D01*
X657Y677D02*
X660Y677D01*
X665Y677D02*
X669Y677D01*
X715Y677D02*
X723Y677D01*
X747Y677D02*
X751Y677D01*
X769Y677D02*
X773Y677D01*
X781Y677D02*
X789Y677D01*
X799Y677D02*
X803Y677D01*
X860Y677D02*
X863Y677D01*
X876Y677D02*
X879Y677D01*
X890Y677D02*
X893Y677D01*
X901Y677D02*
X909Y677D01*
X924Y677D02*
X927Y677D01*
X933Y677D02*
X937Y677D01*
X994Y677D02*
X999Y677D01*
X1018Y677D02*
X1022Y677D01*
X1027Y677D02*
X1030Y677D01*
X1085Y677D02*
X1089Y677D01*
X1101Y677D02*
X1104Y677D01*
X1739Y677D02*
X1746Y677D01*
X1Y676D02*
X8Y676D01*
X565Y676D02*
X572Y676D01*
X597Y676D02*
X600Y676D01*
X619Y676D02*
X622Y676D01*
X631Y676D02*
X638Y676D01*
X657Y676D02*
X660Y676D01*
X665Y676D02*
X669Y676D01*
X715Y676D02*
X723Y676D01*
X747Y676D02*
X751Y676D01*
X769Y676D02*
X773Y676D01*
X781Y676D02*
X789Y676D01*
X799Y676D02*
X803Y676D01*
X860Y676D02*
X863Y676D01*
X876Y676D02*
X879Y676D01*
X890Y676D02*
X893Y676D01*
X902Y676D02*
X909Y676D01*
X924Y676D02*
X927Y676D01*
X932Y676D02*
X936Y676D01*
X981Y676D02*
X983Y676D01*
X995Y676D02*
X999Y676D01*
X1018Y676D02*
X1022Y676D01*
X1027Y676D02*
X1030Y676D01*
X1071Y676D02*
X1073Y676D01*
X1085Y676D02*
X1090Y676D01*
X1101Y676D02*
X1104Y676D01*
X1739Y676D02*
X1746Y676D01*
X1Y675D02*
X8Y675D01*
X565Y675D02*
X572Y675D01*
X597Y675D02*
X600Y675D01*
X619Y675D02*
X622Y675D01*
X631Y675D02*
X638Y675D01*
X657Y675D02*
X660Y675D01*
X665Y675D02*
X669Y675D01*
X716Y675D02*
X722Y675D01*
X747Y675D02*
X751Y675D01*
X769Y675D02*
X773Y675D01*
X782Y675D02*
X789Y675D01*
X799Y675D02*
X803Y675D01*
X860Y675D02*
X863Y675D01*
X876Y675D02*
X879Y675D01*
X890Y675D02*
X893Y675D01*
X902Y675D02*
X909Y675D01*
X924Y675D02*
X927Y675D01*
X932Y675D02*
X936Y675D01*
X980Y675D02*
X983Y675D01*
X996Y675D02*
X1000Y675D01*
X1018Y675D02*
X1022Y675D01*
X1027Y675D02*
X1030Y675D01*
X1070Y675D02*
X1074Y675D01*
X1086Y675D02*
X1090Y675D01*
X1101Y675D02*
X1104Y675D01*
X1739Y675D02*
X1746Y675D01*
X1Y674D02*
X8Y674D01*
X565Y674D02*
X571Y674D01*
X597Y674D02*
X600Y674D01*
X619Y674D02*
X622Y674D01*
X632Y674D02*
X638Y674D01*
X657Y674D02*
X660Y674D01*
X665Y674D02*
X669Y674D01*
X716Y674D02*
X722Y674D01*
X747Y674D02*
X751Y674D01*
X769Y674D02*
X773Y674D01*
X782Y674D02*
X789Y674D01*
X799Y674D02*
X803Y674D01*
X860Y674D02*
X863Y674D01*
X875Y674D02*
X879Y674D01*
X890Y674D02*
X893Y674D01*
X903Y674D02*
X909Y674D01*
X924Y674D02*
X927Y674D01*
X931Y674D02*
X935Y674D01*
X980Y674D02*
X984Y674D01*
X996Y674D02*
X1000Y674D01*
X1018Y674D02*
X1022Y674D01*
X1027Y674D02*
X1030Y674D01*
X1071Y674D02*
X1074Y674D01*
X1087Y674D02*
X1090Y674D01*
X1101Y674D02*
X1104Y674D01*
X1739Y674D02*
X1746Y674D01*
X1Y673D02*
X8Y673D01*
X566Y673D02*
X571Y673D01*
X590Y673D02*
X607Y673D01*
X619Y673D02*
X622Y673D01*
X632Y673D02*
X638Y673D01*
X650Y673D02*
X669Y673D01*
X716Y673D02*
X721Y673D01*
X740Y673D02*
X758Y673D01*
X769Y673D02*
X773Y673D01*
X783Y673D02*
X789Y673D01*
X799Y673D02*
X818Y673D01*
X860Y673D02*
X879Y673D01*
X890Y673D02*
X893Y673D01*
X903Y673D02*
X909Y673D01*
X921Y673D02*
X935Y673D01*
X980Y673D02*
X1000Y673D01*
X1011Y673D02*
X1030Y673D01*
X1071Y673D02*
X1090Y673D01*
X1101Y673D02*
X1119Y673D01*
X1739Y673D02*
X1746Y673D01*
X1Y672D02*
X8Y672D01*
X566Y672D02*
X570Y672D01*
X589Y672D02*
X608Y672D01*
X619Y672D02*
X622Y672D01*
X633Y672D02*
X638Y672D01*
X649Y672D02*
X669Y672D01*
X717Y672D02*
X721Y672D01*
X739Y672D02*
X759Y672D01*
X769Y672D02*
X773Y672D01*
X783Y672D02*
X789Y672D01*
X799Y672D02*
X819Y672D01*
X861Y672D02*
X878Y672D01*
X890Y672D02*
X893Y672D01*
X904Y672D02*
X909Y672D01*
X920Y672D02*
X934Y672D01*
X981Y672D02*
X999Y672D01*
X1010Y672D02*
X1030Y672D01*
X1071Y672D02*
X1090Y672D01*
X1101Y672D02*
X1120Y672D01*
X1739Y672D02*
X1746Y672D01*
X1Y671D02*
X8Y671D01*
X567Y671D02*
X570Y671D01*
X589Y671D02*
X608Y671D01*
X619Y671D02*
X622Y671D01*
X633Y671D02*
X638Y671D01*
X649Y671D02*
X669Y671D01*
X717Y671D02*
X721Y671D01*
X739Y671D02*
X759Y671D01*
X769Y671D02*
X772Y671D01*
X784Y671D02*
X789Y671D01*
X799Y671D02*
X819Y671D01*
X862Y671D02*
X877Y671D01*
X890Y671D02*
X893Y671D01*
X904Y671D02*
X909Y671D01*
X920Y671D02*
X933Y671D01*
X982Y671D02*
X999Y671D01*
X1010Y671D02*
X1030Y671D01*
X1072Y671D02*
X1089Y671D01*
X1101Y671D02*
X1120Y671D01*
X1739Y671D02*
X1746Y671D01*
X1Y670D02*
X8Y670D01*
X567Y670D02*
X569Y670D01*
X589Y670D02*
X608Y670D01*
X619Y670D02*
X621Y670D01*
X633Y670D02*
X638Y670D01*
X649Y670D02*
X668Y670D01*
X718Y670D02*
X720Y670D01*
X740Y670D02*
X758Y670D01*
X770Y670D02*
X772Y670D01*
X784Y670D02*
X789Y670D01*
X799Y670D02*
X819Y670D01*
X863Y670D02*
X876Y670D01*
X890Y670D02*
X892Y670D01*
X905Y670D02*
X909Y670D01*
X920Y670D02*
X932Y670D01*
X983Y670D02*
X998Y670D01*
X1011Y670D02*
X1029Y670D01*
X1073Y670D02*
X1088Y670D01*
X1101Y670D02*
X1120Y670D01*
X1739Y670D02*
X1746Y670D01*
X1Y669D02*
X8Y669D01*
X1739Y669D02*
X1746Y669D01*
X1Y668D02*
X8Y668D01*
X1739Y668D02*
X1746Y668D01*
X1Y667D02*
X8Y667D01*
X1739Y667D02*
X1746Y667D01*
X1Y666D02*
X8Y666D01*
X1739Y666D02*
X1746Y666D01*
X1Y665D02*
X8Y665D01*
X1739Y665D02*
X1746Y665D01*
X1Y664D02*
X8Y664D01*
X1739Y664D02*
X1746Y664D01*
X1Y663D02*
X8Y663D01*
X1739Y663D02*
X1746Y663D01*
X1Y662D02*
X8Y662D01*
X1739Y662D02*
X1746Y662D01*
X1Y661D02*
X8Y661D01*
X1739Y661D02*
X1746Y661D01*
X1Y660D02*
X8Y660D01*
X1739Y660D02*
X1746Y660D01*
X1Y659D02*
X8Y659D01*
X1739Y659D02*
X1746Y659D01*
X1Y658D02*
X8Y658D01*
X1739Y658D02*
X1746Y658D01*
X1Y657D02*
X8Y657D01*
X1739Y657D02*
X1746Y657D01*
X1Y656D02*
X8Y656D01*
X1739Y656D02*
X1746Y656D01*
X1Y655D02*
X8Y655D01*
X1739Y655D02*
X1746Y655D01*
X1Y654D02*
X8Y654D01*
X1739Y654D02*
X1746Y654D01*
X1Y653D02*
X8Y653D01*
X1739Y653D02*
X1746Y653D01*
X1Y652D02*
X8Y652D01*
X1739Y652D02*
X1746Y652D01*
X1Y651D02*
X8Y651D01*
X1739Y651D02*
X1746Y651D01*
X1Y650D02*
X8Y650D01*
X1739Y650D02*
X1746Y650D01*
X1Y649D02*
X8Y649D01*
X1739Y649D02*
X1746Y649D01*
X1Y648D02*
X8Y648D01*
X1739Y648D02*
X1746Y648D01*
X1Y647D02*
X8Y647D01*
X1739Y647D02*
X1746Y647D01*
X1Y646D02*
X8Y646D01*
X1739Y646D02*
X1746Y646D01*
X1Y645D02*
X8Y645D01*
X1739Y645D02*
X1746Y645D01*
X1Y644D02*
X8Y644D01*
X1739Y644D02*
X1746Y644D01*
X1Y643D02*
X8Y643D01*
X1739Y643D02*
X1746Y643D01*
X1Y642D02*
X8Y642D01*
X1739Y642D02*
X1746Y642D01*
X1Y641D02*
X8Y641D01*
X1739Y641D02*
X1746Y641D01*
X1Y640D02*
X8Y640D01*
X1739Y640D02*
X1746Y640D01*
X1Y639D02*
X8Y639D01*
X1739Y639D02*
X1746Y639D01*
X1Y638D02*
X8Y638D01*
X1739Y638D02*
X1746Y638D01*
X1Y637D02*
X8Y637D01*
X1739Y637D02*
X1746Y637D01*
X1Y636D02*
X8Y636D01*
X1739Y636D02*
X1746Y636D01*
X1Y635D02*
X8Y635D01*
X1739Y635D02*
X1746Y635D01*
X1Y634D02*
X8Y634D01*
X1739Y634D02*
X1746Y634D01*
X1Y633D02*
X8Y633D01*
X1739Y633D02*
X1746Y633D01*
X1Y632D02*
X8Y632D01*
X1739Y632D02*
X1746Y632D01*
X1Y631D02*
X8Y631D01*
X1739Y631D02*
X1746Y631D01*
X1Y630D02*
X8Y630D01*
X1739Y630D02*
X1746Y630D01*
X1Y629D02*
X8Y629D01*
X1739Y629D02*
X1746Y629D01*
X1Y628D02*
X8Y628D01*
X1739Y628D02*
X1746Y628D01*
X1Y627D02*
X8Y627D01*
X1739Y627D02*
X1746Y627D01*
X1Y626D02*
X8Y626D01*
X1739Y626D02*
X1746Y626D01*
X1Y625D02*
X8Y625D01*
X1739Y625D02*
X1746Y625D01*
X1Y624D02*
X8Y624D01*
X1739Y624D02*
X1746Y624D01*
X1Y623D02*
X8Y623D01*
X1739Y623D02*
X1746Y623D01*
X1Y622D02*
X8Y622D01*
X1739Y622D02*
X1746Y622D01*
X1Y621D02*
X8Y621D01*
X1739Y621D02*
X1746Y621D01*
X1Y620D02*
X8Y620D01*
X1739Y620D02*
X1746Y620D01*
X1Y619D02*
X8Y619D01*
X1739Y619D02*
X1746Y619D01*
X1Y618D02*
X8Y618D01*
X1739Y618D02*
X1746Y618D01*
X1Y617D02*
X8Y617D01*
X1739Y617D02*
X1746Y617D01*
X1Y616D02*
X8Y616D01*
X1739Y616D02*
X1746Y616D01*
X1Y615D02*
X8Y615D01*
X1739Y615D02*
X1746Y615D01*
X1Y614D02*
X8Y614D01*
X1739Y614D02*
X1746Y614D01*
X1Y613D02*
X8Y613D01*
X1739Y613D02*
X1746Y613D01*
X1Y612D02*
X8Y612D01*
X1739Y612D02*
X1746Y612D01*
X1Y611D02*
X8Y611D01*
X1739Y611D02*
X1746Y611D01*
X1Y610D02*
X8Y610D01*
X1739Y610D02*
X1746Y610D01*
X1Y609D02*
X8Y609D01*
X1739Y609D02*
X1746Y609D01*
X1Y608D02*
X8Y608D01*
X1739Y608D02*
X1746Y608D01*
X1Y607D02*
X8Y607D01*
X1739Y607D02*
X1746Y607D01*
X1Y606D02*
X8Y606D01*
X1739Y606D02*
X1746Y606D01*
X1Y605D02*
X8Y605D01*
X1739Y605D02*
X1746Y605D01*
X1Y604D02*
X8Y604D01*
X1739Y604D02*
X1746Y604D01*
X1Y603D02*
X8Y603D01*
X1739Y603D02*
X1746Y603D01*
X1Y602D02*
X8Y602D01*
X1739Y602D02*
X1746Y602D01*
X1Y601D02*
X8Y601D01*
X1739Y601D02*
X1746Y601D01*
X1Y600D02*
X8Y600D01*
X1739Y600D02*
X1746Y600D01*
X1Y599D02*
X8Y599D01*
X1739Y599D02*
X1746Y599D01*
X1Y598D02*
X8Y598D01*
X1739Y598D02*
X1746Y598D01*
X1Y597D02*
X8Y597D01*
X1739Y597D02*
X1746Y597D01*
X1Y596D02*
X8Y596D01*
X1739Y596D02*
X1746Y596D01*
X1Y595D02*
X8Y595D01*
X1739Y595D02*
X1746Y595D01*
X1Y594D02*
X8Y594D01*
X1739Y594D02*
X1746Y594D01*
X1Y593D02*
X8Y593D01*
X1739Y593D02*
X1746Y593D01*
X1Y592D02*
X8Y592D01*
X1739Y592D02*
X1746Y592D01*
X1Y591D02*
X8Y591D01*
X1739Y591D02*
X1746Y591D01*
X1Y590D02*
X8Y590D01*
X1739Y590D02*
X1746Y590D01*
X1Y589D02*
X8Y589D01*
X171Y589D02*
X178Y589D01*
X572Y589D02*
X579Y589D01*
X624Y589D02*
X626Y589D01*
X1171Y589D02*
X1177Y589D01*
X1572Y589D02*
X1578Y589D01*
X1739Y589D02*
X1746Y589D01*
X1Y588D02*
X8Y588D01*
X167Y588D02*
X178Y588D01*
X572Y588D02*
X583Y588D01*
X623Y588D02*
X627Y588D01*
X1166Y588D02*
X1177Y588D01*
X1572Y588D02*
X1583Y588D01*
X1739Y588D02*
X1746Y588D01*
X1Y587D02*
X8Y587D01*
X164Y587D02*
X178Y587D01*
X572Y587D02*
X586Y587D01*
X622Y587D02*
X628Y587D01*
X1163Y587D02*
X1177Y587D01*
X1572Y587D02*
X1586Y587D01*
X1739Y587D02*
X1746Y587D01*
X1Y586D02*
X8Y586D01*
X161Y586D02*
X178Y586D01*
X572Y586D02*
X589Y586D01*
X623Y586D02*
X629Y586D01*
X1161Y586D02*
X1177Y586D01*
X1572Y586D02*
X1588Y586D01*
X1739Y586D02*
X1746Y586D01*
X1Y585D02*
X8Y585D01*
X159Y585D02*
X178Y585D01*
X572Y585D02*
X591Y585D01*
X624Y585D02*
X630Y585D01*
X1159Y585D02*
X1177Y585D01*
X1572Y585D02*
X1590Y585D01*
X1739Y585D02*
X1746Y585D01*
X1Y584D02*
X8Y584D01*
X157Y584D02*
X178Y584D01*
X572Y584D02*
X593Y584D01*
X625Y584D02*
X631Y584D01*
X1157Y584D02*
X1177Y584D01*
X1572Y584D02*
X1592Y584D01*
X1739Y584D02*
X1746Y584D01*
X1Y583D02*
X8Y583D01*
X156Y583D02*
X178Y583D01*
X572Y583D02*
X594Y583D01*
X626Y583D02*
X632Y583D01*
X1155Y583D02*
X1177Y583D01*
X1572Y583D02*
X1594Y583D01*
X1739Y583D02*
X1746Y583D01*
X1Y582D02*
X8Y582D01*
X154Y582D02*
X177Y582D01*
X572Y582D02*
X596Y582D01*
X627Y582D02*
X633Y582D01*
X1154Y582D02*
X1177Y582D01*
X1572Y582D02*
X1595Y582D01*
X1739Y582D02*
X1746Y582D01*
X1Y581D02*
X8Y581D01*
X153Y581D02*
X170Y581D01*
X579Y581D02*
X597Y581D01*
X628Y581D02*
X634Y581D01*
X1152Y581D02*
X1170Y581D01*
X1579Y581D02*
X1597Y581D01*
X1739Y581D02*
X1746Y581D01*
X1Y580D02*
X8Y580D01*
X151Y580D02*
X166Y580D01*
X583Y580D02*
X598Y580D01*
X629Y580D02*
X635Y580D01*
X1151Y580D02*
X1166Y580D01*
X1583Y580D02*
X1598Y580D01*
X1739Y580D02*
X1746Y580D01*
X1Y579D02*
X8Y579D01*
X150Y579D02*
X164Y579D01*
X586Y579D02*
X600Y579D01*
X630Y579D02*
X636Y579D01*
X1150Y579D02*
X1163Y579D01*
X1586Y579D02*
X1599Y579D01*
X1739Y579D02*
X1746Y579D01*
X1Y578D02*
X8Y578D01*
X149Y578D02*
X162Y578D01*
X588Y578D02*
X601Y578D01*
X631Y578D02*
X637Y578D01*
X1149Y578D02*
X1161Y578D01*
X1588Y578D02*
X1600Y578D01*
X1739Y578D02*
X1746Y578D01*
X1Y577D02*
X8Y577D01*
X148Y577D02*
X160Y577D01*
X590Y577D02*
X602Y577D01*
X632Y577D02*
X638Y577D01*
X1148Y577D02*
X1160Y577D01*
X1590Y577D02*
X1601Y577D01*
X1739Y577D02*
X1746Y577D01*
X1Y576D02*
X8Y576D01*
X147Y576D02*
X158Y576D01*
X591Y576D02*
X603Y576D01*
X633Y576D02*
X638Y576D01*
X1147Y576D02*
X1158Y576D01*
X1591Y576D02*
X1602Y576D01*
X1739Y576D02*
X1746Y576D01*
X1Y575D02*
X8Y575D01*
X146Y575D02*
X157Y575D01*
X593Y575D02*
X604Y575D01*
X634Y575D02*
X639Y575D01*
X1146Y575D02*
X1157Y575D01*
X1593Y575D02*
X1603Y575D01*
X1739Y575D02*
X1746Y575D01*
X1Y574D02*
X8Y574D01*
X145Y574D02*
X155Y574D01*
X594Y574D02*
X605Y574D01*
X635Y574D02*
X640Y574D01*
X1145Y574D02*
X1155Y574D01*
X1594Y574D02*
X1604Y574D01*
X1739Y574D02*
X1746Y574D01*
X1Y573D02*
X8Y573D01*
X144Y573D02*
X154Y573D01*
X595Y573D02*
X605Y573D01*
X636Y573D02*
X641Y573D01*
X1144Y573D02*
X1154Y573D01*
X1595Y573D02*
X1605Y573D01*
X1739Y573D02*
X1746Y573D01*
X1Y572D02*
X8Y572D01*
X144Y572D02*
X153Y572D01*
X596Y572D02*
X606Y572D01*
X637Y572D02*
X642Y572D01*
X1143Y572D02*
X1153Y572D01*
X1596Y572D02*
X1606Y572D01*
X1739Y572D02*
X1746Y572D01*
X1Y571D02*
X8Y571D01*
X143Y571D02*
X152Y571D01*
X597Y571D02*
X607Y571D01*
X638Y571D02*
X643Y571D01*
X1143Y571D02*
X1152Y571D01*
X1597Y571D02*
X1606Y571D01*
X1739Y571D02*
X1746Y571D01*
X1Y570D02*
X8Y570D01*
X142Y570D02*
X151Y570D01*
X598Y570D02*
X607Y570D01*
X639Y570D02*
X644Y570D01*
X1142Y570D02*
X1151Y570D01*
X1598Y570D02*
X1607Y570D01*
X1739Y570D02*
X1746Y570D01*
X1Y569D02*
X8Y569D01*
X142Y569D02*
X150Y569D01*
X599Y569D02*
X608Y569D01*
X640Y569D02*
X645Y569D01*
X1141Y569D02*
X1150Y569D01*
X1599Y569D02*
X1608Y569D01*
X1739Y569D02*
X1746Y569D01*
X1Y568D02*
X8Y568D01*
X141Y568D02*
X150Y568D01*
X600Y568D02*
X609Y568D01*
X641Y568D02*
X647Y568D01*
X1141Y568D02*
X1149Y568D01*
X1600Y568D02*
X1608Y568D01*
X1739Y568D02*
X1746Y568D01*
X1Y567D02*
X8Y567D01*
X140Y567D02*
X149Y567D01*
X601Y567D02*
X609Y567D01*
X642Y567D02*
X648Y567D01*
X1140Y567D02*
X1149Y567D01*
X1601Y567D02*
X1609Y567D01*
X1739Y567D02*
X1746Y567D01*
X1Y566D02*
X8Y566D01*
X140Y566D02*
X148Y566D01*
X602Y566D02*
X610Y566D01*
X643Y566D02*
X649Y566D01*
X1140Y566D02*
X1148Y566D01*
X1601Y566D02*
X1609Y566D01*
X1739Y566D02*
X1746Y566D01*
X1Y565D02*
X8Y565D01*
X140Y565D02*
X147Y565D01*
X602Y565D02*
X610Y565D01*
X644Y565D02*
X650Y565D01*
X1139Y565D02*
X1147Y565D01*
X1602Y565D02*
X1610Y565D01*
X1739Y565D02*
X1746Y565D01*
X1Y564D02*
X8Y564D01*
X139Y564D02*
X147Y564D01*
X603Y564D02*
X611Y564D01*
X645Y564D02*
X651Y564D01*
X1139Y564D02*
X1147Y564D01*
X1603Y564D02*
X1610Y564D01*
X1739Y564D02*
X1746Y564D01*
X1Y563D02*
X8Y563D01*
X139Y563D02*
X146Y563D01*
X603Y563D02*
X611Y563D01*
X646Y563D02*
X652Y563D01*
X1138Y563D02*
X1146Y563D01*
X1603Y563D02*
X1611Y563D01*
X1739Y563D02*
X1746Y563D01*
X1Y562D02*
X8Y562D01*
X138Y562D02*
X146Y562D01*
X604Y562D02*
X611Y562D01*
X647Y562D02*
X653Y562D01*
X1138Y562D02*
X1145Y562D01*
X1604Y562D02*
X1611Y562D01*
X1739Y562D02*
X1746Y562D01*
X1Y561D02*
X8Y561D01*
X138Y561D02*
X145Y561D01*
X604Y561D02*
X612Y561D01*
X648Y561D02*
X654Y561D01*
X1138Y561D02*
X1145Y561D01*
X1604Y561D02*
X1612Y561D01*
X1739Y561D02*
X1746Y561D01*
X1Y560D02*
X8Y560D01*
X137Y560D02*
X145Y560D01*
X605Y560D02*
X612Y560D01*
X649Y560D02*
X655Y560D01*
X1137Y560D02*
X1145Y560D01*
X1605Y560D02*
X1612Y560D01*
X1739Y560D02*
X1746Y560D01*
X1Y559D02*
X8Y559D01*
X137Y559D02*
X144Y559D01*
X605Y559D02*
X613Y559D01*
X650Y559D02*
X656Y559D01*
X1137Y559D02*
X1144Y559D01*
X1605Y559D02*
X1612Y559D01*
X1739Y559D02*
X1746Y559D01*
X1Y558D02*
X8Y558D01*
X137Y558D02*
X144Y558D01*
X606Y558D02*
X613Y558D01*
X651Y558D02*
X657Y558D01*
X1137Y558D02*
X1144Y558D01*
X1605Y558D02*
X1613Y558D01*
X1739Y558D02*
X1746Y558D01*
X1Y557D02*
X8Y557D01*
X137Y557D02*
X144Y557D01*
X606Y557D02*
X613Y557D01*
X652Y557D02*
X658Y557D01*
X1136Y557D02*
X1143Y557D01*
X1606Y557D02*
X1613Y557D01*
X1739Y557D02*
X1746Y557D01*
X1Y556D02*
X8Y556D01*
X136Y556D02*
X143Y556D01*
X606Y556D02*
X613Y556D01*
X653Y556D02*
X659Y556D01*
X1136Y556D02*
X1143Y556D01*
X1606Y556D02*
X1613Y556D01*
X1739Y556D02*
X1746Y556D01*
X1Y555D02*
X8Y555D01*
X136Y555D02*
X143Y555D01*
X606Y555D02*
X614Y555D01*
X654Y555D02*
X659Y555D01*
X1136Y555D02*
X1143Y555D01*
X1606Y555D02*
X1613Y555D01*
X1739Y555D02*
X1746Y555D01*
X1Y554D02*
X8Y554D01*
X136Y554D02*
X143Y554D01*
X607Y554D02*
X614Y554D01*
X655Y554D02*
X658Y554D01*
X1136Y554D02*
X1143Y554D01*
X1606Y554D02*
X1613Y554D01*
X1739Y554D02*
X1746Y554D01*
X1Y553D02*
X8Y553D01*
X136Y553D02*
X143Y553D01*
X607Y553D02*
X614Y553D01*
X656Y553D02*
X657Y553D01*
X1135Y553D02*
X1142Y553D01*
X1607Y553D02*
X1614Y553D01*
X1739Y553D02*
X1746Y553D01*
X1Y552D02*
X8Y552D01*
X136Y552D02*
X143Y552D01*
X607Y552D02*
X614Y552D01*
X1135Y552D02*
X1142Y552D01*
X1607Y552D02*
X1614Y552D01*
X1739Y552D02*
X1746Y552D01*
X1Y551D02*
X8Y551D01*
X135Y551D02*
X143Y551D01*
X607Y551D02*
X614Y551D01*
X1135Y551D02*
X1142Y551D01*
X1607Y551D02*
X1614Y551D01*
X1739Y551D02*
X1746Y551D01*
X1Y550D02*
X8Y550D01*
X135Y550D02*
X142Y550D01*
X607Y550D02*
X614Y550D01*
X1135Y550D02*
X1142Y550D01*
X1607Y550D02*
X1614Y550D01*
X1739Y550D02*
X1746Y550D01*
X1Y549D02*
X8Y549D01*
X135Y549D02*
X142Y549D01*
X607Y549D02*
X614Y549D01*
X1135Y549D02*
X1142Y549D01*
X1607Y549D02*
X1614Y549D01*
X1739Y549D02*
X1746Y549D01*
X1Y548D02*
X8Y548D01*
X135Y548D02*
X142Y548D01*
X607Y548D02*
X614Y548D01*
X1135Y548D02*
X1142Y548D01*
X1607Y548D02*
X1614Y548D01*
X1739Y548D02*
X1746Y548D01*
X1Y547D02*
X8Y547D01*
X135Y547D02*
X142Y547D01*
X607Y547D02*
X614Y547D01*
X1135Y547D02*
X1142Y547D01*
X1607Y547D02*
X1614Y547D01*
X1739Y547D02*
X1746Y547D01*
X1Y546D02*
X8Y546D01*
X1739Y546D02*
X1746Y546D01*
X1Y545D02*
X8Y545D01*
X1739Y545D02*
X1746Y545D01*
X1Y544D02*
X8Y544D01*
X1739Y544D02*
X1746Y544D01*
X1Y543D02*
X8Y543D01*
X1739Y543D02*
X1746Y543D01*
X1Y542D02*
X8Y542D01*
X1739Y542D02*
X1746Y542D01*
X1Y541D02*
X8Y541D01*
X1739Y541D02*
X1746Y541D01*
X1Y540D02*
X8Y540D01*
X1739Y540D02*
X1746Y540D01*
X1Y539D02*
X8Y539D01*
X1739Y539D02*
X1746Y539D01*
X1Y538D02*
X8Y538D01*
X1739Y538D02*
X1746Y538D01*
X1Y537D02*
X8Y537D01*
X1739Y537D02*
X1746Y537D01*
X1Y536D02*
X8Y536D01*
X1739Y536D02*
X1746Y536D01*
X1Y535D02*
X8Y535D01*
X1739Y535D02*
X1746Y535D01*
X1Y534D02*
X8Y534D01*
X1739Y534D02*
X1746Y534D01*
X1Y533D02*
X8Y533D01*
X1739Y533D02*
X1746Y533D01*
X1Y532D02*
X8Y532D01*
X1739Y532D02*
X1746Y532D01*
X1Y531D02*
X8Y531D01*
X1739Y531D02*
X1746Y531D01*
X1Y530D02*
X8Y530D01*
X1739Y530D02*
X1746Y530D01*
X1Y529D02*
X8Y529D01*
X1739Y529D02*
X1746Y529D01*
X1Y528D02*
X8Y528D01*
X1739Y528D02*
X1746Y528D01*
X1Y527D02*
X8Y527D01*
X1739Y527D02*
X1746Y527D01*
X1Y526D02*
X8Y526D01*
X1739Y526D02*
X1746Y526D01*
X1Y525D02*
X8Y525D01*
X1739Y525D02*
X1746Y525D01*
X1Y524D02*
X8Y524D01*
X1739Y524D02*
X1746Y524D01*
X1Y523D02*
X8Y523D01*
X1739Y523D02*
X1746Y523D01*
X1Y522D02*
X8Y522D01*
X1739Y522D02*
X1746Y522D01*
X1Y521D02*
X8Y521D01*
X1739Y521D02*
X1746Y521D01*
X1Y520D02*
X8Y520D01*
X1739Y520D02*
X1746Y520D01*
X1Y519D02*
X8Y519D01*
X1739Y519D02*
X1746Y519D01*
X1Y518D02*
X8Y518D01*
X1739Y518D02*
X1746Y518D01*
X1Y517D02*
X8Y517D01*
X1739Y517D02*
X1746Y517D01*
X1Y516D02*
X8Y516D01*
X1739Y516D02*
X1746Y516D01*
X1Y515D02*
X8Y515D01*
X1739Y515D02*
X1746Y515D01*
X1Y514D02*
X8Y514D01*
X1739Y514D02*
X1746Y514D01*
X1Y513D02*
X8Y513D01*
X1739Y513D02*
X1746Y513D01*
X1Y512D02*
X8Y512D01*
X1739Y512D02*
X1746Y512D01*
X1Y511D02*
X8Y511D01*
X1739Y511D02*
X1746Y511D01*
X1Y510D02*
X8Y510D01*
X1739Y510D02*
X1746Y510D01*
X1Y509D02*
X8Y509D01*
X1739Y509D02*
X1746Y509D01*
X1Y508D02*
X8Y508D01*
X1739Y508D02*
X1746Y508D01*
X1Y507D02*
X8Y507D01*
X1739Y507D02*
X1746Y507D01*
X1Y506D02*
X8Y506D01*
X1739Y506D02*
X1746Y506D01*
X1Y505D02*
X8Y505D01*
X1739Y505D02*
X1746Y505D01*
X1Y504D02*
X8Y504D01*
X1739Y504D02*
X1746Y504D01*
X1Y503D02*
X8Y503D01*
X1739Y503D02*
X1746Y503D01*
X1Y502D02*
X8Y502D01*
X1739Y502D02*
X1746Y502D01*
X1Y501D02*
X8Y501D01*
X1739Y501D02*
X1746Y501D01*
X1Y500D02*
X8Y500D01*
X1739Y500D02*
X1746Y500D01*
X1Y499D02*
X8Y499D01*
X1739Y499D02*
X1746Y499D01*
X1Y498D02*
X8Y498D01*
X1739Y498D02*
X1746Y498D01*
X1Y497D02*
X8Y497D01*
X1739Y497D02*
X1746Y497D01*
X1Y496D02*
X8Y496D01*
X1739Y496D02*
X1746Y496D01*
X1Y495D02*
X8Y495D01*
X1739Y495D02*
X1746Y495D01*
X1Y494D02*
X8Y494D01*
X1739Y494D02*
X1746Y494D01*
X1Y493D02*
X8Y493D01*
X1739Y493D02*
X1746Y493D01*
X1Y492D02*
X8Y492D01*
X1739Y492D02*
X1746Y492D01*
X1Y491D02*
X8Y491D01*
X1739Y491D02*
X1746Y491D01*
X1Y490D02*
X8Y490D01*
X1739Y490D02*
X1746Y490D01*
X1Y489D02*
X8Y489D01*
X1739Y489D02*
X1746Y489D01*
X1Y488D02*
X8Y488D01*
X1739Y488D02*
X1746Y488D01*
X1Y487D02*
X8Y487D01*
X1739Y487D02*
X1746Y487D01*
X1Y486D02*
X8Y486D01*
X1739Y486D02*
X1746Y486D01*
X1Y485D02*
X8Y485D01*
X1739Y485D02*
X1746Y485D01*
X1Y484D02*
X8Y484D01*
X1739Y484D02*
X1746Y484D01*
X1Y483D02*
X8Y483D01*
X1739Y483D02*
X1746Y483D01*
X1Y482D02*
X8Y482D01*
X1739Y482D02*
X1746Y482D01*
X1Y481D02*
X8Y481D01*
X1739Y481D02*
X1746Y481D01*
X1Y480D02*
X8Y480D01*
X1739Y480D02*
X1746Y480D01*
X1Y479D02*
X8Y479D01*
X1739Y479D02*
X1746Y479D01*
X1Y478D02*
X8Y478D01*
X1739Y478D02*
X1746Y478D01*
X1Y477D02*
X8Y477D01*
X1739Y477D02*
X1746Y477D01*
X1Y476D02*
X8Y476D01*
X1739Y476D02*
X1746Y476D01*
X1Y475D02*
X8Y475D01*
X1739Y475D02*
X1746Y475D01*
X1Y474D02*
X8Y474D01*
X1739Y474D02*
X1746Y474D01*
X1Y473D02*
X8Y473D01*
X1739Y473D02*
X1746Y473D01*
X1Y472D02*
X8Y472D01*
X1739Y472D02*
X1746Y472D01*
X1Y471D02*
X8Y471D01*
X1739Y471D02*
X1746Y471D01*
X1Y470D02*
X8Y470D01*
X1739Y470D02*
X1746Y470D01*
X1Y469D02*
X8Y469D01*
X1739Y469D02*
X1746Y469D01*
X1Y468D02*
X8Y468D01*
X1739Y468D02*
X1746Y468D01*
X1Y467D02*
X8Y467D01*
X1739Y467D02*
X1746Y467D01*
X1Y466D02*
X8Y466D01*
X1739Y466D02*
X1746Y466D01*
X1Y465D02*
X8Y465D01*
X1739Y465D02*
X1746Y465D01*
X1Y464D02*
X8Y464D01*
X1739Y464D02*
X1746Y464D01*
X1Y463D02*
X8Y463D01*
X1739Y463D02*
X1746Y463D01*
X1Y462D02*
X8Y462D01*
X1739Y462D02*
X1746Y462D01*
X1Y461D02*
X8Y461D01*
X1739Y461D02*
X1746Y461D01*
X1Y460D02*
X8Y460D01*
X1739Y460D02*
X1746Y460D01*
X1Y459D02*
X8Y459D01*
X1739Y459D02*
X1746Y459D01*
X1Y458D02*
X8Y458D01*
X1739Y458D02*
X1746Y458D01*
X1Y457D02*
X8Y457D01*
X1739Y457D02*
X1746Y457D01*
X1Y456D02*
X8Y456D01*
X1739Y456D02*
X1746Y456D01*
X1Y455D02*
X8Y455D01*
X1739Y455D02*
X1746Y455D01*
X1Y454D02*
X8Y454D01*
X1739Y454D02*
X1746Y454D01*
X1Y453D02*
X8Y453D01*
X1739Y453D02*
X1746Y453D01*
X1Y452D02*
X8Y452D01*
X1739Y452D02*
X1746Y452D01*
X1Y451D02*
X8Y451D01*
X1739Y451D02*
X1746Y451D01*
X1Y450D02*
X8Y450D01*
X1739Y450D02*
X1746Y450D01*
X1Y449D02*
X8Y449D01*
X1739Y449D02*
X1746Y449D01*
X1Y448D02*
X8Y448D01*
X1739Y448D02*
X1746Y448D01*
X1Y447D02*
X8Y447D01*
X1739Y447D02*
X1746Y447D01*
X1Y446D02*
X8Y446D01*
X1739Y446D02*
X1746Y446D01*
X1Y445D02*
X8Y445D01*
X1739Y445D02*
X1746Y445D01*
X1Y444D02*
X8Y444D01*
X1739Y444D02*
X1746Y444D01*
X1Y443D02*
X8Y443D01*
X1739Y443D02*
X1746Y443D01*
X1Y442D02*
X8Y442D01*
X1739Y442D02*
X1746Y442D01*
X1Y441D02*
X8Y441D01*
X1739Y441D02*
X1746Y441D01*
X1Y440D02*
X8Y440D01*
X1739Y440D02*
X1746Y440D01*
X1Y439D02*
X8Y439D01*
X1739Y439D02*
X1746Y439D01*
X1Y438D02*
X8Y438D01*
X1739Y438D02*
X1746Y438D01*
X1Y437D02*
X8Y437D01*
X1739Y437D02*
X1746Y437D01*
X1Y436D02*
X8Y436D01*
X1739Y436D02*
X1746Y436D01*
X1Y435D02*
X8Y435D01*
X1739Y435D02*
X1746Y435D01*
X1Y434D02*
X8Y434D01*
X1739Y434D02*
X1746Y434D01*
X1Y433D02*
X8Y433D01*
X1739Y433D02*
X1746Y433D01*
X1Y432D02*
X8Y432D01*
X1739Y432D02*
X1746Y432D01*
X1Y431D02*
X8Y431D01*
X1739Y431D02*
X1746Y431D01*
X1Y430D02*
X8Y430D01*
X1739Y430D02*
X1746Y430D01*
X1Y429D02*
X8Y429D01*
X1739Y429D02*
X1746Y429D01*
X1Y428D02*
X8Y428D01*
X1739Y428D02*
X1746Y428D01*
X1Y427D02*
X8Y427D01*
X1739Y427D02*
X1746Y427D01*
X1Y426D02*
X8Y426D01*
X1739Y426D02*
X1746Y426D01*
X1Y425D02*
X8Y425D01*
X1739Y425D02*
X1746Y425D01*
X1Y424D02*
X8Y424D01*
X1739Y424D02*
X1746Y424D01*
X1Y423D02*
X8Y423D01*
X1739Y423D02*
X1746Y423D01*
X1Y422D02*
X8Y422D01*
X1739Y422D02*
X1746Y422D01*
X1Y421D02*
X8Y421D01*
X1739Y421D02*
X1746Y421D01*
X1Y420D02*
X8Y420D01*
X1739Y420D02*
X1746Y420D01*
X1Y419D02*
X8Y419D01*
X1739Y419D02*
X1746Y419D01*
X1Y418D02*
X8Y418D01*
X1739Y418D02*
X1746Y418D01*
X1Y417D02*
X8Y417D01*
X1739Y417D02*
X1746Y417D01*
X1Y416D02*
X8Y416D01*
X1739Y416D02*
X1746Y416D01*
X1Y415D02*
X8Y415D01*
X1739Y415D02*
X1746Y415D01*
X1Y414D02*
X8Y414D01*
X1739Y414D02*
X1746Y414D01*
X1Y413D02*
X8Y413D01*
X1739Y413D02*
X1746Y413D01*
X1Y412D02*
X8Y412D01*
X1739Y412D02*
X1746Y412D01*
X1Y411D02*
X8Y411D01*
X1739Y411D02*
X1746Y411D01*
X1Y410D02*
X8Y410D01*
X1739Y410D02*
X1746Y410D01*
X1Y409D02*
X8Y409D01*
X1739Y409D02*
X1746Y409D01*
X1Y408D02*
X8Y408D01*
X1739Y408D02*
X1746Y408D01*
X1Y407D02*
X8Y407D01*
X1739Y407D02*
X1746Y407D01*
X1Y406D02*
X8Y406D01*
X1739Y406D02*
X1746Y406D01*
X1Y405D02*
X8Y405D01*
X1739Y405D02*
X1746Y405D01*
X1Y404D02*
X8Y404D01*
X1739Y404D02*
X1746Y404D01*
X1Y403D02*
X8Y403D01*
X1739Y403D02*
X1746Y403D01*
X1Y402D02*
X8Y402D01*
X1739Y402D02*
X1746Y402D01*
X1Y401D02*
X8Y401D01*
X1739Y401D02*
X1746Y401D01*
X1Y400D02*
X8Y400D01*
X1739Y400D02*
X1746Y400D01*
X1Y399D02*
X8Y399D01*
X1739Y399D02*
X1746Y399D01*
X1Y398D02*
X8Y398D01*
X1739Y398D02*
X1746Y398D01*
X1Y397D02*
X8Y397D01*
X1739Y397D02*
X1746Y397D01*
X1Y396D02*
X8Y396D01*
X1739Y396D02*
X1746Y396D01*
X1Y395D02*
X8Y395D01*
X1739Y395D02*
X1746Y395D01*
X1Y394D02*
X8Y394D01*
X1739Y394D02*
X1746Y394D01*
X1Y393D02*
X8Y393D01*
X1739Y393D02*
X1746Y393D01*
X1Y392D02*
X8Y392D01*
X1739Y392D02*
X1746Y392D01*
X1Y391D02*
X8Y391D01*
X1739Y391D02*
X1746Y391D01*
X1Y390D02*
X8Y390D01*
X1739Y390D02*
X1746Y390D01*
X1Y389D02*
X8Y389D01*
X1739Y389D02*
X1746Y389D01*
X1Y388D02*
X8Y388D01*
X1739Y388D02*
X1746Y388D01*
X1Y387D02*
X8Y387D01*
X1739Y387D02*
X1746Y387D01*
X1Y386D02*
X8Y386D01*
X1739Y386D02*
X1746Y386D01*
X1Y385D02*
X8Y385D01*
X1739Y385D02*
X1746Y385D01*
X1Y384D02*
X8Y384D01*
X1739Y384D02*
X1746Y384D01*
X1Y383D02*
X8Y383D01*
X1739Y383D02*
X1746Y383D01*
X1Y382D02*
X8Y382D01*
X1739Y382D02*
X1746Y382D01*
X1Y381D02*
X8Y381D01*
X1739Y381D02*
X1746Y381D01*
X1Y380D02*
X8Y380D01*
X1739Y380D02*
X1746Y380D01*
X1Y379D02*
X8Y379D01*
X1739Y379D02*
X1746Y379D01*
X1Y378D02*
X8Y378D01*
X1739Y378D02*
X1746Y378D01*
X1Y377D02*
X8Y377D01*
X1739Y377D02*
X1746Y377D01*
X1Y376D02*
X8Y376D01*
X1739Y376D02*
X1746Y376D01*
X1Y375D02*
X8Y375D01*
X1739Y375D02*
X1746Y375D01*
X1Y374D02*
X8Y374D01*
X1739Y374D02*
X1746Y374D01*
X1Y373D02*
X8Y373D01*
X1739Y373D02*
X1746Y373D01*
X1Y372D02*
X8Y372D01*
X1739Y372D02*
X1746Y372D01*
X1Y371D02*
X8Y371D01*
X1739Y371D02*
X1746Y371D01*
X1Y370D02*
X8Y370D01*
X1739Y370D02*
X1746Y370D01*
X1Y369D02*
X8Y369D01*
X1739Y369D02*
X1746Y369D01*
X1Y368D02*
X8Y368D01*
X1739Y368D02*
X1746Y368D01*
X1Y367D02*
X8Y367D01*
X1739Y367D02*
X1746Y367D01*
X1Y366D02*
X8Y366D01*
X1739Y366D02*
X1746Y366D01*
X1Y365D02*
X8Y365D01*
X1739Y365D02*
X1746Y365D01*
X1Y364D02*
X8Y364D01*
X1739Y364D02*
X1746Y364D01*
X1Y363D02*
X8Y363D01*
X1739Y363D02*
X1746Y363D01*
X1Y362D02*
X8Y362D01*
X1739Y362D02*
X1746Y362D01*
X1Y361D02*
X8Y361D01*
X1739Y361D02*
X1746Y361D01*
X1Y360D02*
X8Y360D01*
X1739Y360D02*
X1746Y360D01*
X1Y359D02*
X8Y359D01*
X1739Y359D02*
X1746Y359D01*
X1Y358D02*
X8Y358D01*
X1739Y358D02*
X1746Y358D01*
X1Y357D02*
X8Y357D01*
X1739Y357D02*
X1746Y357D01*
X1Y356D02*
X8Y356D01*
X1739Y356D02*
X1746Y356D01*
X1Y355D02*
X8Y355D01*
X1739Y355D02*
X1746Y355D01*
X1Y354D02*
X8Y354D01*
X1739Y354D02*
X1746Y354D01*
X1Y353D02*
X8Y353D01*
X1739Y353D02*
X1746Y353D01*
X1Y352D02*
X8Y352D01*
X1739Y352D02*
X1746Y352D01*
X1Y351D02*
X8Y351D01*
X1739Y351D02*
X1746Y351D01*
X1Y350D02*
X8Y350D01*
X1739Y350D02*
X1746Y350D01*
X1Y349D02*
X8Y349D01*
X1739Y349D02*
X1746Y349D01*
X1Y348D02*
X8Y348D01*
X1739Y348D02*
X1746Y348D01*
X1Y347D02*
X8Y347D01*
X1739Y347D02*
X1746Y347D01*
X1Y346D02*
X8Y346D01*
X1739Y346D02*
X1746Y346D01*
X1Y345D02*
X8Y345D01*
X1739Y345D02*
X1746Y345D01*
X1Y344D02*
X8Y344D01*
X1739Y344D02*
X1746Y344D01*
X1Y343D02*
X8Y343D01*
X1739Y343D02*
X1746Y343D01*
X1Y342D02*
X8Y342D01*
X1739Y342D02*
X1746Y342D01*
X1Y341D02*
X8Y341D01*
X1739Y341D02*
X1746Y341D01*
X1Y340D02*
X8Y340D01*
X25Y340D02*
X25Y340D01*
X625Y340D02*
X625Y340D01*
X1025Y340D02*
X1025Y340D01*
X1625Y340D02*
X1625Y340D01*
X1739Y340D02*
X1746Y340D01*
X1Y339D02*
X8Y339D01*
X24Y339D02*
X26Y339D01*
X624Y339D02*
X626Y339D01*
X1024Y339D02*
X1026Y339D01*
X1624Y339D02*
X1626Y339D01*
X1739Y339D02*
X1746Y339D01*
X1Y338D02*
X8Y338D01*
X23Y338D02*
X27Y338D01*
X623Y338D02*
X627Y338D01*
X1023Y338D02*
X1027Y338D01*
X1623Y338D02*
X1627Y338D01*
X1739Y338D02*
X1746Y338D01*
X1Y337D02*
X8Y337D01*
X22Y337D02*
X28Y337D01*
X622Y337D02*
X628Y337D01*
X1022Y337D02*
X1028Y337D01*
X1622Y337D02*
X1628Y337D01*
X1739Y337D02*
X1746Y337D01*
X1Y336D02*
X8Y336D01*
X23Y336D02*
X29Y336D01*
X623Y336D02*
X629Y336D01*
X1023Y336D02*
X1029Y336D01*
X1623Y336D02*
X1629Y336D01*
X1739Y336D02*
X1746Y336D01*
X1Y335D02*
X8Y335D01*
X24Y335D02*
X30Y335D01*
X624Y335D02*
X630Y335D01*
X1024Y335D02*
X1030Y335D01*
X1624Y335D02*
X1630Y335D01*
X1739Y335D02*
X1746Y335D01*
X1Y334D02*
X8Y334D01*
X25Y334D02*
X31Y334D01*
X625Y334D02*
X631Y334D01*
X1025Y334D02*
X1031Y334D01*
X1625Y334D02*
X1631Y334D01*
X1739Y334D02*
X1746Y334D01*
X1Y333D02*
X8Y333D01*
X26Y333D02*
X32Y333D01*
X626Y333D02*
X632Y333D01*
X775Y333D02*
X904Y333D01*
X1026Y333D02*
X1032Y333D01*
X1626Y333D02*
X1632Y333D01*
X1739Y333D02*
X1746Y333D01*
X1Y332D02*
X8Y332D01*
X27Y332D02*
X33Y332D01*
X627Y332D02*
X633Y332D01*
X775Y332D02*
X904Y332D01*
X1027Y332D02*
X1033Y332D01*
X1627Y332D02*
X1633Y332D01*
X1739Y332D02*
X1746Y332D01*
X1Y331D02*
X8Y331D01*
X28Y331D02*
X34Y331D01*
X628Y331D02*
X634Y331D01*
X775Y331D02*
X904Y331D01*
X1028Y331D02*
X1034Y331D01*
X1628Y331D02*
X1634Y331D01*
X1739Y331D02*
X1746Y331D01*
X1Y330D02*
X8Y330D01*
X29Y330D02*
X35Y330D01*
X629Y330D02*
X635Y330D01*
X775Y330D02*
X777Y330D01*
X835Y330D02*
X844Y330D01*
X902Y330D02*
X904Y330D01*
X1029Y330D02*
X1035Y330D01*
X1629Y330D02*
X1635Y330D01*
X1739Y330D02*
X1746Y330D01*
X1Y329D02*
X8Y329D01*
X30Y329D02*
X36Y329D01*
X630Y329D02*
X636Y329D01*
X775Y329D02*
X777Y329D01*
X902Y329D02*
X904Y329D01*
X1030Y329D02*
X1036Y329D01*
X1630Y329D02*
X1636Y329D01*
X1739Y329D02*
X1746Y329D01*
X1Y328D02*
X8Y328D01*
X31Y328D02*
X37Y328D01*
X631Y328D02*
X637Y328D01*
X775Y328D02*
X777Y328D01*
X902Y328D02*
X904Y328D01*
X1031Y328D02*
X1037Y328D01*
X1631Y328D02*
X1637Y328D01*
X1739Y328D02*
X1746Y328D01*
X1Y327D02*
X8Y327D01*
X32Y327D02*
X38Y327D01*
X632Y327D02*
X638Y327D01*
X775Y327D02*
X777Y327D01*
X902Y327D02*
X904Y327D01*
X1032Y327D02*
X1038Y327D01*
X1632Y327D02*
X1638Y327D01*
X1739Y327D02*
X1746Y327D01*
X1Y326D02*
X8Y326D01*
X33Y326D02*
X39Y326D01*
X633Y326D02*
X639Y326D01*
X775Y326D02*
X777Y326D01*
X902Y326D02*
X904Y326D01*
X1033Y326D02*
X1038Y326D01*
X1633Y326D02*
X1638Y326D01*
X1739Y326D02*
X1746Y326D01*
X1Y325D02*
X8Y325D01*
X34Y325D02*
X40Y325D01*
X634Y325D02*
X639Y325D01*
X775Y325D02*
X777Y325D01*
X902Y325D02*
X904Y325D01*
X1034Y325D02*
X1039Y325D01*
X1634Y325D02*
X1639Y325D01*
X1739Y325D02*
X1746Y325D01*
X1Y324D02*
X8Y324D01*
X35Y324D02*
X40Y324D01*
X635Y324D02*
X640Y324D01*
X775Y324D02*
X777Y324D01*
X902Y324D02*
X904Y324D01*
X1035Y324D02*
X1040Y324D01*
X1635Y324D02*
X1640Y324D01*
X1739Y324D02*
X1746Y324D01*
X1Y323D02*
X8Y323D01*
X36Y323D02*
X41Y323D01*
X636Y323D02*
X641Y323D01*
X775Y323D02*
X777Y323D01*
X902Y323D02*
X904Y323D01*
X1036Y323D02*
X1041Y323D01*
X1636Y323D02*
X1641Y323D01*
X1739Y323D02*
X1746Y323D01*
X1Y322D02*
X8Y322D01*
X37Y322D02*
X42Y322D01*
X637Y322D02*
X642Y322D01*
X775Y322D02*
X777Y322D01*
X902Y322D02*
X904Y322D01*
X1037Y322D02*
X1042Y322D01*
X1637Y322D02*
X1642Y322D01*
X1739Y322D02*
X1746Y322D01*
X1Y321D02*
X8Y321D01*
X38Y321D02*
X44Y321D01*
X638Y321D02*
X643Y321D01*
X775Y321D02*
X777Y321D01*
X902Y321D02*
X904Y321D01*
X1038Y321D02*
X1043Y321D01*
X1638Y321D02*
X1643Y321D01*
X1739Y321D02*
X1746Y321D01*
X1Y320D02*
X8Y320D01*
X39Y320D02*
X45Y320D01*
X639Y320D02*
X644Y320D01*
X775Y320D02*
X777Y320D01*
X902Y320D02*
X904Y320D01*
X916Y320D02*
X931Y320D01*
X948Y320D02*
X957Y320D01*
X1039Y320D02*
X1044Y320D01*
X1639Y320D02*
X1644Y320D01*
X1739Y320D02*
X1746Y320D01*
X1Y319D02*
X8Y319D01*
X40Y319D02*
X46Y319D01*
X640Y319D02*
X646Y319D01*
X775Y319D02*
X777Y319D01*
X902Y319D02*
X904Y319D01*
X916Y319D02*
X933Y319D01*
X947Y319D02*
X958Y319D01*
X1040Y319D02*
X1046Y319D01*
X1640Y319D02*
X1645Y319D01*
X1739Y319D02*
X1746Y319D01*
X1Y318D02*
X8Y318D01*
X41Y318D02*
X47Y318D01*
X641Y318D02*
X647Y318D01*
X775Y318D02*
X777Y318D01*
X902Y318D02*
X904Y318D01*
X916Y318D02*
X934Y318D01*
X946Y318D02*
X958Y318D01*
X1041Y318D02*
X1047Y318D01*
X1641Y318D02*
X1647Y318D01*
X1739Y318D02*
X1746Y318D01*
X1Y317D02*
X8Y317D01*
X42Y317D02*
X48Y317D01*
X642Y317D02*
X648Y317D01*
X775Y317D02*
X777Y317D01*
X902Y317D02*
X904Y317D01*
X916Y317D02*
X935Y317D01*
X947Y317D02*
X958Y317D01*
X1042Y317D02*
X1048Y317D01*
X1642Y317D02*
X1648Y317D01*
X1739Y317D02*
X1746Y317D01*
X1Y316D02*
X8Y316D01*
X43Y316D02*
X49Y316D01*
X643Y316D02*
X649Y316D01*
X775Y316D02*
X777Y316D01*
X902Y316D02*
X904Y316D01*
X916Y316D02*
X936Y316D01*
X948Y316D02*
X958Y316D01*
X1043Y316D02*
X1049Y316D01*
X1643Y316D02*
X1649Y316D01*
X1739Y316D02*
X1746Y316D01*
X1Y315D02*
X8Y315D01*
X44Y315D02*
X50Y315D01*
X644Y315D02*
X650Y315D01*
X775Y315D02*
X777Y315D01*
X902Y315D02*
X904Y315D01*
X916Y315D02*
X919Y315D01*
X932Y315D02*
X936Y315D01*
X955Y315D02*
X958Y315D01*
X1044Y315D02*
X1050Y315D01*
X1644Y315D02*
X1650Y315D01*
X1739Y315D02*
X1746Y315D01*
X1Y314D02*
X8Y314D01*
X45Y314D02*
X51Y314D01*
X645Y314D02*
X651Y314D01*
X775Y314D02*
X777Y314D01*
X902Y314D02*
X904Y314D01*
X916Y314D02*
X919Y314D01*
X933Y314D02*
X936Y314D01*
X955Y314D02*
X958Y314D01*
X1045Y314D02*
X1051Y314D01*
X1645Y314D02*
X1651Y314D01*
X1739Y314D02*
X1746Y314D01*
X1Y313D02*
X8Y313D01*
X46Y313D02*
X52Y313D01*
X646Y313D02*
X652Y313D01*
X775Y313D02*
X777Y313D01*
X902Y313D02*
X904Y313D01*
X916Y313D02*
X919Y313D01*
X933Y313D02*
X936Y313D01*
X955Y313D02*
X958Y313D01*
X1046Y313D02*
X1052Y313D01*
X1646Y313D02*
X1652Y313D01*
X1739Y313D02*
X1746Y313D01*
X1Y312D02*
X8Y312D01*
X47Y312D02*
X53Y312D01*
X647Y312D02*
X653Y312D01*
X775Y312D02*
X777Y312D01*
X902Y312D02*
X904Y312D01*
X916Y312D02*
X919Y312D01*
X933Y312D02*
X936Y312D01*
X955Y312D02*
X958Y312D01*
X1047Y312D02*
X1053Y312D01*
X1647Y312D02*
X1653Y312D01*
X1739Y312D02*
X1746Y312D01*
X1Y311D02*
X8Y311D01*
X48Y311D02*
X54Y311D01*
X648Y311D02*
X654Y311D01*
X775Y311D02*
X777Y311D01*
X902Y311D02*
X904Y311D01*
X916Y311D02*
X919Y311D01*
X933Y311D02*
X936Y311D01*
X955Y311D02*
X958Y311D01*
X1048Y311D02*
X1054Y311D01*
X1648Y311D02*
X1654Y311D01*
X1739Y311D02*
X1746Y311D01*
X1Y310D02*
X8Y310D01*
X49Y310D02*
X55Y310D01*
X649Y310D02*
X655Y310D01*
X775Y310D02*
X777Y310D01*
X902Y310D02*
X904Y310D01*
X916Y310D02*
X919Y310D01*
X932Y310D02*
X936Y310D01*
X955Y310D02*
X958Y310D01*
X1049Y310D02*
X1055Y310D01*
X1649Y310D02*
X1655Y310D01*
X1739Y310D02*
X1746Y310D01*
X1Y309D02*
X8Y309D01*
X50Y309D02*
X56Y309D01*
X650Y309D02*
X656Y309D01*
X775Y309D02*
X777Y309D01*
X902Y309D02*
X904Y309D01*
X916Y309D02*
X935Y309D01*
X955Y309D02*
X958Y309D01*
X1050Y309D02*
X1056Y309D01*
X1650Y309D02*
X1656Y309D01*
X1739Y309D02*
X1746Y309D01*
X1Y308D02*
X8Y308D01*
X51Y308D02*
X57Y308D01*
X651Y308D02*
X657Y308D01*
X775Y308D02*
X777Y308D01*
X902Y308D02*
X904Y308D01*
X916Y308D02*
X935Y308D01*
X955Y308D02*
X958Y308D01*
X1051Y308D02*
X1057Y308D01*
X1651Y308D02*
X1657Y308D01*
X1739Y308D02*
X1746Y308D01*
X1Y307D02*
X8Y307D01*
X52Y307D02*
X58Y307D01*
X652Y307D02*
X658Y307D01*
X775Y307D02*
X777Y307D01*
X902Y307D02*
X904Y307D01*
X916Y307D02*
X934Y307D01*
X955Y307D02*
X958Y307D01*
X1052Y307D02*
X1058Y307D01*
X1652Y307D02*
X1658Y307D01*
X1739Y307D02*
X1746Y307D01*
X1Y306D02*
X8Y306D01*
X53Y306D02*
X59Y306D01*
X653Y306D02*
X659Y306D01*
X775Y306D02*
X777Y306D01*
X902Y306D02*
X904Y306D01*
X916Y306D02*
X932Y306D01*
X955Y306D02*
X958Y306D01*
X1053Y306D02*
X1059Y306D01*
X1653Y306D02*
X1659Y306D01*
X1739Y306D02*
X1746Y306D01*
X1Y305D02*
X8Y305D01*
X54Y305D02*
X59Y305D01*
X654Y305D02*
X659Y305D01*
X775Y305D02*
X777Y305D01*
X902Y305D02*
X904Y305D01*
X916Y305D02*
X919Y305D01*
X923Y305D02*
X927Y305D01*
X955Y305D02*
X958Y305D01*
X1054Y305D02*
X1059Y305D01*
X1654Y305D02*
X1659Y305D01*
X1739Y305D02*
X1746Y305D01*
X1Y304D02*
X8Y304D01*
X55Y304D02*
X58Y304D01*
X655Y304D02*
X658Y304D01*
X775Y304D02*
X777Y304D01*
X902Y304D02*
X904Y304D01*
X916Y304D02*
X919Y304D01*
X924Y304D02*
X928Y304D01*
X955Y304D02*
X958Y304D01*
X1055Y304D02*
X1058Y304D01*
X1655Y304D02*
X1658Y304D01*
X1739Y304D02*
X1746Y304D01*
X1Y303D02*
X8Y303D01*
X56Y303D02*
X57Y303D01*
X656Y303D02*
X657Y303D01*
X775Y303D02*
X777Y303D01*
X902Y303D02*
X904Y303D01*
X916Y303D02*
X919Y303D01*
X925Y303D02*
X929Y303D01*
X955Y303D02*
X958Y303D01*
X1056Y303D02*
X1057Y303D01*
X1656Y303D02*
X1657Y303D01*
X1739Y303D02*
X1746Y303D01*
X1Y302D02*
X8Y302D01*
X775Y302D02*
X777Y302D01*
X902Y302D02*
X904Y302D01*
X916Y302D02*
X919Y302D01*
X925Y302D02*
X929Y302D01*
X955Y302D02*
X958Y302D01*
X964Y302D02*
X965Y302D01*
X1739Y302D02*
X1746Y302D01*
X1Y301D02*
X8Y301D01*
X775Y301D02*
X777Y301D01*
X902Y301D02*
X904Y301D01*
X916Y301D02*
X919Y301D01*
X926Y301D02*
X930Y301D01*
X955Y301D02*
X958Y301D01*
X963Y301D02*
X966Y301D01*
X1739Y301D02*
X1746Y301D01*
X1Y300D02*
X8Y300D01*
X775Y300D02*
X777Y300D01*
X902Y300D02*
X904Y300D01*
X916Y300D02*
X919Y300D01*
X926Y300D02*
X930Y300D01*
X955Y300D02*
X958Y300D01*
X963Y300D02*
X966Y300D01*
X1739Y300D02*
X1746Y300D01*
X1Y299D02*
X8Y299D01*
X775Y299D02*
X777Y299D01*
X902Y299D02*
X904Y299D01*
X916Y299D02*
X919Y299D01*
X927Y299D02*
X931Y299D01*
X955Y299D02*
X958Y299D01*
X963Y299D02*
X966Y299D01*
X1739Y299D02*
X1746Y299D01*
X1Y298D02*
X8Y298D01*
X775Y298D02*
X777Y298D01*
X902Y298D02*
X904Y298D01*
X916Y298D02*
X919Y298D01*
X928Y298D02*
X931Y298D01*
X955Y298D02*
X958Y298D01*
X963Y298D02*
X966Y298D01*
X1739Y298D02*
X1746Y298D01*
X1Y297D02*
X8Y297D01*
X775Y297D02*
X777Y297D01*
X902Y297D02*
X904Y297D01*
X916Y297D02*
X919Y297D01*
X928Y297D02*
X932Y297D01*
X955Y297D02*
X958Y297D01*
X963Y297D02*
X966Y297D01*
X1739Y297D02*
X1746Y297D01*
X1Y296D02*
X8Y296D01*
X775Y296D02*
X777Y296D01*
X902Y296D02*
X904Y296D01*
X916Y296D02*
X919Y296D01*
X929Y296D02*
X933Y296D01*
X955Y296D02*
X958Y296D01*
X963Y296D02*
X966Y296D01*
X1739Y296D02*
X1746Y296D01*
X1Y295D02*
X8Y295D01*
X775Y295D02*
X777Y295D01*
X902Y295D02*
X904Y295D01*
X916Y295D02*
X919Y295D01*
X929Y295D02*
X933Y295D01*
X955Y295D02*
X958Y295D01*
X963Y295D02*
X966Y295D01*
X1739Y295D02*
X1746Y295D01*
X1Y294D02*
X8Y294D01*
X775Y294D02*
X777Y294D01*
X902Y294D02*
X904Y294D01*
X916Y294D02*
X919Y294D01*
X930Y294D02*
X934Y294D01*
X955Y294D02*
X958Y294D01*
X963Y294D02*
X966Y294D01*
X1739Y294D02*
X1746Y294D01*
X1Y293D02*
X8Y293D01*
X775Y293D02*
X777Y293D01*
X902Y293D02*
X904Y293D01*
X916Y293D02*
X919Y293D01*
X930Y293D02*
X934Y293D01*
X955Y293D02*
X958Y293D01*
X963Y293D02*
X966Y293D01*
X1739Y293D02*
X1746Y293D01*
X1Y292D02*
X8Y292D01*
X775Y292D02*
X777Y292D01*
X902Y292D02*
X904Y292D01*
X916Y292D02*
X919Y292D01*
X931Y292D02*
X935Y292D01*
X954Y292D02*
X958Y292D01*
X962Y292D02*
X966Y292D01*
X1739Y292D02*
X1746Y292D01*
X1Y291D02*
X8Y291D01*
X775Y291D02*
X777Y291D01*
X902Y291D02*
X904Y291D01*
X916Y291D02*
X919Y291D01*
X932Y291D02*
X936Y291D01*
X947Y291D02*
X966Y291D01*
X1739Y291D02*
X1746Y291D01*
X1Y290D02*
X8Y290D01*
X775Y290D02*
X777Y290D01*
X902Y290D02*
X904Y290D01*
X916Y290D02*
X919Y290D01*
X932Y290D02*
X936Y290D01*
X946Y290D02*
X966Y290D01*
X1739Y290D02*
X1746Y290D01*
X1Y289D02*
X8Y289D01*
X775Y289D02*
X777Y289D01*
X902Y289D02*
X904Y289D01*
X916Y289D02*
X919Y289D01*
X933Y289D02*
X936Y289D01*
X946Y289D02*
X966Y289D01*
X1739Y289D02*
X1746Y289D01*
X1Y288D02*
X8Y288D01*
X775Y288D02*
X777Y288D01*
X902Y288D02*
X904Y288D01*
X917Y288D02*
X918Y288D01*
X934Y288D02*
X935Y288D01*
X947Y288D02*
X965Y288D01*
X1739Y288D02*
X1746Y288D01*
X1Y287D02*
X8Y287D01*
X775Y287D02*
X777Y287D01*
X902Y287D02*
X904Y287D01*
X1739Y287D02*
X1746Y287D01*
X1Y286D02*
X8Y286D01*
X775Y286D02*
X777Y286D01*
X902Y286D02*
X904Y286D01*
X1739Y286D02*
X1746Y286D01*
X1Y285D02*
X8Y285D01*
X775Y285D02*
X777Y285D01*
X902Y285D02*
X904Y285D01*
X1739Y285D02*
X1746Y285D01*
X1Y284D02*
X8Y284D01*
X775Y284D02*
X777Y284D01*
X902Y284D02*
X904Y284D01*
X1739Y284D02*
X1746Y284D01*
X1Y283D02*
X8Y283D01*
X775Y283D02*
X777Y283D01*
X902Y283D02*
X904Y283D01*
X1739Y283D02*
X1746Y283D01*
X1Y282D02*
X8Y282D01*
X775Y282D02*
X777Y282D01*
X902Y282D02*
X904Y282D01*
X1739Y282D02*
X1746Y282D01*
X1Y281D02*
X8Y281D01*
X775Y281D02*
X777Y281D01*
X902Y281D02*
X904Y281D01*
X1739Y281D02*
X1746Y281D01*
X1Y280D02*
X8Y280D01*
X775Y280D02*
X777Y280D01*
X902Y280D02*
X904Y280D01*
X1739Y280D02*
X1746Y280D01*
X1Y279D02*
X8Y279D01*
X775Y279D02*
X777Y279D01*
X902Y279D02*
X904Y279D01*
X1739Y279D02*
X1746Y279D01*
X1Y278D02*
X8Y278D01*
X775Y278D02*
X777Y278D01*
X835Y278D02*
X844Y278D01*
X902Y278D02*
X904Y278D01*
X1739Y278D02*
X1746Y278D01*
X1Y277D02*
X8Y277D01*
X775Y277D02*
X904Y277D01*
X1739Y277D02*
X1746Y277D01*
X1Y276D02*
X8Y276D01*
X775Y276D02*
X904Y276D01*
X1739Y276D02*
X1746Y276D01*
X1Y275D02*
X8Y275D01*
X775Y275D02*
X904Y275D01*
X1739Y275D02*
X1746Y275D01*
X1Y274D02*
X8Y274D01*
X1739Y274D02*
X1746Y274D01*
X1Y273D02*
X8Y273D01*
X1739Y273D02*
X1746Y273D01*
X1Y272D02*
X8Y272D01*
X1739Y272D02*
X1746Y272D01*
X1Y271D02*
X8Y271D01*
X1739Y271D02*
X1746Y271D01*
X1Y270D02*
X8Y270D01*
X1739Y270D02*
X1746Y270D01*
X1Y269D02*
X8Y269D01*
X1739Y269D02*
X1746Y269D01*
X1Y268D02*
X8Y268D01*
X1739Y268D02*
X1746Y268D01*
X1Y267D02*
X8Y267D01*
X1739Y267D02*
X1746Y267D01*
X1Y266D02*
X8Y266D01*
X1739Y266D02*
X1746Y266D01*
X1Y265D02*
X8Y265D01*
X1739Y265D02*
X1746Y265D01*
X1Y264D02*
X8Y264D01*
X1739Y264D02*
X1746Y264D01*
X1Y263D02*
X8Y263D01*
X1739Y263D02*
X1746Y263D01*
X1Y262D02*
X8Y262D01*
X1739Y262D02*
X1746Y262D01*
X1Y261D02*
X8Y261D01*
X1739Y261D02*
X1746Y261D01*
X1Y260D02*
X8Y260D01*
X1739Y260D02*
X1746Y260D01*
X1Y259D02*
X8Y259D01*
X1739Y259D02*
X1746Y259D01*
X1Y258D02*
X8Y258D01*
X1739Y258D02*
X1746Y258D01*
X1Y257D02*
X8Y257D01*
X1739Y257D02*
X1746Y257D01*
X1Y256D02*
X8Y256D01*
X1739Y256D02*
X1746Y256D01*
X1Y255D02*
X8Y255D01*
X1739Y255D02*
X1746Y255D01*
X1Y254D02*
X8Y254D01*
X1739Y254D02*
X1746Y254D01*
X1Y253D02*
X8Y253D01*
X1739Y253D02*
X1746Y253D01*
X1Y252D02*
X8Y252D01*
X1739Y252D02*
X1746Y252D01*
X1Y251D02*
X8Y251D01*
X1739Y251D02*
X1746Y251D01*
X1Y250D02*
X8Y250D01*
X1739Y250D02*
X1746Y250D01*
X1Y249D02*
X8Y249D01*
X1739Y249D02*
X1746Y249D01*
X1Y248D02*
X8Y248D01*
X1739Y248D02*
X1746Y248D01*
X1Y247D02*
X8Y247D01*
X1739Y247D02*
X1746Y247D01*
X1Y246D02*
X8Y246D01*
X1739Y246D02*
X1746Y246D01*
X1Y245D02*
X8Y245D01*
X1739Y245D02*
X1746Y245D01*
X1Y244D02*
X8Y244D01*
X1739Y244D02*
X1746Y244D01*
X1Y243D02*
X8Y243D01*
X1739Y243D02*
X1746Y243D01*
X1Y242D02*
X8Y242D01*
X1739Y242D02*
X1746Y242D01*
X1Y241D02*
X8Y241D01*
X1739Y241D02*
X1746Y241D01*
X1Y240D02*
X8Y240D01*
X1739Y240D02*
X1746Y240D01*
X1Y239D02*
X8Y239D01*
X1739Y239D02*
X1746Y239D01*
X1Y238D02*
X8Y238D01*
X1739Y238D02*
X1746Y238D01*
X1Y237D02*
X8Y237D01*
X1739Y237D02*
X1746Y237D01*
X1Y236D02*
X8Y236D01*
X1739Y236D02*
X1746Y236D01*
X1Y235D02*
X8Y235D01*
X1739Y235D02*
X1746Y235D01*
X1Y234D02*
X8Y234D01*
X1739Y234D02*
X1746Y234D01*
X1Y233D02*
X8Y233D01*
X775Y233D02*
X904Y233D01*
X1739Y233D02*
X1746Y233D01*
X1Y232D02*
X8Y232D01*
X775Y232D02*
X904Y232D01*
X1739Y232D02*
X1746Y232D01*
X1Y231D02*
X8Y231D01*
X775Y231D02*
X904Y231D01*
X1739Y231D02*
X1746Y231D01*
X1Y230D02*
X8Y230D01*
X775Y230D02*
X777Y230D01*
X835Y230D02*
X844Y230D01*
X902Y230D02*
X904Y230D01*
X1739Y230D02*
X1746Y230D01*
X1Y229D02*
X8Y229D01*
X775Y229D02*
X777Y229D01*
X902Y229D02*
X904Y229D01*
X1739Y229D02*
X1746Y229D01*
X1Y228D02*
X8Y228D01*
X775Y228D02*
X777Y228D01*
X902Y228D02*
X904Y228D01*
X1739Y228D02*
X1746Y228D01*
X1Y227D02*
X8Y227D01*
X775Y227D02*
X777Y227D01*
X902Y227D02*
X904Y227D01*
X1739Y227D02*
X1746Y227D01*
X1Y226D02*
X8Y226D01*
X775Y226D02*
X777Y226D01*
X902Y226D02*
X904Y226D01*
X1739Y226D02*
X1746Y226D01*
X1Y225D02*
X8Y225D01*
X775Y225D02*
X777Y225D01*
X902Y225D02*
X904Y225D01*
X1739Y225D02*
X1746Y225D01*
X1Y224D02*
X8Y224D01*
X775Y224D02*
X777Y224D01*
X902Y224D02*
X904Y224D01*
X1739Y224D02*
X1746Y224D01*
X1Y223D02*
X8Y223D01*
X775Y223D02*
X777Y223D01*
X902Y223D02*
X904Y223D01*
X1739Y223D02*
X1746Y223D01*
X1Y222D02*
X8Y222D01*
X775Y222D02*
X777Y222D01*
X902Y222D02*
X904Y222D01*
X1739Y222D02*
X1746Y222D01*
X1Y221D02*
X8Y221D01*
X775Y221D02*
X777Y221D01*
X902Y221D02*
X904Y221D01*
X1739Y221D02*
X1746Y221D01*
X1Y220D02*
X8Y220D01*
X716Y220D02*
X731Y220D01*
X748Y220D02*
X763Y220D01*
X775Y220D02*
X777Y220D01*
X902Y220D02*
X904Y220D01*
X1739Y220D02*
X1746Y220D01*
X1Y219D02*
X8Y219D01*
X716Y219D02*
X733Y219D01*
X747Y219D02*
X765Y219D01*
X775Y219D02*
X777Y219D01*
X902Y219D02*
X904Y219D01*
X1739Y219D02*
X1746Y219D01*
X1Y218D02*
X8Y218D01*
X716Y218D02*
X734Y218D01*
X746Y218D02*
X766Y218D01*
X775Y218D02*
X777Y218D01*
X902Y218D02*
X904Y218D01*
X1739Y218D02*
X1746Y218D01*
X1Y217D02*
X8Y217D01*
X716Y217D02*
X735Y217D01*
X747Y217D02*
X766Y217D01*
X775Y217D02*
X777Y217D01*
X902Y217D02*
X904Y217D01*
X1739Y217D02*
X1746Y217D01*
X1Y216D02*
X8Y216D01*
X716Y216D02*
X720Y216D01*
X731Y216D02*
X736Y216D01*
X762Y216D02*
X766Y216D01*
X775Y216D02*
X777Y216D01*
X902Y216D02*
X904Y216D01*
X1739Y216D02*
X1746Y216D01*
X1Y215D02*
X8Y215D01*
X716Y215D02*
X719Y215D01*
X732Y215D02*
X736Y215D01*
X763Y215D02*
X766Y215D01*
X775Y215D02*
X777Y215D01*
X902Y215D02*
X904Y215D01*
X1739Y215D02*
X1746Y215D01*
X1Y214D02*
X8Y214D01*
X716Y214D02*
X719Y214D01*
X733Y214D02*
X736Y214D01*
X763Y214D02*
X766Y214D01*
X775Y214D02*
X777Y214D01*
X902Y214D02*
X904Y214D01*
X1739Y214D02*
X1746Y214D01*
X1Y213D02*
X8Y213D01*
X716Y213D02*
X719Y213D01*
X733Y213D02*
X736Y213D01*
X763Y213D02*
X766Y213D01*
X775Y213D02*
X777Y213D01*
X902Y213D02*
X904Y213D01*
X1739Y213D02*
X1746Y213D01*
X1Y212D02*
X8Y212D01*
X716Y212D02*
X719Y212D01*
X733Y212D02*
X736Y212D01*
X763Y212D02*
X766Y212D01*
X775Y212D02*
X777Y212D01*
X902Y212D02*
X904Y212D01*
X1739Y212D02*
X1746Y212D01*
X1Y211D02*
X8Y211D01*
X716Y211D02*
X719Y211D01*
X733Y211D02*
X736Y211D01*
X763Y211D02*
X766Y211D01*
X775Y211D02*
X777Y211D01*
X902Y211D02*
X904Y211D01*
X1739Y211D02*
X1746Y211D01*
X1Y210D02*
X8Y210D01*
X716Y210D02*
X720Y210D01*
X732Y210D02*
X736Y210D01*
X763Y210D02*
X766Y210D01*
X775Y210D02*
X777Y210D01*
X902Y210D02*
X904Y210D01*
X1739Y210D02*
X1746Y210D01*
X1Y209D02*
X8Y209D01*
X716Y209D02*
X735Y209D01*
X763Y209D02*
X766Y209D01*
X775Y209D02*
X777Y209D01*
X902Y209D02*
X904Y209D01*
X1739Y209D02*
X1746Y209D01*
X1Y208D02*
X8Y208D01*
X716Y208D02*
X735Y208D01*
X763Y208D02*
X766Y208D01*
X775Y208D02*
X777Y208D01*
X902Y208D02*
X904Y208D01*
X1739Y208D02*
X1746Y208D01*
X1Y207D02*
X8Y207D01*
X716Y207D02*
X734Y207D01*
X763Y207D02*
X766Y207D01*
X775Y207D02*
X777Y207D01*
X902Y207D02*
X904Y207D01*
X1739Y207D02*
X1746Y207D01*
X1Y206D02*
X8Y206D01*
X716Y206D02*
X732Y206D01*
X750Y206D02*
X766Y206D01*
X775Y206D02*
X777Y206D01*
X902Y206D02*
X904Y206D01*
X1739Y206D02*
X1746Y206D01*
X1Y205D02*
X8Y205D01*
X716Y205D02*
X719Y205D01*
X724Y205D02*
X728Y205D01*
X748Y205D02*
X766Y205D01*
X775Y205D02*
X777Y205D01*
X902Y205D02*
X904Y205D01*
X1739Y205D02*
X1746Y205D01*
X1Y204D02*
X8Y204D01*
X716Y204D02*
X719Y204D01*
X724Y204D02*
X728Y204D01*
X747Y204D02*
X765Y204D01*
X775Y204D02*
X777Y204D01*
X902Y204D02*
X904Y204D01*
X1739Y204D02*
X1746Y204D01*
X1Y203D02*
X8Y203D01*
X716Y203D02*
X719Y203D01*
X725Y203D02*
X729Y203D01*
X747Y203D02*
X765Y203D01*
X775Y203D02*
X777Y203D01*
X902Y203D02*
X904Y203D01*
X1739Y203D02*
X1746Y203D01*
X1Y202D02*
X8Y202D01*
X716Y202D02*
X719Y202D01*
X725Y202D02*
X729Y202D01*
X746Y202D02*
X762Y202D01*
X775Y202D02*
X777Y202D01*
X902Y202D02*
X904Y202D01*
X1739Y202D02*
X1746Y202D01*
X1Y201D02*
X8Y201D01*
X716Y201D02*
X719Y201D01*
X726Y201D02*
X730Y201D01*
X746Y201D02*
X750Y201D01*
X775Y201D02*
X777Y201D01*
X902Y201D02*
X904Y201D01*
X1739Y201D02*
X1746Y201D01*
X1Y200D02*
X8Y200D01*
X716Y200D02*
X719Y200D01*
X726Y200D02*
X730Y200D01*
X746Y200D02*
X750Y200D01*
X775Y200D02*
X777Y200D01*
X902Y200D02*
X904Y200D01*
X1739Y200D02*
X1746Y200D01*
X1Y199D02*
X8Y199D01*
X716Y199D02*
X719Y199D01*
X727Y199D02*
X731Y199D01*
X746Y199D02*
X750Y199D01*
X775Y199D02*
X777Y199D01*
X902Y199D02*
X904Y199D01*
X1739Y199D02*
X1746Y199D01*
X1Y198D02*
X8Y198D01*
X716Y198D02*
X719Y198D01*
X728Y198D02*
X732Y198D01*
X746Y198D02*
X750Y198D01*
X775Y198D02*
X777Y198D01*
X902Y198D02*
X904Y198D01*
X1739Y198D02*
X1746Y198D01*
X1Y197D02*
X8Y197D01*
X545Y197D02*
X549Y197D01*
X716Y197D02*
X719Y197D01*
X728Y197D02*
X732Y197D01*
X746Y197D02*
X750Y197D01*
X775Y197D02*
X777Y197D01*
X902Y197D02*
X904Y197D01*
X1739Y197D02*
X1746Y197D01*
X1Y196D02*
X8Y196D01*
X542Y196D02*
X549Y196D01*
X716Y196D02*
X719Y196D01*
X729Y196D02*
X733Y196D01*
X746Y196D02*
X750Y196D01*
X775Y196D02*
X777Y196D01*
X902Y196D02*
X904Y196D01*
X1739Y196D02*
X1746Y196D01*
X1Y195D02*
X8Y195D01*
X540Y195D02*
X549Y195D01*
X716Y195D02*
X719Y195D01*
X729Y195D02*
X733Y195D01*
X746Y195D02*
X750Y195D01*
X775Y195D02*
X777Y195D01*
X902Y195D02*
X904Y195D01*
X1739Y195D02*
X1746Y195D01*
X1Y194D02*
X8Y194D01*
X538Y194D02*
X550Y194D01*
X716Y194D02*
X719Y194D01*
X730Y194D02*
X734Y194D01*
X746Y194D02*
X750Y194D01*
X775Y194D02*
X777Y194D01*
X902Y194D02*
X904Y194D01*
X1739Y194D02*
X1746Y194D01*
X1Y193D02*
X8Y193D01*
X537Y193D02*
X550Y193D01*
X716Y193D02*
X719Y193D01*
X731Y193D02*
X734Y193D01*
X746Y193D02*
X750Y193D01*
X775Y193D02*
X777Y193D01*
X902Y193D02*
X904Y193D01*
X1739Y193D02*
X1746Y193D01*
X1Y192D02*
X8Y192D01*
X536Y192D02*
X551Y192D01*
X716Y192D02*
X719Y192D01*
X731Y192D02*
X735Y192D01*
X746Y192D02*
X764Y192D01*
X775Y192D02*
X777Y192D01*
X902Y192D02*
X904Y192D01*
X1739Y192D02*
X1746Y192D01*
X1Y191D02*
X8Y191D01*
X535Y191D02*
X551Y191D01*
X716Y191D02*
X719Y191D01*
X732Y191D02*
X736Y191D01*
X746Y191D02*
X766Y191D01*
X775Y191D02*
X777Y191D01*
X902Y191D02*
X904Y191D01*
X1739Y191D02*
X1746Y191D01*
X1Y190D02*
X8Y190D01*
X534Y190D02*
X552Y190D01*
X716Y190D02*
X719Y190D01*
X732Y190D02*
X736Y190D01*
X746Y190D02*
X766Y190D01*
X775Y190D02*
X777Y190D01*
X902Y190D02*
X904Y190D01*
X1739Y190D02*
X1746Y190D01*
X1Y189D02*
X8Y189D01*
X533Y189D02*
X552Y189D01*
X716Y189D02*
X719Y189D01*
X733Y189D02*
X736Y189D01*
X746Y189D02*
X766Y189D01*
X775Y189D02*
X777Y189D01*
X902Y189D02*
X904Y189D01*
X1739Y189D02*
X1746Y189D01*
X1Y188D02*
X8Y188D01*
X532Y188D02*
X553Y188D01*
X718Y188D02*
X718Y188D01*
X734Y188D02*
X735Y188D01*
X747Y188D02*
X765Y188D01*
X775Y188D02*
X777Y188D01*
X902Y188D02*
X904Y188D01*
X1739Y188D02*
X1746Y188D01*
X1Y187D02*
X8Y187D01*
X531Y187D02*
X554Y187D01*
X775Y187D02*
X777Y187D01*
X902Y187D02*
X904Y187D01*
X1739Y187D02*
X1746Y187D01*
X1Y186D02*
X8Y186D01*
X531Y186D02*
X555Y186D01*
X775Y186D02*
X777Y186D01*
X902Y186D02*
X904Y186D01*
X1739Y186D02*
X1746Y186D01*
X1Y185D02*
X8Y185D01*
X530Y185D02*
X556Y185D01*
X775Y185D02*
X777Y185D01*
X902Y185D02*
X904Y185D01*
X1739Y185D02*
X1746Y185D01*
X1Y184D02*
X8Y184D01*
X530Y184D02*
X557Y184D01*
X775Y184D02*
X777Y184D01*
X902Y184D02*
X904Y184D01*
X1739Y184D02*
X1746Y184D01*
X1Y183D02*
X8Y183D01*
X529Y183D02*
X559Y183D01*
X775Y183D02*
X777Y183D01*
X902Y183D02*
X904Y183D01*
X1739Y183D02*
X1746Y183D01*
X1Y182D02*
X8Y182D01*
X529Y182D02*
X561Y182D01*
X775Y182D02*
X777Y182D01*
X902Y182D02*
X904Y182D01*
X1739Y182D02*
X1746Y182D01*
X1Y181D02*
X8Y181D01*
X528Y181D02*
X562Y181D01*
X775Y181D02*
X777Y181D01*
X902Y181D02*
X904Y181D01*
X1739Y181D02*
X1746Y181D01*
X1Y180D02*
X8Y180D01*
X528Y180D02*
X565Y180D01*
X775Y180D02*
X777Y180D01*
X902Y180D02*
X904Y180D01*
X1739Y180D02*
X1746Y180D01*
X1Y179D02*
X8Y179D01*
X528Y179D02*
X569Y179D01*
X775Y179D02*
X777Y179D01*
X902Y179D02*
X904Y179D01*
X1739Y179D02*
X1746Y179D01*
X1Y178D02*
X8Y178D01*
X528Y178D02*
X576Y178D01*
X775Y178D02*
X777Y178D01*
X835Y178D02*
X844Y178D01*
X902Y178D02*
X904Y178D01*
X1739Y178D02*
X1746Y178D01*
X1Y177D02*
X8Y177D01*
X527Y177D02*
X577Y177D01*
X775Y177D02*
X904Y177D01*
X1739Y177D02*
X1746Y177D01*
X1Y176D02*
X8Y176D01*
X527Y176D02*
X577Y176D01*
X775Y176D02*
X904Y176D01*
X1739Y176D02*
X1746Y176D01*
X1Y175D02*
X8Y175D01*
X527Y175D02*
X577Y175D01*
X775Y175D02*
X904Y175D01*
X1739Y175D02*
X1746Y175D01*
X1Y174D02*
X8Y174D01*
X527Y174D02*
X550Y174D01*
X554Y174D02*
X577Y174D01*
X1739Y174D02*
X1746Y174D01*
X1Y173D02*
X8Y173D01*
X527Y173D02*
X550Y173D01*
X554Y173D02*
X577Y173D01*
X1739Y173D02*
X1746Y173D01*
X1Y172D02*
X8Y172D01*
X527Y172D02*
X550Y172D01*
X554Y172D02*
X577Y172D01*
X1739Y172D02*
X1746Y172D01*
X1Y171D02*
X8Y171D01*
X527Y171D02*
X551Y171D01*
X553Y171D02*
X577Y171D01*
X1739Y171D02*
X1746Y171D01*
X1Y170D02*
X8Y170D01*
X527Y170D02*
X577Y170D01*
X1739Y170D02*
X1746Y170D01*
X1Y169D02*
X8Y169D01*
X527Y169D02*
X577Y169D01*
X1739Y169D02*
X1746Y169D01*
X1Y168D02*
X8Y168D01*
X527Y168D02*
X577Y168D01*
X1739Y168D02*
X1746Y168D01*
X1Y167D02*
X8Y167D01*
X528Y167D02*
X576Y167D01*
X1739Y167D02*
X1746Y167D01*
X1Y166D02*
X8Y166D01*
X528Y166D02*
X576Y166D01*
X1739Y166D02*
X1746Y166D01*
X1Y165D02*
X8Y165D01*
X528Y165D02*
X576Y165D01*
X1739Y165D02*
X1746Y165D01*
X1Y164D02*
X8Y164D01*
X528Y164D02*
X575Y164D01*
X1739Y164D02*
X1746Y164D01*
X1Y163D02*
X8Y163D01*
X529Y163D02*
X575Y163D01*
X1739Y163D02*
X1746Y163D01*
X1Y162D02*
X8Y162D01*
X529Y162D02*
X575Y162D01*
X1739Y162D02*
X1746Y162D01*
X1Y161D02*
X8Y161D01*
X530Y161D02*
X574Y161D01*
X1739Y161D02*
X1746Y161D01*
X1Y160D02*
X8Y160D01*
X530Y160D02*
X573Y160D01*
X1739Y160D02*
X1746Y160D01*
X1Y159D02*
X8Y159D01*
X531Y159D02*
X573Y159D01*
X1739Y159D02*
X1746Y159D01*
X1Y158D02*
X8Y158D01*
X532Y158D02*
X572Y158D01*
X1739Y158D02*
X1746Y158D01*
X1Y157D02*
X8Y157D01*
X532Y157D02*
X571Y157D01*
X1739Y157D02*
X1746Y157D01*
X1Y156D02*
X8Y156D01*
X533Y156D02*
X571Y156D01*
X1739Y156D02*
X1746Y156D01*
X1Y155D02*
X8Y155D01*
X534Y155D02*
X570Y155D01*
X1739Y155D02*
X1746Y155D01*
X1Y154D02*
X8Y154D01*
X535Y154D02*
X569Y154D01*
X1739Y154D02*
X1746Y154D01*
X1Y153D02*
X8Y153D01*
X136Y153D02*
X142Y153D01*
X536Y153D02*
X568Y153D01*
X608Y153D02*
X614Y153D01*
X1135Y153D02*
X1141Y153D01*
X1608Y153D02*
X1614Y153D01*
X1739Y153D02*
X1746Y153D01*
X1Y152D02*
X8Y152D01*
X135Y152D02*
X142Y152D01*
X538Y152D02*
X566Y152D01*
X607Y152D02*
X614Y152D01*
X1135Y152D02*
X1142Y152D01*
X1607Y152D02*
X1614Y152D01*
X1739Y152D02*
X1746Y152D01*
X1Y151D02*
X8Y151D01*
X135Y151D02*
X142Y151D01*
X539Y151D02*
X565Y151D01*
X607Y151D02*
X614Y151D01*
X1135Y151D02*
X1142Y151D01*
X1607Y151D02*
X1614Y151D01*
X1739Y151D02*
X1746Y151D01*
X1Y150D02*
X8Y150D01*
X135Y150D02*
X142Y150D01*
X541Y150D02*
X563Y150D01*
X607Y150D02*
X614Y150D01*
X1135Y150D02*
X1142Y150D01*
X1607Y150D02*
X1614Y150D01*
X1739Y150D02*
X1746Y150D01*
X1Y149D02*
X8Y149D01*
X135Y149D02*
X142Y149D01*
X543Y149D02*
X561Y149D01*
X607Y149D02*
X614Y149D01*
X1135Y149D02*
X1142Y149D01*
X1607Y149D02*
X1614Y149D01*
X1739Y149D02*
X1746Y149D01*
X1Y148D02*
X8Y148D01*
X136Y148D02*
X143Y148D01*
X546Y148D02*
X558Y148D01*
X607Y148D02*
X614Y148D01*
X1135Y148D02*
X1142Y148D01*
X1607Y148D02*
X1614Y148D01*
X1739Y148D02*
X1746Y148D01*
X1Y147D02*
X8Y147D01*
X136Y147D02*
X143Y147D01*
X607Y147D02*
X614Y147D01*
X1135Y147D02*
X1142Y147D01*
X1607Y147D02*
X1614Y147D01*
X1739Y147D02*
X1746Y147D01*
X1Y146D02*
X8Y146D01*
X136Y146D02*
X143Y146D01*
X607Y146D02*
X614Y146D01*
X1136Y146D02*
X1143Y146D01*
X1607Y146D02*
X1614Y146D01*
X1739Y146D02*
X1746Y146D01*
X1Y145D02*
X8Y145D01*
X136Y145D02*
X143Y145D01*
X607Y145D02*
X614Y145D01*
X1136Y145D02*
X1143Y145D01*
X1606Y145D02*
X1613Y145D01*
X1739Y145D02*
X1746Y145D01*
X1Y144D02*
X8Y144D01*
X136Y144D02*
X143Y144D01*
X606Y144D02*
X613Y144D01*
X1136Y144D02*
X1143Y144D01*
X1606Y144D02*
X1613Y144D01*
X1739Y144D02*
X1746Y144D01*
X1Y143D02*
X8Y143D01*
X136Y143D02*
X144Y143D01*
X606Y143D02*
X613Y143D01*
X1136Y143D02*
X1143Y143D01*
X1606Y143D02*
X1613Y143D01*
X1739Y143D02*
X1746Y143D01*
X1Y142D02*
X8Y142D01*
X137Y142D02*
X144Y142D01*
X606Y142D02*
X613Y142D01*
X1136Y142D02*
X1144Y142D01*
X1605Y142D02*
X1613Y142D01*
X1739Y142D02*
X1746Y142D01*
X1Y141D02*
X8Y141D01*
X137Y141D02*
X144Y141D01*
X605Y141D02*
X613Y141D01*
X1137Y141D02*
X1144Y141D01*
X1605Y141D02*
X1612Y141D01*
X1739Y141D02*
X1746Y141D01*
X1Y140D02*
X8Y140D01*
X137Y140D02*
X145Y140D01*
X605Y140D02*
X612Y140D01*
X1137Y140D02*
X1144Y140D01*
X1605Y140D02*
X1612Y140D01*
X1739Y140D02*
X1746Y140D01*
X1Y139D02*
X8Y139D01*
X138Y139D02*
X145Y139D01*
X605Y139D02*
X612Y139D01*
X1137Y139D02*
X1145Y139D01*
X1604Y139D02*
X1612Y139D01*
X1739Y139D02*
X1746Y139D01*
X1Y138D02*
X8Y138D01*
X138Y138D02*
X146Y138D01*
X604Y138D02*
X612Y138D01*
X1138Y138D02*
X1145Y138D01*
X1604Y138D02*
X1611Y138D01*
X1739Y138D02*
X1746Y138D01*
X1Y137D02*
X8Y137D01*
X138Y137D02*
X146Y137D01*
X604Y137D02*
X611Y137D01*
X1138Y137D02*
X1146Y137D01*
X1603Y137D02*
X1611Y137D01*
X1739Y137D02*
X1746Y137D01*
X1Y136D02*
X8Y136D01*
X139Y136D02*
X147Y136D01*
X603Y136D02*
X611Y136D01*
X1138Y136D02*
X1146Y136D01*
X1603Y136D02*
X1611Y136D01*
X1739Y136D02*
X1746Y136D01*
X1Y135D02*
X8Y135D01*
X139Y135D02*
X147Y135D01*
X603Y135D02*
X610Y135D01*
X1139Y135D02*
X1147Y135D01*
X1602Y135D02*
X1610Y135D01*
X1739Y135D02*
X1746Y135D01*
X1Y134D02*
X8Y134D01*
X140Y134D02*
X148Y134D01*
X602Y134D02*
X610Y134D01*
X1139Y134D02*
X1147Y134D01*
X1602Y134D02*
X1610Y134D01*
X1739Y134D02*
X1746Y134D01*
X1Y133D02*
X8Y133D01*
X140Y133D02*
X148Y133D01*
X601Y133D02*
X609Y133D01*
X1140Y133D02*
X1148Y133D01*
X1601Y133D02*
X1609Y133D01*
X1739Y133D02*
X1746Y133D01*
X1Y132D02*
X8Y132D01*
X141Y132D02*
X149Y132D01*
X601Y132D02*
X609Y132D01*
X1140Y132D02*
X1149Y132D01*
X1600Y132D02*
X1609Y132D01*
X1739Y132D02*
X1746Y132D01*
X1Y131D02*
X8Y131D01*
X141Y131D02*
X150Y131D01*
X600Y131D02*
X608Y131D01*
X1141Y131D02*
X1150Y131D01*
X1599Y131D02*
X1608Y131D01*
X1739Y131D02*
X1746Y131D01*
X1Y130D02*
X8Y130D01*
X142Y130D02*
X151Y130D01*
X599Y130D02*
X608Y130D01*
X1142Y130D02*
X1150Y130D01*
X1599Y130D02*
X1607Y130D01*
X1739Y130D02*
X1746Y130D01*
X1Y129D02*
X8Y129D01*
X143Y129D02*
X152Y129D01*
X598Y129D02*
X607Y129D01*
X1142Y129D02*
X1151Y129D01*
X1598Y129D02*
X1607Y129D01*
X1739Y129D02*
X1746Y129D01*
X1Y128D02*
X8Y128D01*
X143Y128D02*
X153Y128D01*
X597Y128D02*
X606Y128D01*
X1143Y128D02*
X1152Y128D01*
X1597Y128D02*
X1606Y128D01*
X1739Y128D02*
X1746Y128D01*
X1Y127D02*
X8Y127D01*
X144Y127D02*
X154Y127D01*
X596Y127D02*
X606Y127D01*
X1144Y127D02*
X1153Y127D01*
X1596Y127D02*
X1605Y127D01*
X1739Y127D02*
X1746Y127D01*
X1Y126D02*
X8Y126D01*
X145Y126D02*
X155Y126D01*
X595Y126D02*
X605Y126D01*
X1144Y126D02*
X1155Y126D01*
X1595Y126D02*
X1605Y126D01*
X1739Y126D02*
X1746Y126D01*
X1Y125D02*
X8Y125D01*
X146Y125D02*
X156Y125D01*
X594Y125D02*
X604Y125D01*
X1145Y125D02*
X1156Y125D01*
X1593Y125D02*
X1604Y125D01*
X1739Y125D02*
X1746Y125D01*
X1Y124D02*
X8Y124D01*
X146Y124D02*
X157Y124D01*
X592Y124D02*
X603Y124D01*
X1146Y124D02*
X1157Y124D01*
X1592Y124D02*
X1603Y124D01*
X1739Y124D02*
X1746Y124D01*
X1Y123D02*
X8Y123D01*
X147Y123D02*
X159Y123D01*
X591Y123D02*
X602Y123D01*
X1147Y123D02*
X1159Y123D01*
X1590Y123D02*
X1602Y123D01*
X1739Y123D02*
X1746Y123D01*
X1Y122D02*
X8Y122D01*
X148Y122D02*
X161Y122D01*
X589Y122D02*
X601Y122D01*
X1148Y122D02*
X1160Y122D01*
X1589Y122D02*
X1601Y122D01*
X1739Y122D02*
X1746Y122D01*
X1Y121D02*
X8Y121D01*
X149Y121D02*
X163Y121D01*
X587Y121D02*
X600Y121D01*
X1149Y121D02*
X1162Y121D01*
X1587Y121D02*
X1600Y121D01*
X1739Y121D02*
X1746Y121D01*
X1Y120D02*
X8Y120D01*
X151Y120D02*
X165Y120D01*
X585Y120D02*
X599Y120D01*
X1150Y120D02*
X1165Y120D01*
X1584Y120D02*
X1599Y120D01*
X1739Y120D02*
X1746Y120D01*
X1Y119D02*
X8Y119D01*
X152Y119D02*
X168Y119D01*
X582Y119D02*
X598Y119D01*
X1152Y119D02*
X1168Y119D01*
X1581Y119D02*
X1598Y119D01*
X1739Y119D02*
X1746Y119D01*
X1Y118D02*
X8Y118D01*
X153Y118D02*
X173Y118D01*
X577Y118D02*
X597Y118D01*
X1153Y118D02*
X1173Y118D01*
X1576Y118D02*
X1596Y118D01*
X1739Y118D02*
X1746Y118D01*
X1Y117D02*
X8Y117D01*
X155Y117D02*
X178Y117D01*
X572Y117D02*
X595Y117D01*
X1154Y117D02*
X1177Y117D01*
X1572Y117D02*
X1595Y117D01*
X1739Y117D02*
X1746Y117D01*
X1Y116D02*
X8Y116D01*
X156Y116D02*
X178Y116D01*
X572Y116D02*
X593Y116D01*
X1156Y116D02*
X1177Y116D01*
X1572Y116D02*
X1593Y116D01*
X1739Y116D02*
X1746Y116D01*
X1Y115D02*
X8Y115D01*
X158Y115D02*
X178Y115D01*
X572Y115D02*
X592Y115D01*
X1158Y115D02*
X1177Y115D01*
X1572Y115D02*
X1591Y115D01*
X1739Y115D02*
X1746Y115D01*
X1Y114D02*
X8Y114D01*
X160Y114D02*
X178Y114D01*
X572Y114D02*
X590Y114D01*
X1160Y114D02*
X1177Y114D01*
X1572Y114D02*
X1589Y114D01*
X1739Y114D02*
X1746Y114D01*
X1Y113D02*
X8Y113D01*
X162Y113D02*
X178Y113D01*
X572Y113D02*
X587Y113D01*
X1162Y113D02*
X1177Y113D01*
X1572Y113D02*
X1587Y113D01*
X1739Y113D02*
X1746Y113D01*
X1Y112D02*
X8Y112D01*
X165Y112D02*
X178Y112D01*
X572Y112D02*
X585Y112D01*
X1165Y112D02*
X1177Y112D01*
X1572Y112D02*
X1584Y112D01*
X1739Y112D02*
X1746Y112D01*
X1Y111D02*
X8Y111D01*
X168Y111D02*
X178Y111D01*
X572Y111D02*
X581Y111D01*
X1168Y111D02*
X1177Y111D01*
X1572Y111D02*
X1581Y111D01*
X1739Y111D02*
X1746Y111D01*
X1Y110D02*
X8Y110D01*
X174Y110D02*
X177Y110D01*
X572Y110D02*
X576Y110D01*
X1173Y110D02*
X1177Y110D01*
X1572Y110D02*
X1576Y110D01*
X1739Y110D02*
X1746Y110D01*
X1Y109D02*
X8Y109D01*
X1739Y109D02*
X1746Y109D01*
X1Y108D02*
X8Y108D01*
X1739Y108D02*
X1746Y108D01*
X1Y107D02*
X8Y107D01*
X1739Y107D02*
X1746Y107D01*
X1Y106D02*
X8Y106D01*
X1739Y106D02*
X1746Y106D01*
X1Y105D02*
X8Y105D01*
X1739Y105D02*
X1746Y105D01*
X1Y104D02*
X8Y104D01*
X1739Y104D02*
X1746Y104D01*
X1Y103D02*
X8Y103D01*
X1739Y103D02*
X1746Y103D01*
X1Y102D02*
X8Y102D01*
X1739Y102D02*
X1746Y102D01*
X1Y101D02*
X8Y101D01*
X1739Y101D02*
X1746Y101D01*
X1Y100D02*
X8Y100D01*
X1739Y100D02*
X1746Y100D01*
X1Y99D02*
X8Y99D01*
X1739Y99D02*
X1746Y99D01*
X1Y98D02*
X8Y98D01*
X1739Y98D02*
X1746Y98D01*
X1Y97D02*
X8Y97D01*
X1739Y97D02*
X1746Y97D01*
X1Y96D02*
X8Y96D01*
X1739Y96D02*
X1746Y96D01*
X1Y95D02*
X8Y95D01*
X1739Y95D02*
X1746Y95D01*
X1Y94D02*
X8Y94D01*
X1739Y94D02*
X1746Y94D01*
X1Y93D02*
X8Y93D01*
X1739Y93D02*
X1746Y93D01*
X1Y92D02*
X8Y92D01*
X1739Y92D02*
X1746Y92D01*
X1Y91D02*
X8Y91D01*
X1739Y91D02*
X1746Y91D01*
X1Y90D02*
X8Y90D01*
X1739Y90D02*
X1746Y90D01*
X1Y89D02*
X8Y89D01*
X1739Y89D02*
X1746Y89D01*
X1Y88D02*
X8Y88D01*
X1739Y88D02*
X1746Y88D01*
X1Y87D02*
X8Y87D01*
X1739Y87D02*
X1746Y87D01*
X1Y86D02*
X8Y86D01*
X1739Y86D02*
X1746Y86D01*
X1Y85D02*
X8Y85D01*
X1739Y85D02*
X1746Y85D01*
X1Y84D02*
X8Y84D01*
X1739Y84D02*
X1746Y84D01*
X1Y83D02*
X8Y83D01*
X1739Y83D02*
X1746Y83D01*
X1Y82D02*
X8Y82D01*
X1739Y82D02*
X1746Y82D01*
X1Y81D02*
X8Y81D01*
X1739Y81D02*
X1746Y81D01*
X1Y80D02*
X8Y80D01*
X1739Y80D02*
X1746Y80D01*
X1Y79D02*
X8Y79D01*
X1739Y79D02*
X1746Y79D01*
X1Y78D02*
X8Y78D01*
X1739Y78D02*
X1746Y78D01*
X1Y77D02*
X8Y77D01*
X1739Y77D02*
X1746Y77D01*
X1Y76D02*
X8Y76D01*
X1739Y76D02*
X1746Y76D01*
X1Y75D02*
X8Y75D01*
X1739Y75D02*
X1746Y75D01*
X1Y74D02*
X8Y74D01*
X1739Y74D02*
X1746Y74D01*
X1Y73D02*
X8Y73D01*
X1739Y73D02*
X1746Y73D01*
X1Y72D02*
X8Y72D01*
X1739Y72D02*
X1746Y72D01*
X1Y71D02*
X8Y71D01*
X1739Y71D02*
X1746Y71D01*
X1Y70D02*
X8Y70D01*
X1739Y70D02*
X1746Y70D01*
X1Y69D02*
X8Y69D01*
X1739Y69D02*
X1746Y69D01*
X1Y68D02*
X8Y68D01*
X1739Y68D02*
X1746Y68D01*
X1Y67D02*
X8Y67D01*
X1739Y67D02*
X1746Y67D01*
X1Y66D02*
X8Y66D01*
X1739Y66D02*
X1746Y66D01*
X1Y65D02*
X8Y65D01*
X1739Y65D02*
X1746Y65D01*
X1Y64D02*
X8Y64D01*
X1739Y64D02*
X1746Y64D01*
X1Y63D02*
X8Y63D01*
X1739Y63D02*
X1746Y63D01*
X1Y62D02*
X8Y62D01*
X1739Y62D02*
X1746Y62D01*
X1Y61D02*
X8Y61D01*
X1739Y61D02*
X1746Y61D01*
X1Y60D02*
X8Y60D01*
X180Y60D02*
X181Y60D01*
X1739Y60D02*
X1746Y60D01*
X1Y59D02*
X8Y59D01*
X178Y59D02*
X183Y59D01*
X1739Y59D02*
X1746Y59D01*
X1Y58D02*
X8Y58D01*
X30Y58D02*
X40Y58D01*
X82Y58D02*
X83Y58D01*
X178Y58D02*
X183Y58D01*
X322Y58D02*
X335Y58D01*
X564Y58D02*
X565Y58D01*
X581Y58D02*
X582Y58D01*
X594Y58D02*
X604Y58D01*
X655Y58D02*
X670Y58D01*
X715Y58D02*
X730Y58D01*
X747Y58D02*
X761Y58D01*
X775Y58D02*
X791Y58D01*
X805Y58D02*
X821Y58D01*
X1739Y58D02*
X1746Y58D01*
X1Y57D02*
X8Y57D01*
X28Y57D02*
X40Y57D01*
X81Y57D02*
X84Y57D01*
X178Y57D02*
X183Y57D01*
X322Y57D02*
X338Y57D01*
X563Y57D02*
X566Y57D01*
X580Y57D02*
X583Y57D01*
X593Y57D02*
X605Y57D01*
X654Y57D02*
X672Y57D01*
X714Y57D02*
X732Y57D01*
X745Y57D02*
X762Y57D01*
X774Y57D02*
X792Y57D01*
X804Y57D02*
X822Y57D01*
X1739Y57D02*
X1746Y57D01*
X1Y56D02*
X8Y56D01*
X27Y56D02*
X41Y56D01*
X81Y56D02*
X84Y56D01*
X178Y56D02*
X183Y56D01*
X267Y56D02*
X268Y56D01*
X322Y56D02*
X339Y56D01*
X387Y56D02*
X389Y56D01*
X417Y56D02*
X419Y56D01*
X563Y56D02*
X566Y56D01*
X580Y56D02*
X583Y56D01*
X593Y56D02*
X605Y56D01*
X653Y56D02*
X673Y56D01*
X714Y56D02*
X733Y56D01*
X744Y56D02*
X763Y56D01*
X774Y56D02*
X793Y56D01*
X804Y56D02*
X823Y56D01*
X1739Y56D02*
X1746Y56D01*
X1Y55D02*
X8Y55D01*
X26Y55D02*
X40Y55D01*
X81Y55D02*
X84Y55D01*
X178Y55D02*
X183Y55D01*
X266Y55D02*
X269Y55D01*
X322Y55D02*
X340Y55D01*
X387Y55D02*
X390Y55D01*
X417Y55D02*
X420Y55D01*
X563Y55D02*
X566Y55D01*
X580Y55D02*
X583Y55D01*
X594Y55D02*
X605Y55D01*
X654Y55D02*
X673Y55D01*
X714Y55D02*
X733Y55D01*
X744Y55D02*
X763Y55D01*
X774Y55D02*
X793Y55D01*
X804Y55D02*
X824Y55D01*
X1739Y55D02*
X1746Y55D01*
X1Y54D02*
X8Y54D01*
X26Y54D02*
X31Y54D01*
X81Y54D02*
X84Y54D01*
X266Y54D02*
X269Y54D01*
X322Y54D02*
X326Y54D01*
X335Y54D02*
X341Y54D01*
X386Y54D02*
X390Y54D01*
X417Y54D02*
X420Y54D01*
X563Y54D02*
X566Y54D01*
X580Y54D02*
X583Y54D01*
X601Y54D02*
X605Y54D01*
X670Y54D02*
X673Y54D01*
X730Y54D02*
X733Y54D01*
X744Y54D02*
X747Y54D01*
X760Y54D02*
X763Y54D01*
X790Y54D02*
X794Y54D01*
X820Y54D02*
X824Y54D01*
X1739Y54D02*
X1746Y54D01*
X1Y53D02*
X8Y53D01*
X25Y53D02*
X29Y53D01*
X81Y53D02*
X84Y53D01*
X266Y53D02*
X269Y53D01*
X322Y53D02*
X325Y53D01*
X337Y53D02*
X341Y53D01*
X386Y53D02*
X390Y53D01*
X417Y53D02*
X420Y53D01*
X563Y53D02*
X566Y53D01*
X580Y53D02*
X583Y53D01*
X601Y53D02*
X605Y53D01*
X670Y53D02*
X673Y53D01*
X730Y53D02*
X733Y53D01*
X744Y53D02*
X747Y53D01*
X760Y53D02*
X763Y53D01*
X790Y53D02*
X794Y53D01*
X820Y53D02*
X824Y53D01*
X1739Y53D02*
X1746Y53D01*
X1Y52D02*
X8Y52D01*
X25Y52D02*
X29Y52D01*
X81Y52D02*
X84Y52D01*
X266Y52D02*
X269Y52D01*
X322Y52D02*
X325Y52D01*
X338Y52D02*
X342Y52D01*
X386Y52D02*
X390Y52D01*
X417Y52D02*
X420Y52D01*
X563Y52D02*
X566Y52D01*
X580Y52D02*
X583Y52D01*
X601Y52D02*
X605Y52D01*
X670Y52D02*
X673Y52D01*
X730Y52D02*
X733Y52D01*
X744Y52D02*
X747Y52D01*
X760Y52D02*
X763Y52D01*
X790Y52D02*
X794Y52D01*
X820Y52D02*
X824Y52D01*
X1739Y52D02*
X1746Y52D01*
X1Y51D02*
X8Y51D01*
X24Y51D02*
X28Y51D01*
X81Y51D02*
X84Y51D01*
X266Y51D02*
X269Y51D01*
X322Y51D02*
X325Y51D01*
X338Y51D02*
X342Y51D01*
X386Y51D02*
X390Y51D01*
X417Y51D02*
X420Y51D01*
X563Y51D02*
X566Y51D01*
X580Y51D02*
X583Y51D01*
X601Y51D02*
X605Y51D01*
X670Y51D02*
X673Y51D01*
X730Y51D02*
X733Y51D01*
X744Y51D02*
X747Y51D01*
X760Y51D02*
X763Y51D01*
X790Y51D02*
X794Y51D01*
X820Y51D02*
X824Y51D01*
X1739Y51D02*
X1746Y51D01*
X1Y50D02*
X8Y50D01*
X24Y50D02*
X28Y50D01*
X81Y50D02*
X84Y50D01*
X266Y50D02*
X269Y50D01*
X322Y50D02*
X325Y50D01*
X339Y50D02*
X342Y50D01*
X386Y50D02*
X390Y50D01*
X417Y50D02*
X420Y50D01*
X563Y50D02*
X566Y50D01*
X580Y50D02*
X583Y50D01*
X601Y50D02*
X605Y50D01*
X670Y50D02*
X673Y50D01*
X730Y50D02*
X733Y50D01*
X744Y50D02*
X747Y50D01*
X760Y50D02*
X763Y50D01*
X790Y50D02*
X794Y50D01*
X820Y50D02*
X824Y50D01*
X1739Y50D02*
X1746Y50D01*
X1Y49D02*
X8Y49D01*
X23Y49D02*
X27Y49D01*
X52Y49D02*
X53Y49D01*
X69Y49D02*
X70Y49D01*
X81Y49D02*
X84Y49D01*
X89Y49D02*
X95Y49D01*
X117Y49D02*
X126Y49D01*
X142Y49D02*
X144Y49D01*
X151Y49D02*
X157Y49D01*
X175Y49D02*
X182Y49D01*
X203Y49D02*
X204Y49D01*
X211Y49D02*
X217Y49D01*
X237Y49D02*
X246Y49D01*
X263Y49D02*
X279Y49D01*
X322Y49D02*
X325Y49D01*
X339Y49D02*
X342Y49D01*
X353Y49D02*
X355Y49D01*
X370Y49D02*
X371Y49D01*
X383Y49D02*
X399Y49D01*
X413Y49D02*
X429Y49D01*
X448Y49D02*
X457Y49D01*
X474Y49D02*
X475Y49D01*
X482Y49D02*
X488Y49D01*
X507Y49D02*
X519Y49D01*
X563Y49D02*
X566Y49D01*
X579Y49D02*
X583Y49D01*
X601Y49D02*
X605Y49D01*
X670Y49D02*
X673Y49D01*
X730Y49D02*
X733Y49D01*
X744Y49D02*
X747Y49D01*
X760Y49D02*
X763Y49D01*
X790Y49D02*
X794Y49D01*
X820Y49D02*
X824Y49D01*
X1739Y49D02*
X1746Y49D01*
X1Y48D02*
X8Y48D01*
X23Y48D02*
X27Y48D01*
X51Y48D02*
X54Y48D01*
X68Y48D02*
X71Y48D01*
X81Y48D02*
X84Y48D01*
X87Y48D02*
X97Y48D01*
X115Y48D02*
X127Y48D01*
X142Y48D02*
X144Y48D01*
X149Y48D02*
X159Y48D01*
X174Y48D02*
X183Y48D01*
X202Y48D02*
X205Y48D01*
X209Y48D02*
X218Y48D01*
X236Y48D02*
X248Y48D01*
X262Y48D02*
X279Y48D01*
X322Y48D02*
X325Y48D01*
X339Y48D02*
X342Y48D01*
X352Y48D02*
X355Y48D01*
X369Y48D02*
X372Y48D01*
X383Y48D02*
X400Y48D01*
X413Y48D02*
X430Y48D01*
X446Y48D02*
X458Y48D01*
X473Y48D02*
X476Y48D01*
X480Y48D02*
X490Y48D01*
X505Y48D02*
X521Y48D01*
X563Y48D02*
X567Y48D01*
X579Y48D02*
X583Y48D01*
X601Y48D02*
X605Y48D01*
X670Y48D02*
X673Y48D01*
X730Y48D02*
X733Y48D01*
X744Y48D02*
X747Y48D01*
X760Y48D02*
X763Y48D01*
X790Y48D02*
X794Y48D01*
X820Y48D02*
X824Y48D01*
X1739Y48D02*
X1746Y48D01*
X1Y47D02*
X8Y47D01*
X22Y47D02*
X26Y47D01*
X51Y47D02*
X54Y47D01*
X68Y47D02*
X71Y47D01*
X81Y47D02*
X98Y47D01*
X114Y47D02*
X128Y47D01*
X141Y47D02*
X145Y47D01*
X148Y47D02*
X160Y47D01*
X174Y47D02*
X183Y47D01*
X202Y47D02*
X205Y47D01*
X208Y47D02*
X219Y47D01*
X234Y47D02*
X249Y47D01*
X262Y47D02*
X279Y47D01*
X322Y47D02*
X325Y47D01*
X338Y47D02*
X342Y47D01*
X352Y47D02*
X355Y47D01*
X369Y47D02*
X372Y47D01*
X382Y47D02*
X400Y47D01*
X413Y47D02*
X430Y47D01*
X445Y47D02*
X460Y47D01*
X473Y47D02*
X476Y47D01*
X479Y47D02*
X490Y47D01*
X504Y47D02*
X521Y47D01*
X564Y47D02*
X567Y47D01*
X579Y47D02*
X582Y47D01*
X601Y47D02*
X605Y47D01*
X670Y47D02*
X673Y47D01*
X730Y47D02*
X733Y47D01*
X744Y47D02*
X747Y47D01*
X760Y47D02*
X763Y47D01*
X790Y47D02*
X794Y47D01*
X820Y47D02*
X824Y47D01*
X1739Y47D02*
X1746Y47D01*
X1Y46D02*
X8Y46D01*
X22Y46D02*
X26Y46D01*
X51Y46D02*
X54Y46D01*
X68Y46D02*
X71Y46D01*
X81Y46D02*
X99Y46D01*
X113Y46D02*
X129Y46D01*
X141Y46D02*
X145Y46D01*
X147Y46D02*
X160Y46D01*
X174Y46D02*
X183Y46D01*
X202Y46D02*
X220Y46D01*
X233Y46D02*
X250Y46D01*
X262Y46D02*
X279Y46D01*
X322Y46D02*
X325Y46D01*
X338Y46D02*
X342Y46D01*
X352Y46D02*
X355Y46D01*
X369Y46D02*
X372Y46D01*
X383Y46D02*
X399Y46D01*
X413Y46D02*
X430Y46D01*
X444Y46D02*
X461Y46D01*
X473Y46D02*
X491Y46D01*
X504Y46D02*
X522Y46D01*
X564Y46D02*
X568Y46D01*
X578Y46D02*
X582Y46D01*
X601Y46D02*
X605Y46D01*
X670Y46D02*
X673Y46D01*
X730Y46D02*
X733Y46D01*
X744Y46D02*
X747Y46D01*
X760Y46D02*
X763Y46D01*
X790Y46D02*
X794Y46D01*
X820Y46D02*
X824Y46D01*
X1739Y46D02*
X1746Y46D01*
X1Y45D02*
X8Y45D01*
X22Y45D02*
X25Y45D01*
X51Y45D02*
X54Y45D01*
X68Y45D02*
X71Y45D01*
X81Y45D02*
X89Y45D01*
X95Y45D02*
X100Y45D01*
X112Y45D02*
X117Y45D01*
X125Y45D02*
X130Y45D01*
X141Y45D02*
X151Y45D01*
X157Y45D02*
X161Y45D01*
X180Y45D02*
X183Y45D01*
X202Y45D02*
X211Y45D01*
X216Y45D02*
X221Y45D01*
X233Y45D02*
X238Y45D01*
X246Y45D02*
X251Y45D01*
X266Y45D02*
X269Y45D01*
X322Y45D02*
X325Y45D01*
X337Y45D02*
X341Y45D01*
X352Y45D02*
X355Y45D01*
X369Y45D02*
X372Y45D01*
X386Y45D02*
X390Y45D01*
X416Y45D02*
X420Y45D01*
X444Y45D02*
X448Y45D01*
X456Y45D02*
X461Y45D01*
X473Y45D02*
X482Y45D01*
X487Y45D02*
X492Y45D01*
X503Y45D02*
X507Y45D01*
X518Y45D02*
X522Y45D01*
X564Y45D02*
X568Y45D01*
X578Y45D02*
X581Y45D01*
X601Y45D02*
X605Y45D01*
X670Y45D02*
X673Y45D01*
X730Y45D02*
X733Y45D01*
X744Y45D02*
X747Y45D01*
X760Y45D02*
X763Y45D01*
X790Y45D02*
X794Y45D01*
X820Y45D02*
X824Y45D01*
X1739Y45D02*
X1746Y45D01*
X1Y44D02*
X8Y44D01*
X21Y44D02*
X25Y44D01*
X51Y44D02*
X54Y44D01*
X67Y44D02*
X71Y44D01*
X81Y44D02*
X88Y44D01*
X96Y44D02*
X101Y44D01*
X112Y44D02*
X116Y44D01*
X127Y44D02*
X131Y44D01*
X141Y44D02*
X150Y44D01*
X158Y44D02*
X161Y44D01*
X180Y44D02*
X183Y44D01*
X202Y44D02*
X210Y44D01*
X217Y44D02*
X221Y44D01*
X232Y44D02*
X236Y44D01*
X247Y44D02*
X251Y44D01*
X266Y44D02*
X269Y44D01*
X322Y44D02*
X341Y44D01*
X352Y44D02*
X356Y44D01*
X369Y44D02*
X372Y44D01*
X386Y44D02*
X390Y44D01*
X417Y44D02*
X420Y44D01*
X443Y44D02*
X447Y44D01*
X458Y44D02*
X462Y44D01*
X473Y44D02*
X481Y44D01*
X488Y44D02*
X492Y44D01*
X503Y44D02*
X507Y44D01*
X520Y44D02*
X521Y44D01*
X565Y44D02*
X568Y44D01*
X577Y44D02*
X581Y44D01*
X601Y44D02*
X605Y44D01*
X657Y44D02*
X673Y44D01*
X717Y44D02*
X733Y44D01*
X744Y44D02*
X747Y44D01*
X760Y44D02*
X763Y44D01*
X777Y44D02*
X794Y44D01*
X810Y44D02*
X823Y44D01*
X1739Y44D02*
X1746Y44D01*
X1Y43D02*
X8Y43D01*
X21Y43D02*
X24Y43D01*
X51Y43D02*
X55Y43D01*
X67Y43D02*
X71Y43D01*
X81Y43D02*
X87Y43D01*
X97Y43D02*
X101Y43D01*
X111Y43D02*
X115Y43D01*
X127Y43D02*
X131Y43D01*
X141Y43D02*
X149Y43D01*
X158Y43D02*
X161Y43D01*
X180Y43D02*
X183Y43D01*
X202Y43D02*
X208Y43D01*
X218Y43D02*
X221Y43D01*
X232Y43D02*
X235Y43D01*
X248Y43D02*
X251Y43D01*
X266Y43D02*
X269Y43D01*
X322Y43D02*
X340Y43D01*
X352Y43D02*
X356Y43D01*
X369Y43D02*
X372Y43D01*
X386Y43D02*
X390Y43D01*
X417Y43D02*
X420Y43D01*
X443Y43D02*
X446Y43D01*
X459Y43D02*
X462Y43D01*
X473Y43D02*
X479Y43D01*
X489Y43D02*
X492Y43D01*
X503Y43D02*
X507Y43D01*
X565Y43D02*
X569Y43D01*
X577Y43D02*
X581Y43D01*
X601Y43D02*
X605Y43D01*
X655Y43D02*
X673Y43D01*
X715Y43D02*
X733Y43D01*
X744Y43D02*
X747Y43D01*
X760Y43D02*
X763Y43D01*
X775Y43D02*
X793Y43D01*
X808Y43D02*
X823Y43D01*
X1739Y43D02*
X1746Y43D01*
X1Y42D02*
X8Y42D01*
X21Y42D02*
X24Y42D01*
X52Y42D02*
X55Y42D01*
X67Y42D02*
X70Y42D01*
X81Y42D02*
X86Y42D01*
X98Y42D02*
X101Y42D01*
X111Y42D02*
X115Y42D01*
X128Y42D02*
X131Y42D01*
X141Y42D02*
X148Y42D01*
X158Y42D02*
X161Y42D01*
X180Y42D02*
X183Y42D01*
X202Y42D02*
X207Y42D01*
X218Y42D02*
X221Y42D01*
X232Y42D02*
X235Y42D01*
X248Y42D02*
X252Y42D01*
X266Y42D02*
X269Y42D01*
X322Y42D02*
X339Y42D01*
X352Y42D02*
X356Y42D01*
X369Y42D02*
X372Y42D01*
X386Y42D02*
X390Y42D01*
X417Y42D02*
X420Y42D01*
X443Y42D02*
X446Y42D01*
X459Y42D02*
X462Y42D01*
X473Y42D02*
X478Y42D01*
X489Y42D02*
X492Y42D01*
X504Y42D02*
X510Y42D01*
X566Y42D02*
X569Y42D01*
X577Y42D02*
X580Y42D01*
X601Y42D02*
X605Y42D01*
X654Y42D02*
X672Y42D01*
X714Y42D02*
X733Y42D01*
X744Y42D02*
X747Y42D01*
X760Y42D02*
X763Y42D01*
X774Y42D02*
X793Y42D01*
X808Y42D02*
X822Y42D01*
X1739Y42D02*
X1746Y42D01*
X1Y41D02*
X8Y41D01*
X21Y41D02*
X24Y41D01*
X52Y41D02*
X56Y41D01*
X66Y41D02*
X70Y41D01*
X81Y41D02*
X85Y41D01*
X98Y41D02*
X101Y41D01*
X111Y41D02*
X115Y41D01*
X128Y41D02*
X131Y41D01*
X141Y41D02*
X147Y41D01*
X158Y41D02*
X161Y41D01*
X180Y41D02*
X183Y41D01*
X202Y41D02*
X205Y41D01*
X218Y41D02*
X221Y41D01*
X232Y41D02*
X235Y41D01*
X248Y41D02*
X252Y41D01*
X266Y41D02*
X269Y41D01*
X322Y41D02*
X340Y41D01*
X352Y41D02*
X356Y41D01*
X369Y41D02*
X372Y41D01*
X386Y41D02*
X390Y41D01*
X417Y41D02*
X420Y41D01*
X443Y41D02*
X446Y41D01*
X459Y41D02*
X462Y41D01*
X473Y41D02*
X476Y41D01*
X489Y41D02*
X492Y41D01*
X504Y41D02*
X512Y41D01*
X566Y41D02*
X570Y41D01*
X576Y41D02*
X580Y41D01*
X601Y41D02*
X605Y41D01*
X654Y41D02*
X672Y41D01*
X714Y41D02*
X732Y41D01*
X744Y41D02*
X747Y41D01*
X760Y41D02*
X763Y41D01*
X774Y41D02*
X792Y41D01*
X808Y41D02*
X823Y41D01*
X1739Y41D02*
X1746Y41D01*
X1Y40D02*
X8Y40D01*
X21Y40D02*
X25Y40D01*
X53Y40D02*
X56Y40D01*
X66Y40D02*
X69Y40D01*
X81Y40D02*
X84Y40D01*
X98Y40D02*
X101Y40D01*
X111Y40D02*
X115Y40D01*
X128Y40D02*
X131Y40D01*
X141Y40D02*
X145Y40D01*
X180Y40D02*
X183Y40D01*
X202Y40D02*
X205Y40D01*
X218Y40D02*
X221Y40D01*
X232Y40D02*
X235Y40D01*
X248Y40D02*
X252Y40D01*
X266Y40D02*
X269Y40D01*
X322Y40D02*
X341Y40D01*
X352Y40D02*
X356Y40D01*
X369Y40D02*
X372Y40D01*
X386Y40D02*
X390Y40D01*
X417Y40D02*
X420Y40D01*
X443Y40D02*
X446Y40D01*
X459Y40D02*
X462Y40D01*
X473Y40D02*
X476Y40D01*
X489Y40D02*
X492Y40D01*
X505Y40D02*
X514Y40D01*
X566Y40D02*
X570Y40D01*
X576Y40D02*
X579Y40D01*
X601Y40D02*
X605Y40D01*
X610Y40D02*
X612Y40D01*
X653Y40D02*
X669Y40D01*
X714Y40D02*
X729Y40D01*
X744Y40D02*
X747Y40D01*
X760Y40D02*
X763Y40D01*
X774Y40D02*
X790Y40D01*
X810Y40D02*
X823Y40D01*
X1739Y40D02*
X1746Y40D01*
X1Y39D02*
X8Y39D01*
X22Y39D02*
X25Y39D01*
X53Y39D02*
X57Y39D01*
X65Y39D02*
X69Y39D01*
X81Y39D02*
X84Y39D01*
X98Y39D02*
X101Y39D01*
X111Y39D02*
X115Y39D01*
X128Y39D02*
X131Y39D01*
X141Y39D02*
X145Y39D01*
X180Y39D02*
X183Y39D01*
X202Y39D02*
X205Y39D01*
X218Y39D02*
X221Y39D01*
X232Y39D02*
X235Y39D01*
X248Y39D02*
X252Y39D01*
X266Y39D02*
X269Y39D01*
X322Y39D02*
X325Y39D01*
X337Y39D02*
X341Y39D01*
X352Y39D02*
X356Y39D01*
X369Y39D02*
X372Y39D01*
X386Y39D02*
X390Y39D01*
X417Y39D02*
X420Y39D01*
X443Y39D02*
X446Y39D01*
X459Y39D02*
X462Y39D01*
X473Y39D02*
X476Y39D01*
X489Y39D02*
X492Y39D01*
X507Y39D02*
X516Y39D01*
X567Y39D02*
X570Y39D01*
X575Y39D02*
X579Y39D01*
X601Y39D02*
X605Y39D01*
X610Y39D02*
X613Y39D01*
X653Y39D02*
X657Y39D01*
X714Y39D02*
X717Y39D01*
X744Y39D02*
X747Y39D01*
X760Y39D02*
X763Y39D01*
X774Y39D02*
X777Y39D01*
X820Y39D02*
X824Y39D01*
X1739Y39D02*
X1746Y39D01*
X1Y38D02*
X8Y38D01*
X22Y38D02*
X26Y38D01*
X53Y38D02*
X57Y38D01*
X65Y38D02*
X68Y38D01*
X81Y38D02*
X84Y38D01*
X98Y38D02*
X101Y38D01*
X111Y38D02*
X131Y38D01*
X141Y38D02*
X145Y38D01*
X180Y38D02*
X183Y38D01*
X202Y38D02*
X205Y38D01*
X218Y38D02*
X221Y38D01*
X232Y38D02*
X252Y38D01*
X266Y38D02*
X269Y38D01*
X322Y38D02*
X325Y38D01*
X338Y38D02*
X342Y38D01*
X353Y38D02*
X356Y38D01*
X369Y38D02*
X372Y38D01*
X386Y38D02*
X390Y38D01*
X417Y38D02*
X420Y38D01*
X443Y38D02*
X446Y38D01*
X459Y38D02*
X462Y38D01*
X473Y38D02*
X476Y38D01*
X489Y38D02*
X492Y38D01*
X509Y38D02*
X519Y38D01*
X567Y38D02*
X571Y38D01*
X575Y38D02*
X579Y38D01*
X601Y38D02*
X605Y38D01*
X610Y38D02*
X613Y38D01*
X630Y38D02*
X636Y38D01*
X653Y38D02*
X657Y38D01*
X714Y38D02*
X717Y38D01*
X744Y38D02*
X747Y38D01*
X760Y38D02*
X763Y38D01*
X774Y38D02*
X777Y38D01*
X820Y38D02*
X824Y38D01*
X1739Y38D02*
X1746Y38D01*
X1Y37D02*
X8Y37D01*
X22Y37D02*
X26Y37D01*
X54Y37D02*
X57Y37D01*
X64Y37D02*
X68Y37D01*
X81Y37D02*
X84Y37D01*
X98Y37D02*
X101Y37D01*
X111Y37D02*
X131Y37D01*
X141Y37D02*
X145Y37D01*
X180Y37D02*
X183Y37D01*
X202Y37D02*
X205Y37D01*
X218Y37D02*
X221Y37D01*
X232Y37D02*
X252Y37D01*
X266Y37D02*
X269Y37D01*
X322Y37D02*
X325Y37D01*
X338Y37D02*
X342Y37D01*
X353Y37D02*
X356Y37D01*
X369Y37D02*
X372Y37D01*
X386Y37D02*
X390Y37D01*
X417Y37D02*
X420Y37D01*
X443Y37D02*
X446Y37D01*
X459Y37D02*
X462Y37D01*
X473Y37D02*
X476Y37D01*
X489Y37D02*
X492Y37D01*
X512Y37D02*
X520Y37D01*
X568Y37D02*
X571Y37D01*
X575Y37D02*
X578Y37D01*
X601Y37D02*
X605Y37D01*
X610Y37D02*
X613Y37D01*
X629Y37D02*
X637Y37D01*
X653Y37D02*
X657Y37D01*
X714Y37D02*
X717Y37D01*
X744Y37D02*
X747Y37D01*
X760Y37D02*
X763Y37D01*
X774Y37D02*
X777Y37D01*
X820Y37D02*
X824Y37D01*
X1739Y37D02*
X1746Y37D01*
X1Y36D02*
X8Y36D01*
X23Y36D02*
X27Y36D01*
X54Y36D02*
X58Y36D01*
X64Y36D02*
X68Y36D01*
X81Y36D02*
X84Y36D01*
X98Y36D02*
X101Y36D01*
X111Y36D02*
X131Y36D01*
X141Y36D02*
X145Y36D01*
X180Y36D02*
X183Y36D01*
X202Y36D02*
X205Y36D01*
X218Y36D02*
X221Y36D01*
X232Y36D02*
X251Y36D01*
X266Y36D02*
X269Y36D01*
X322Y36D02*
X325Y36D01*
X339Y36D02*
X342Y36D01*
X353Y36D02*
X356Y36D01*
X369Y36D02*
X372Y36D01*
X386Y36D02*
X390Y36D01*
X417Y36D02*
X420Y36D01*
X443Y36D02*
X446Y36D01*
X459Y36D02*
X462Y36D01*
X473Y36D02*
X476Y36D01*
X489Y36D02*
X492Y36D01*
X514Y36D02*
X521Y36D01*
X568Y36D02*
X572Y36D01*
X574Y36D02*
X578Y36D01*
X601Y36D02*
X605Y36D01*
X610Y36D02*
X613Y36D01*
X629Y36D02*
X637Y36D01*
X653Y36D02*
X657Y36D01*
X714Y36D02*
X717Y36D01*
X744Y36D02*
X747Y36D01*
X760Y36D02*
X763Y36D01*
X774Y36D02*
X777Y36D01*
X820Y36D02*
X824Y36D01*
X1739Y36D02*
X1746Y36D01*
X1Y35D02*
X8Y35D01*
X23Y35D02*
X27Y35D01*
X55Y35D02*
X58Y35D01*
X64Y35D02*
X67Y35D01*
X81Y35D02*
X84Y35D01*
X98Y35D02*
X101Y35D01*
X111Y35D02*
X130Y35D01*
X141Y35D02*
X145Y35D01*
X180Y35D02*
X183Y35D01*
X202Y35D02*
X205Y35D01*
X218Y35D02*
X221Y35D01*
X232Y35D02*
X251Y35D01*
X266Y35D02*
X269Y35D01*
X322Y35D02*
X325Y35D01*
X339Y35D02*
X342Y35D01*
X353Y35D02*
X356Y35D01*
X369Y35D02*
X372Y35D01*
X386Y35D02*
X390Y35D01*
X417Y35D02*
X420Y35D01*
X443Y35D02*
X446Y35D01*
X459Y35D02*
X462Y35D01*
X473Y35D02*
X476Y35D01*
X489Y35D02*
X492Y35D01*
X516Y35D02*
X522Y35D01*
X568Y35D02*
X572Y35D01*
X574Y35D02*
X577Y35D01*
X601Y35D02*
X605Y35D01*
X610Y35D02*
X613Y35D01*
X629Y35D02*
X637Y35D01*
X653Y35D02*
X657Y35D01*
X714Y35D02*
X717Y35D01*
X744Y35D02*
X747Y35D01*
X760Y35D02*
X763Y35D01*
X774Y35D02*
X777Y35D01*
X820Y35D02*
X824Y35D01*
X1739Y35D02*
X1746Y35D01*
X1Y34D02*
X8Y34D01*
X24Y34D02*
X28Y34D01*
X55Y34D02*
X59Y34D01*
X63Y34D02*
X67Y34D01*
X81Y34D02*
X85Y34D01*
X98Y34D02*
X101Y34D01*
X111Y34D02*
X115Y34D01*
X141Y34D02*
X145Y34D01*
X180Y34D02*
X183Y34D01*
X202Y34D02*
X205Y34D01*
X218Y34D02*
X221Y34D01*
X232Y34D02*
X235Y34D01*
X266Y34D02*
X269Y34D01*
X322Y34D02*
X325Y34D01*
X339Y34D02*
X342Y34D01*
X353Y34D02*
X356Y34D01*
X368Y34D02*
X372Y34D01*
X386Y34D02*
X390Y34D01*
X417Y34D02*
X420Y34D01*
X443Y34D02*
X446Y34D01*
X459Y34D02*
X462Y34D01*
X473Y34D02*
X476Y34D01*
X489Y34D02*
X492Y34D01*
X518Y34D02*
X522Y34D01*
X569Y34D02*
X577Y34D01*
X601Y34D02*
X605Y34D01*
X610Y34D02*
X613Y34D01*
X629Y34D02*
X637Y34D01*
X653Y34D02*
X657Y34D01*
X714Y34D02*
X717Y34D01*
X744Y34D02*
X747Y34D01*
X760Y34D02*
X763Y34D01*
X774Y34D02*
X777Y34D01*
X820Y34D02*
X824Y34D01*
X1739Y34D02*
X1746Y34D01*
X1Y33D02*
X8Y33D01*
X24Y33D02*
X28Y33D01*
X56Y33D02*
X59Y33D01*
X63Y33D02*
X66Y33D01*
X81Y33D02*
X86Y33D01*
X98Y33D02*
X101Y33D01*
X111Y33D02*
X115Y33D01*
X141Y33D02*
X145Y33D01*
X180Y33D02*
X183Y33D01*
X202Y33D02*
X205Y33D01*
X218Y33D02*
X221Y33D01*
X232Y33D02*
X235Y33D01*
X266Y33D02*
X269Y33D01*
X279Y33D02*
X281Y33D01*
X322Y33D02*
X325Y33D01*
X338Y33D02*
X342Y33D01*
X353Y33D02*
X356Y33D01*
X367Y33D02*
X372Y33D01*
X386Y33D02*
X390Y33D01*
X400Y33D02*
X401Y33D01*
X417Y33D02*
X420Y33D01*
X430Y33D02*
X431Y33D01*
X443Y33D02*
X446Y33D01*
X459Y33D02*
X462Y33D01*
X473Y33D02*
X476Y33D01*
X489Y33D02*
X492Y33D01*
X519Y33D02*
X522Y33D01*
X569Y33D02*
X577Y33D01*
X601Y33D02*
X605Y33D01*
X610Y33D02*
X613Y33D01*
X629Y33D02*
X637Y33D01*
X653Y33D02*
X657Y33D01*
X714Y33D02*
X717Y33D01*
X744Y33D02*
X747Y33D01*
X760Y33D02*
X763Y33D01*
X774Y33D02*
X777Y33D01*
X820Y33D02*
X824Y33D01*
X1739Y33D02*
X1746Y33D01*
X1Y32D02*
X8Y32D01*
X25Y32D02*
X29Y32D01*
X56Y32D02*
X60Y32D01*
X62Y32D02*
X66Y32D01*
X81Y32D02*
X87Y32D01*
X97Y32D02*
X101Y32D01*
X111Y32D02*
X115Y32D01*
X141Y32D02*
X145Y32D01*
X180Y32D02*
X183Y32D01*
X202Y32D02*
X205Y32D01*
X218Y32D02*
X221Y32D01*
X232Y32D02*
X236Y32D01*
X266Y32D02*
X269Y32D01*
X279Y32D02*
X282Y32D01*
X322Y32D02*
X325Y32D01*
X338Y32D02*
X342Y32D01*
X353Y32D02*
X356Y32D01*
X365Y32D02*
X372Y32D01*
X386Y32D02*
X390Y32D01*
X399Y32D02*
X402Y32D01*
X417Y32D02*
X420Y32D01*
X429Y32D02*
X432Y32D01*
X443Y32D02*
X446Y32D01*
X459Y32D02*
X462Y32D01*
X473Y32D02*
X476Y32D01*
X489Y32D02*
X492Y32D01*
X519Y32D02*
X522Y32D01*
X570Y32D02*
X576Y32D01*
X601Y32D02*
X605Y32D01*
X610Y32D02*
X613Y32D01*
X630Y32D02*
X636Y32D01*
X653Y32D02*
X657Y32D01*
X714Y32D02*
X717Y32D01*
X744Y32D02*
X747Y32D01*
X760Y32D02*
X763Y32D01*
X774Y32D02*
X777Y32D01*
X820Y32D02*
X824Y32D01*
X1739Y32D02*
X1746Y32D01*
X1Y31D02*
X8Y31D01*
X25Y31D02*
X29Y31D01*
X57Y31D02*
X65Y31D01*
X81Y31D02*
X88Y31D01*
X96Y31D02*
X100Y31D01*
X112Y31D02*
X116Y31D01*
X141Y31D02*
X145Y31D01*
X180Y31D02*
X183Y31D01*
X202Y31D02*
X205Y31D01*
X218Y31D02*
X221Y31D01*
X232Y31D02*
X237Y31D01*
X266Y31D02*
X270Y31D01*
X278Y31D02*
X282Y31D01*
X322Y31D02*
X325Y31D01*
X337Y31D02*
X341Y31D01*
X353Y31D02*
X356Y31D01*
X364Y31D02*
X372Y31D01*
X387Y31D02*
X390Y31D01*
X398Y31D02*
X402Y31D01*
X417Y31D02*
X420Y31D01*
X429Y31D02*
X432Y31D01*
X443Y31D02*
X447Y31D01*
X457Y31D02*
X462Y31D01*
X473Y31D02*
X476Y31D01*
X489Y31D02*
X492Y31D01*
X503Y31D02*
X506Y31D01*
X519Y31D02*
X522Y31D01*
X570Y31D02*
X576Y31D01*
X601Y31D02*
X605Y31D01*
X610Y31D02*
X613Y31D01*
X653Y31D02*
X657Y31D01*
X714Y31D02*
X717Y31D01*
X744Y31D02*
X747Y31D01*
X760Y31D02*
X763Y31D01*
X774Y31D02*
X777Y31D01*
X820Y31D02*
X824Y31D01*
X1739Y31D02*
X1746Y31D01*
X1Y30D02*
X8Y30D01*
X26Y30D02*
X38Y30D01*
X57Y30D02*
X65Y30D01*
X81Y30D02*
X100Y30D01*
X112Y30D02*
X129Y30D01*
X141Y30D02*
X145Y30D01*
X176Y30D02*
X187Y30D01*
X202Y30D02*
X205Y30D01*
X218Y30D02*
X221Y30D01*
X233Y30D02*
X249Y30D01*
X266Y30D02*
X281Y30D01*
X322Y30D02*
X341Y30D01*
X353Y30D02*
X372Y30D01*
X387Y30D02*
X402Y30D01*
X417Y30D02*
X432Y30D01*
X444Y30D02*
X461Y30D01*
X473Y30D02*
X476Y30D01*
X489Y30D02*
X492Y30D01*
X503Y30D02*
X522Y30D01*
X570Y30D02*
X575Y30D01*
X596Y30D02*
X613Y30D01*
X653Y30D02*
X671Y30D01*
X714Y30D02*
X731Y30D01*
X744Y30D02*
X763Y30D01*
X774Y30D02*
X791Y30D01*
X806Y30D02*
X824Y30D01*
X1739Y30D02*
X1746Y30D01*
X1Y29D02*
X8Y29D01*
X26Y29D02*
X40Y29D01*
X57Y29D02*
X65Y29D01*
X81Y29D02*
X99Y29D01*
X113Y29D02*
X131Y29D01*
X141Y29D02*
X145Y29D01*
X174Y29D02*
X189Y29D01*
X202Y29D02*
X205Y29D01*
X218Y29D02*
X221Y29D01*
X234Y29D02*
X251Y29D01*
X267Y29D02*
X281Y29D01*
X322Y29D02*
X340Y29D01*
X354Y29D02*
X372Y29D01*
X387Y29D02*
X401Y29D01*
X418Y29D02*
X431Y29D01*
X444Y29D02*
X460Y29D01*
X473Y29D02*
X476Y29D01*
X489Y29D02*
X492Y29D01*
X503Y29D02*
X522Y29D01*
X571Y29D02*
X575Y29D01*
X594Y29D02*
X613Y29D01*
X653Y29D02*
X673Y29D01*
X714Y29D02*
X733Y29D01*
X744Y29D02*
X763Y29D01*
X774Y29D02*
X793Y29D01*
X804Y29D02*
X824Y29D01*
X1739Y29D02*
X1746Y29D01*
X1Y28D02*
X8Y28D01*
X27Y28D02*
X41Y28D01*
X58Y28D02*
X64Y28D01*
X81Y28D02*
X98Y28D01*
X114Y28D02*
X131Y28D01*
X141Y28D02*
X145Y28D01*
X174Y28D02*
X189Y28D01*
X202Y28D02*
X205Y28D01*
X218Y28D02*
X221Y28D01*
X235Y28D02*
X251Y28D01*
X268Y28D02*
X280Y28D01*
X322Y28D02*
X339Y28D01*
X354Y28D02*
X366Y28D01*
X369Y28D02*
X372Y28D01*
X388Y28D02*
X400Y28D01*
X418Y28D02*
X431Y28D01*
X445Y28D02*
X459Y28D01*
X473Y28D02*
X476Y28D01*
X489Y28D02*
X492Y28D01*
X504Y28D02*
X521Y28D01*
X571Y28D02*
X575Y28D01*
X593Y28D02*
X613Y28D01*
X653Y28D02*
X673Y28D01*
X714Y28D02*
X733Y28D01*
X744Y28D02*
X763Y28D01*
X774Y28D02*
X794Y28D01*
X804Y28D02*
X823Y28D01*
X1739Y28D02*
X1746Y28D01*
X1Y27D02*
X8Y27D01*
X28Y27D02*
X40Y27D01*
X60Y27D02*
X64Y27D01*
X81Y27D02*
X84Y27D01*
X87Y27D02*
X97Y27D01*
X115Y27D02*
X131Y27D01*
X142Y27D02*
X144Y27D01*
X174Y27D02*
X189Y27D01*
X202Y27D02*
X205Y27D01*
X218Y27D02*
X221Y27D01*
X236Y27D02*
X251Y27D01*
X269Y27D02*
X279Y27D01*
X322Y27D02*
X338Y27D01*
X356Y27D02*
X364Y27D01*
X369Y27D02*
X372Y27D01*
X389Y27D02*
X399Y27D01*
X419Y27D02*
X429Y27D01*
X447Y27D02*
X458Y27D01*
X473Y27D02*
X476Y27D01*
X489Y27D02*
X492Y27D01*
X505Y27D02*
X520Y27D01*
X572Y27D02*
X574Y27D01*
X593Y27D02*
X613Y27D01*
X653Y27D02*
X673Y27D01*
X714Y27D02*
X733Y27D01*
X745Y27D02*
X762Y27D01*
X774Y27D02*
X793Y27D01*
X804Y27D02*
X822Y27D01*
X1739Y27D02*
X1746Y27D01*
X1Y26D02*
X8Y26D01*
X30Y26D02*
X39Y26D01*
X60Y26D02*
X63Y26D01*
X83Y26D02*
X83Y26D01*
X90Y26D02*
X94Y26D01*
X117Y26D02*
X130Y26D01*
X143Y26D02*
X143Y26D01*
X175Y26D02*
X188Y26D01*
X203Y26D02*
X204Y26D01*
X220Y26D02*
X220Y26D01*
X238Y26D02*
X250Y26D01*
X271Y26D02*
X277Y26D01*
X322Y26D02*
X335Y26D01*
X357Y26D02*
X362Y26D01*
X370Y26D02*
X371Y26D01*
X391Y26D02*
X397Y26D01*
X421Y26D02*
X427Y26D01*
X449Y26D02*
X456Y26D01*
X474Y26D02*
X475Y26D01*
X491Y26D02*
X491Y26D01*
X508Y26D02*
X518Y26D01*
X573Y26D02*
X573Y26D01*
X594Y26D02*
X612Y26D01*
X654Y26D02*
X672Y26D01*
X714Y26D02*
X732Y26D01*
X747Y26D02*
X760Y26D01*
X774Y26D02*
X792Y26D01*
X805Y26D02*
X821Y26D01*
X1739Y26D02*
X1746Y26D01*
X1Y25D02*
X8Y25D01*
X59Y25D02*
X63Y25D01*
X1739Y25D02*
X1746Y25D01*
X1Y24D02*
X8Y24D01*
X59Y24D02*
X62Y24D01*
X1739Y24D02*
X1746Y24D01*
X1Y23D02*
X8Y23D01*
X58Y23D02*
X62Y23D01*
X1739Y23D02*
X1746Y23D01*
X1Y22D02*
X8Y22D01*
X58Y22D02*
X61Y22D01*
X1739Y22D02*
X1746Y22D01*
X1Y21D02*
X8Y21D01*
X52Y21D02*
X61Y21D01*
X1739Y21D02*
X1746Y21D01*
X1Y20D02*
X8Y20D01*
X51Y20D02*
X61Y20D01*
X1739Y20D02*
X1746Y20D01*
X1Y19D02*
X8Y19D01*
X51Y19D02*
X60Y19D01*
X1739Y19D02*
X1746Y19D01*
X1Y18D02*
X8Y18D01*
X51Y18D02*
X60Y18D01*
X1739Y18D02*
X1746Y18D01*
X1Y17D02*
X8Y17D01*
X53Y17D02*
X58Y17D01*
X1739Y17D02*
X1746Y17D01*
X1Y16D02*
X8Y16D01*
X1739Y16D02*
X1746Y16D01*
X1Y15D02*
X8Y15D01*
X1739Y15D02*
X1746Y15D01*
X1Y14D02*
X8Y14D01*
X1739Y14D02*
X1746Y14D01*
X1Y13D02*
X8Y13D01*
X1739Y13D02*
X1746Y13D01*
X1Y12D02*
X8Y12D01*
X1739Y12D02*
X1746Y12D01*
X1Y11D02*
X8Y11D01*
X1739Y11D02*
X1746Y11D01*
X1Y10D02*
X8Y10D01*
X1739Y10D02*
X1746Y10D01*
X1Y9D02*
X8Y9D01*
X1739Y9D02*
X1746Y9D01*
X1Y8D02*
X1746Y8D01*
X1Y7D02*
X1746Y7D01*
X1Y6D02*
X1746Y6D01*
X1Y5D02*
X1746Y5D01*
X1Y4D02*
X1746Y4D01*
X1Y3D02*
X1746Y3D01*
X1Y2D02*
X1746Y2D01*
X1Y1D02*
X1746Y1D01*
D02*
G04 End of Silk1*
M02*