; NON-PLATED HOLES START AT T1
; THROUGH (PLATED) HOLES START AT T100
M48
INCH
T100C0.038000
T101C0.047244
T102C0.015748
%
T100
X009728Y006034
X010728Y006034
X006728Y006034
X008728Y006034
X010728Y003534
X007728Y006034
X006728Y003534
X016728Y003534
X000728Y003534
T101
X002760Y005955
X004728Y005955
X014728Y005955
X002760Y001034
X014728Y001034
X012760Y005955
X004728Y001034
X012760Y001034
T102
X005725Y002030
X007728Y004034
X009728Y002034
T00
M30
