G04 MADE WITH FRITZING*
G04 WWW.FRITZING.ORG*
G04 DOUBLE SIDED*
G04 HOLES PLATED*
G04 CONTOUR ON CENTER OF CONTOUR VECTOR*
%ASAXBY*%
%FSLAX23Y23*%
%MOIN*%
%OFA0B0*%
%SFA1.0B1.0*%
%ADD10C,0.085000*%
%ADD11C,0.039370*%
%ADD12C,0.078000*%
%ADD13R,0.047244X0.043307*%
%ADD14C,0.024000*%
%LNCOPPER1*%
G90*
G70*
G54D10*
X1211Y448D03*
X1211Y251D03*
X1704Y251D03*
X1704Y448D03*
X1211Y448D03*
X1211Y251D03*
X1704Y251D03*
X1704Y448D03*
X211Y448D03*
X211Y251D03*
X703Y251D03*
X703Y448D03*
X211Y448D03*
X211Y251D03*
X703Y251D03*
X703Y448D03*
G54D11*
X934Y344D03*
X1103Y148D03*
G54D12*
X803Y648D03*
X903Y648D03*
X1003Y648D03*
X1103Y648D03*
X1203Y648D03*
X803Y348D03*
X103Y348D03*
X1103Y348D03*
X1803Y348D03*
G54D13*
X937Y148D03*
X1003Y148D03*
X937Y248D03*
X1003Y248D03*
G54D14*
X803Y148D02*
X803Y329D01*
D02*
X1803Y748D02*
X903Y748D01*
D02*
X903Y748D02*
X903Y667D01*
D02*
X103Y648D02*
X784Y648D01*
D02*
X918Y148D02*
X803Y148D01*
D02*
X1803Y367D02*
X1803Y748D01*
D02*
X103Y367D02*
X103Y648D01*
D02*
X1003Y548D02*
X1003Y629D01*
D02*
X1103Y48D02*
X703Y48D01*
D02*
X703Y48D02*
X703Y227D01*
D02*
X1103Y48D02*
X1703Y48D01*
D02*
X1703Y48D02*
X1703Y227D01*
D02*
X1103Y140D02*
X1103Y48D01*
D02*
X1003Y164D02*
X1003Y231D01*
D02*
X934Y337D02*
X936Y264D01*
D02*
X1003Y264D02*
X1003Y548D01*
D02*
X1403Y148D02*
X1111Y148D01*
D02*
X1403Y548D02*
X1403Y148D01*
D02*
X1003Y548D02*
X1403Y548D01*
G04 End of Copper1*
M02*