; NON-PLATED HOLES START AT T1
; THROUGH (PLATED) HOLES START AT T100
M48
INCH
T100C0.015748
T101C0.038000
%
T100
X022684Y006764
X009684Y007264
X012184Y004014
X006184Y009764
X010184Y004014
X017934Y002264
X011673Y009272
X022681Y005771
X013684Y002264
X014684Y002264
X013684Y004264
X014684Y008264
X016684Y008264
X016684Y003764
X018684Y005264
X010684Y003264
X022184Y002764
X008684Y008264
X018684Y007264
X021184Y003764
X007684Y008764
X019684Y004764
X012677Y009253
X018684Y001764
X018684Y003764
X009684Y004764
X017684Y005264
X016684Y002264
X021934Y007764
X018684Y009264
X020684Y006764
X017684Y003764
X013184Y003764
X014184Y008764
X011684Y004764
X019684Y002764
T101
X008684Y011064
X014684Y011064
X015684Y005264
X004862Y000797
X005684Y011064
X003684Y011064
X008862Y000797
X010862Y000797
X002862Y000797
X001862Y000797
X005656Y008600
X010684Y011064
X007862Y000797
X018951Y000797
X005684Y003264
X003684Y009764
X015684Y004264
X015684Y008264
X006684Y011064
X020951Y000797
X003862Y000797
X013684Y011064
X000684Y011064
X013862Y000797
X001684Y011064
X006862Y000797
X012862Y000797
X019951Y000797
X019934Y011014
X014862Y000797
X015684Y007264
X008684Y004264
X012684Y011064
X004684Y011064
X009684Y011064
X023934Y011014
X022934Y011014
X021951Y000797
X011684Y011064
X005656Y007600
X008684Y006264
X020934Y011014
X022951Y000797
X007684Y011064
X011862Y000797
X021934Y011014
X008684Y005264
X002684Y011064
X009862Y000797
X008684Y003264
X015684Y006264
X002684Y009764
X000862Y000797
X023951Y000797
X005862Y000797
X005684Y004264
T00
M30
