G04 MADE WITH FRITZING*
G04 WWW.FRITZING.ORG*
G04 DOUBLE SIDED*
G04 HOLES PLATED*
G04 CONTOUR ON CENTER OF CONTOUR VECTOR*
%ASAXBY*%
%FSLAX23Y23*%
%MOIN*%
%OFA0B0*%
%SFA1.0B1.0*%
%ADD10C,0.039370*%
%ADD11C,0.085000*%
%ADD12C,0.078000*%
%ADD13R,0.047244X0.043307*%
%ADD14C,0.024000*%
%LNCOPPER1*%
G90*
G70*
G54D10*
X573Y203D03*
X973Y203D03*
G54D11*
X1473Y596D03*
X1276Y596D03*
X1276Y103D03*
X1473Y103D03*
X1473Y596D03*
X1276Y596D03*
X1276Y103D03*
X1473Y103D03*
X473Y596D03*
X276Y596D03*
X276Y103D03*
X473Y103D03*
X473Y596D03*
X276Y596D03*
X276Y103D03*
X473Y103D03*
G54D10*
X773Y403D03*
G54D12*
X673Y603D03*
X773Y603D03*
X873Y603D03*
X973Y603D03*
X1073Y603D03*
X673Y353D03*
X73Y353D03*
X1073Y353D03*
X1673Y353D03*
G54D13*
X806Y203D03*
X873Y203D03*
X806Y303D03*
X873Y303D03*
G54D14*
X973Y211D02*
X974Y403D01*
D02*
X873Y403D02*
X873Y584D01*
D02*
X974Y403D02*
X873Y403D01*
D02*
X673Y203D02*
X673Y334D01*
D02*
X1673Y703D02*
X923Y703D01*
D02*
X772Y703D02*
X773Y622D01*
D02*
X923Y703D02*
X772Y703D01*
D02*
X673Y703D02*
X673Y622D01*
D02*
X73Y703D02*
X673Y703D01*
D02*
X788Y203D02*
X673Y203D01*
D02*
X1673Y372D02*
X1673Y703D01*
D02*
X73Y372D02*
X73Y703D01*
D02*
X273Y203D02*
X275Y127D01*
D02*
X565Y203D02*
X273Y203D01*
D02*
X873Y220D02*
X873Y287D01*
D02*
X773Y396D02*
X772Y304D01*
D02*
X772Y304D02*
X788Y304D01*
D02*
X873Y320D02*
X873Y584D01*
G04 End of Copper1*
M02*