G04 MADE WITH FRITZING*
G04 WWW.FRITZING.ORG*
G04 DOUBLE SIDED*
G04 HOLES PLATED*
G04 CONTOUR ON CENTER OF CONTOUR VECTOR*
%ASAXBY*%
%FSLAX23Y23*%
%MOIN*%
%OFA0B0*%
%SFA1.0B1.0*%
%ADD10C,0.039370*%
%ADD11C,0.078000*%
%ADD12C,0.024000*%
%LNCOPPER0*%
G90*
G70*
G54D10*
X2018Y276D03*
X1868Y576D03*
X2118Y726D03*
X1318Y876D03*
X1568Y326D03*
X1968Y526D03*
X868Y876D03*
X968Y926D03*
X718Y926D03*
X1468Y676D03*
X1018Y476D03*
X1118Y576D03*
X1218Y376D03*
X1868Y176D03*
X268Y276D03*
X1218Y576D03*
X1318Y376D03*
X1068Y926D03*
X1068Y726D03*
X1218Y776D03*
X1668Y1026D03*
X2218Y326D03*
X1818Y326D03*
X1718Y326D03*
X2387Y726D03*
X2168Y426D03*
X1768Y576D03*
X268Y776D03*
X1718Y76D03*
X1818Y226D03*
X2368Y426D03*
X1068Y376D03*
X1568Y176D03*
X1713Y180D03*
G54D11*
X1468Y1106D03*
X1368Y1106D03*
X1268Y1106D03*
X1168Y1106D03*
X1068Y1106D03*
X968Y1106D03*
X868Y1106D03*
X768Y1106D03*
X668Y1106D03*
X568Y1106D03*
X468Y1106D03*
X368Y1106D03*
X268Y1106D03*
X168Y1106D03*
X68Y1106D03*
X1486Y80D03*
X1386Y80D03*
X1286Y80D03*
X1186Y80D03*
X1086Y80D03*
X986Y80D03*
X886Y80D03*
X786Y80D03*
X686Y80D03*
X586Y80D03*
X486Y80D03*
X386Y80D03*
X286Y80D03*
X186Y80D03*
X86Y80D03*
X2395Y80D03*
X2295Y80D03*
X2195Y80D03*
X2095Y80D03*
X1995Y80D03*
X1895Y80D03*
X1568Y426D03*
X1568Y526D03*
X1568Y626D03*
X1568Y726D03*
X1568Y826D03*
X1568Y426D03*
X1568Y526D03*
X1568Y626D03*
X1568Y726D03*
X1568Y826D03*
X568Y326D03*
X568Y426D03*
X568Y326D03*
X568Y426D03*
X566Y760D03*
X566Y860D03*
X566Y760D03*
X566Y860D03*
X868Y326D03*
X868Y426D03*
X868Y526D03*
X868Y626D03*
X868Y326D03*
X868Y426D03*
X868Y526D03*
X868Y626D03*
X2318Y1076D03*
X2218Y1076D03*
X2118Y1076D03*
X2018Y1076D03*
X1918Y1076D03*
X368Y976D03*
X268Y976D03*
X368Y976D03*
X268Y976D03*
G54D10*
X2018Y376D03*
X2137Y356D03*
X718Y226D03*
X1418Y226D03*
X968Y376D03*
G54D12*
X2268Y426D02*
X2268Y226D01*
D02*
X2118Y226D02*
X2025Y273D01*
D02*
X2268Y226D02*
X2118Y226D01*
D02*
X2176Y426D02*
X2268Y426D01*
D02*
X718Y426D02*
X849Y426D01*
D02*
X718Y234D02*
X718Y426D01*
D02*
X2068Y426D02*
X2131Y362D01*
D02*
X1818Y676D02*
X1968Y677D01*
D02*
X1968Y677D02*
X2068Y426D01*
D02*
X1968Y426D02*
X1868Y276D01*
D02*
X1868Y276D02*
X1824Y232D01*
D02*
X1968Y519D02*
X1968Y426D01*
D02*
X1549Y626D02*
X1417Y626D01*
D02*
X1417Y626D02*
X887Y626D01*
D02*
X876Y876D02*
X1311Y876D01*
D02*
X1668Y376D02*
X1575Y330D01*
D02*
X1718Y626D02*
X1718Y376D01*
D02*
X1718Y376D02*
X1668Y376D01*
D02*
X1818Y676D02*
X1718Y626D01*
D02*
X1018Y676D02*
X1461Y676D01*
D02*
X968Y726D02*
X1018Y676D01*
D02*
X718Y726D02*
X968Y726D01*
D02*
X718Y919D02*
X718Y726D01*
D02*
X1113Y571D02*
X1024Y482D01*
D02*
X2118Y176D02*
X2318Y176D01*
D02*
X1968Y226D02*
X2118Y176D01*
D02*
X2318Y176D02*
X2383Y95D01*
D02*
X1875Y180D02*
X1968Y226D01*
D02*
X818Y776D02*
X818Y926D01*
D02*
X818Y926D02*
X961Y926D01*
D02*
X1211Y776D02*
X818Y776D01*
D02*
X468Y876D02*
X168Y876D01*
D02*
X547Y863D02*
X468Y876D01*
D02*
X168Y876D02*
X168Y1087D01*
D02*
X519Y1026D02*
X668Y976D01*
D02*
X479Y1090D02*
X519Y1026D01*
D02*
X2219Y976D02*
X2305Y1063D01*
D02*
X2068Y926D02*
X2219Y976D01*
D02*
X1818Y926D02*
X2068Y926D01*
D02*
X1618Y976D02*
X1818Y926D01*
D02*
X668Y976D02*
X1618Y976D01*
D02*
X668Y1087D02*
X669Y1026D01*
D02*
X1768Y1126D02*
X1900Y1082D01*
D02*
X1619Y1126D02*
X1768Y1126D01*
D02*
X1618Y1026D02*
X1619Y1126D01*
D02*
X669Y1026D02*
X1618Y1026D01*
D02*
X887Y324D02*
X1218Y276D01*
D02*
X1418Y276D02*
X1618Y226D01*
D02*
X1218Y276D02*
X1418Y276D01*
D02*
X1618Y226D02*
X1618Y126D01*
D02*
X1768Y126D02*
X1815Y219D01*
D02*
X1618Y126D02*
X1768Y126D01*
D02*
X1218Y476D02*
X1418Y476D01*
D02*
X1418Y476D02*
X1417Y626D01*
D02*
X1075Y381D02*
X1218Y476D01*
D02*
X1212Y572D02*
X975Y381D01*
D02*
X1719Y277D02*
X1568Y276D01*
D02*
X1368Y326D02*
X1324Y371D01*
D02*
X1568Y276D02*
X1368Y326D01*
D02*
X1719Y319D02*
X1719Y277D01*
D02*
X1076Y726D02*
X1549Y726D01*
D02*
X1819Y977D02*
X2018Y976D01*
D02*
X2168Y1026D02*
X2205Y1063D01*
D02*
X2018Y976D02*
X2168Y1026D01*
D02*
X1676Y1024D02*
X1819Y977D01*
D02*
X1418Y176D02*
X1561Y176D01*
D02*
X419Y176D02*
X1418Y176D01*
D02*
X418Y126D02*
X419Y176D01*
D02*
X397Y96D02*
X418Y126D01*
D02*
X1668Y876D02*
X1868Y876D01*
D02*
X1668Y926D02*
X1668Y876D01*
D02*
X1219Y925D02*
X1668Y926D01*
D02*
X1968Y876D02*
X1967Y776D01*
D02*
X1868Y876D02*
X1968Y876D01*
D02*
X1076Y926D02*
X1219Y925D01*
D02*
X2068Y676D02*
X2368Y676D01*
D02*
X2368Y676D02*
X2368Y434D01*
D02*
X1967Y776D02*
X2068Y676D01*
D02*
X2118Y276D02*
X2211Y323D01*
D02*
X2024Y371D02*
X2118Y276D01*
D02*
X268Y769D02*
X268Y284D01*
D02*
X2019Y176D02*
X2000Y98D01*
D02*
X1968Y176D02*
X2019Y176D01*
D02*
X1768Y76D02*
X1968Y176D01*
D02*
X1726Y76D02*
X1768Y76D01*
D02*
X1411Y226D02*
X726Y226D01*
D02*
X1768Y276D02*
X1716Y187D01*
D02*
X1768Y569D02*
X1768Y276D01*
D02*
X1868Y376D02*
X1824Y332D01*
D02*
X1868Y569D02*
X1868Y376D01*
D02*
X2379Y726D02*
X2126Y726D01*
G04 End of Copper0*
M02*