; NON-PLATED HOLES START AT T1
; THROUGH (PLATED) HOLES START AT T100
M48
INCH
T100C0.038000
T101C0.015748
%
T100
X000862Y000797
X014862Y000797
X011862Y000797
X015684Y004264
X019951Y000797
X001862Y000797
X009684Y011064
X022951Y000797
X015684Y005264
X011684Y011064
X005684Y003264
X005656Y008600
X000684Y011064
X009862Y000797
X013862Y000797
X005684Y011064
X004684Y011064
X004862Y000797
X020951Y000797
X005684Y004264
X008684Y011064
X002684Y009764
X013684Y011064
X002684Y011064
X012684Y011064
X001684Y011064
X018951Y000797
X007684Y011064
X014684Y011064
X019184Y010764
X008684Y003264
X021184Y010764
X007862Y000797
X015684Y008264
X022184Y010764
X012862Y000797
X021951Y000797
X002862Y000797
X023951Y000797
X003684Y011064
X010862Y000797
X006684Y011064
X008684Y005264
X010684Y011064
X020184Y010764
X008684Y004264
X015684Y006264
X005656Y007600
X015684Y007264
X008862Y000797
X005862Y000797
X003862Y000797
X003684Y009764
X023184Y010764
X008684Y006264
X006862Y000797
T101
X011184Y005764
X017184Y003264
X007184Y009264
X007184Y002264
X018184Y002264
X012184Y007764
X013184Y003764
X022184Y003264
X009684Y003764
X023684Y004264
X014684Y006764
X008684Y008764
X015684Y001764
X002684Y007764
X017125Y001803
X020184Y002764
X020184Y003764
X012184Y003764
X018184Y003264
X019684Y005264
X009684Y009264
X010684Y003764
X002684Y002764
X018684Y001764
X017684Y005764
X021184Y007264
X013184Y008764
X023866Y007264
X010184Y004764
X021369Y003564
X018684Y005764
X021684Y004264
X016684Y010264
X015684Y003264
X017184Y000764
X010684Y009264
X014184Y002264
X010684Y007264
X012184Y005764
T00
M30
