G04 MADE WITH FRITZING*
G04 WWW.FRITZING.ORG*
G04 DOUBLE SIDED*
G04 HOLES PLATED*
G04 CONTOUR ON CENTER OF CONTOUR VECTOR*
%ASAXBY*%
%FSLAX23Y23*%
%MOIN*%
%OFA0B0*%
%SFA1.0B1.0*%
%ADD10C,0.039370*%
%ADD11C,0.078000*%
%ADD12R,0.047244X0.043307*%
%ADD13R,0.043307X0.047244*%
%ADD14C,0.024000*%
%LNCOPPER1*%
G90*
G70*
G54D10*
X2018Y276D03*
X1868Y576D03*
X2118Y726D03*
X1318Y876D03*
X1568Y326D03*
X1968Y526D03*
X868Y876D03*
X968Y926D03*
X718Y926D03*
X1468Y676D03*
X1018Y476D03*
X1118Y576D03*
X1218Y376D03*
X1868Y176D03*
X268Y276D03*
X1218Y576D03*
X1318Y376D03*
X1068Y926D03*
X1068Y726D03*
X1218Y776D03*
X1668Y1026D03*
X2218Y326D03*
X1818Y326D03*
X1718Y326D03*
X2387Y726D03*
X2168Y426D03*
X1768Y576D03*
X268Y776D03*
X1718Y76D03*
X1818Y226D03*
X2368Y426D03*
X1068Y376D03*
X1568Y176D03*
X1713Y180D03*
G54D11*
X1468Y1106D03*
X1368Y1106D03*
X1268Y1106D03*
X1168Y1106D03*
X1068Y1106D03*
X968Y1106D03*
X868Y1106D03*
X768Y1106D03*
X668Y1106D03*
X568Y1106D03*
X468Y1106D03*
X368Y1106D03*
X268Y1106D03*
X168Y1106D03*
X68Y1106D03*
X1486Y80D03*
X1386Y80D03*
X1286Y80D03*
X1186Y80D03*
X1086Y80D03*
X986Y80D03*
X886Y80D03*
X786Y80D03*
X686Y80D03*
X586Y80D03*
X486Y80D03*
X386Y80D03*
X286Y80D03*
X186Y80D03*
X86Y80D03*
X2395Y80D03*
X2295Y80D03*
X2195Y80D03*
X2095Y80D03*
X1995Y80D03*
X1895Y80D03*
X1568Y426D03*
X1568Y526D03*
X1568Y626D03*
X1568Y726D03*
X1568Y826D03*
X1568Y426D03*
X1568Y526D03*
X1568Y626D03*
X1568Y726D03*
X1568Y826D03*
X568Y326D03*
X568Y426D03*
X568Y326D03*
X568Y426D03*
X566Y760D03*
X566Y860D03*
X566Y760D03*
X566Y860D03*
X868Y326D03*
X868Y426D03*
X868Y526D03*
X868Y626D03*
X868Y326D03*
X868Y426D03*
X868Y526D03*
X868Y626D03*
X2318Y1076D03*
X2218Y1076D03*
X2118Y1076D03*
X2018Y1076D03*
X1918Y1076D03*
X368Y976D03*
X268Y976D03*
X368Y976D03*
X268Y976D03*
G54D10*
X2018Y376D03*
X2137Y356D03*
X718Y226D03*
X1418Y226D03*
X968Y376D03*
G54D12*
X2385Y826D03*
X2318Y826D03*
X2322Y903D03*
X2389Y903D03*
G54D13*
X2068Y593D03*
X2068Y526D03*
X2168Y593D03*
X2168Y526D03*
G54D14*
X1368Y126D02*
X1379Y98D01*
D02*
X1169Y375D02*
X1168Y176D01*
D02*
X1218Y176D02*
X1368Y126D01*
D02*
X1168Y176D02*
X1218Y176D01*
D02*
X1069Y528D02*
X1169Y375D01*
D02*
X2118Y277D02*
X2119Y177D01*
D02*
X2119Y177D02*
X2100Y98D01*
D02*
X2135Y349D02*
X2118Y277D01*
D02*
X2112Y722D02*
X1875Y581D01*
D02*
X319Y876D02*
X268Y876D01*
D02*
X268Y876D02*
X268Y957D01*
D02*
X1468Y576D02*
X1319Y577D01*
D02*
X1469Y375D02*
X1468Y576D01*
D02*
X1319Y577D02*
X1318Y869D01*
D02*
X1561Y330D02*
X1469Y375D01*
D02*
X318Y626D02*
X319Y876D01*
D02*
X568Y626D02*
X318Y626D01*
D02*
X568Y445D02*
X568Y626D01*
D02*
X1961Y526D02*
X1587Y526D01*
D02*
X968Y1087D02*
X968Y934D01*
D02*
X868Y1087D02*
X868Y884D01*
D02*
X768Y976D02*
X768Y1087D01*
D02*
X724Y932D02*
X768Y976D01*
D02*
X1568Y926D02*
X1468Y876D01*
D02*
X2019Y976D02*
X1768Y926D01*
D02*
X2019Y1057D02*
X2019Y976D01*
D02*
X1122Y569D02*
X1215Y384D01*
D02*
X1768Y926D02*
X1568Y926D01*
D02*
X1468Y876D02*
X1468Y684D01*
D02*
X2168Y926D02*
X1768Y676D01*
D02*
X2368Y976D02*
X2168Y926D01*
D02*
X1768Y676D02*
X1768Y584D01*
D02*
X2384Y919D02*
X2368Y976D01*
D02*
X587Y326D02*
X849Y326D01*
D02*
X1318Y976D02*
X1768Y976D01*
D02*
X968Y726D02*
X1318Y976D01*
D02*
X1767Y1143D02*
X2066Y1145D01*
D02*
X2066Y1145D02*
X2107Y1092D01*
D02*
X1768Y976D02*
X1767Y1143D01*
D02*
X368Y776D02*
X368Y957D01*
D02*
X468Y776D02*
X368Y776D01*
D02*
X547Y763D02*
X468Y776D01*
D02*
X764Y271D02*
X868Y326D01*
D02*
X276Y276D02*
X764Y271D01*
D02*
X868Y326D02*
X587Y326D01*
D02*
X768Y426D02*
X768Y726D01*
D02*
X768Y726D02*
X968Y726D01*
D02*
X849Y426D02*
X768Y426D01*
D02*
X1069Y977D02*
X1068Y934D01*
D02*
X1315Y384D02*
X1222Y569D01*
D02*
X1068Y1087D02*
X1069Y977D01*
D02*
X1069Y528D02*
X1068Y719D01*
D02*
X887Y527D02*
X1069Y528D01*
D02*
X168Y226D02*
X711Y226D01*
D02*
X168Y128D02*
X168Y226D01*
D02*
X179Y98D02*
X168Y128D01*
D02*
X2218Y126D02*
X2218Y319D01*
D02*
X2203Y97D02*
X2218Y126D01*
D02*
X2018Y177D02*
X2018Y269D01*
D02*
X1999Y98D02*
X2018Y177D01*
D02*
X1918Y226D02*
X1826Y226D01*
D02*
X1898Y99D02*
X1918Y226D01*
D02*
X968Y226D02*
X968Y369D01*
D02*
X868Y226D02*
X968Y226D01*
D02*
X768Y176D02*
X868Y226D01*
D02*
X520Y175D02*
X768Y176D01*
D02*
X68Y326D02*
X549Y326D01*
D02*
X68Y126D02*
X68Y326D01*
D02*
X79Y98D02*
X68Y126D01*
D02*
X519Y126D02*
X520Y175D01*
D02*
X497Y95D02*
X519Y126D01*
D02*
X1368Y176D02*
X1568Y126D01*
D02*
X1819Y126D02*
X1863Y171D01*
D02*
X1568Y126D02*
X1618Y76D01*
D02*
X1768Y26D02*
X1819Y126D01*
D02*
X1668Y26D02*
X1768Y26D01*
D02*
X1618Y76D02*
X1668Y26D01*
D02*
X1318Y226D02*
X1368Y176D01*
D02*
X1218Y226D02*
X1318Y226D01*
D02*
X1218Y369D02*
X1218Y226D01*
D02*
X1018Y176D02*
X1018Y469D01*
D02*
X918Y176D02*
X1018Y176D01*
D02*
X1068Y126D02*
X1068Y369D01*
D02*
X1079Y98D02*
X1068Y126D01*
D02*
X892Y98D02*
X918Y176D01*
D02*
X1218Y1026D02*
X1661Y1026D01*
D02*
X668Y776D02*
X918Y776D01*
D02*
X668Y976D02*
X668Y776D01*
D02*
X1168Y926D02*
X1218Y1026D01*
D02*
X918Y776D02*
X1168Y926D01*
D02*
X468Y977D02*
X668Y976D01*
D02*
X380Y1091D02*
X468Y977D01*
D02*
X1726Y326D02*
X1811Y326D01*
D02*
X2218Y876D02*
X2304Y899D01*
D02*
X2219Y726D02*
X2218Y876D01*
D02*
X2085Y608D02*
X2219Y726D01*
D02*
X2318Y726D02*
X2318Y810D01*
D02*
X2185Y608D02*
X2318Y726D01*
D02*
X2386Y810D02*
X2387Y734D01*
D02*
X2085Y526D02*
X2152Y526D01*
D02*
X1705Y180D02*
X1576Y177D01*
D02*
X2368Y260D02*
X2302Y97D01*
D02*
X2161Y426D02*
X1587Y426D01*
D02*
X68Y776D02*
X68Y1087D01*
D02*
X261Y776D02*
X68Y776D01*
D02*
X1768Y226D02*
X1426Y226D01*
D02*
X1768Y176D02*
X1768Y226D01*
D02*
X1722Y84D02*
X1768Y176D01*
D02*
X2368Y260D02*
X2368Y419D01*
D02*
X1668Y277D02*
X1868Y276D01*
D02*
X1868Y276D02*
X2012Y372D01*
D02*
X1319Y526D02*
X1418Y526D01*
D02*
X1418Y326D02*
X1518Y276D01*
D02*
X1418Y526D02*
X1418Y326D01*
D02*
X1518Y276D02*
X1668Y277D01*
D02*
X1218Y676D02*
X1319Y526D01*
D02*
X1218Y769D02*
X1218Y676D01*
D02*
X2168Y508D02*
X2168Y434D01*
G04 End of Copper1*
M02*