G04 MADE WITH FRITZING*
G04 WWW.FRITZING.ORG*
G04 DOUBLE SIDED*
G04 HOLES PLATED*
G04 CONTOUR ON CENTER OF CONTOUR VECTOR*
%ASAXBY*%
%FSLAX23Y23*%
%MOIN*%
%OFA0B0*%
%SFA1.0B1.0*%
%ADD10C,0.049370*%
%ADD11C,0.088000*%
%LNMASK0*%
G90*
G70*
G54D10*
X2018Y276D03*
X1868Y576D03*
X2118Y726D03*
X1318Y876D03*
X1568Y326D03*
X1968Y526D03*
X868Y876D03*
X968Y926D03*
X718Y926D03*
X1468Y676D03*
X1018Y476D03*
X1118Y576D03*
X1218Y376D03*
X1868Y176D03*
X268Y276D03*
X1218Y576D03*
X1318Y376D03*
X1068Y926D03*
X1068Y726D03*
X1218Y776D03*
X1668Y1026D03*
X2218Y326D03*
X1818Y326D03*
X1718Y326D03*
X2387Y726D03*
X2168Y426D03*
X1768Y576D03*
X268Y776D03*
X1718Y76D03*
X1818Y226D03*
X2368Y426D03*
X1068Y376D03*
X1568Y176D03*
X1713Y180D03*
G54D11*
X1468Y1106D03*
X1368Y1106D03*
X1268Y1106D03*
X1168Y1106D03*
X1068Y1106D03*
X968Y1106D03*
X868Y1106D03*
X768Y1106D03*
X668Y1106D03*
X568Y1106D03*
X468Y1106D03*
X368Y1106D03*
X268Y1106D03*
X168Y1106D03*
X68Y1106D03*
X1486Y80D03*
X1386Y80D03*
X1286Y80D03*
X1186Y80D03*
X1086Y80D03*
X986Y80D03*
X886Y80D03*
X786Y80D03*
X686Y80D03*
X586Y80D03*
X486Y80D03*
X386Y80D03*
X286Y80D03*
X186Y80D03*
X86Y80D03*
X2395Y80D03*
X2295Y80D03*
X2195Y80D03*
X2095Y80D03*
X1995Y80D03*
X1895Y80D03*
X1568Y426D03*
X1568Y526D03*
X1568Y626D03*
X1568Y726D03*
X1568Y826D03*
X1568Y426D03*
X1568Y526D03*
X1568Y626D03*
X1568Y726D03*
X1568Y826D03*
X568Y326D03*
X568Y426D03*
X568Y326D03*
X568Y426D03*
X566Y760D03*
X566Y860D03*
X566Y760D03*
X566Y860D03*
X868Y326D03*
X868Y426D03*
X868Y526D03*
X868Y626D03*
X868Y326D03*
X868Y426D03*
X868Y526D03*
X868Y626D03*
X2318Y1076D03*
X2218Y1076D03*
X2118Y1076D03*
X2018Y1076D03*
X1918Y1076D03*
X368Y976D03*
X268Y976D03*
X368Y976D03*
X268Y976D03*
G54D10*
X2018Y376D03*
X2137Y356D03*
X718Y226D03*
X1418Y226D03*
X968Y376D03*
G04 End of Mask0*
M02*