G04 MADE WITH FRITZING*
G04 WWW.FRITZING.ORG*
G04 DOUBLE SIDED*
G04 HOLES PLATED*
G04 CONTOUR ON CENTER OF CONTOUR VECTOR*
%ASAXBY*%
%FSLAX23Y23*%
%MOIN*%
%OFA0B0*%
%SFA1.0B1.0*%
%ADD10C,0.010000*%
%ADD11C,0.005000*%
%ADD12R,0.001000X0.001000*%
%LNSILK1*%
G90*
G70*
G54D10*
X1518Y1156D02*
X18Y1156D01*
D02*
X18Y1156D02*
X18Y1056D01*
D02*
X18Y1056D02*
X1518Y1056D01*
D02*
X1518Y1056D02*
X1518Y1156D01*
D02*
X1536Y130D02*
X36Y130D01*
D02*
X36Y130D02*
X36Y30D01*
D02*
X36Y30D02*
X1536Y30D01*
D02*
X1536Y30D02*
X1536Y130D01*
G54D11*
D02*
X1501Y130D02*
X1536Y95D01*
G54D10*
D02*
X2445Y130D02*
X1845Y130D01*
D02*
X1845Y130D02*
X1845Y30D01*
D02*
X1845Y30D02*
X2445Y30D01*
D02*
X2445Y30D02*
X2445Y130D01*
D02*
X2368Y1126D02*
X1868Y1126D01*
D02*
X1868Y1126D02*
X1868Y1026D01*
D02*
X1868Y1026D02*
X2368Y1026D01*
D02*
X2368Y1026D02*
X2368Y1126D01*
G54D12*
X1Y1179D02*
X2465Y1179D01*
X1Y1178D02*
X2465Y1178D01*
X1Y1177D02*
X2465Y1177D01*
X1Y1176D02*
X2465Y1176D01*
X1Y1175D02*
X2465Y1175D01*
X1Y1174D02*
X2465Y1174D01*
X1Y1173D02*
X2465Y1173D01*
X1Y1172D02*
X2465Y1172D01*
X1Y1171D02*
X8Y1171D01*
X2458Y1171D02*
X2465Y1171D01*
X1Y1170D02*
X8Y1170D01*
X2458Y1170D02*
X2465Y1170D01*
X1Y1169D02*
X8Y1169D01*
X2458Y1169D02*
X2465Y1169D01*
X1Y1168D02*
X8Y1168D01*
X2458Y1168D02*
X2465Y1168D01*
X1Y1167D02*
X8Y1167D01*
X2458Y1167D02*
X2465Y1167D01*
X1Y1166D02*
X8Y1166D01*
X2458Y1166D02*
X2465Y1166D01*
X1Y1165D02*
X8Y1165D01*
X2458Y1165D02*
X2465Y1165D01*
X1Y1164D02*
X8Y1164D01*
X2458Y1164D02*
X2465Y1164D01*
X1Y1163D02*
X8Y1163D01*
X2458Y1163D02*
X2465Y1163D01*
X1Y1162D02*
X8Y1162D01*
X2458Y1162D02*
X2465Y1162D01*
X1Y1161D02*
X8Y1161D01*
X2458Y1161D02*
X2465Y1161D01*
X1Y1160D02*
X8Y1160D01*
X2458Y1160D02*
X2465Y1160D01*
X1Y1159D02*
X8Y1159D01*
X2458Y1159D02*
X2465Y1159D01*
X1Y1158D02*
X8Y1158D01*
X2458Y1158D02*
X2465Y1158D01*
X1Y1157D02*
X8Y1157D01*
X1485Y1157D02*
X1486Y1157D01*
X2458Y1157D02*
X2465Y1157D01*
X1Y1156D02*
X8Y1156D01*
X1484Y1156D02*
X1487Y1156D01*
X2458Y1156D02*
X2465Y1156D01*
X1Y1155D02*
X8Y1155D01*
X1483Y1155D02*
X1488Y1155D01*
X2458Y1155D02*
X2465Y1155D01*
X1Y1154D02*
X8Y1154D01*
X1483Y1154D02*
X1489Y1154D01*
X2458Y1154D02*
X2465Y1154D01*
X1Y1153D02*
X8Y1153D01*
X1484Y1153D02*
X1490Y1153D01*
X2458Y1153D02*
X2465Y1153D01*
X1Y1152D02*
X8Y1152D01*
X1485Y1152D02*
X1491Y1152D01*
X2458Y1152D02*
X2465Y1152D01*
X1Y1151D02*
X8Y1151D01*
X1486Y1151D02*
X1492Y1151D01*
X2458Y1151D02*
X2465Y1151D01*
X1Y1150D02*
X8Y1150D01*
X1487Y1150D02*
X1493Y1150D01*
X2458Y1150D02*
X2465Y1150D01*
X1Y1149D02*
X8Y1149D01*
X1488Y1149D02*
X1494Y1149D01*
X2458Y1149D02*
X2465Y1149D01*
X1Y1148D02*
X8Y1148D01*
X1489Y1148D02*
X1495Y1148D01*
X2458Y1148D02*
X2465Y1148D01*
X1Y1147D02*
X8Y1147D01*
X1490Y1147D02*
X1496Y1147D01*
X2458Y1147D02*
X2465Y1147D01*
X1Y1146D02*
X8Y1146D01*
X1491Y1146D02*
X1497Y1146D01*
X2458Y1146D02*
X2465Y1146D01*
X1Y1145D02*
X8Y1145D01*
X1492Y1145D02*
X1498Y1145D01*
X2458Y1145D02*
X2465Y1145D01*
X1Y1144D02*
X8Y1144D01*
X1493Y1144D02*
X1499Y1144D01*
X2458Y1144D02*
X2465Y1144D01*
X1Y1143D02*
X8Y1143D01*
X1494Y1143D02*
X1500Y1143D01*
X2458Y1143D02*
X2465Y1143D01*
X1Y1142D02*
X8Y1142D01*
X1495Y1142D02*
X1501Y1142D01*
X2458Y1142D02*
X2465Y1142D01*
X1Y1141D02*
X8Y1141D01*
X1496Y1141D02*
X1502Y1141D01*
X2458Y1141D02*
X2465Y1141D01*
X1Y1140D02*
X8Y1140D01*
X1497Y1140D02*
X1503Y1140D01*
X2458Y1140D02*
X2465Y1140D01*
X1Y1139D02*
X8Y1139D01*
X1499Y1139D02*
X1504Y1139D01*
X2458Y1139D02*
X2465Y1139D01*
X1Y1138D02*
X8Y1138D01*
X1500Y1138D02*
X1505Y1138D01*
X2458Y1138D02*
X2465Y1138D01*
X1Y1137D02*
X8Y1137D01*
X1501Y1137D02*
X1506Y1137D01*
X2458Y1137D02*
X2465Y1137D01*
X1Y1136D02*
X8Y1136D01*
X1502Y1136D02*
X1507Y1136D01*
X2458Y1136D02*
X2465Y1136D01*
X1Y1135D02*
X8Y1135D01*
X1502Y1135D02*
X1508Y1135D01*
X2458Y1135D02*
X2465Y1135D01*
X1Y1134D02*
X8Y1134D01*
X1503Y1134D02*
X1509Y1134D01*
X2458Y1134D02*
X2465Y1134D01*
X1Y1133D02*
X8Y1133D01*
X1504Y1133D02*
X1510Y1133D01*
X2458Y1133D02*
X2465Y1133D01*
X1Y1132D02*
X8Y1132D01*
X1505Y1132D02*
X1511Y1132D01*
X2458Y1132D02*
X2465Y1132D01*
X1Y1131D02*
X8Y1131D01*
X1506Y1131D02*
X1512Y1131D01*
X2458Y1131D02*
X2465Y1131D01*
X1Y1130D02*
X8Y1130D01*
X1507Y1130D02*
X1513Y1130D01*
X2458Y1130D02*
X2465Y1130D01*
X1Y1129D02*
X8Y1129D01*
X1508Y1129D02*
X1514Y1129D01*
X2458Y1129D02*
X2465Y1129D01*
X1Y1128D02*
X8Y1128D01*
X1509Y1128D02*
X1515Y1128D01*
X2335Y1128D02*
X2335Y1128D01*
X2458Y1128D02*
X2465Y1128D01*
X1Y1127D02*
X8Y1127D01*
X1510Y1127D02*
X1516Y1127D01*
X2334Y1127D02*
X2336Y1127D01*
X2458Y1127D02*
X2465Y1127D01*
X1Y1126D02*
X8Y1126D01*
X1511Y1126D02*
X1517Y1126D01*
X2333Y1126D02*
X2337Y1126D01*
X2458Y1126D02*
X2465Y1126D01*
X1Y1125D02*
X8Y1125D01*
X1512Y1125D02*
X1518Y1125D01*
X2332Y1125D02*
X2338Y1125D01*
X2458Y1125D02*
X2465Y1125D01*
X1Y1124D02*
X8Y1124D01*
X1513Y1124D02*
X1519Y1124D01*
X2333Y1124D02*
X2339Y1124D01*
X2458Y1124D02*
X2465Y1124D01*
X1Y1123D02*
X8Y1123D01*
X1514Y1123D02*
X1519Y1123D01*
X2334Y1123D02*
X2340Y1123D01*
X2458Y1123D02*
X2465Y1123D01*
X1Y1122D02*
X8Y1122D01*
X1515Y1122D02*
X1519Y1122D01*
X2335Y1122D02*
X2341Y1122D01*
X2458Y1122D02*
X2465Y1122D01*
X1Y1121D02*
X8Y1121D01*
X1516Y1121D02*
X1518Y1121D01*
X2336Y1121D02*
X2342Y1121D01*
X2458Y1121D02*
X2465Y1121D01*
X1Y1120D02*
X8Y1120D01*
X2337Y1120D02*
X2343Y1120D01*
X2458Y1120D02*
X2465Y1120D01*
X1Y1119D02*
X8Y1119D01*
X2338Y1119D02*
X2344Y1119D01*
X2458Y1119D02*
X2465Y1119D01*
X1Y1118D02*
X8Y1118D01*
X2339Y1118D02*
X2345Y1118D01*
X2458Y1118D02*
X2465Y1118D01*
X1Y1117D02*
X8Y1117D01*
X2340Y1117D02*
X2346Y1117D01*
X2458Y1117D02*
X2465Y1117D01*
X1Y1116D02*
X8Y1116D01*
X2341Y1116D02*
X2347Y1116D01*
X2458Y1116D02*
X2465Y1116D01*
X1Y1115D02*
X8Y1115D01*
X2342Y1115D02*
X2348Y1115D01*
X2458Y1115D02*
X2465Y1115D01*
X1Y1114D02*
X8Y1114D01*
X2343Y1114D02*
X2349Y1114D01*
X2458Y1114D02*
X2465Y1114D01*
X1Y1113D02*
X8Y1113D01*
X2344Y1113D02*
X2350Y1113D01*
X2458Y1113D02*
X2465Y1113D01*
X1Y1112D02*
X8Y1112D01*
X2345Y1112D02*
X2351Y1112D01*
X2458Y1112D02*
X2465Y1112D01*
X1Y1111D02*
X8Y1111D01*
X2346Y1111D02*
X2352Y1111D01*
X2458Y1111D02*
X2465Y1111D01*
X1Y1110D02*
X8Y1110D01*
X2347Y1110D02*
X2353Y1110D01*
X2458Y1110D02*
X2465Y1110D01*
X1Y1109D02*
X8Y1109D01*
X2348Y1109D02*
X2354Y1109D01*
X2458Y1109D02*
X2465Y1109D01*
X1Y1108D02*
X8Y1108D01*
X2350Y1108D02*
X2355Y1108D01*
X2458Y1108D02*
X2465Y1108D01*
X1Y1107D02*
X8Y1107D01*
X2350Y1107D02*
X2356Y1107D01*
X2458Y1107D02*
X2465Y1107D01*
X1Y1106D02*
X8Y1106D01*
X2351Y1106D02*
X2357Y1106D01*
X2458Y1106D02*
X2465Y1106D01*
X1Y1105D02*
X8Y1105D01*
X2352Y1105D02*
X2358Y1105D01*
X2458Y1105D02*
X2465Y1105D01*
X1Y1104D02*
X8Y1104D01*
X2353Y1104D02*
X2359Y1104D01*
X2458Y1104D02*
X2465Y1104D01*
X1Y1103D02*
X8Y1103D01*
X2354Y1103D02*
X2360Y1103D01*
X2458Y1103D02*
X2465Y1103D01*
X1Y1102D02*
X8Y1102D01*
X2355Y1102D02*
X2361Y1102D01*
X2458Y1102D02*
X2465Y1102D01*
X1Y1101D02*
X8Y1101D01*
X2356Y1101D02*
X2362Y1101D01*
X2458Y1101D02*
X2465Y1101D01*
X1Y1100D02*
X8Y1100D01*
X2357Y1100D02*
X2363Y1100D01*
X2458Y1100D02*
X2465Y1100D01*
X1Y1099D02*
X8Y1099D01*
X2358Y1099D02*
X2364Y1099D01*
X2458Y1099D02*
X2465Y1099D01*
X1Y1098D02*
X8Y1098D01*
X2359Y1098D02*
X2365Y1098D01*
X2458Y1098D02*
X2465Y1098D01*
X1Y1097D02*
X8Y1097D01*
X2360Y1097D02*
X2366Y1097D01*
X2458Y1097D02*
X2465Y1097D01*
X1Y1096D02*
X8Y1096D01*
X2361Y1096D02*
X2367Y1096D01*
X2458Y1096D02*
X2465Y1096D01*
X1Y1095D02*
X8Y1095D01*
X2362Y1095D02*
X2368Y1095D01*
X2458Y1095D02*
X2465Y1095D01*
X1Y1094D02*
X8Y1094D01*
X2363Y1094D02*
X2369Y1094D01*
X2458Y1094D02*
X2465Y1094D01*
X1Y1093D02*
X8Y1093D01*
X2364Y1093D02*
X2369Y1093D01*
X2458Y1093D02*
X2465Y1093D01*
X1Y1092D02*
X8Y1092D01*
X2365Y1092D02*
X2368Y1092D01*
X2458Y1092D02*
X2465Y1092D01*
X1Y1091D02*
X8Y1091D01*
X2366Y1091D02*
X2367Y1091D01*
X2458Y1091D02*
X2465Y1091D01*
X1Y1090D02*
X8Y1090D01*
X2458Y1090D02*
X2465Y1090D01*
X1Y1089D02*
X8Y1089D01*
X2458Y1089D02*
X2465Y1089D01*
X1Y1088D02*
X8Y1088D01*
X2458Y1088D02*
X2465Y1088D01*
X1Y1087D02*
X8Y1087D01*
X2458Y1087D02*
X2465Y1087D01*
X1Y1086D02*
X8Y1086D01*
X2458Y1086D02*
X2465Y1086D01*
X1Y1085D02*
X8Y1085D01*
X2458Y1085D02*
X2465Y1085D01*
X1Y1084D02*
X8Y1084D01*
X2458Y1084D02*
X2465Y1084D01*
X1Y1083D02*
X8Y1083D01*
X2458Y1083D02*
X2465Y1083D01*
X1Y1082D02*
X8Y1082D01*
X2458Y1082D02*
X2465Y1082D01*
X1Y1081D02*
X8Y1081D01*
X2458Y1081D02*
X2465Y1081D01*
X1Y1080D02*
X8Y1080D01*
X2458Y1080D02*
X2465Y1080D01*
X1Y1079D02*
X8Y1079D01*
X2458Y1079D02*
X2465Y1079D01*
X1Y1078D02*
X8Y1078D01*
X2458Y1078D02*
X2465Y1078D01*
X1Y1077D02*
X8Y1077D01*
X2458Y1077D02*
X2465Y1077D01*
X1Y1076D02*
X8Y1076D01*
X2458Y1076D02*
X2465Y1076D01*
X1Y1075D02*
X8Y1075D01*
X2458Y1075D02*
X2465Y1075D01*
X1Y1074D02*
X8Y1074D01*
X2458Y1074D02*
X2465Y1074D01*
X1Y1073D02*
X8Y1073D01*
X2458Y1073D02*
X2465Y1073D01*
X1Y1072D02*
X8Y1072D01*
X2458Y1072D02*
X2465Y1072D01*
X1Y1071D02*
X8Y1071D01*
X2458Y1071D02*
X2465Y1071D01*
X1Y1070D02*
X8Y1070D01*
X2458Y1070D02*
X2465Y1070D01*
X1Y1069D02*
X8Y1069D01*
X2458Y1069D02*
X2465Y1069D01*
X1Y1068D02*
X8Y1068D01*
X2458Y1068D02*
X2465Y1068D01*
X1Y1067D02*
X8Y1067D01*
X2458Y1067D02*
X2465Y1067D01*
X1Y1066D02*
X8Y1066D01*
X2458Y1066D02*
X2465Y1066D01*
X1Y1065D02*
X8Y1065D01*
X2458Y1065D02*
X2465Y1065D01*
X1Y1064D02*
X8Y1064D01*
X2458Y1064D02*
X2465Y1064D01*
X1Y1063D02*
X8Y1063D01*
X2458Y1063D02*
X2465Y1063D01*
X1Y1062D02*
X8Y1062D01*
X2458Y1062D02*
X2465Y1062D01*
X1Y1061D02*
X8Y1061D01*
X2458Y1061D02*
X2465Y1061D01*
X1Y1060D02*
X8Y1060D01*
X2458Y1060D02*
X2465Y1060D01*
X1Y1059D02*
X8Y1059D01*
X2458Y1059D02*
X2465Y1059D01*
X1Y1058D02*
X8Y1058D01*
X2458Y1058D02*
X2465Y1058D01*
X1Y1057D02*
X8Y1057D01*
X2458Y1057D02*
X2465Y1057D01*
X1Y1056D02*
X8Y1056D01*
X2458Y1056D02*
X2465Y1056D01*
X1Y1055D02*
X8Y1055D01*
X2458Y1055D02*
X2465Y1055D01*
X1Y1054D02*
X8Y1054D01*
X2458Y1054D02*
X2465Y1054D01*
X1Y1053D02*
X8Y1053D01*
X2458Y1053D02*
X2465Y1053D01*
X1Y1052D02*
X8Y1052D01*
X2458Y1052D02*
X2465Y1052D01*
X1Y1051D02*
X8Y1051D01*
X2458Y1051D02*
X2465Y1051D01*
X1Y1050D02*
X8Y1050D01*
X2458Y1050D02*
X2465Y1050D01*
X1Y1049D02*
X8Y1049D01*
X2458Y1049D02*
X2465Y1049D01*
X1Y1048D02*
X8Y1048D01*
X2458Y1048D02*
X2465Y1048D01*
X1Y1047D02*
X8Y1047D01*
X2458Y1047D02*
X2465Y1047D01*
X1Y1046D02*
X8Y1046D01*
X2458Y1046D02*
X2465Y1046D01*
X1Y1045D02*
X8Y1045D01*
X2458Y1045D02*
X2465Y1045D01*
X1Y1044D02*
X8Y1044D01*
X2458Y1044D02*
X2465Y1044D01*
X1Y1043D02*
X8Y1043D01*
X2458Y1043D02*
X2465Y1043D01*
X1Y1042D02*
X8Y1042D01*
X2458Y1042D02*
X2465Y1042D01*
X1Y1041D02*
X8Y1041D01*
X2458Y1041D02*
X2465Y1041D01*
X1Y1040D02*
X8Y1040D01*
X2458Y1040D02*
X2465Y1040D01*
X1Y1039D02*
X8Y1039D01*
X2458Y1039D02*
X2465Y1039D01*
X1Y1038D02*
X8Y1038D01*
X2458Y1038D02*
X2465Y1038D01*
X1Y1037D02*
X8Y1037D01*
X2458Y1037D02*
X2465Y1037D01*
X1Y1036D02*
X8Y1036D01*
X2458Y1036D02*
X2465Y1036D01*
X1Y1035D02*
X8Y1035D01*
X2458Y1035D02*
X2465Y1035D01*
X1Y1034D02*
X8Y1034D01*
X2458Y1034D02*
X2465Y1034D01*
X1Y1033D02*
X8Y1033D01*
X2458Y1033D02*
X2465Y1033D01*
X1Y1032D02*
X8Y1032D01*
X2458Y1032D02*
X2465Y1032D01*
X1Y1031D02*
X8Y1031D01*
X2458Y1031D02*
X2465Y1031D01*
X1Y1030D02*
X8Y1030D01*
X2458Y1030D02*
X2465Y1030D01*
X1Y1029D02*
X8Y1029D01*
X2458Y1029D02*
X2465Y1029D01*
X1Y1028D02*
X8Y1028D01*
X2458Y1028D02*
X2465Y1028D01*
X1Y1027D02*
X8Y1027D01*
X2458Y1027D02*
X2465Y1027D01*
X1Y1026D02*
X8Y1026D01*
X2458Y1026D02*
X2465Y1026D01*
X1Y1025D02*
X8Y1025D01*
X2458Y1025D02*
X2465Y1025D01*
X1Y1024D02*
X8Y1024D01*
X2458Y1024D02*
X2465Y1024D01*
X1Y1023D02*
X8Y1023D01*
X2458Y1023D02*
X2465Y1023D01*
X1Y1022D02*
X8Y1022D01*
X2458Y1022D02*
X2465Y1022D01*
X1Y1021D02*
X8Y1021D01*
X2458Y1021D02*
X2465Y1021D01*
X1Y1020D02*
X8Y1020D01*
X2458Y1020D02*
X2465Y1020D01*
X1Y1019D02*
X8Y1019D01*
X2458Y1019D02*
X2465Y1019D01*
X1Y1018D02*
X8Y1018D01*
X2458Y1018D02*
X2465Y1018D01*
X1Y1017D02*
X8Y1017D01*
X2458Y1017D02*
X2465Y1017D01*
X1Y1016D02*
X8Y1016D01*
X2458Y1016D02*
X2465Y1016D01*
X1Y1015D02*
X8Y1015D01*
X2458Y1015D02*
X2465Y1015D01*
X1Y1014D02*
X8Y1014D01*
X2458Y1014D02*
X2465Y1014D01*
X1Y1013D02*
X8Y1013D01*
X2458Y1013D02*
X2465Y1013D01*
X1Y1012D02*
X8Y1012D01*
X2458Y1012D02*
X2465Y1012D01*
X1Y1011D02*
X8Y1011D01*
X2458Y1011D02*
X2465Y1011D01*
X1Y1010D02*
X8Y1010D01*
X2458Y1010D02*
X2465Y1010D01*
X1Y1009D02*
X8Y1009D01*
X2458Y1009D02*
X2465Y1009D01*
X1Y1008D02*
X8Y1008D01*
X2458Y1008D02*
X2465Y1008D01*
X1Y1007D02*
X8Y1007D01*
X2458Y1007D02*
X2465Y1007D01*
X1Y1006D02*
X8Y1006D01*
X1862Y1006D02*
X1877Y1006D01*
X1892Y1006D02*
X1910Y1006D01*
X1930Y1006D02*
X1931Y1006D01*
X1952Y1006D02*
X1967Y1006D01*
X1982Y1006D02*
X1985Y1006D01*
X2021Y1006D02*
X2021Y1006D01*
X2052Y1006D02*
X2059Y1006D01*
X2071Y1006D02*
X2076Y1006D01*
X2089Y1006D02*
X2089Y1006D01*
X2103Y1006D02*
X2111Y1006D01*
X2141Y1006D02*
X2141Y1006D01*
X2165Y1006D02*
X2176Y1006D01*
X2193Y1006D02*
X2203Y1006D01*
X2231Y1006D02*
X2232Y1006D01*
X2256Y1006D02*
X2267Y1006D01*
X2283Y1006D02*
X2298Y1006D01*
X2458Y1006D02*
X2465Y1006D01*
X1Y1005D02*
X8Y1005D01*
X1861Y1005D02*
X1879Y1005D01*
X1891Y1005D02*
X1910Y1005D01*
X1929Y1005D02*
X1932Y1005D01*
X1951Y1005D02*
X1969Y1005D01*
X1981Y1005D02*
X1986Y1005D01*
X2019Y1005D02*
X2022Y1005D01*
X2050Y1005D02*
X2060Y1005D01*
X2071Y1005D02*
X2076Y1005D01*
X2088Y1005D02*
X2091Y1005D01*
X2102Y1005D02*
X2114Y1005D01*
X2140Y1005D02*
X2143Y1005D01*
X2163Y1005D02*
X2179Y1005D01*
X2192Y1005D02*
X2203Y1005D01*
X2230Y1005D02*
X2233Y1005D01*
X2254Y1005D02*
X2269Y1005D01*
X2282Y1005D02*
X2300Y1005D01*
X2458Y1005D02*
X2465Y1005D01*
X1Y1004D02*
X8Y1004D01*
X1860Y1004D02*
X1879Y1004D01*
X1890Y1004D02*
X1910Y1004D01*
X1929Y1004D02*
X1932Y1004D01*
X1951Y1004D02*
X1970Y1004D01*
X1981Y1004D02*
X1986Y1004D01*
X2019Y1004D02*
X2022Y1004D01*
X2049Y1004D02*
X2061Y1004D01*
X2071Y1004D02*
X2077Y1004D01*
X2088Y1004D02*
X2091Y1004D01*
X2101Y1004D02*
X2115Y1004D01*
X2140Y1004D02*
X2143Y1004D01*
X2162Y1004D02*
X2180Y1004D01*
X2192Y1004D02*
X2203Y1004D01*
X2230Y1004D02*
X2233Y1004D01*
X2253Y1004D02*
X2270Y1004D01*
X2282Y1004D02*
X2301Y1004D01*
X2458Y1004D02*
X2465Y1004D01*
X1Y1003D02*
X8Y1003D01*
X1861Y1003D02*
X1880Y1003D01*
X1890Y1003D02*
X1910Y1003D01*
X1929Y1003D02*
X1932Y1003D01*
X1951Y1003D02*
X1970Y1003D01*
X1981Y1003D02*
X1986Y1003D01*
X2019Y1003D02*
X2022Y1003D01*
X2048Y1003D02*
X2060Y1003D01*
X2071Y1003D02*
X2077Y1003D01*
X2088Y1003D02*
X2091Y1003D01*
X2102Y1003D02*
X2115Y1003D01*
X2140Y1003D02*
X2143Y1003D01*
X2162Y1003D02*
X2181Y1003D01*
X2192Y1003D02*
X2203Y1003D01*
X2230Y1003D02*
X2233Y1003D01*
X2252Y1003D02*
X2271Y1003D01*
X2282Y1003D02*
X2301Y1003D01*
X2458Y1003D02*
X2465Y1003D01*
X1Y1002D02*
X8Y1002D01*
X72Y1002D02*
X77Y1002D01*
X1862Y1002D02*
X1880Y1002D01*
X1890Y1002D02*
X1910Y1002D01*
X1929Y1002D02*
X1932Y1002D01*
X1952Y1002D02*
X1970Y1002D01*
X1981Y1002D02*
X1984Y1002D01*
X2019Y1002D02*
X2022Y1002D01*
X2047Y1002D02*
X2059Y1002D01*
X2071Y1002D02*
X2078Y1002D01*
X2088Y1002D02*
X2091Y1002D01*
X2103Y1002D02*
X2116Y1002D01*
X2140Y1002D02*
X2143Y1002D01*
X2162Y1002D02*
X2181Y1002D01*
X2193Y1002D02*
X2203Y1002D01*
X2230Y1002D02*
X2233Y1002D01*
X2252Y1002D02*
X2271Y1002D01*
X2284Y1002D02*
X2302Y1002D01*
X2458Y1002D02*
X2465Y1002D01*
X1Y1001D02*
X8Y1001D01*
X69Y1001D02*
X80Y1001D01*
X1877Y1001D02*
X1880Y1001D01*
X1891Y1001D02*
X1893Y1001D01*
X1907Y1001D02*
X1910Y1001D01*
X1929Y1001D02*
X1932Y1001D01*
X1967Y1001D02*
X1970Y1001D01*
X1981Y1001D02*
X1984Y1001D01*
X2019Y1001D02*
X2022Y1001D01*
X2046Y1001D02*
X2051Y1001D01*
X2071Y1001D02*
X2078Y1001D01*
X2088Y1001D02*
X2091Y1001D01*
X2105Y1001D02*
X2109Y1001D01*
X2113Y1001D02*
X2117Y1001D01*
X2140Y1001D02*
X2143Y1001D01*
X2162Y1001D02*
X2165Y1001D01*
X2178Y1001D02*
X2181Y1001D01*
X2200Y1001D02*
X2203Y1001D01*
X2230Y1001D02*
X2233Y1001D01*
X2252Y1001D02*
X2255Y1001D01*
X2268Y1001D02*
X2272Y1001D01*
X2298Y1001D02*
X2302Y1001D01*
X2458Y1001D02*
X2465Y1001D01*
X1Y1000D02*
X8Y1000D01*
X67Y1000D02*
X82Y1000D01*
X1877Y1000D02*
X1880Y1000D01*
X1907Y1000D02*
X1910Y1000D01*
X1929Y1000D02*
X1932Y1000D01*
X1967Y1000D02*
X1970Y1000D01*
X1981Y1000D02*
X1984Y1000D01*
X2019Y1000D02*
X2022Y1000D01*
X2046Y1000D02*
X2050Y1000D01*
X2071Y1000D02*
X2078Y1000D01*
X2088Y1000D02*
X2091Y1000D01*
X2105Y1000D02*
X2109Y1000D01*
X2113Y1000D02*
X2117Y1000D01*
X2140Y1000D02*
X2143Y1000D01*
X2162Y1000D02*
X2166Y1000D01*
X2178Y1000D02*
X2181Y1000D01*
X2200Y1000D02*
X2203Y1000D01*
X2230Y1000D02*
X2233Y1000D01*
X2252Y1000D02*
X2256Y1000D01*
X2268Y1000D02*
X2271Y1000D01*
X2298Y1000D02*
X2302Y1000D01*
X2458Y1000D02*
X2465Y1000D01*
X1Y999D02*
X8Y999D01*
X65Y999D02*
X84Y999D01*
X1877Y999D02*
X1880Y999D01*
X1907Y999D02*
X1910Y999D01*
X1929Y999D02*
X1932Y999D01*
X1967Y999D02*
X1970Y999D01*
X1981Y999D02*
X1984Y999D01*
X2019Y999D02*
X2022Y999D01*
X2045Y999D02*
X2049Y999D01*
X2071Y999D02*
X2079Y999D01*
X2088Y999D02*
X2091Y999D01*
X2105Y999D02*
X2109Y999D01*
X2114Y999D02*
X2118Y999D01*
X2140Y999D02*
X2143Y999D01*
X2162Y999D02*
X2166Y999D01*
X2179Y999D02*
X2181Y999D01*
X2200Y999D02*
X2203Y999D01*
X2230Y999D02*
X2233Y999D01*
X2253Y999D02*
X2257Y999D01*
X2269Y999D02*
X2271Y999D01*
X2298Y999D02*
X2302Y999D01*
X2458Y999D02*
X2465Y999D01*
X1Y998D02*
X8Y998D01*
X63Y998D02*
X86Y998D01*
X1877Y998D02*
X1880Y998D01*
X1907Y998D02*
X1910Y998D01*
X1929Y998D02*
X1932Y998D01*
X1967Y998D02*
X1970Y998D01*
X1981Y998D02*
X1984Y998D01*
X2019Y998D02*
X2022Y998D01*
X2044Y998D02*
X2048Y998D01*
X2071Y998D02*
X2079Y998D01*
X2088Y998D02*
X2091Y998D01*
X2105Y998D02*
X2109Y998D01*
X2114Y998D02*
X2118Y998D01*
X2140Y998D02*
X2143Y998D01*
X2163Y998D02*
X2167Y998D01*
X2200Y998D02*
X2203Y998D01*
X2230Y998D02*
X2233Y998D01*
X2253Y998D02*
X2258Y998D01*
X2298Y998D02*
X2302Y998D01*
X2458Y998D02*
X2465Y998D01*
X1Y997D02*
X8Y997D01*
X61Y997D02*
X88Y997D01*
X1877Y997D02*
X1880Y997D01*
X1907Y997D02*
X1910Y997D01*
X1929Y997D02*
X1932Y997D01*
X1967Y997D02*
X1970Y997D01*
X1981Y997D02*
X1984Y997D01*
X2019Y997D02*
X2022Y997D01*
X2043Y997D02*
X2048Y997D01*
X2071Y997D02*
X2074Y997D01*
X2076Y997D02*
X2080Y997D01*
X2088Y997D02*
X2091Y997D01*
X2105Y997D02*
X2109Y997D01*
X2115Y997D02*
X2119Y997D01*
X2140Y997D02*
X2143Y997D01*
X2164Y997D02*
X2168Y997D01*
X2200Y997D02*
X2203Y997D01*
X2230Y997D02*
X2233Y997D01*
X2254Y997D02*
X2258Y997D01*
X2298Y997D02*
X2302Y997D01*
X2458Y997D02*
X2465Y997D01*
X1Y996D02*
X8Y996D01*
X59Y996D02*
X90Y996D01*
X1877Y996D02*
X1880Y996D01*
X1907Y996D02*
X1910Y996D01*
X1929Y996D02*
X1932Y996D01*
X1967Y996D02*
X1970Y996D01*
X1981Y996D02*
X1984Y996D01*
X2019Y996D02*
X2022Y996D01*
X2043Y996D02*
X2047Y996D01*
X2071Y996D02*
X2074Y996D01*
X2077Y996D02*
X2080Y996D01*
X2088Y996D02*
X2091Y996D01*
X2105Y996D02*
X2109Y996D01*
X2115Y996D02*
X2119Y996D01*
X2140Y996D02*
X2143Y996D01*
X2164Y996D02*
X2169Y996D01*
X2200Y996D02*
X2203Y996D01*
X2230Y996D02*
X2233Y996D01*
X2255Y996D02*
X2259Y996D01*
X2298Y996D02*
X2302Y996D01*
X2458Y996D02*
X2465Y996D01*
X1Y995D02*
X8Y995D01*
X57Y995D02*
X72Y995D01*
X77Y995D02*
X92Y995D01*
X1877Y995D02*
X1880Y995D01*
X1907Y995D02*
X1910Y995D01*
X1929Y995D02*
X1932Y995D01*
X1967Y995D02*
X1970Y995D01*
X1981Y995D02*
X1984Y995D01*
X2019Y995D02*
X2022Y995D01*
X2042Y995D02*
X2046Y995D01*
X2071Y995D02*
X2074Y995D01*
X2077Y995D02*
X2081Y995D01*
X2088Y995D02*
X2091Y995D01*
X2105Y995D02*
X2109Y995D01*
X2116Y995D02*
X2120Y995D01*
X2140Y995D02*
X2143Y995D01*
X2165Y995D02*
X2170Y995D01*
X2200Y995D02*
X2203Y995D01*
X2230Y995D02*
X2233Y995D01*
X2255Y995D02*
X2260Y995D01*
X2298Y995D02*
X2302Y995D01*
X2458Y995D02*
X2465Y995D01*
X1Y994D02*
X8Y994D01*
X55Y994D02*
X69Y994D01*
X80Y994D02*
X94Y994D01*
X1877Y994D02*
X1880Y994D01*
X1907Y994D02*
X1910Y994D01*
X1929Y994D02*
X1932Y994D01*
X1967Y994D02*
X1970Y994D01*
X1981Y994D02*
X1984Y994D01*
X2019Y994D02*
X2022Y994D01*
X2042Y994D02*
X2045Y994D01*
X2071Y994D02*
X2074Y994D01*
X2077Y994D02*
X2081Y994D01*
X2088Y994D02*
X2091Y994D01*
X2105Y994D02*
X2109Y994D01*
X2116Y994D02*
X2120Y994D01*
X2140Y994D02*
X2143Y994D01*
X2166Y994D02*
X2170Y994D01*
X2200Y994D02*
X2203Y994D01*
X2230Y994D02*
X2233Y994D01*
X2256Y994D02*
X2261Y994D01*
X2298Y994D02*
X2302Y994D01*
X2458Y994D02*
X2465Y994D01*
X1Y993D02*
X8Y993D01*
X53Y993D02*
X67Y993D01*
X82Y993D02*
X96Y993D01*
X1877Y993D02*
X1880Y993D01*
X1905Y993D02*
X1910Y993D01*
X1929Y993D02*
X1932Y993D01*
X1967Y993D02*
X1970Y993D01*
X1981Y993D02*
X1984Y993D01*
X2019Y993D02*
X2022Y993D01*
X2041Y993D02*
X2045Y993D01*
X2071Y993D02*
X2074Y993D01*
X2078Y993D02*
X2081Y993D01*
X2088Y993D02*
X2091Y993D01*
X2105Y993D02*
X2109Y993D01*
X2117Y993D02*
X2120Y993D01*
X2140Y993D02*
X2143Y993D01*
X2167Y993D02*
X2171Y993D01*
X2200Y993D02*
X2203Y993D01*
X2230Y993D02*
X2233Y993D01*
X2257Y993D02*
X2261Y993D01*
X2298Y993D02*
X2302Y993D01*
X2458Y993D02*
X2465Y993D01*
X1Y992D02*
X8Y992D01*
X52Y992D02*
X65Y992D01*
X84Y992D02*
X98Y992D01*
X1876Y992D02*
X1880Y992D01*
X1904Y992D02*
X1910Y992D01*
X1967Y992D02*
X1970Y992D01*
X1981Y992D02*
X1984Y992D01*
X2041Y992D02*
X2044Y992D01*
X2071Y992D02*
X2074Y992D01*
X2078Y992D02*
X2082Y992D01*
X2088Y992D02*
X2091Y992D01*
X2105Y992D02*
X2109Y992D01*
X2117Y992D02*
X2121Y992D01*
X2167Y992D02*
X2172Y992D01*
X2200Y992D02*
X2203Y992D01*
X2258Y992D02*
X2262Y992D01*
X2298Y992D02*
X2302Y992D01*
X2458Y992D02*
X2465Y992D01*
X1Y991D02*
X8Y991D01*
X51Y991D02*
X63Y991D01*
X86Y991D02*
X98Y991D01*
X1862Y991D02*
X1880Y991D01*
X1903Y991D02*
X1908Y991D01*
X1952Y991D02*
X1970Y991D01*
X1981Y991D02*
X1984Y991D01*
X2041Y991D02*
X2044Y991D01*
X2071Y991D02*
X2074Y991D01*
X2079Y991D02*
X2082Y991D01*
X2088Y991D02*
X2091Y991D01*
X2105Y991D02*
X2109Y991D01*
X2118Y991D02*
X2121Y991D01*
X2168Y991D02*
X2173Y991D01*
X2200Y991D02*
X2203Y991D01*
X2259Y991D02*
X2263Y991D01*
X2284Y991D02*
X2302Y991D01*
X2458Y991D02*
X2465Y991D01*
X1Y990D02*
X8Y990D01*
X50Y990D02*
X61Y990D01*
X88Y990D02*
X99Y990D01*
X1861Y990D02*
X1879Y990D01*
X1902Y990D02*
X1907Y990D01*
X1951Y990D02*
X1970Y990D01*
X1981Y990D02*
X1984Y990D01*
X2041Y990D02*
X2044Y990D01*
X2071Y990D02*
X2074Y990D01*
X2079Y990D02*
X2083Y990D01*
X2088Y990D02*
X2091Y990D01*
X2105Y990D02*
X2109Y990D01*
X2118Y990D02*
X2121Y990D01*
X2169Y990D02*
X2173Y990D01*
X2200Y990D02*
X2203Y990D01*
X2259Y990D02*
X2264Y990D01*
X2283Y990D02*
X2301Y990D01*
X2458Y990D02*
X2465Y990D01*
X1Y989D02*
X8Y989D01*
X49Y989D02*
X59Y989D01*
X90Y989D02*
X100Y989D01*
X1861Y989D02*
X1879Y989D01*
X1901Y989D02*
X1906Y989D01*
X1951Y989D02*
X1969Y989D01*
X1981Y989D02*
X1984Y989D01*
X2041Y989D02*
X2044Y989D01*
X2071Y989D02*
X2074Y989D01*
X2080Y989D02*
X2083Y989D01*
X2088Y989D02*
X2091Y989D01*
X2105Y989D02*
X2109Y989D01*
X2118Y989D02*
X2121Y989D01*
X2170Y989D02*
X2174Y989D01*
X2200Y989D02*
X2203Y989D01*
X2260Y989D02*
X2265Y989D01*
X2282Y989D02*
X2300Y989D01*
X2458Y989D02*
X2465Y989D01*
X1Y988D02*
X8Y988D01*
X49Y988D02*
X57Y988D01*
X92Y988D02*
X100Y988D01*
X1860Y988D02*
X1877Y988D01*
X1900Y988D02*
X1905Y988D01*
X1951Y988D02*
X1967Y988D01*
X1981Y988D02*
X2000Y988D01*
X2041Y988D02*
X2044Y988D01*
X2052Y988D02*
X2061Y988D01*
X2071Y988D02*
X2074Y988D01*
X2080Y988D02*
X2084Y988D01*
X2088Y988D02*
X2091Y988D01*
X2105Y988D02*
X2109Y988D01*
X2117Y988D02*
X2121Y988D01*
X2171Y988D02*
X2175Y988D01*
X2200Y988D02*
X2203Y988D01*
X2209Y988D02*
X2210Y988D01*
X2261Y988D02*
X2265Y988D01*
X2282Y988D02*
X2298Y988D01*
X2458Y988D02*
X2465Y988D01*
X1Y987D02*
X8Y987D01*
X48Y987D02*
X55Y987D01*
X93Y987D02*
X101Y987D01*
X1860Y987D02*
X1864Y987D01*
X1899Y987D02*
X1904Y987D01*
X1929Y987D02*
X1932Y987D01*
X1951Y987D02*
X1954Y987D01*
X1981Y987D02*
X2000Y987D01*
X2019Y987D02*
X2022Y987D01*
X2041Y987D02*
X2044Y987D01*
X2052Y987D02*
X2061Y987D01*
X2071Y987D02*
X2074Y987D01*
X2080Y987D02*
X2084Y987D01*
X2088Y987D02*
X2091Y987D01*
X2105Y987D02*
X2109Y987D01*
X2117Y987D02*
X2120Y987D01*
X2140Y987D02*
X2143Y987D01*
X2171Y987D02*
X2176Y987D01*
X2200Y987D02*
X2203Y987D01*
X2208Y987D02*
X2211Y987D01*
X2230Y987D02*
X2233Y987D01*
X2262Y987D02*
X2266Y987D01*
X2282Y987D02*
X2285Y987D01*
X2458Y987D02*
X2465Y987D01*
X1Y986D02*
X8Y986D01*
X48Y986D02*
X54Y986D01*
X94Y986D02*
X101Y986D01*
X1860Y986D02*
X1864Y986D01*
X1899Y986D02*
X1903Y986D01*
X1929Y986D02*
X1932Y986D01*
X1951Y986D02*
X1954Y986D01*
X1981Y986D02*
X2001Y986D01*
X2019Y986D02*
X2022Y986D01*
X2041Y986D02*
X2044Y986D01*
X2051Y986D02*
X2061Y986D01*
X2071Y986D02*
X2074Y986D01*
X2081Y986D02*
X2085Y986D01*
X2088Y986D02*
X2091Y986D01*
X2105Y986D02*
X2109Y986D01*
X2116Y986D02*
X2120Y986D01*
X2140Y986D02*
X2143Y986D01*
X2172Y986D02*
X2177Y986D01*
X2200Y986D02*
X2203Y986D01*
X2208Y986D02*
X2211Y986D01*
X2230Y986D02*
X2233Y986D01*
X2262Y986D02*
X2267Y986D01*
X2282Y986D02*
X2285Y986D01*
X2458Y986D02*
X2465Y986D01*
X1Y985D02*
X8Y985D01*
X48Y985D02*
X54Y985D01*
X95Y985D02*
X101Y985D01*
X1860Y985D02*
X1864Y985D01*
X1899Y985D02*
X1902Y985D01*
X1929Y985D02*
X1932Y985D01*
X1951Y985D02*
X1954Y985D01*
X1981Y985D02*
X2001Y985D01*
X2019Y985D02*
X2022Y985D01*
X2041Y985D02*
X2044Y985D01*
X2052Y985D02*
X2061Y985D01*
X2071Y985D02*
X2074Y985D01*
X2081Y985D02*
X2085Y985D01*
X2088Y985D02*
X2091Y985D01*
X2105Y985D02*
X2109Y985D01*
X2116Y985D02*
X2120Y985D01*
X2140Y985D02*
X2143Y985D01*
X2173Y985D02*
X2177Y985D01*
X2200Y985D02*
X2203Y985D01*
X2208Y985D02*
X2211Y985D01*
X2230Y985D02*
X2233Y985D01*
X2263Y985D02*
X2268Y985D01*
X2282Y985D02*
X2285Y985D01*
X2458Y985D02*
X2465Y985D01*
X1Y984D02*
X8Y984D01*
X48Y984D02*
X54Y984D01*
X95Y984D02*
X101Y984D01*
X1860Y984D02*
X1864Y984D01*
X1899Y984D02*
X1902Y984D01*
X1929Y984D02*
X1932Y984D01*
X1951Y984D02*
X1954Y984D01*
X1981Y984D02*
X1984Y984D01*
X1997Y984D02*
X2001Y984D01*
X2019Y984D02*
X2022Y984D01*
X2041Y984D02*
X2044Y984D01*
X2057Y984D02*
X2061Y984D01*
X2071Y984D02*
X2074Y984D01*
X2082Y984D02*
X2085Y984D01*
X2088Y984D02*
X2091Y984D01*
X2105Y984D02*
X2109Y984D01*
X2115Y984D02*
X2119Y984D01*
X2140Y984D02*
X2143Y984D01*
X2174Y984D02*
X2178Y984D01*
X2200Y984D02*
X2203Y984D01*
X2208Y984D02*
X2211Y984D01*
X2230Y984D02*
X2233Y984D01*
X2264Y984D02*
X2268Y984D01*
X2282Y984D02*
X2285Y984D01*
X2458Y984D02*
X2465Y984D01*
X1Y983D02*
X8Y983D01*
X48Y983D02*
X54Y983D01*
X95Y983D02*
X101Y983D01*
X1860Y983D02*
X1864Y983D01*
X1899Y983D02*
X1902Y983D01*
X1929Y983D02*
X1932Y983D01*
X1951Y983D02*
X1954Y983D01*
X1981Y983D02*
X1984Y983D01*
X1997Y983D02*
X2001Y983D01*
X2019Y983D02*
X2022Y983D01*
X2041Y983D02*
X2044Y983D01*
X2058Y983D02*
X2061Y983D01*
X2071Y983D02*
X2074Y983D01*
X2082Y983D02*
X2086Y983D01*
X2088Y983D02*
X2091Y983D01*
X2105Y983D02*
X2109Y983D01*
X2115Y983D02*
X2119Y983D01*
X2140Y983D02*
X2143Y983D01*
X2174Y983D02*
X2179Y983D01*
X2200Y983D02*
X2203Y983D01*
X2208Y983D02*
X2211Y983D01*
X2230Y983D02*
X2233Y983D01*
X2265Y983D02*
X2269Y983D01*
X2282Y983D02*
X2285Y983D01*
X2458Y983D02*
X2465Y983D01*
X1Y982D02*
X8Y982D01*
X48Y982D02*
X54Y982D01*
X95Y982D02*
X101Y982D01*
X1860Y982D02*
X1864Y982D01*
X1899Y982D02*
X1902Y982D01*
X1929Y982D02*
X1932Y982D01*
X1951Y982D02*
X1954Y982D01*
X1981Y982D02*
X1984Y982D01*
X1997Y982D02*
X2001Y982D01*
X2019Y982D02*
X2022Y982D01*
X2041Y982D02*
X2044Y982D01*
X2058Y982D02*
X2061Y982D01*
X2071Y982D02*
X2074Y982D01*
X2083Y982D02*
X2091Y982D01*
X2105Y982D02*
X2109Y982D01*
X2114Y982D02*
X2118Y982D01*
X2140Y982D02*
X2143Y982D01*
X2175Y982D02*
X2180Y982D01*
X2200Y982D02*
X2203Y982D01*
X2208Y982D02*
X2211Y982D01*
X2230Y982D02*
X2233Y982D01*
X2266Y982D02*
X2270Y982D01*
X2282Y982D02*
X2285Y982D01*
X2458Y982D02*
X2465Y982D01*
X1Y981D02*
X8Y981D01*
X48Y981D02*
X54Y981D01*
X95Y981D02*
X101Y981D01*
X1860Y981D02*
X1864Y981D01*
X1899Y981D02*
X1902Y981D01*
X1929Y981D02*
X1932Y981D01*
X1951Y981D02*
X1954Y981D01*
X1981Y981D02*
X1984Y981D01*
X1997Y981D02*
X2001Y981D01*
X2019Y981D02*
X2022Y981D01*
X2041Y981D02*
X2044Y981D01*
X2058Y981D02*
X2061Y981D01*
X2071Y981D02*
X2074Y981D01*
X2083Y981D02*
X2091Y981D01*
X2105Y981D02*
X2109Y981D01*
X2114Y981D02*
X2118Y981D01*
X2140Y981D02*
X2143Y981D01*
X2162Y981D02*
X2164Y981D01*
X2176Y981D02*
X2180Y981D01*
X2200Y981D02*
X2203Y981D01*
X2208Y981D02*
X2211Y981D01*
X2230Y981D02*
X2233Y981D01*
X2253Y981D02*
X2254Y981D01*
X2266Y981D02*
X2271Y981D01*
X2282Y981D02*
X2285Y981D01*
X2458Y981D02*
X2465Y981D01*
X1Y980D02*
X8Y980D01*
X48Y980D02*
X54Y980D01*
X95Y980D02*
X101Y980D01*
X1860Y980D02*
X1864Y980D01*
X1899Y980D02*
X1902Y980D01*
X1929Y980D02*
X1932Y980D01*
X1951Y980D02*
X1954Y980D01*
X1981Y980D02*
X1984Y980D01*
X1997Y980D02*
X2001Y980D01*
X2019Y980D02*
X2022Y980D01*
X2041Y980D02*
X2044Y980D01*
X2058Y980D02*
X2061Y980D01*
X2071Y980D02*
X2074Y980D01*
X2084Y980D02*
X2091Y980D01*
X2105Y980D02*
X2109Y980D01*
X2113Y980D02*
X2117Y980D01*
X2140Y980D02*
X2143Y980D01*
X2162Y980D02*
X2165Y980D01*
X2177Y980D02*
X2181Y980D01*
X2200Y980D02*
X2203Y980D01*
X2208Y980D02*
X2211Y980D01*
X2230Y980D02*
X2233Y980D01*
X2252Y980D02*
X2255Y980D01*
X2267Y980D02*
X2271Y980D01*
X2282Y980D02*
X2285Y980D01*
X2458Y980D02*
X2465Y980D01*
X1Y979D02*
X8Y979D01*
X48Y979D02*
X54Y979D01*
X95Y979D02*
X101Y979D01*
X1860Y979D02*
X1864Y979D01*
X1899Y979D02*
X1902Y979D01*
X1929Y979D02*
X1932Y979D01*
X1951Y979D02*
X1954Y979D01*
X1981Y979D02*
X1984Y979D01*
X1997Y979D02*
X2001Y979D01*
X2019Y979D02*
X2022Y979D01*
X2041Y979D02*
X2045Y979D01*
X2057Y979D02*
X2061Y979D01*
X2071Y979D02*
X2074Y979D01*
X2084Y979D02*
X2091Y979D01*
X2105Y979D02*
X2109Y979D01*
X2113Y979D02*
X2117Y979D01*
X2140Y979D02*
X2143Y979D01*
X2162Y979D02*
X2165Y979D01*
X2178Y979D02*
X2181Y979D01*
X2200Y979D02*
X2203Y979D01*
X2208Y979D02*
X2211Y979D01*
X2230Y979D02*
X2233Y979D01*
X2252Y979D02*
X2255Y979D01*
X2268Y979D02*
X2271Y979D01*
X2282Y979D02*
X2285Y979D01*
X2458Y979D02*
X2465Y979D01*
X1Y978D02*
X8Y978D01*
X48Y978D02*
X54Y978D01*
X95Y978D02*
X101Y978D01*
X1860Y978D02*
X1864Y978D01*
X1899Y978D02*
X1902Y978D01*
X1929Y978D02*
X1932Y978D01*
X1951Y978D02*
X1954Y978D01*
X1981Y978D02*
X1984Y978D01*
X1997Y978D02*
X2001Y978D01*
X2019Y978D02*
X2022Y978D01*
X2041Y978D02*
X2046Y978D01*
X2056Y978D02*
X2060Y978D01*
X2071Y978D02*
X2074Y978D01*
X2084Y978D02*
X2091Y978D01*
X2105Y978D02*
X2109Y978D01*
X2112Y978D02*
X2116Y978D01*
X2140Y978D02*
X2143Y978D01*
X2162Y978D02*
X2166Y978D01*
X2178Y978D02*
X2181Y978D01*
X2200Y978D02*
X2203Y978D01*
X2208Y978D02*
X2211Y978D01*
X2230Y978D02*
X2233Y978D01*
X2252Y978D02*
X2256Y978D01*
X2268Y978D02*
X2272Y978D01*
X2282Y978D02*
X2285Y978D01*
X2458Y978D02*
X2465Y978D01*
X1Y977D02*
X8Y977D01*
X48Y977D02*
X54Y977D01*
X95Y977D02*
X101Y977D01*
X1860Y977D02*
X1880Y977D01*
X1899Y977D02*
X1902Y977D01*
X1929Y977D02*
X1932Y977D01*
X1951Y977D02*
X1970Y977D01*
X1981Y977D02*
X2001Y977D01*
X2019Y977D02*
X2022Y977D01*
X2042Y977D02*
X2060Y977D01*
X2071Y977D02*
X2074Y977D01*
X2085Y977D02*
X2091Y977D01*
X2102Y977D02*
X2116Y977D01*
X2140Y977D02*
X2143Y977D01*
X2162Y977D02*
X2181Y977D01*
X2192Y977D02*
X2211Y977D01*
X2230Y977D02*
X2233Y977D01*
X2252Y977D02*
X2271Y977D01*
X2282Y977D02*
X2301Y977D01*
X2458Y977D02*
X2465Y977D01*
X1Y976D02*
X8Y976D01*
X48Y976D02*
X54Y976D01*
X95Y976D02*
X101Y976D01*
X1860Y976D02*
X1880Y976D01*
X1899Y976D02*
X1902Y976D01*
X1929Y976D02*
X1932Y976D01*
X1951Y976D02*
X1970Y976D01*
X1981Y976D02*
X2001Y976D01*
X2019Y976D02*
X2022Y976D01*
X2043Y976D02*
X2059Y976D01*
X2071Y976D02*
X2074Y976D01*
X2085Y976D02*
X2091Y976D01*
X2101Y976D02*
X2115Y976D01*
X2140Y976D02*
X2143Y976D01*
X2163Y976D02*
X2180Y976D01*
X2192Y976D02*
X2211Y976D01*
X2230Y976D02*
X2233Y976D01*
X2253Y976D02*
X2271Y976D01*
X2282Y976D02*
X2302Y976D01*
X2458Y976D02*
X2465Y976D01*
X1Y975D02*
X8Y975D01*
X48Y975D02*
X54Y975D01*
X95Y975D02*
X101Y975D01*
X1860Y975D02*
X1880Y975D01*
X1899Y975D02*
X1902Y975D01*
X1929Y975D02*
X1932Y975D01*
X1951Y975D02*
X1970Y975D01*
X1981Y975D02*
X2000Y975D01*
X2019Y975D02*
X2022Y975D01*
X2044Y975D02*
X2058Y975D01*
X2071Y975D02*
X2074Y975D01*
X2086Y975D02*
X2091Y975D01*
X2101Y975D02*
X2114Y975D01*
X2140Y975D02*
X2143Y975D01*
X2164Y975D02*
X2180Y975D01*
X2192Y975D02*
X2211Y975D01*
X2230Y975D02*
X2233Y975D01*
X2254Y975D02*
X2270Y975D01*
X2282Y975D02*
X2302Y975D01*
X2458Y975D02*
X2465Y975D01*
X1Y974D02*
X8Y974D01*
X48Y974D02*
X54Y974D01*
X95Y974D02*
X101Y974D01*
X1860Y974D02*
X1879Y974D01*
X1900Y974D02*
X1901Y974D01*
X1930Y974D02*
X1931Y974D01*
X1951Y974D02*
X1969Y974D01*
X1982Y974D02*
X1999Y974D01*
X2020Y974D02*
X2021Y974D01*
X2045Y974D02*
X2056Y974D01*
X2072Y974D02*
X2073Y974D01*
X2086Y974D02*
X2091Y974D01*
X2102Y974D02*
X2112Y974D01*
X2141Y974D02*
X2142Y974D01*
X2165Y974D02*
X2178Y974D01*
X2193Y974D02*
X2210Y974D01*
X2231Y974D02*
X2232Y974D01*
X2256Y974D02*
X2268Y974D01*
X2282Y974D02*
X2301Y974D01*
X2458Y974D02*
X2465Y974D01*
X1Y973D02*
X8Y973D01*
X48Y973D02*
X54Y973D01*
X95Y973D02*
X101Y973D01*
X2458Y973D02*
X2465Y973D01*
X1Y972D02*
X8Y972D01*
X48Y972D02*
X54Y972D01*
X95Y972D02*
X101Y972D01*
X2458Y972D02*
X2465Y972D01*
X1Y971D02*
X8Y971D01*
X48Y971D02*
X54Y971D01*
X95Y971D02*
X101Y971D01*
X2458Y971D02*
X2465Y971D01*
X1Y970D02*
X8Y970D01*
X48Y970D02*
X54Y970D01*
X95Y970D02*
X101Y970D01*
X2458Y970D02*
X2465Y970D01*
X1Y969D02*
X8Y969D01*
X49Y969D02*
X53Y969D01*
X96Y969D02*
X100Y969D01*
X2458Y969D02*
X2465Y969D01*
X1Y968D02*
X8Y968D01*
X50Y968D02*
X52Y968D01*
X97Y968D02*
X99Y968D01*
X2312Y968D02*
X2321Y968D01*
X2458Y968D02*
X2465Y968D01*
X1Y967D02*
X8Y967D01*
X2311Y967D02*
X2322Y967D01*
X2458Y967D02*
X2465Y967D01*
X1Y966D02*
X8Y966D01*
X2310Y966D02*
X2322Y966D01*
X2458Y966D02*
X2465Y966D01*
X1Y965D02*
X8Y965D01*
X2309Y965D02*
X2321Y965D01*
X2458Y965D02*
X2465Y965D01*
X1Y964D02*
X8Y964D01*
X2308Y964D02*
X2313Y964D01*
X2458Y964D02*
X2465Y964D01*
X1Y963D02*
X8Y963D01*
X2307Y963D02*
X2312Y963D01*
X2458Y963D02*
X2465Y963D01*
X1Y962D02*
X8Y962D01*
X2307Y962D02*
X2311Y962D01*
X2458Y962D02*
X2465Y962D01*
X1Y961D02*
X8Y961D01*
X2306Y961D02*
X2310Y961D01*
X2458Y961D02*
X2465Y961D01*
X1Y960D02*
X8Y960D01*
X2305Y960D02*
X2309Y960D01*
X2458Y960D02*
X2465Y960D01*
X1Y959D02*
X8Y959D01*
X2304Y959D02*
X2309Y959D01*
X2333Y959D02*
X2335Y959D01*
X2341Y959D02*
X2349Y959D01*
X2368Y959D02*
X2377Y959D01*
X2398Y959D02*
X2408Y959D01*
X2423Y959D02*
X2425Y959D01*
X2432Y959D02*
X2439Y959D01*
X2458Y959D02*
X2465Y959D01*
X1Y958D02*
X8Y958D01*
X2304Y958D02*
X2308Y958D01*
X2333Y958D02*
X2336Y958D01*
X2340Y958D02*
X2350Y958D01*
X2366Y958D02*
X2379Y958D01*
X2396Y958D02*
X2409Y958D01*
X2423Y958D02*
X2426Y958D01*
X2430Y958D02*
X2440Y958D01*
X2458Y958D02*
X2465Y958D01*
X1Y957D02*
X8Y957D01*
X2303Y957D02*
X2307Y957D01*
X2333Y957D02*
X2336Y957D01*
X2339Y957D02*
X2351Y957D01*
X2365Y957D02*
X2380Y957D01*
X2395Y957D02*
X2410Y957D01*
X2423Y957D02*
X2426Y957D01*
X2428Y957D02*
X2441Y957D01*
X2458Y957D02*
X2465Y957D01*
X1Y956D02*
X8Y956D01*
X2303Y956D02*
X2306Y956D01*
X2333Y956D02*
X2336Y956D01*
X2338Y956D02*
X2352Y956D01*
X2364Y956D02*
X2381Y956D01*
X2394Y956D02*
X2411Y956D01*
X2423Y956D02*
X2441Y956D01*
X2458Y956D02*
X2465Y956D01*
X1Y955D02*
X8Y955D01*
X2303Y955D02*
X2306Y955D01*
X2333Y955D02*
X2342Y955D01*
X2348Y955D02*
X2352Y955D01*
X2363Y955D02*
X2368Y955D01*
X2377Y955D02*
X2382Y955D01*
X2394Y955D02*
X2398Y955D01*
X2407Y955D02*
X2412Y955D01*
X2423Y955D02*
X2432Y955D01*
X2438Y955D02*
X2442Y955D01*
X2458Y955D02*
X2465Y955D01*
X1Y954D02*
X8Y954D01*
X2302Y954D02*
X2306Y954D01*
X2333Y954D02*
X2341Y954D01*
X2349Y954D02*
X2352Y954D01*
X2363Y954D02*
X2367Y954D01*
X2378Y954D02*
X2382Y954D01*
X2393Y954D02*
X2397Y954D01*
X2408Y954D02*
X2412Y954D01*
X2423Y954D02*
X2431Y954D01*
X2439Y954D02*
X2442Y954D01*
X2458Y954D02*
X2465Y954D01*
X1Y953D02*
X8Y953D01*
X2302Y953D02*
X2306Y953D01*
X2333Y953D02*
X2340Y953D01*
X2349Y953D02*
X2352Y953D01*
X2363Y953D02*
X2366Y953D01*
X2379Y953D02*
X2382Y953D01*
X2393Y953D02*
X2396Y953D01*
X2409Y953D02*
X2412Y953D01*
X2423Y953D02*
X2429Y953D01*
X2439Y953D02*
X2442Y953D01*
X2458Y953D02*
X2465Y953D01*
X1Y952D02*
X8Y952D01*
X36Y952D02*
X36Y952D01*
X77Y952D02*
X83Y952D01*
X2302Y952D02*
X2306Y952D01*
X2333Y952D02*
X2339Y952D01*
X2349Y952D02*
X2352Y952D01*
X2363Y952D02*
X2366Y952D01*
X2379Y952D02*
X2382Y952D01*
X2393Y952D02*
X2396Y952D01*
X2409Y952D02*
X2412Y952D01*
X2423Y952D02*
X2427Y952D01*
X2439Y952D02*
X2442Y952D01*
X2458Y952D02*
X2465Y952D01*
X1Y951D02*
X8Y951D01*
X34Y951D02*
X38Y951D01*
X75Y951D02*
X85Y951D01*
X2302Y951D02*
X2306Y951D01*
X2333Y951D02*
X2337Y951D01*
X2350Y951D02*
X2352Y951D01*
X2363Y951D02*
X2366Y951D01*
X2379Y951D02*
X2382Y951D01*
X2393Y951D02*
X2396Y951D01*
X2409Y951D02*
X2413Y951D01*
X2423Y951D02*
X2426Y951D01*
X2439Y951D02*
X2442Y951D01*
X2458Y951D02*
X2465Y951D01*
X1Y950D02*
X8Y950D01*
X33Y950D02*
X39Y950D01*
X72Y950D02*
X86Y950D01*
X2302Y950D02*
X2306Y950D01*
X2313Y950D02*
X2322Y950D01*
X2333Y950D02*
X2336Y950D01*
X2363Y950D02*
X2366Y950D01*
X2379Y950D02*
X2382Y950D01*
X2393Y950D02*
X2396Y950D01*
X2409Y950D02*
X2413Y950D01*
X2423Y950D02*
X2426Y950D01*
X2439Y950D02*
X2442Y950D01*
X2458Y950D02*
X2465Y950D01*
X1Y949D02*
X8Y949D01*
X33Y949D02*
X39Y949D01*
X70Y949D02*
X86Y949D01*
X2302Y949D02*
X2306Y949D01*
X2313Y949D02*
X2322Y949D01*
X2333Y949D02*
X2336Y949D01*
X2363Y949D02*
X2382Y949D01*
X2393Y949D02*
X2413Y949D01*
X2423Y949D02*
X2426Y949D01*
X2439Y949D02*
X2442Y949D01*
X2458Y949D02*
X2465Y949D01*
X1Y948D02*
X8Y948D01*
X33Y948D02*
X39Y948D01*
X68Y948D02*
X86Y948D01*
X2302Y948D02*
X2306Y948D01*
X2313Y948D02*
X2322Y948D01*
X2333Y948D02*
X2336Y948D01*
X2363Y948D02*
X2382Y948D01*
X2393Y948D02*
X2413Y948D01*
X2423Y948D02*
X2426Y948D01*
X2439Y948D02*
X2442Y948D01*
X2458Y948D02*
X2465Y948D01*
X1Y947D02*
X8Y947D01*
X33Y947D02*
X39Y947D01*
X66Y947D02*
X86Y947D01*
X2302Y947D02*
X2306Y947D01*
X2314Y947D02*
X2322Y947D01*
X2333Y947D02*
X2336Y947D01*
X2363Y947D02*
X2382Y947D01*
X2393Y947D02*
X2412Y947D01*
X2423Y947D02*
X2426Y947D01*
X2439Y947D02*
X2442Y947D01*
X2458Y947D02*
X2465Y947D01*
X1Y946D02*
X8Y946D01*
X33Y946D02*
X39Y946D01*
X63Y946D02*
X85Y946D01*
X2302Y946D02*
X2306Y946D01*
X2319Y946D02*
X2322Y946D01*
X2333Y946D02*
X2336Y946D01*
X2363Y946D02*
X2382Y946D01*
X2393Y946D02*
X2412Y946D01*
X2423Y946D02*
X2426Y946D01*
X2439Y946D02*
X2442Y946D01*
X2458Y946D02*
X2465Y946D01*
X1Y945D02*
X8Y945D01*
X33Y945D02*
X39Y945D01*
X61Y945D02*
X78Y945D01*
X2302Y945D02*
X2306Y945D01*
X2319Y945D02*
X2322Y945D01*
X2333Y945D02*
X2336Y945D01*
X2363Y945D02*
X2381Y945D01*
X2393Y945D02*
X2411Y945D01*
X2423Y945D02*
X2426Y945D01*
X2439Y945D02*
X2442Y945D01*
X2458Y945D02*
X2465Y945D01*
X1Y944D02*
X8Y944D01*
X33Y944D02*
X39Y944D01*
X59Y944D02*
X75Y944D01*
X2302Y944D02*
X2306Y944D01*
X2319Y944D02*
X2322Y944D01*
X2333Y944D02*
X2336Y944D01*
X2363Y944D02*
X2366Y944D01*
X2393Y944D02*
X2396Y944D01*
X2423Y944D02*
X2426Y944D01*
X2439Y944D02*
X2442Y944D01*
X2458Y944D02*
X2465Y944D01*
X1Y943D02*
X8Y943D01*
X33Y943D02*
X39Y943D01*
X56Y943D02*
X73Y943D01*
X2302Y943D02*
X2306Y943D01*
X2319Y943D02*
X2322Y943D01*
X2333Y943D02*
X2336Y943D01*
X2363Y943D02*
X2366Y943D01*
X2393Y943D02*
X2396Y943D01*
X2423Y943D02*
X2426Y943D01*
X2439Y943D02*
X2442Y943D01*
X2458Y943D02*
X2465Y943D01*
X1Y942D02*
X8Y942D01*
X33Y942D02*
X39Y942D01*
X54Y942D02*
X71Y942D01*
X2302Y942D02*
X2306Y942D01*
X2319Y942D02*
X2322Y942D01*
X2333Y942D02*
X2336Y942D01*
X2363Y942D02*
X2367Y942D01*
X2393Y942D02*
X2397Y942D01*
X2423Y942D02*
X2426Y942D01*
X2439Y942D02*
X2442Y942D01*
X2458Y942D02*
X2465Y942D01*
X1Y941D02*
X8Y941D01*
X33Y941D02*
X40Y941D01*
X52Y941D02*
X68Y941D01*
X2303Y941D02*
X2306Y941D01*
X2318Y941D02*
X2322Y941D01*
X2333Y941D02*
X2336Y941D01*
X2363Y941D02*
X2368Y941D01*
X2393Y941D02*
X2398Y941D01*
X2423Y941D02*
X2426Y941D01*
X2439Y941D02*
X2442Y941D01*
X2458Y941D02*
X2465Y941D01*
X1Y940D02*
X8Y940D01*
X33Y940D02*
X43Y940D01*
X51Y940D02*
X66Y940D01*
X2303Y940D02*
X2322Y940D01*
X2333Y940D02*
X2336Y940D01*
X2364Y940D02*
X2381Y940D01*
X2394Y940D02*
X2411Y940D01*
X2423Y940D02*
X2426Y940D01*
X2439Y940D02*
X2443Y940D01*
X2458Y940D02*
X2465Y940D01*
X1Y939D02*
X8Y939D01*
X33Y939D02*
X45Y939D01*
X51Y939D02*
X64Y939D01*
X2303Y939D02*
X2321Y939D01*
X2333Y939D02*
X2336Y939D01*
X2365Y939D02*
X2382Y939D01*
X2395Y939D02*
X2412Y939D01*
X2423Y939D02*
X2426Y939D01*
X2439Y939D02*
X2443Y939D01*
X2458Y939D02*
X2465Y939D01*
X1Y938D02*
X8Y938D01*
X33Y938D02*
X47Y938D01*
X51Y938D02*
X61Y938D01*
X2304Y938D02*
X2320Y938D01*
X2333Y938D02*
X2336Y938D01*
X2366Y938D02*
X2382Y938D01*
X2396Y938D02*
X2412Y938D01*
X2423Y938D02*
X2426Y938D01*
X2439Y938D02*
X2443Y938D01*
X2458Y938D02*
X2465Y938D01*
X1Y937D02*
X8Y937D01*
X34Y937D02*
X59Y937D01*
X2306Y937D02*
X2319Y937D01*
X2333Y937D02*
X2335Y937D01*
X2367Y937D02*
X2382Y937D01*
X2397Y937D02*
X2412Y937D01*
X2423Y937D02*
X2426Y937D01*
X2440Y937D02*
X2442Y937D01*
X2458Y937D02*
X2465Y937D01*
X1Y936D02*
X8Y936D01*
X35Y936D02*
X57Y936D01*
X2458Y936D02*
X2465Y936D01*
X1Y935D02*
X8Y935D01*
X37Y935D02*
X57Y935D01*
X2458Y935D02*
X2465Y935D01*
X1Y934D02*
X8Y934D01*
X40Y934D02*
X57Y934D01*
X2458Y934D02*
X2465Y934D01*
X1Y933D02*
X8Y933D01*
X42Y933D02*
X59Y933D01*
X2458Y933D02*
X2465Y933D01*
X1Y932D02*
X8Y932D01*
X44Y932D02*
X61Y932D01*
X2291Y932D02*
X2419Y932D01*
X2458Y932D02*
X2465Y932D01*
X1Y931D02*
X8Y931D01*
X46Y931D02*
X63Y931D01*
X2291Y931D02*
X2419Y931D01*
X2458Y931D02*
X2465Y931D01*
X1Y930D02*
X8Y930D01*
X49Y930D02*
X65Y930D01*
X2291Y930D02*
X2293Y930D01*
X2350Y930D02*
X2360Y930D01*
X2417Y930D02*
X2419Y930D01*
X2458Y930D02*
X2465Y930D01*
X1Y929D02*
X8Y929D01*
X51Y929D02*
X68Y929D01*
X2291Y929D02*
X2292Y929D01*
X2351Y929D02*
X2359Y929D01*
X2418Y929D02*
X2419Y929D01*
X2458Y929D02*
X2465Y929D01*
X1Y928D02*
X8Y928D01*
X53Y928D02*
X70Y928D01*
X2291Y928D02*
X2292Y928D01*
X2418Y928D02*
X2419Y928D01*
X2458Y928D02*
X2465Y928D01*
X1Y927D02*
X8Y927D01*
X56Y927D02*
X72Y927D01*
X2291Y927D02*
X2292Y927D01*
X2418Y927D02*
X2419Y927D01*
X2458Y927D02*
X2465Y927D01*
X1Y926D02*
X8Y926D01*
X58Y926D02*
X74Y926D01*
X2291Y926D02*
X2292Y926D01*
X2418Y926D02*
X2419Y926D01*
X2458Y926D02*
X2465Y926D01*
X1Y925D02*
X8Y925D01*
X60Y925D02*
X77Y925D01*
X2291Y925D02*
X2292Y925D01*
X2351Y925D02*
X2352Y925D01*
X2418Y925D02*
X2419Y925D01*
X2458Y925D02*
X2465Y925D01*
X1Y924D02*
X8Y924D01*
X62Y924D02*
X85Y924D01*
X2291Y924D02*
X2292Y924D01*
X2351Y924D02*
X2352Y924D01*
X2418Y924D02*
X2419Y924D01*
X2458Y924D02*
X2465Y924D01*
X1Y923D02*
X8Y923D01*
X65Y923D02*
X86Y923D01*
X2291Y923D02*
X2292Y923D01*
X2351Y923D02*
X2352Y923D01*
X2418Y923D02*
X2419Y923D01*
X2458Y923D02*
X2465Y923D01*
X1Y922D02*
X8Y922D01*
X67Y922D02*
X86Y922D01*
X2291Y922D02*
X2292Y922D01*
X2351Y922D02*
X2352Y922D01*
X2418Y922D02*
X2419Y922D01*
X2458Y922D02*
X2465Y922D01*
X1Y921D02*
X8Y921D01*
X69Y921D02*
X86Y921D01*
X2291Y921D02*
X2292Y921D01*
X2351Y921D02*
X2352Y921D01*
X2418Y921D02*
X2419Y921D01*
X2458Y921D02*
X2465Y921D01*
X1Y920D02*
X8Y920D01*
X72Y920D02*
X86Y920D01*
X2291Y920D02*
X2292Y920D01*
X2351Y920D02*
X2352Y920D01*
X2418Y920D02*
X2419Y920D01*
X2458Y920D02*
X2465Y920D01*
X1Y919D02*
X8Y919D01*
X74Y919D02*
X86Y919D01*
X2291Y919D02*
X2292Y919D01*
X2351Y919D02*
X2352Y919D01*
X2418Y919D02*
X2419Y919D01*
X2458Y919D02*
X2465Y919D01*
X1Y918D02*
X8Y918D01*
X76Y918D02*
X84Y918D01*
X2291Y918D02*
X2292Y918D01*
X2351Y918D02*
X2352Y918D01*
X2418Y918D02*
X2419Y918D01*
X2458Y918D02*
X2465Y918D01*
X1Y917D02*
X8Y917D01*
X2291Y917D02*
X2292Y917D01*
X2351Y917D02*
X2352Y917D01*
X2418Y917D02*
X2419Y917D01*
X2458Y917D02*
X2465Y917D01*
X1Y916D02*
X8Y916D01*
X2291Y916D02*
X2292Y916D01*
X2351Y916D02*
X2352Y916D01*
X2418Y916D02*
X2419Y916D01*
X2458Y916D02*
X2465Y916D01*
X1Y915D02*
X8Y915D01*
X2291Y915D02*
X2292Y915D01*
X2351Y915D02*
X2352Y915D01*
X2418Y915D02*
X2419Y915D01*
X2458Y915D02*
X2465Y915D01*
X1Y914D02*
X8Y914D01*
X2291Y914D02*
X2292Y914D01*
X2351Y914D02*
X2352Y914D01*
X2418Y914D02*
X2419Y914D01*
X2458Y914D02*
X2465Y914D01*
X1Y913D02*
X8Y913D01*
X2291Y913D02*
X2292Y913D01*
X2351Y913D02*
X2352Y913D01*
X2418Y913D02*
X2419Y913D01*
X2458Y913D02*
X2465Y913D01*
X1Y912D02*
X8Y912D01*
X2291Y912D02*
X2292Y912D01*
X2351Y912D02*
X2352Y912D01*
X2418Y912D02*
X2419Y912D01*
X2458Y912D02*
X2465Y912D01*
X1Y911D02*
X8Y911D01*
X2291Y911D02*
X2292Y911D01*
X2351Y911D02*
X2352Y911D01*
X2418Y911D02*
X2419Y911D01*
X2458Y911D02*
X2465Y911D01*
X1Y910D02*
X8Y910D01*
X2291Y910D02*
X2292Y910D01*
X2351Y910D02*
X2352Y910D01*
X2418Y910D02*
X2419Y910D01*
X2458Y910D02*
X2465Y910D01*
X1Y909D02*
X8Y909D01*
X2291Y909D02*
X2292Y909D01*
X2351Y909D02*
X2352Y909D01*
X2418Y909D02*
X2419Y909D01*
X2458Y909D02*
X2465Y909D01*
X1Y908D02*
X8Y908D01*
X2291Y908D02*
X2292Y908D01*
X2351Y908D02*
X2352Y908D01*
X2418Y908D02*
X2419Y908D01*
X2458Y908D02*
X2465Y908D01*
X1Y907D02*
X8Y907D01*
X2291Y907D02*
X2292Y907D01*
X2351Y907D02*
X2352Y907D01*
X2418Y907D02*
X2419Y907D01*
X2458Y907D02*
X2465Y907D01*
X1Y906D02*
X8Y906D01*
X2291Y906D02*
X2292Y906D01*
X2351Y906D02*
X2352Y906D01*
X2418Y906D02*
X2419Y906D01*
X2458Y906D02*
X2465Y906D01*
X1Y905D02*
X8Y905D01*
X2291Y905D02*
X2292Y905D01*
X2351Y905D02*
X2352Y905D01*
X2418Y905D02*
X2419Y905D01*
X2458Y905D02*
X2465Y905D01*
X1Y904D02*
X8Y904D01*
X2291Y904D02*
X2292Y904D01*
X2351Y904D02*
X2352Y904D01*
X2418Y904D02*
X2419Y904D01*
X2458Y904D02*
X2465Y904D01*
X1Y903D02*
X8Y903D01*
X2291Y903D02*
X2292Y903D01*
X2351Y903D02*
X2352Y903D01*
X2418Y903D02*
X2419Y903D01*
X2458Y903D02*
X2465Y903D01*
X1Y902D02*
X8Y902D01*
X2291Y902D02*
X2292Y902D01*
X2351Y902D02*
X2352Y902D01*
X2418Y902D02*
X2419Y902D01*
X2458Y902D02*
X2465Y902D01*
X1Y901D02*
X8Y901D01*
X49Y901D02*
X100Y901D01*
X2291Y901D02*
X2292Y901D01*
X2351Y901D02*
X2352Y901D01*
X2418Y901D02*
X2419Y901D01*
X2458Y901D02*
X2465Y901D01*
X1Y900D02*
X8Y900D01*
X48Y900D02*
X101Y900D01*
X2291Y900D02*
X2292Y900D01*
X2351Y900D02*
X2352Y900D01*
X2418Y900D02*
X2419Y900D01*
X2458Y900D02*
X2465Y900D01*
X1Y899D02*
X8Y899D01*
X48Y899D02*
X101Y899D01*
X2291Y899D02*
X2292Y899D01*
X2351Y899D02*
X2352Y899D01*
X2418Y899D02*
X2419Y899D01*
X2458Y899D02*
X2465Y899D01*
X1Y898D02*
X8Y898D01*
X48Y898D02*
X101Y898D01*
X2291Y898D02*
X2292Y898D01*
X2351Y898D02*
X2352Y898D01*
X2418Y898D02*
X2419Y898D01*
X2458Y898D02*
X2465Y898D01*
X1Y897D02*
X8Y897D01*
X48Y897D02*
X101Y897D01*
X2291Y897D02*
X2292Y897D01*
X2351Y897D02*
X2352Y897D01*
X2418Y897D02*
X2419Y897D01*
X2458Y897D02*
X2465Y897D01*
X1Y896D02*
X8Y896D01*
X49Y896D02*
X100Y896D01*
X2291Y896D02*
X2292Y896D01*
X2351Y896D02*
X2352Y896D01*
X2418Y896D02*
X2419Y896D01*
X2458Y896D02*
X2465Y896D01*
X1Y895D02*
X8Y895D01*
X51Y895D02*
X98Y895D01*
X2291Y895D02*
X2292Y895D01*
X2351Y895D02*
X2352Y895D01*
X2418Y895D02*
X2419Y895D01*
X2458Y895D02*
X2465Y895D01*
X1Y894D02*
X8Y894D01*
X52Y894D02*
X60Y894D01*
X74Y894D02*
X83Y894D01*
X2291Y894D02*
X2292Y894D01*
X2351Y894D02*
X2352Y894D01*
X2418Y894D02*
X2419Y894D01*
X2458Y894D02*
X2465Y894D01*
X1Y893D02*
X8Y893D01*
X51Y893D02*
X59Y893D01*
X75Y893D02*
X83Y893D01*
X2291Y893D02*
X2292Y893D01*
X2351Y893D02*
X2352Y893D01*
X2418Y893D02*
X2419Y893D01*
X2458Y893D02*
X2465Y893D01*
X1Y892D02*
X8Y892D01*
X50Y892D02*
X58Y892D01*
X76Y892D02*
X84Y892D01*
X2291Y892D02*
X2292Y892D01*
X2351Y892D02*
X2352Y892D01*
X2418Y892D02*
X2419Y892D01*
X2458Y892D02*
X2465Y892D01*
X1Y891D02*
X8Y891D01*
X49Y891D02*
X58Y891D01*
X77Y891D02*
X85Y891D01*
X2291Y891D02*
X2292Y891D01*
X2351Y891D02*
X2352Y891D01*
X2418Y891D02*
X2419Y891D01*
X2458Y891D02*
X2465Y891D01*
X1Y890D02*
X8Y890D01*
X49Y890D02*
X57Y890D01*
X78Y890D02*
X85Y890D01*
X2291Y890D02*
X2292Y890D01*
X2351Y890D02*
X2352Y890D01*
X2418Y890D02*
X2419Y890D01*
X2458Y890D02*
X2465Y890D01*
X1Y889D02*
X8Y889D01*
X49Y889D02*
X56Y889D01*
X78Y889D02*
X86Y889D01*
X2291Y889D02*
X2292Y889D01*
X2351Y889D02*
X2352Y889D01*
X2418Y889D02*
X2419Y889D01*
X2458Y889D02*
X2465Y889D01*
X1Y888D02*
X8Y888D01*
X48Y888D02*
X55Y888D01*
X79Y888D02*
X86Y888D01*
X2291Y888D02*
X2292Y888D01*
X2351Y888D02*
X2352Y888D01*
X2418Y888D02*
X2419Y888D01*
X2458Y888D02*
X2465Y888D01*
X1Y887D02*
X8Y887D01*
X48Y887D02*
X54Y887D01*
X80Y887D02*
X86Y887D01*
X2291Y887D02*
X2292Y887D01*
X2351Y887D02*
X2352Y887D01*
X2418Y887D02*
X2419Y887D01*
X2458Y887D02*
X2465Y887D01*
X1Y886D02*
X8Y886D01*
X48Y886D02*
X54Y886D01*
X80Y886D02*
X86Y886D01*
X2291Y886D02*
X2292Y886D01*
X2351Y886D02*
X2352Y886D01*
X2418Y886D02*
X2419Y886D01*
X2458Y886D02*
X2465Y886D01*
X1Y885D02*
X8Y885D01*
X48Y885D02*
X54Y885D01*
X80Y885D02*
X86Y885D01*
X2291Y885D02*
X2292Y885D01*
X2351Y885D02*
X2352Y885D01*
X2418Y885D02*
X2419Y885D01*
X2458Y885D02*
X2465Y885D01*
X1Y884D02*
X8Y884D01*
X48Y884D02*
X54Y884D01*
X80Y884D02*
X86Y884D01*
X2291Y884D02*
X2292Y884D01*
X2351Y884D02*
X2352Y884D01*
X2418Y884D02*
X2419Y884D01*
X2458Y884D02*
X2465Y884D01*
X1Y883D02*
X8Y883D01*
X48Y883D02*
X54Y883D01*
X80Y883D02*
X86Y883D01*
X2291Y883D02*
X2292Y883D01*
X2351Y883D02*
X2352Y883D01*
X2418Y883D02*
X2419Y883D01*
X2458Y883D02*
X2465Y883D01*
X1Y882D02*
X8Y882D01*
X48Y882D02*
X54Y882D01*
X80Y882D02*
X86Y882D01*
X2291Y882D02*
X2292Y882D01*
X2351Y882D02*
X2352Y882D01*
X2418Y882D02*
X2419Y882D01*
X2458Y882D02*
X2465Y882D01*
X1Y881D02*
X8Y881D01*
X48Y881D02*
X54Y881D01*
X80Y881D02*
X86Y881D01*
X2291Y881D02*
X2292Y881D01*
X2418Y881D02*
X2419Y881D01*
X2458Y881D02*
X2465Y881D01*
X1Y880D02*
X8Y880D01*
X48Y880D02*
X54Y880D01*
X80Y880D02*
X86Y880D01*
X2291Y880D02*
X2292Y880D01*
X2418Y880D02*
X2419Y880D01*
X2458Y880D02*
X2465Y880D01*
X1Y879D02*
X8Y879D01*
X48Y879D02*
X54Y879D01*
X80Y879D02*
X86Y879D01*
X2291Y879D02*
X2292Y879D01*
X2418Y879D02*
X2419Y879D01*
X2458Y879D02*
X2465Y879D01*
X1Y878D02*
X8Y878D01*
X48Y878D02*
X55Y878D01*
X79Y878D02*
X86Y878D01*
X2291Y878D02*
X2292Y878D01*
X2418Y878D02*
X2419Y878D01*
X2458Y878D02*
X2465Y878D01*
X1Y877D02*
X8Y877D01*
X48Y877D02*
X56Y877D01*
X79Y877D02*
X86Y877D01*
X2291Y877D02*
X2293Y877D01*
X2350Y877D02*
X2359Y877D01*
X2417Y877D02*
X2419Y877D01*
X2458Y877D02*
X2465Y877D01*
X1Y876D02*
X8Y876D01*
X49Y876D02*
X56Y876D01*
X78Y876D02*
X85Y876D01*
X2291Y876D02*
X2419Y876D01*
X2458Y876D02*
X2465Y876D01*
X1Y875D02*
X8Y875D01*
X49Y875D02*
X58Y875D01*
X77Y875D02*
X85Y875D01*
X2291Y875D02*
X2419Y875D01*
X2458Y875D02*
X2465Y875D01*
X1Y874D02*
X8Y874D01*
X50Y874D02*
X84Y874D01*
X2291Y874D02*
X2419Y874D01*
X2458Y874D02*
X2465Y874D01*
X1Y873D02*
X8Y873D01*
X51Y873D02*
X83Y873D01*
X2458Y873D02*
X2465Y873D01*
X1Y872D02*
X8Y872D01*
X52Y872D02*
X82Y872D01*
X2458Y872D02*
X2465Y872D01*
X1Y871D02*
X8Y871D01*
X53Y871D02*
X82Y871D01*
X2458Y871D02*
X2465Y871D01*
X1Y870D02*
X8Y870D01*
X54Y870D02*
X81Y870D01*
X2458Y870D02*
X2465Y870D01*
X1Y869D02*
X8Y869D01*
X55Y869D02*
X79Y869D01*
X2458Y869D02*
X2465Y869D01*
X1Y868D02*
X8Y868D01*
X57Y868D02*
X77Y868D01*
X2458Y868D02*
X2465Y868D01*
X1Y867D02*
X8Y867D01*
X2458Y867D02*
X2465Y867D01*
X1Y866D02*
X8Y866D01*
X2458Y866D02*
X2465Y866D01*
X1Y865D02*
X8Y865D01*
X2458Y865D02*
X2465Y865D01*
X1Y864D02*
X8Y864D01*
X2458Y864D02*
X2465Y864D01*
X1Y863D02*
X8Y863D01*
X2458Y863D02*
X2465Y863D01*
X1Y862D02*
X8Y862D01*
X2458Y862D02*
X2465Y862D01*
X1Y861D02*
X8Y861D01*
X2458Y861D02*
X2465Y861D01*
X1Y860D02*
X8Y860D01*
X2260Y860D02*
X2271Y860D01*
X2458Y860D02*
X2465Y860D01*
X1Y859D02*
X8Y859D01*
X2258Y859D02*
X2273Y859D01*
X2458Y859D02*
X2465Y859D01*
X1Y858D02*
X8Y858D01*
X2256Y858D02*
X2275Y858D01*
X2458Y858D02*
X2465Y858D01*
X1Y857D02*
X8Y857D01*
X2255Y857D02*
X2276Y857D01*
X2458Y857D02*
X2465Y857D01*
X1Y856D02*
X8Y856D01*
X2254Y856D02*
X2261Y856D01*
X2270Y856D02*
X2277Y856D01*
X2288Y856D02*
X2416Y856D01*
X2458Y856D02*
X2465Y856D01*
X1Y855D02*
X8Y855D01*
X2252Y855D02*
X2258Y855D01*
X2273Y855D02*
X2279Y855D01*
X2287Y855D02*
X2416Y855D01*
X2458Y855D02*
X2465Y855D01*
X1Y854D02*
X8Y854D01*
X2251Y854D02*
X2257Y854D01*
X2274Y854D02*
X2280Y854D01*
X2287Y854D02*
X2416Y854D01*
X2458Y854D02*
X2465Y854D01*
X1Y853D02*
X8Y853D01*
X2250Y853D02*
X2256Y853D01*
X2275Y853D02*
X2281Y853D01*
X2287Y853D02*
X2289Y853D01*
X2347Y853D02*
X2356Y853D01*
X2414Y853D02*
X2416Y853D01*
X2458Y853D02*
X2465Y853D01*
X1Y852D02*
X8Y852D01*
X2250Y852D02*
X2254Y852D01*
X2277Y852D02*
X2281Y852D01*
X2287Y852D02*
X2289Y852D01*
X2414Y852D02*
X2416Y852D01*
X2458Y852D02*
X2465Y852D01*
X1Y851D02*
X8Y851D01*
X57Y851D02*
X77Y851D01*
X2250Y851D02*
X2253Y851D01*
X2278Y851D02*
X2281Y851D01*
X2287Y851D02*
X2289Y851D01*
X2414Y851D02*
X2416Y851D01*
X2458Y851D02*
X2465Y851D01*
X1Y850D02*
X8Y850D01*
X55Y850D02*
X79Y850D01*
X2251Y850D02*
X2251Y850D01*
X2280Y850D02*
X2280Y850D01*
X2287Y850D02*
X2289Y850D01*
X2414Y850D02*
X2416Y850D01*
X2458Y850D02*
X2465Y850D01*
X1Y849D02*
X8Y849D01*
X53Y849D02*
X81Y849D01*
X2287Y849D02*
X2289Y849D01*
X2414Y849D02*
X2416Y849D01*
X2458Y849D02*
X2465Y849D01*
X1Y848D02*
X8Y848D01*
X52Y848D02*
X82Y848D01*
X2287Y848D02*
X2289Y848D01*
X2354Y848D02*
X2356Y848D01*
X2414Y848D02*
X2416Y848D01*
X2458Y848D02*
X2465Y848D01*
X1Y847D02*
X8Y847D01*
X52Y847D02*
X83Y847D01*
X2287Y847D02*
X2289Y847D01*
X2354Y847D02*
X2356Y847D01*
X2414Y847D02*
X2416Y847D01*
X2458Y847D02*
X2465Y847D01*
X1Y846D02*
X8Y846D01*
X51Y846D02*
X83Y846D01*
X2287Y846D02*
X2289Y846D01*
X2354Y846D02*
X2356Y846D01*
X2414Y846D02*
X2416Y846D01*
X2458Y846D02*
X2465Y846D01*
X1Y845D02*
X8Y845D01*
X50Y845D02*
X84Y845D01*
X2287Y845D02*
X2289Y845D01*
X2354Y845D02*
X2356Y845D01*
X2414Y845D02*
X2416Y845D01*
X2458Y845D02*
X2465Y845D01*
X1Y844D02*
X8Y844D01*
X49Y844D02*
X57Y844D01*
X63Y844D02*
X69Y844D01*
X77Y844D02*
X85Y844D01*
X2287Y844D02*
X2289Y844D01*
X2354Y844D02*
X2356Y844D01*
X2414Y844D02*
X2416Y844D01*
X2458Y844D02*
X2465Y844D01*
X1Y843D02*
X8Y843D01*
X49Y843D02*
X56Y843D01*
X63Y843D02*
X69Y843D01*
X78Y843D02*
X85Y843D01*
X2287Y843D02*
X2289Y843D01*
X2354Y843D02*
X2356Y843D01*
X2414Y843D02*
X2416Y843D01*
X2458Y843D02*
X2465Y843D01*
X1Y842D02*
X8Y842D01*
X48Y842D02*
X55Y842D01*
X63Y842D02*
X69Y842D01*
X79Y842D02*
X86Y842D01*
X2287Y842D02*
X2289Y842D01*
X2354Y842D02*
X2356Y842D01*
X2414Y842D02*
X2416Y842D01*
X2458Y842D02*
X2465Y842D01*
X1Y841D02*
X8Y841D01*
X48Y841D02*
X55Y841D01*
X63Y841D02*
X69Y841D01*
X80Y841D02*
X86Y841D01*
X2287Y841D02*
X2289Y841D01*
X2354Y841D02*
X2356Y841D01*
X2414Y841D02*
X2416Y841D01*
X2458Y841D02*
X2465Y841D01*
X1Y840D02*
X8Y840D01*
X48Y840D02*
X54Y840D01*
X63Y840D02*
X69Y840D01*
X80Y840D02*
X86Y840D01*
X2287Y840D02*
X2289Y840D01*
X2354Y840D02*
X2356Y840D01*
X2414Y840D02*
X2416Y840D01*
X2458Y840D02*
X2465Y840D01*
X1Y839D02*
X8Y839D01*
X48Y839D02*
X54Y839D01*
X63Y839D02*
X69Y839D01*
X80Y839D02*
X86Y839D01*
X2287Y839D02*
X2289Y839D01*
X2354Y839D02*
X2356Y839D01*
X2414Y839D02*
X2416Y839D01*
X2458Y839D02*
X2465Y839D01*
X1Y838D02*
X8Y838D01*
X48Y838D02*
X54Y838D01*
X63Y838D02*
X69Y838D01*
X80Y838D02*
X86Y838D01*
X2287Y838D02*
X2289Y838D01*
X2354Y838D02*
X2356Y838D01*
X2414Y838D02*
X2416Y838D01*
X2458Y838D02*
X2465Y838D01*
X1Y837D02*
X8Y837D01*
X48Y837D02*
X54Y837D01*
X63Y837D02*
X69Y837D01*
X80Y837D02*
X86Y837D01*
X2287Y837D02*
X2289Y837D01*
X2354Y837D02*
X2356Y837D01*
X2414Y837D02*
X2416Y837D01*
X2458Y837D02*
X2465Y837D01*
X1Y836D02*
X8Y836D01*
X48Y836D02*
X54Y836D01*
X63Y836D02*
X69Y836D01*
X80Y836D02*
X86Y836D01*
X2265Y836D02*
X2268Y836D01*
X2287Y836D02*
X2289Y836D01*
X2354Y836D02*
X2356Y836D01*
X2414Y836D02*
X2416Y836D01*
X2458Y836D02*
X2465Y836D01*
X1Y835D02*
X8Y835D01*
X48Y835D02*
X54Y835D01*
X63Y835D02*
X69Y835D01*
X80Y835D02*
X86Y835D01*
X2264Y835D02*
X2269Y835D01*
X2287Y835D02*
X2289Y835D01*
X2354Y835D02*
X2356Y835D01*
X2414Y835D02*
X2416Y835D01*
X2458Y835D02*
X2465Y835D01*
X1Y834D02*
X8Y834D01*
X48Y834D02*
X54Y834D01*
X63Y834D02*
X69Y834D01*
X80Y834D02*
X86Y834D01*
X2264Y834D02*
X2269Y834D01*
X2287Y834D02*
X2289Y834D01*
X2354Y834D02*
X2356Y834D01*
X2414Y834D02*
X2416Y834D01*
X2458Y834D02*
X2465Y834D01*
X1Y833D02*
X8Y833D01*
X48Y833D02*
X54Y833D01*
X63Y833D02*
X69Y833D01*
X80Y833D02*
X86Y833D01*
X2264Y833D02*
X2269Y833D01*
X2287Y833D02*
X2289Y833D01*
X2354Y833D02*
X2356Y833D01*
X2414Y833D02*
X2416Y833D01*
X2458Y833D02*
X2465Y833D01*
X1Y832D02*
X8Y832D01*
X48Y832D02*
X54Y832D01*
X63Y832D02*
X69Y832D01*
X80Y832D02*
X86Y832D01*
X2264Y832D02*
X2269Y832D01*
X2287Y832D02*
X2289Y832D01*
X2354Y832D02*
X2356Y832D01*
X2414Y832D02*
X2416Y832D01*
X2458Y832D02*
X2465Y832D01*
X1Y831D02*
X8Y831D01*
X48Y831D02*
X54Y831D01*
X63Y831D02*
X69Y831D01*
X80Y831D02*
X86Y831D01*
X2264Y831D02*
X2269Y831D01*
X2287Y831D02*
X2289Y831D01*
X2354Y831D02*
X2356Y831D01*
X2414Y831D02*
X2416Y831D01*
X2458Y831D02*
X2465Y831D01*
X1Y830D02*
X8Y830D01*
X48Y830D02*
X54Y830D01*
X63Y830D02*
X69Y830D01*
X80Y830D02*
X86Y830D01*
X2264Y830D02*
X2269Y830D01*
X2287Y830D02*
X2289Y830D01*
X2354Y830D02*
X2356Y830D01*
X2414Y830D02*
X2416Y830D01*
X2458Y830D02*
X2465Y830D01*
X1Y829D02*
X8Y829D01*
X48Y829D02*
X54Y829D01*
X63Y829D02*
X69Y829D01*
X80Y829D02*
X86Y829D01*
X2264Y829D02*
X2269Y829D01*
X2287Y829D02*
X2289Y829D01*
X2354Y829D02*
X2356Y829D01*
X2414Y829D02*
X2416Y829D01*
X2458Y829D02*
X2465Y829D01*
X1Y828D02*
X8Y828D01*
X48Y828D02*
X54Y828D01*
X63Y828D02*
X69Y828D01*
X80Y828D02*
X86Y828D01*
X2264Y828D02*
X2269Y828D01*
X2287Y828D02*
X2289Y828D01*
X2354Y828D02*
X2356Y828D01*
X2414Y828D02*
X2416Y828D01*
X2458Y828D02*
X2465Y828D01*
X1Y827D02*
X8Y827D01*
X48Y827D02*
X54Y827D01*
X63Y827D02*
X69Y827D01*
X79Y827D02*
X86Y827D01*
X2264Y827D02*
X2269Y827D01*
X2287Y827D02*
X2289Y827D01*
X2354Y827D02*
X2356Y827D01*
X2414Y827D02*
X2416Y827D01*
X2458Y827D02*
X2465Y827D01*
X1Y826D02*
X8Y826D01*
X48Y826D02*
X54Y826D01*
X63Y826D02*
X69Y826D01*
X78Y826D02*
X85Y826D01*
X2264Y826D02*
X2269Y826D01*
X2287Y826D02*
X2289Y826D01*
X2354Y826D02*
X2356Y826D01*
X2414Y826D02*
X2416Y826D01*
X2458Y826D02*
X2465Y826D01*
X1Y825D02*
X8Y825D01*
X48Y825D02*
X54Y825D01*
X63Y825D02*
X69Y825D01*
X77Y825D02*
X85Y825D01*
X2264Y825D02*
X2269Y825D01*
X2287Y825D02*
X2289Y825D01*
X2354Y825D02*
X2356Y825D01*
X2414Y825D02*
X2416Y825D01*
X2458Y825D02*
X2465Y825D01*
X1Y824D02*
X8Y824D01*
X48Y824D02*
X54Y824D01*
X63Y824D02*
X84Y824D01*
X2264Y824D02*
X2269Y824D01*
X2287Y824D02*
X2289Y824D01*
X2354Y824D02*
X2356Y824D01*
X2414Y824D02*
X2416Y824D01*
X2458Y824D02*
X2465Y824D01*
X1Y823D02*
X8Y823D01*
X48Y823D02*
X54Y823D01*
X63Y823D02*
X84Y823D01*
X2264Y823D02*
X2269Y823D01*
X2287Y823D02*
X2289Y823D01*
X2354Y823D02*
X2356Y823D01*
X2414Y823D02*
X2416Y823D01*
X2458Y823D02*
X2465Y823D01*
X1Y822D02*
X8Y822D01*
X48Y822D02*
X54Y822D01*
X63Y822D02*
X83Y822D01*
X2264Y822D02*
X2269Y822D01*
X2287Y822D02*
X2289Y822D01*
X2354Y822D02*
X2356Y822D01*
X2414Y822D02*
X2416Y822D01*
X2458Y822D02*
X2465Y822D01*
X1Y821D02*
X8Y821D01*
X48Y821D02*
X54Y821D01*
X63Y821D02*
X82Y821D01*
X2264Y821D02*
X2269Y821D01*
X2287Y821D02*
X2289Y821D01*
X2354Y821D02*
X2356Y821D01*
X2414Y821D02*
X2416Y821D01*
X2458Y821D02*
X2465Y821D01*
X1Y820D02*
X8Y820D01*
X48Y820D02*
X54Y820D01*
X63Y820D02*
X81Y820D01*
X2264Y820D02*
X2269Y820D01*
X2287Y820D02*
X2289Y820D01*
X2354Y820D02*
X2356Y820D01*
X2414Y820D02*
X2416Y820D01*
X2458Y820D02*
X2465Y820D01*
X1Y819D02*
X8Y819D01*
X48Y819D02*
X53Y819D01*
X63Y819D02*
X80Y819D01*
X2264Y819D02*
X2269Y819D01*
X2287Y819D02*
X2289Y819D01*
X2354Y819D02*
X2356Y819D01*
X2414Y819D02*
X2416Y819D01*
X2458Y819D02*
X2465Y819D01*
X1Y818D02*
X8Y818D01*
X49Y818D02*
X53Y818D01*
X64Y818D02*
X78Y818D01*
X2264Y818D02*
X2269Y818D01*
X2287Y818D02*
X2289Y818D01*
X2354Y818D02*
X2356Y818D01*
X2414Y818D02*
X2416Y818D01*
X2458Y818D02*
X2465Y818D01*
X1Y817D02*
X8Y817D01*
X2264Y817D02*
X2269Y817D01*
X2287Y817D02*
X2289Y817D01*
X2354Y817D02*
X2356Y817D01*
X2414Y817D02*
X2416Y817D01*
X2458Y817D02*
X2465Y817D01*
X1Y816D02*
X8Y816D01*
X2265Y816D02*
X2268Y816D01*
X2287Y816D02*
X2289Y816D01*
X2354Y816D02*
X2356Y816D01*
X2414Y816D02*
X2416Y816D01*
X2458Y816D02*
X2465Y816D01*
X1Y815D02*
X8Y815D01*
X2287Y815D02*
X2289Y815D01*
X2354Y815D02*
X2356Y815D01*
X2414Y815D02*
X2416Y815D01*
X2458Y815D02*
X2465Y815D01*
X1Y814D02*
X8Y814D01*
X2287Y814D02*
X2289Y814D01*
X2354Y814D02*
X2356Y814D01*
X2414Y814D02*
X2416Y814D01*
X2458Y814D02*
X2465Y814D01*
X1Y813D02*
X8Y813D01*
X2287Y813D02*
X2289Y813D01*
X2354Y813D02*
X2356Y813D01*
X2414Y813D02*
X2416Y813D01*
X2458Y813D02*
X2465Y813D01*
X1Y812D02*
X8Y812D01*
X2287Y812D02*
X2289Y812D01*
X2354Y812D02*
X2356Y812D01*
X2414Y812D02*
X2416Y812D01*
X2458Y812D02*
X2465Y812D01*
X1Y811D02*
X8Y811D01*
X2287Y811D02*
X2289Y811D01*
X2354Y811D02*
X2356Y811D01*
X2414Y811D02*
X2416Y811D01*
X2458Y811D02*
X2465Y811D01*
X1Y810D02*
X8Y810D01*
X2287Y810D02*
X2289Y810D01*
X2354Y810D02*
X2356Y810D01*
X2414Y810D02*
X2416Y810D01*
X2458Y810D02*
X2465Y810D01*
X1Y809D02*
X8Y809D01*
X2287Y809D02*
X2289Y809D01*
X2354Y809D02*
X2356Y809D01*
X2414Y809D02*
X2416Y809D01*
X2458Y809D02*
X2465Y809D01*
X1Y808D02*
X8Y808D01*
X2287Y808D02*
X2289Y808D01*
X2354Y808D02*
X2356Y808D01*
X2414Y808D02*
X2416Y808D01*
X2458Y808D02*
X2465Y808D01*
X1Y807D02*
X8Y807D01*
X2287Y807D02*
X2289Y807D01*
X2354Y807D02*
X2356Y807D01*
X2414Y807D02*
X2416Y807D01*
X2458Y807D02*
X2465Y807D01*
X1Y806D02*
X8Y806D01*
X2287Y806D02*
X2289Y806D01*
X2354Y806D02*
X2356Y806D01*
X2414Y806D02*
X2416Y806D01*
X2458Y806D02*
X2465Y806D01*
X1Y805D02*
X8Y805D01*
X2287Y805D02*
X2289Y805D01*
X2355Y805D02*
X2356Y805D01*
X2414Y805D02*
X2416Y805D01*
X2458Y805D02*
X2465Y805D01*
X1Y804D02*
X8Y804D01*
X2287Y804D02*
X2289Y804D01*
X2414Y804D02*
X2416Y804D01*
X2458Y804D02*
X2465Y804D01*
X1Y803D02*
X8Y803D01*
X2287Y803D02*
X2289Y803D01*
X2414Y803D02*
X2416Y803D01*
X2458Y803D02*
X2465Y803D01*
X1Y802D02*
X8Y802D01*
X2280Y802D02*
X2280Y802D01*
X2287Y802D02*
X2289Y802D01*
X2414Y802D02*
X2416Y802D01*
X2458Y802D02*
X2465Y802D01*
X1Y801D02*
X8Y801D01*
X50Y801D02*
X85Y801D01*
X2250Y801D02*
X2253Y801D01*
X2278Y801D02*
X2281Y801D01*
X2287Y801D02*
X2289Y801D01*
X2347Y801D02*
X2356Y801D01*
X2414Y801D02*
X2416Y801D01*
X2458Y801D02*
X2465Y801D01*
X1Y800D02*
X8Y800D01*
X49Y800D02*
X86Y800D01*
X2250Y800D02*
X2254Y800D01*
X2277Y800D02*
X2281Y800D01*
X2287Y800D02*
X2290Y800D01*
X2347Y800D02*
X2357Y800D01*
X2414Y800D02*
X2416Y800D01*
X2458Y800D02*
X2465Y800D01*
X1Y799D02*
X8Y799D01*
X48Y799D02*
X86Y799D01*
X2250Y799D02*
X2256Y799D01*
X2276Y799D02*
X2281Y799D01*
X2287Y799D02*
X2416Y799D01*
X2458Y799D02*
X2465Y799D01*
X1Y798D02*
X8Y798D01*
X48Y798D02*
X86Y798D01*
X2251Y798D02*
X2257Y798D01*
X2274Y798D02*
X2280Y798D01*
X2287Y798D02*
X2416Y798D01*
X2458Y798D02*
X2465Y798D01*
X1Y797D02*
X8Y797D01*
X48Y797D02*
X86Y797D01*
X2252Y797D02*
X2258Y797D01*
X2273Y797D02*
X2279Y797D01*
X2458Y797D02*
X2465Y797D01*
X1Y796D02*
X8Y796D01*
X49Y796D02*
X86Y796D01*
X2254Y796D02*
X2260Y796D01*
X2271Y796D02*
X2278Y796D01*
X2458Y796D02*
X2465Y796D01*
X1Y795D02*
X8Y795D01*
X50Y795D02*
X84Y795D01*
X2255Y795D02*
X2276Y795D01*
X2458Y795D02*
X2465Y795D01*
X1Y794D02*
X8Y794D01*
X71Y794D02*
X79Y794D01*
X2256Y794D02*
X2275Y794D01*
X2458Y794D02*
X2465Y794D01*
X1Y793D02*
X8Y793D01*
X72Y793D02*
X80Y793D01*
X2258Y793D02*
X2273Y793D01*
X2458Y793D02*
X2465Y793D01*
X1Y792D02*
X8Y792D01*
X73Y792D02*
X81Y792D01*
X2260Y792D02*
X2271Y792D01*
X2458Y792D02*
X2465Y792D01*
X1Y791D02*
X8Y791D01*
X73Y791D02*
X82Y791D01*
X2458Y791D02*
X2465Y791D01*
X1Y790D02*
X8Y790D01*
X74Y790D02*
X83Y790D01*
X2458Y790D02*
X2465Y790D01*
X1Y789D02*
X8Y789D01*
X75Y789D02*
X83Y789D01*
X2458Y789D02*
X2465Y789D01*
X1Y788D02*
X8Y788D01*
X76Y788D02*
X84Y788D01*
X2458Y788D02*
X2465Y788D01*
X1Y787D02*
X8Y787D01*
X77Y787D02*
X85Y787D01*
X2458Y787D02*
X2465Y787D01*
X1Y786D02*
X8Y786D01*
X78Y786D02*
X86Y786D01*
X2458Y786D02*
X2465Y786D01*
X1Y785D02*
X8Y785D01*
X79Y785D02*
X86Y785D01*
X2458Y785D02*
X2465Y785D01*
X1Y784D02*
X8Y784D01*
X79Y784D02*
X86Y784D01*
X2458Y784D02*
X2465Y784D01*
X1Y783D02*
X8Y783D01*
X80Y783D02*
X86Y783D01*
X2458Y783D02*
X2465Y783D01*
X1Y782D02*
X8Y782D01*
X80Y782D02*
X86Y782D01*
X2458Y782D02*
X2465Y782D01*
X1Y781D02*
X8Y781D01*
X80Y781D02*
X86Y781D01*
X2458Y781D02*
X2465Y781D01*
X1Y780D02*
X8Y780D01*
X80Y780D02*
X86Y780D01*
X2458Y780D02*
X2465Y780D01*
X1Y779D02*
X8Y779D01*
X80Y779D02*
X86Y779D01*
X2458Y779D02*
X2465Y779D01*
X1Y778D02*
X8Y778D01*
X80Y778D02*
X86Y778D01*
X2458Y778D02*
X2465Y778D01*
X1Y777D02*
X8Y777D01*
X80Y777D02*
X86Y777D01*
X2458Y777D02*
X2465Y777D01*
X1Y776D02*
X8Y776D01*
X80Y776D02*
X86Y776D01*
X2458Y776D02*
X2465Y776D01*
X1Y775D02*
X8Y775D01*
X79Y775D02*
X86Y775D01*
X2458Y775D02*
X2465Y775D01*
X1Y774D02*
X8Y774D01*
X77Y774D02*
X86Y774D01*
X2458Y774D02*
X2465Y774D01*
X1Y773D02*
X8Y773D01*
X73Y773D02*
X85Y773D01*
X2458Y773D02*
X2465Y773D01*
X1Y772D02*
X8Y772D01*
X72Y772D02*
X85Y772D01*
X2458Y772D02*
X2465Y772D01*
X1Y771D02*
X8Y771D01*
X72Y771D02*
X84Y771D01*
X2458Y771D02*
X2465Y771D01*
X1Y770D02*
X8Y770D01*
X72Y770D02*
X83Y770D01*
X2458Y770D02*
X2465Y770D01*
X1Y769D02*
X8Y769D01*
X72Y769D02*
X82Y769D01*
X2458Y769D02*
X2465Y769D01*
X1Y768D02*
X8Y768D01*
X73Y768D02*
X80Y768D01*
X2458Y768D02*
X2465Y768D01*
X1Y767D02*
X8Y767D01*
X75Y767D02*
X76Y767D01*
X2458Y767D02*
X2465Y767D01*
X1Y766D02*
X8Y766D01*
X2458Y766D02*
X2465Y766D01*
X1Y765D02*
X8Y765D01*
X2458Y765D02*
X2465Y765D01*
X1Y764D02*
X8Y764D01*
X2458Y764D02*
X2465Y764D01*
X1Y763D02*
X8Y763D01*
X2458Y763D02*
X2465Y763D01*
X1Y762D02*
X8Y762D01*
X2458Y762D02*
X2465Y762D01*
X1Y761D02*
X8Y761D01*
X2458Y761D02*
X2465Y761D01*
X1Y760D02*
X8Y760D01*
X2458Y760D02*
X2465Y760D01*
X1Y759D02*
X8Y759D01*
X2458Y759D02*
X2465Y759D01*
X1Y758D02*
X8Y758D01*
X2458Y758D02*
X2465Y758D01*
X1Y757D02*
X8Y757D01*
X2458Y757D02*
X2465Y757D01*
X1Y756D02*
X8Y756D01*
X2458Y756D02*
X2465Y756D01*
X1Y755D02*
X8Y755D01*
X2458Y755D02*
X2465Y755D01*
X1Y754D02*
X8Y754D01*
X2458Y754D02*
X2465Y754D01*
X1Y753D02*
X8Y753D01*
X2458Y753D02*
X2465Y753D01*
X1Y752D02*
X8Y752D01*
X2458Y752D02*
X2465Y752D01*
X1Y751D02*
X8Y751D01*
X2458Y751D02*
X2465Y751D01*
X1Y750D02*
X8Y750D01*
X2458Y750D02*
X2465Y750D01*
X1Y749D02*
X8Y749D01*
X2458Y749D02*
X2465Y749D01*
X1Y748D02*
X8Y748D01*
X2458Y748D02*
X2465Y748D01*
X1Y747D02*
X8Y747D01*
X49Y747D02*
X53Y747D01*
X81Y747D02*
X85Y747D01*
X2458Y747D02*
X2465Y747D01*
X1Y746D02*
X8Y746D01*
X48Y746D02*
X53Y746D01*
X81Y746D02*
X86Y746D01*
X2252Y746D02*
X2279Y746D01*
X2458Y746D02*
X2465Y746D01*
X1Y745D02*
X8Y745D01*
X48Y745D02*
X54Y745D01*
X80Y745D02*
X86Y745D01*
X2250Y745D02*
X2281Y745D01*
X2458Y745D02*
X2465Y745D01*
X1Y744D02*
X8Y744D01*
X48Y744D02*
X54Y744D01*
X80Y744D02*
X86Y744D01*
X2250Y744D02*
X2281Y744D01*
X2458Y744D02*
X2465Y744D01*
X1Y743D02*
X8Y743D01*
X48Y743D02*
X54Y743D01*
X80Y743D02*
X86Y743D01*
X2250Y743D02*
X2281Y743D01*
X2458Y743D02*
X2465Y743D01*
X1Y742D02*
X8Y742D01*
X48Y742D02*
X54Y742D01*
X80Y742D02*
X86Y742D01*
X2251Y742D02*
X2280Y742D01*
X2458Y742D02*
X2465Y742D01*
X1Y741D02*
X8Y741D01*
X48Y741D02*
X54Y741D01*
X80Y741D02*
X86Y741D01*
X98Y741D02*
X101Y741D01*
X2261Y741D02*
X2265Y741D01*
X2275Y741D02*
X2279Y741D01*
X2458Y741D02*
X2465Y741D01*
X1Y740D02*
X8Y740D01*
X48Y740D02*
X54Y740D01*
X80Y740D02*
X86Y740D01*
X96Y740D02*
X103Y740D01*
X2260Y740D02*
X2265Y740D01*
X2275Y740D02*
X2280Y740D01*
X2458Y740D02*
X2465Y740D01*
X1Y739D02*
X8Y739D01*
X48Y739D02*
X54Y739D01*
X80Y739D02*
X86Y739D01*
X95Y739D02*
X104Y739D01*
X2259Y739D02*
X2264Y739D01*
X2276Y739D02*
X2281Y739D01*
X2458Y739D02*
X2465Y739D01*
X1Y738D02*
X8Y738D01*
X48Y738D02*
X54Y738D01*
X80Y738D02*
X86Y738D01*
X95Y738D02*
X104Y738D01*
X2259Y738D02*
X2263Y738D01*
X2277Y738D02*
X2281Y738D01*
X2458Y738D02*
X2465Y738D01*
X1Y737D02*
X8Y737D01*
X48Y737D02*
X86Y737D01*
X95Y737D02*
X104Y737D01*
X2259Y737D02*
X2262Y737D01*
X2278Y737D02*
X2281Y737D01*
X2458Y737D02*
X2465Y737D01*
X1Y736D02*
X8Y736D01*
X48Y736D02*
X86Y736D01*
X95Y736D02*
X104Y736D01*
X2259Y736D02*
X2262Y736D01*
X2278Y736D02*
X2281Y736D01*
X2458Y736D02*
X2465Y736D01*
X1Y735D02*
X8Y735D01*
X48Y735D02*
X86Y735D01*
X95Y735D02*
X104Y735D01*
X2259Y735D02*
X2262Y735D01*
X2278Y735D02*
X2281Y735D01*
X2458Y735D02*
X2465Y735D01*
X1Y734D02*
X8Y734D01*
X48Y734D02*
X86Y734D01*
X95Y734D02*
X104Y734D01*
X2259Y734D02*
X2262Y734D01*
X2278Y734D02*
X2281Y734D01*
X2458Y734D02*
X2465Y734D01*
X1Y733D02*
X8Y733D01*
X48Y733D02*
X86Y733D01*
X95Y733D02*
X104Y733D01*
X2259Y733D02*
X2262Y733D01*
X2278Y733D02*
X2281Y733D01*
X2458Y733D02*
X2465Y733D01*
X1Y732D02*
X8Y732D01*
X48Y732D02*
X86Y732D01*
X96Y732D02*
X103Y732D01*
X2259Y732D02*
X2262Y732D01*
X2278Y732D02*
X2281Y732D01*
X2458Y732D02*
X2465Y732D01*
X1Y731D02*
X8Y731D01*
X48Y731D02*
X84Y731D01*
X97Y731D02*
X102Y731D01*
X2259Y731D02*
X2263Y731D01*
X2277Y731D02*
X2281Y731D01*
X2458Y731D02*
X2465Y731D01*
X1Y730D02*
X8Y730D01*
X48Y730D02*
X54Y730D01*
X2260Y730D02*
X2264Y730D01*
X2276Y730D02*
X2281Y730D01*
X2458Y730D02*
X2465Y730D01*
X1Y729D02*
X8Y729D01*
X48Y729D02*
X54Y729D01*
X2260Y729D02*
X2280Y729D01*
X2458Y729D02*
X2465Y729D01*
X1Y728D02*
X8Y728D01*
X48Y728D02*
X54Y728D01*
X2261Y728D02*
X2279Y728D01*
X2458Y728D02*
X2465Y728D01*
X1Y727D02*
X8Y727D01*
X48Y727D02*
X54Y727D01*
X2262Y727D02*
X2278Y727D01*
X2458Y727D02*
X2465Y727D01*
X1Y726D02*
X8Y726D01*
X48Y726D02*
X54Y726D01*
X2263Y726D02*
X2277Y726D01*
X2458Y726D02*
X2465Y726D01*
X1Y725D02*
X8Y725D01*
X48Y725D02*
X54Y725D01*
X2458Y725D02*
X2465Y725D01*
X1Y724D02*
X8Y724D01*
X48Y724D02*
X54Y724D01*
X2458Y724D02*
X2465Y724D01*
X1Y723D02*
X8Y723D01*
X48Y723D02*
X54Y723D01*
X2458Y723D02*
X2465Y723D01*
X1Y722D02*
X8Y722D01*
X48Y722D02*
X53Y722D01*
X2458Y722D02*
X2465Y722D01*
X1Y721D02*
X8Y721D01*
X49Y721D02*
X52Y721D01*
X2458Y721D02*
X2465Y721D01*
X1Y720D02*
X8Y720D01*
X2458Y720D02*
X2465Y720D01*
X1Y719D02*
X8Y719D01*
X2458Y719D02*
X2465Y719D01*
X1Y718D02*
X8Y718D01*
X2458Y718D02*
X2465Y718D01*
X1Y717D02*
X8Y717D01*
X2458Y717D02*
X2465Y717D01*
X1Y716D02*
X8Y716D01*
X2458Y716D02*
X2465Y716D01*
X1Y715D02*
X8Y715D01*
X2263Y715D02*
X2272Y715D01*
X2279Y715D02*
X2281Y715D01*
X2458Y715D02*
X2465Y715D01*
X1Y714D02*
X8Y714D01*
X2262Y714D02*
X2272Y714D01*
X2278Y714D02*
X2281Y714D01*
X2458Y714D02*
X2465Y714D01*
X1Y713D02*
X8Y713D01*
X2261Y713D02*
X2273Y713D01*
X2278Y713D02*
X2281Y713D01*
X2458Y713D02*
X2465Y713D01*
X1Y712D02*
X8Y712D01*
X2260Y712D02*
X2273Y712D01*
X2278Y712D02*
X2281Y712D01*
X2458Y712D02*
X2465Y712D01*
X1Y711D02*
X8Y711D01*
X2259Y711D02*
X2264Y711D01*
X2269Y711D02*
X2273Y711D01*
X2278Y711D02*
X2281Y711D01*
X2458Y711D02*
X2465Y711D01*
X1Y710D02*
X8Y710D01*
X2259Y710D02*
X2263Y710D01*
X2269Y710D02*
X2273Y710D01*
X2278Y710D02*
X2281Y710D01*
X2458Y710D02*
X2465Y710D01*
X1Y709D02*
X8Y709D01*
X2259Y709D02*
X2262Y709D01*
X2269Y709D02*
X2273Y709D01*
X2278Y709D02*
X2281Y709D01*
X2458Y709D02*
X2465Y709D01*
X1Y708D02*
X8Y708D01*
X2259Y708D02*
X2262Y708D01*
X2269Y708D02*
X2273Y708D01*
X2278Y708D02*
X2281Y708D01*
X2458Y708D02*
X2465Y708D01*
X1Y707D02*
X8Y707D01*
X2259Y707D02*
X2262Y707D01*
X2269Y707D02*
X2273Y707D01*
X2278Y707D02*
X2281Y707D01*
X2458Y707D02*
X2465Y707D01*
X1Y706D02*
X8Y706D01*
X2259Y706D02*
X2262Y706D01*
X2269Y706D02*
X2273Y706D01*
X2278Y706D02*
X2281Y706D01*
X2458Y706D02*
X2465Y706D01*
X1Y705D02*
X8Y705D01*
X2259Y705D02*
X2262Y705D01*
X2269Y705D02*
X2273Y705D01*
X2278Y705D02*
X2281Y705D01*
X2458Y705D02*
X2465Y705D01*
X1Y704D02*
X8Y704D01*
X2259Y704D02*
X2262Y704D01*
X2269Y704D02*
X2273Y704D01*
X2278Y704D02*
X2281Y704D01*
X2458Y704D02*
X2465Y704D01*
X1Y703D02*
X8Y703D01*
X2259Y703D02*
X2262Y703D01*
X2269Y703D02*
X2273Y703D01*
X2278Y703D02*
X2281Y703D01*
X2458Y703D02*
X2465Y703D01*
X1Y702D02*
X8Y702D01*
X2259Y702D02*
X2262Y702D01*
X2269Y702D02*
X2273Y702D01*
X2278Y702D02*
X2281Y702D01*
X2458Y702D02*
X2465Y702D01*
X1Y701D02*
X8Y701D01*
X50Y701D02*
X84Y701D01*
X2259Y701D02*
X2263Y701D01*
X2269Y701D02*
X2273Y701D01*
X2277Y701D02*
X2281Y701D01*
X2458Y701D02*
X2465Y701D01*
X1Y700D02*
X8Y700D01*
X49Y700D02*
X85Y700D01*
X2259Y700D02*
X2264Y700D01*
X2269Y700D02*
X2273Y700D01*
X2276Y700D02*
X2281Y700D01*
X2458Y700D02*
X2465Y700D01*
X1Y699D02*
X8Y699D01*
X48Y699D02*
X86Y699D01*
X2260Y699D02*
X2280Y699D01*
X2458Y699D02*
X2465Y699D01*
X1Y698D02*
X8Y698D01*
X48Y698D02*
X86Y698D01*
X2261Y698D02*
X2279Y698D01*
X2458Y698D02*
X2465Y698D01*
X1Y697D02*
X8Y697D01*
X48Y697D02*
X86Y697D01*
X2262Y697D02*
X2278Y697D01*
X2458Y697D02*
X2465Y697D01*
X1Y696D02*
X8Y696D01*
X48Y696D02*
X86Y696D01*
X2263Y696D02*
X2277Y696D01*
X2458Y696D02*
X2465Y696D01*
X1Y695D02*
X8Y695D01*
X49Y695D02*
X85Y695D01*
X2458Y695D02*
X2465Y695D01*
X1Y694D02*
X8Y694D01*
X73Y694D02*
X81Y694D01*
X2458Y694D02*
X2465Y694D01*
X1Y693D02*
X8Y693D01*
X74Y693D02*
X81Y693D01*
X2458Y693D02*
X2465Y693D01*
X1Y692D02*
X8Y692D01*
X74Y692D02*
X82Y692D01*
X2458Y692D02*
X2465Y692D01*
X1Y691D02*
X8Y691D01*
X75Y691D02*
X82Y691D01*
X2458Y691D02*
X2465Y691D01*
X1Y690D02*
X8Y690D01*
X76Y690D02*
X83Y690D01*
X2458Y690D02*
X2465Y690D01*
X1Y689D02*
X8Y689D01*
X76Y689D02*
X84Y689D01*
X2458Y689D02*
X2465Y689D01*
X1Y688D02*
X8Y688D01*
X77Y688D02*
X84Y688D01*
X2458Y688D02*
X2465Y688D01*
X1Y687D02*
X8Y687D01*
X78Y687D02*
X85Y687D01*
X2458Y687D02*
X2465Y687D01*
X1Y686D02*
X8Y686D01*
X78Y686D02*
X85Y686D01*
X2458Y686D02*
X2465Y686D01*
X1Y685D02*
X8Y685D01*
X79Y685D02*
X86Y685D01*
X2253Y685D02*
X2260Y685D01*
X2278Y685D02*
X2281Y685D01*
X2458Y685D02*
X2465Y685D01*
X1Y684D02*
X8Y684D01*
X80Y684D02*
X86Y684D01*
X2252Y684D02*
X2262Y684D01*
X2277Y684D02*
X2281Y684D01*
X2458Y684D02*
X2465Y684D01*
X1Y683D02*
X8Y683D01*
X80Y683D02*
X86Y683D01*
X2251Y683D02*
X2262Y683D01*
X2275Y683D02*
X2281Y683D01*
X2458Y683D02*
X2465Y683D01*
X1Y682D02*
X8Y682D01*
X80Y682D02*
X86Y682D01*
X2250Y682D02*
X2263Y682D01*
X2273Y682D02*
X2280Y682D01*
X2458Y682D02*
X2465Y682D01*
X1Y681D02*
X8Y681D01*
X80Y681D02*
X86Y681D01*
X2250Y681D02*
X2254Y681D01*
X2260Y681D02*
X2263Y681D01*
X2271Y681D02*
X2279Y681D01*
X2458Y681D02*
X2465Y681D01*
X1Y680D02*
X8Y680D01*
X80Y680D02*
X86Y680D01*
X2250Y680D02*
X2253Y680D01*
X2260Y680D02*
X2264Y680D01*
X2270Y680D02*
X2277Y680D01*
X2458Y680D02*
X2465Y680D01*
X1Y679D02*
X8Y679D01*
X80Y679D02*
X86Y679D01*
X2250Y679D02*
X2253Y679D01*
X2260Y679D02*
X2264Y679D01*
X2268Y679D02*
X2275Y679D01*
X2458Y679D02*
X2465Y679D01*
X1Y678D02*
X8Y678D01*
X80Y678D02*
X86Y678D01*
X2250Y678D02*
X2253Y678D01*
X2260Y678D02*
X2264Y678D01*
X2266Y678D02*
X2274Y678D01*
X2458Y678D02*
X2465Y678D01*
X1Y677D02*
X8Y677D01*
X80Y677D02*
X86Y677D01*
X2250Y677D02*
X2253Y677D01*
X2260Y677D02*
X2272Y677D01*
X2458Y677D02*
X2465Y677D01*
X1Y676D02*
X8Y676D01*
X80Y676D02*
X86Y676D01*
X2250Y676D02*
X2253Y676D01*
X2260Y676D02*
X2270Y676D01*
X2458Y676D02*
X2465Y676D01*
X1Y675D02*
X8Y675D01*
X78Y675D02*
X86Y675D01*
X2250Y675D02*
X2253Y675D01*
X2260Y675D02*
X2269Y675D01*
X2458Y675D02*
X2465Y675D01*
X1Y674D02*
X8Y674D01*
X62Y674D02*
X86Y674D01*
X2250Y674D02*
X2253Y674D01*
X2260Y674D02*
X2267Y674D01*
X2458Y674D02*
X2465Y674D01*
X1Y673D02*
X8Y673D01*
X49Y673D02*
X85Y673D01*
X2250Y673D02*
X2253Y673D01*
X2260Y673D02*
X2265Y673D01*
X2458Y673D02*
X2465Y673D01*
X1Y672D02*
X8Y672D01*
X48Y672D02*
X84Y672D01*
X2250Y672D02*
X2253Y672D01*
X2260Y672D02*
X2264Y672D01*
X2458Y672D02*
X2465Y672D01*
X1Y671D02*
X8Y671D01*
X48Y671D02*
X84Y671D01*
X2250Y671D02*
X2253Y671D01*
X2260Y671D02*
X2264Y671D01*
X2458Y671D02*
X2465Y671D01*
X1Y670D02*
X8Y670D01*
X48Y670D02*
X83Y670D01*
X2250Y670D02*
X2253Y670D01*
X2260Y670D02*
X2264Y670D01*
X2458Y670D02*
X2465Y670D01*
X1Y669D02*
X8Y669D01*
X48Y669D02*
X81Y669D01*
X2250Y669D02*
X2280Y669D01*
X2458Y669D02*
X2465Y669D01*
X1Y668D02*
X8Y668D01*
X49Y668D02*
X79Y668D01*
X2250Y668D02*
X2281Y668D01*
X2458Y668D02*
X2465Y668D01*
X1Y667D02*
X8Y667D01*
X50Y667D02*
X61Y667D01*
X2250Y667D02*
X2281Y667D01*
X2458Y667D02*
X2465Y667D01*
X1Y666D02*
X8Y666D01*
X2250Y666D02*
X2281Y666D01*
X2458Y666D02*
X2465Y666D01*
X1Y665D02*
X8Y665D01*
X2458Y665D02*
X2465Y665D01*
X1Y664D02*
X8Y664D01*
X2458Y664D02*
X2465Y664D01*
X1Y663D02*
X8Y663D01*
X2458Y663D02*
X2465Y663D01*
X1Y662D02*
X8Y662D01*
X2458Y662D02*
X2465Y662D01*
X1Y661D02*
X8Y661D01*
X2458Y661D02*
X2465Y661D01*
X1Y660D02*
X8Y660D01*
X2458Y660D02*
X2465Y660D01*
X1Y659D02*
X8Y659D01*
X2458Y659D02*
X2465Y659D01*
X1Y658D02*
X8Y658D01*
X2458Y658D02*
X2465Y658D01*
X1Y657D02*
X8Y657D01*
X2458Y657D02*
X2465Y657D01*
X1Y656D02*
X8Y656D01*
X2458Y656D02*
X2465Y656D01*
X1Y655D02*
X8Y655D01*
X2458Y655D02*
X2465Y655D01*
X1Y654D02*
X8Y654D01*
X2458Y654D02*
X2465Y654D01*
X1Y653D02*
X8Y653D01*
X2458Y653D02*
X2465Y653D01*
X1Y652D02*
X8Y652D01*
X2458Y652D02*
X2465Y652D01*
X1Y651D02*
X8Y651D01*
X2458Y651D02*
X2465Y651D01*
X1Y650D02*
X8Y650D01*
X56Y650D02*
X78Y650D01*
X2458Y650D02*
X2465Y650D01*
X1Y649D02*
X8Y649D01*
X54Y649D02*
X80Y649D01*
X2458Y649D02*
X2465Y649D01*
X1Y648D02*
X8Y648D01*
X53Y648D02*
X81Y648D01*
X2458Y648D02*
X2465Y648D01*
X1Y647D02*
X8Y647D01*
X52Y647D02*
X82Y647D01*
X2458Y647D02*
X2465Y647D01*
X1Y646D02*
X8Y646D01*
X51Y646D02*
X83Y646D01*
X2458Y646D02*
X2465Y646D01*
X1Y645D02*
X8Y645D01*
X50Y645D02*
X84Y645D01*
X2458Y645D02*
X2465Y645D01*
X1Y644D02*
X8Y644D01*
X50Y644D02*
X84Y644D01*
X2458Y644D02*
X2465Y644D01*
X1Y643D02*
X8Y643D01*
X49Y643D02*
X57Y643D01*
X63Y643D02*
X69Y643D01*
X77Y643D02*
X85Y643D01*
X2458Y643D02*
X2465Y643D01*
X1Y642D02*
X8Y642D01*
X49Y642D02*
X56Y642D01*
X63Y642D02*
X69Y642D01*
X78Y642D02*
X86Y642D01*
X2458Y642D02*
X2465Y642D01*
X1Y641D02*
X8Y641D01*
X48Y641D02*
X55Y641D01*
X63Y641D02*
X69Y641D01*
X79Y641D02*
X86Y641D01*
X2458Y641D02*
X2465Y641D01*
X1Y640D02*
X8Y640D01*
X48Y640D02*
X55Y640D01*
X63Y640D02*
X69Y640D01*
X80Y640D02*
X86Y640D01*
X2458Y640D02*
X2465Y640D01*
X1Y639D02*
X8Y639D01*
X48Y639D02*
X54Y639D01*
X63Y639D02*
X69Y639D01*
X80Y639D02*
X86Y639D01*
X2458Y639D02*
X2465Y639D01*
X1Y638D02*
X8Y638D01*
X48Y638D02*
X54Y638D01*
X63Y638D02*
X69Y638D01*
X80Y638D02*
X86Y638D01*
X2458Y638D02*
X2465Y638D01*
X1Y637D02*
X8Y637D01*
X48Y637D02*
X54Y637D01*
X63Y637D02*
X69Y637D01*
X80Y637D02*
X86Y637D01*
X2458Y637D02*
X2465Y637D01*
X1Y636D02*
X8Y636D01*
X48Y636D02*
X54Y636D01*
X63Y636D02*
X69Y636D01*
X80Y636D02*
X86Y636D01*
X2458Y636D02*
X2465Y636D01*
X1Y635D02*
X8Y635D01*
X48Y635D02*
X54Y635D01*
X63Y635D02*
X69Y635D01*
X80Y635D02*
X86Y635D01*
X2458Y635D02*
X2465Y635D01*
X1Y634D02*
X8Y634D01*
X48Y634D02*
X54Y634D01*
X63Y634D02*
X69Y634D01*
X80Y634D02*
X86Y634D01*
X2458Y634D02*
X2465Y634D01*
X1Y633D02*
X8Y633D01*
X48Y633D02*
X54Y633D01*
X63Y633D02*
X69Y633D01*
X80Y633D02*
X86Y633D01*
X2458Y633D02*
X2465Y633D01*
X1Y632D02*
X8Y632D01*
X48Y632D02*
X54Y632D01*
X63Y632D02*
X69Y632D01*
X80Y632D02*
X86Y632D01*
X2458Y632D02*
X2465Y632D01*
X1Y631D02*
X8Y631D01*
X48Y631D02*
X54Y631D01*
X63Y631D02*
X69Y631D01*
X80Y631D02*
X86Y631D01*
X2458Y631D02*
X2465Y631D01*
X1Y630D02*
X8Y630D01*
X48Y630D02*
X54Y630D01*
X63Y630D02*
X69Y630D01*
X80Y630D02*
X86Y630D01*
X2458Y630D02*
X2465Y630D01*
X1Y629D02*
X8Y629D01*
X48Y629D02*
X54Y629D01*
X63Y629D02*
X69Y629D01*
X80Y629D02*
X86Y629D01*
X2458Y629D02*
X2465Y629D01*
X1Y628D02*
X8Y628D01*
X48Y628D02*
X54Y628D01*
X63Y628D02*
X69Y628D01*
X80Y628D02*
X86Y628D01*
X2458Y628D02*
X2465Y628D01*
X1Y627D02*
X8Y627D01*
X48Y627D02*
X54Y627D01*
X63Y627D02*
X69Y627D01*
X79Y627D02*
X86Y627D01*
X2458Y627D02*
X2465Y627D01*
X1Y626D02*
X8Y626D01*
X48Y626D02*
X54Y626D01*
X63Y626D02*
X69Y626D01*
X79Y626D02*
X86Y626D01*
X2458Y626D02*
X2465Y626D01*
X1Y625D02*
X8Y625D01*
X48Y625D02*
X54Y625D01*
X63Y625D02*
X69Y625D01*
X78Y625D02*
X85Y625D01*
X2040Y625D02*
X2097Y625D01*
X2140Y625D02*
X2197Y625D01*
X2458Y625D02*
X2465Y625D01*
X1Y624D02*
X8Y624D01*
X48Y624D02*
X54Y624D01*
X63Y624D02*
X69Y624D01*
X77Y624D02*
X85Y624D01*
X2039Y624D02*
X2097Y624D01*
X2139Y624D02*
X2197Y624D01*
X2458Y624D02*
X2465Y624D01*
X1Y623D02*
X8Y623D01*
X48Y623D02*
X54Y623D01*
X63Y623D02*
X84Y623D01*
X2039Y623D02*
X2097Y623D01*
X2139Y623D02*
X2197Y623D01*
X2458Y623D02*
X2465Y623D01*
X1Y622D02*
X8Y622D01*
X48Y622D02*
X54Y622D01*
X63Y622D02*
X83Y622D01*
X2039Y622D02*
X2041Y622D01*
X2095Y622D02*
X2097Y622D01*
X2139Y622D02*
X2141Y622D01*
X2195Y622D02*
X2197Y622D01*
X2458Y622D02*
X2465Y622D01*
X1Y621D02*
X8Y621D01*
X48Y621D02*
X54Y621D01*
X63Y621D02*
X82Y621D01*
X2039Y621D02*
X2041Y621D01*
X2096Y621D02*
X2097Y621D01*
X2139Y621D02*
X2141Y621D01*
X2196Y621D02*
X2197Y621D01*
X2458Y621D02*
X2465Y621D01*
X1Y620D02*
X8Y620D01*
X48Y620D02*
X54Y620D01*
X63Y620D02*
X82Y620D01*
X2039Y620D02*
X2041Y620D01*
X2096Y620D02*
X2097Y620D01*
X2139Y620D02*
X2141Y620D01*
X2196Y620D02*
X2197Y620D01*
X2458Y620D02*
X2465Y620D01*
X1Y619D02*
X8Y619D01*
X48Y619D02*
X54Y619D01*
X63Y619D02*
X81Y619D01*
X2039Y619D02*
X2041Y619D01*
X2096Y619D02*
X2097Y619D01*
X2139Y619D02*
X2141Y619D01*
X2196Y619D02*
X2197Y619D01*
X2458Y619D02*
X2465Y619D01*
X1Y618D02*
X8Y618D01*
X49Y618D02*
X53Y618D01*
X63Y618D02*
X79Y618D01*
X2039Y618D02*
X2041Y618D01*
X2096Y618D02*
X2097Y618D01*
X2139Y618D02*
X2141Y618D01*
X2196Y618D02*
X2197Y618D01*
X2458Y618D02*
X2465Y618D01*
X1Y617D02*
X8Y617D01*
X50Y617D02*
X52Y617D01*
X64Y617D02*
X77Y617D01*
X2039Y617D02*
X2041Y617D01*
X2096Y617D02*
X2097Y617D01*
X2139Y617D02*
X2141Y617D01*
X2196Y617D02*
X2197Y617D01*
X2458Y617D02*
X2465Y617D01*
X1Y616D02*
X8Y616D01*
X2039Y616D02*
X2041Y616D01*
X2096Y616D02*
X2097Y616D01*
X2139Y616D02*
X2141Y616D01*
X2196Y616D02*
X2197Y616D01*
X2458Y616D02*
X2465Y616D01*
X1Y615D02*
X8Y615D01*
X2039Y615D02*
X2041Y615D01*
X2096Y615D02*
X2097Y615D01*
X2139Y615D02*
X2141Y615D01*
X2196Y615D02*
X2197Y615D01*
X2458Y615D02*
X2465Y615D01*
X1Y614D02*
X8Y614D01*
X2039Y614D02*
X2041Y614D01*
X2096Y614D02*
X2097Y614D01*
X2139Y614D02*
X2141Y614D01*
X2196Y614D02*
X2197Y614D01*
X2458Y614D02*
X2465Y614D01*
X1Y613D02*
X8Y613D01*
X2039Y613D02*
X2041Y613D01*
X2096Y613D02*
X2097Y613D01*
X2139Y613D02*
X2141Y613D01*
X2196Y613D02*
X2197Y613D01*
X2458Y613D02*
X2465Y613D01*
X1Y612D02*
X8Y612D01*
X2039Y612D02*
X2041Y612D01*
X2096Y612D02*
X2097Y612D01*
X2139Y612D02*
X2141Y612D01*
X2196Y612D02*
X2197Y612D01*
X2458Y612D02*
X2465Y612D01*
X1Y611D02*
X8Y611D01*
X2039Y611D02*
X2041Y611D01*
X2096Y611D02*
X2097Y611D01*
X2139Y611D02*
X2141Y611D01*
X2196Y611D02*
X2197Y611D01*
X2458Y611D02*
X2465Y611D01*
X1Y610D02*
X8Y610D01*
X2039Y610D02*
X2041Y610D01*
X2096Y610D02*
X2097Y610D01*
X2139Y610D02*
X2141Y610D01*
X2196Y610D02*
X2197Y610D01*
X2458Y610D02*
X2465Y610D01*
X1Y609D02*
X8Y609D01*
X2039Y609D02*
X2041Y609D01*
X2096Y609D02*
X2097Y609D01*
X2139Y609D02*
X2141Y609D01*
X2196Y609D02*
X2197Y609D01*
X2458Y609D02*
X2465Y609D01*
X1Y608D02*
X8Y608D01*
X2039Y608D02*
X2041Y608D01*
X2096Y608D02*
X2097Y608D01*
X2139Y608D02*
X2141Y608D01*
X2196Y608D02*
X2197Y608D01*
X2458Y608D02*
X2465Y608D01*
X1Y607D02*
X8Y607D01*
X2039Y607D02*
X2041Y607D01*
X2096Y607D02*
X2097Y607D01*
X2139Y607D02*
X2141Y607D01*
X2196Y607D02*
X2197Y607D01*
X2458Y607D02*
X2465Y607D01*
X1Y606D02*
X8Y606D01*
X2039Y606D02*
X2041Y606D01*
X2096Y606D02*
X2097Y606D01*
X2139Y606D02*
X2141Y606D01*
X2196Y606D02*
X2197Y606D01*
X2458Y606D02*
X2465Y606D01*
X1Y605D02*
X8Y605D01*
X2039Y605D02*
X2041Y605D01*
X2096Y605D02*
X2097Y605D01*
X2139Y605D02*
X2141Y605D01*
X2196Y605D02*
X2197Y605D01*
X2458Y605D02*
X2465Y605D01*
X1Y604D02*
X8Y604D01*
X2039Y604D02*
X2041Y604D01*
X2096Y604D02*
X2097Y604D01*
X2139Y604D02*
X2141Y604D01*
X2196Y604D02*
X2197Y604D01*
X2458Y604D02*
X2465Y604D01*
X1Y603D02*
X8Y603D01*
X2039Y603D02*
X2041Y603D01*
X2096Y603D02*
X2097Y603D01*
X2139Y603D02*
X2141Y603D01*
X2196Y603D02*
X2197Y603D01*
X2458Y603D02*
X2465Y603D01*
X1Y602D02*
X8Y602D01*
X2039Y602D02*
X2041Y602D01*
X2096Y602D02*
X2097Y602D01*
X2139Y602D02*
X2141Y602D01*
X2196Y602D02*
X2197Y602D01*
X2458Y602D02*
X2465Y602D01*
X1Y601D02*
X8Y601D01*
X2039Y601D02*
X2041Y601D01*
X2096Y601D02*
X2097Y601D01*
X2139Y601D02*
X2141Y601D01*
X2196Y601D02*
X2197Y601D01*
X2458Y601D02*
X2465Y601D01*
X1Y600D02*
X8Y600D01*
X82Y600D02*
X85Y600D01*
X2039Y600D02*
X2041Y600D01*
X2096Y600D02*
X2097Y600D01*
X2139Y600D02*
X2141Y600D01*
X2196Y600D02*
X2197Y600D01*
X2458Y600D02*
X2465Y600D01*
X1Y599D02*
X8Y599D01*
X81Y599D02*
X86Y599D01*
X2039Y599D02*
X2041Y599D01*
X2096Y599D02*
X2097Y599D01*
X2139Y599D02*
X2141Y599D01*
X2196Y599D02*
X2197Y599D01*
X2458Y599D02*
X2465Y599D01*
X1Y598D02*
X8Y598D01*
X80Y598D02*
X86Y598D01*
X2039Y598D02*
X2041Y598D01*
X2096Y598D02*
X2097Y598D01*
X2139Y598D02*
X2141Y598D01*
X2196Y598D02*
X2197Y598D01*
X2458Y598D02*
X2465Y598D01*
X1Y597D02*
X8Y597D01*
X80Y597D02*
X86Y597D01*
X2039Y597D02*
X2041Y597D01*
X2096Y597D02*
X2097Y597D01*
X2139Y597D02*
X2141Y597D01*
X2196Y597D02*
X2197Y597D01*
X2458Y597D02*
X2465Y597D01*
X1Y596D02*
X8Y596D01*
X80Y596D02*
X86Y596D01*
X2039Y596D02*
X2041Y596D01*
X2096Y596D02*
X2097Y596D01*
X2139Y596D02*
X2141Y596D01*
X2196Y596D02*
X2197Y596D01*
X2458Y596D02*
X2465Y596D01*
X1Y595D02*
X8Y595D01*
X80Y595D02*
X86Y595D01*
X2039Y595D02*
X2041Y595D01*
X2096Y595D02*
X2097Y595D01*
X2139Y595D02*
X2141Y595D01*
X2196Y595D02*
X2197Y595D01*
X2458Y595D02*
X2465Y595D01*
X1Y594D02*
X8Y594D01*
X80Y594D02*
X87Y594D01*
X2039Y594D02*
X2041Y594D01*
X2096Y594D02*
X2097Y594D01*
X2139Y594D02*
X2141Y594D01*
X2196Y594D02*
X2197Y594D01*
X2458Y594D02*
X2465Y594D01*
X1Y593D02*
X8Y593D01*
X54Y593D02*
X97Y593D01*
X2039Y593D02*
X2041Y593D01*
X2096Y593D02*
X2097Y593D01*
X2139Y593D02*
X2141Y593D01*
X2196Y593D02*
X2197Y593D01*
X2458Y593D02*
X2465Y593D01*
X1Y592D02*
X8Y592D01*
X52Y592D02*
X98Y592D01*
X2039Y592D02*
X2041Y592D01*
X2096Y592D02*
X2097Y592D01*
X2139Y592D02*
X2141Y592D01*
X2196Y592D02*
X2197Y592D01*
X2458Y592D02*
X2465Y592D01*
X1Y591D02*
X8Y591D01*
X51Y591D02*
X98Y591D01*
X2039Y591D02*
X2041Y591D01*
X2096Y591D02*
X2097Y591D01*
X2139Y591D02*
X2141Y591D01*
X2196Y591D02*
X2197Y591D01*
X2458Y591D02*
X2465Y591D01*
X1Y590D02*
X8Y590D01*
X50Y590D02*
X98Y590D01*
X2039Y590D02*
X2041Y590D01*
X2096Y590D02*
X2097Y590D01*
X2139Y590D02*
X2141Y590D01*
X2196Y590D02*
X2197Y590D01*
X2458Y590D02*
X2465Y590D01*
X1Y589D02*
X8Y589D01*
X49Y589D02*
X98Y589D01*
X2039Y589D02*
X2041Y589D01*
X2096Y589D02*
X2097Y589D01*
X2139Y589D02*
X2141Y589D01*
X2196Y589D02*
X2197Y589D01*
X2458Y589D02*
X2465Y589D01*
X1Y588D02*
X8Y588D01*
X49Y588D02*
X97Y588D01*
X2039Y588D02*
X2041Y588D01*
X2096Y588D02*
X2097Y588D01*
X2139Y588D02*
X2141Y588D01*
X2196Y588D02*
X2197Y588D01*
X2458Y588D02*
X2465Y588D01*
X1Y587D02*
X8Y587D01*
X48Y587D02*
X95Y587D01*
X2039Y587D02*
X2041Y587D01*
X2096Y587D02*
X2097Y587D01*
X2139Y587D02*
X2141Y587D01*
X2196Y587D02*
X2197Y587D01*
X2458Y587D02*
X2465Y587D01*
X1Y586D02*
X8Y586D01*
X48Y586D02*
X55Y586D01*
X80Y586D02*
X86Y586D01*
X2039Y586D02*
X2041Y586D01*
X2096Y586D02*
X2097Y586D01*
X2139Y586D02*
X2141Y586D01*
X2196Y586D02*
X2197Y586D01*
X2458Y586D02*
X2465Y586D01*
X1Y585D02*
X8Y585D01*
X48Y585D02*
X54Y585D01*
X80Y585D02*
X86Y585D01*
X2039Y585D02*
X2041Y585D01*
X2096Y585D02*
X2097Y585D01*
X2139Y585D02*
X2141Y585D01*
X2196Y585D02*
X2197Y585D01*
X2458Y585D02*
X2465Y585D01*
X1Y584D02*
X8Y584D01*
X48Y584D02*
X54Y584D01*
X80Y584D02*
X86Y584D01*
X2039Y584D02*
X2041Y584D01*
X2096Y584D02*
X2097Y584D01*
X2139Y584D02*
X2141Y584D01*
X2196Y584D02*
X2197Y584D01*
X2458Y584D02*
X2465Y584D01*
X1Y583D02*
X8Y583D01*
X48Y583D02*
X54Y583D01*
X80Y583D02*
X86Y583D01*
X2039Y583D02*
X2041Y583D01*
X2096Y583D02*
X2097Y583D01*
X2139Y583D02*
X2141Y583D01*
X2196Y583D02*
X2197Y583D01*
X2458Y583D02*
X2465Y583D01*
X1Y582D02*
X8Y582D01*
X48Y582D02*
X54Y582D01*
X80Y582D02*
X86Y582D01*
X2039Y582D02*
X2041Y582D01*
X2096Y582D02*
X2097Y582D01*
X2139Y582D02*
X2141Y582D01*
X2196Y582D02*
X2197Y582D01*
X2458Y582D02*
X2465Y582D01*
X1Y581D02*
X8Y581D01*
X48Y581D02*
X54Y581D01*
X80Y581D02*
X86Y581D01*
X2039Y581D02*
X2041Y581D01*
X2096Y581D02*
X2097Y581D01*
X2139Y581D02*
X2141Y581D01*
X2196Y581D02*
X2197Y581D01*
X2458Y581D02*
X2465Y581D01*
X1Y580D02*
X8Y580D01*
X48Y580D02*
X54Y580D01*
X80Y580D02*
X86Y580D01*
X2039Y580D02*
X2041Y580D01*
X2096Y580D02*
X2097Y580D01*
X2139Y580D02*
X2141Y580D01*
X2196Y580D02*
X2197Y580D01*
X2458Y580D02*
X2465Y580D01*
X1Y579D02*
X8Y579D01*
X48Y579D02*
X54Y579D01*
X80Y579D02*
X86Y579D01*
X2039Y579D02*
X2041Y579D01*
X2096Y579D02*
X2097Y579D01*
X2139Y579D02*
X2141Y579D01*
X2196Y579D02*
X2197Y579D01*
X2458Y579D02*
X2465Y579D01*
X1Y578D02*
X8Y578D01*
X48Y578D02*
X54Y578D01*
X80Y578D02*
X86Y578D01*
X2039Y578D02*
X2041Y578D01*
X2096Y578D02*
X2097Y578D01*
X2139Y578D02*
X2141Y578D01*
X2196Y578D02*
X2197Y578D01*
X2458Y578D02*
X2465Y578D01*
X1Y577D02*
X8Y577D01*
X48Y577D02*
X54Y577D01*
X80Y577D02*
X86Y577D01*
X2039Y577D02*
X2041Y577D01*
X2096Y577D02*
X2097Y577D01*
X2139Y577D02*
X2141Y577D01*
X2196Y577D02*
X2197Y577D01*
X2458Y577D02*
X2465Y577D01*
X1Y576D02*
X8Y576D01*
X48Y576D02*
X54Y576D01*
X80Y576D02*
X86Y576D01*
X2039Y576D02*
X2041Y576D01*
X2096Y576D02*
X2097Y576D01*
X2139Y576D02*
X2141Y576D01*
X2196Y576D02*
X2197Y576D01*
X2458Y576D02*
X2465Y576D01*
X1Y575D02*
X8Y575D01*
X48Y575D02*
X54Y575D01*
X80Y575D02*
X86Y575D01*
X2039Y575D02*
X2041Y575D01*
X2096Y575D02*
X2097Y575D01*
X2139Y575D02*
X2141Y575D01*
X2196Y575D02*
X2197Y575D01*
X2458Y575D02*
X2465Y575D01*
X1Y574D02*
X8Y574D01*
X48Y574D02*
X55Y574D01*
X80Y574D02*
X86Y574D01*
X2039Y574D02*
X2041Y574D01*
X2096Y574D02*
X2097Y574D01*
X2139Y574D02*
X2141Y574D01*
X2196Y574D02*
X2197Y574D01*
X2458Y574D02*
X2465Y574D01*
X1Y573D02*
X8Y573D01*
X49Y573D02*
X57Y573D01*
X80Y573D02*
X86Y573D01*
X2039Y573D02*
X2041Y573D01*
X2096Y573D02*
X2097Y573D01*
X2139Y573D02*
X2141Y573D01*
X2196Y573D02*
X2197Y573D01*
X2458Y573D02*
X2465Y573D01*
X1Y572D02*
X8Y572D01*
X49Y572D02*
X59Y572D01*
X81Y572D02*
X86Y572D01*
X2039Y572D02*
X2041Y572D01*
X2096Y572D02*
X2097Y572D01*
X2139Y572D02*
X2141Y572D01*
X2196Y572D02*
X2197Y572D01*
X2458Y572D02*
X2465Y572D01*
X1Y571D02*
X8Y571D01*
X50Y571D02*
X59Y571D01*
X81Y571D02*
X85Y571D01*
X2039Y571D02*
X2041Y571D01*
X2096Y571D02*
X2097Y571D01*
X2139Y571D02*
X2141Y571D01*
X2196Y571D02*
X2197Y571D01*
X2458Y571D02*
X2465Y571D01*
X1Y570D02*
X8Y570D01*
X50Y570D02*
X60Y570D01*
X83Y570D02*
X84Y570D01*
X2039Y570D02*
X2041Y570D01*
X2096Y570D02*
X2097Y570D01*
X2139Y570D02*
X2141Y570D01*
X2196Y570D02*
X2197Y570D01*
X2458Y570D02*
X2465Y570D01*
X1Y569D02*
X8Y569D01*
X51Y569D02*
X60Y569D01*
X2039Y569D02*
X2041Y569D01*
X2096Y569D02*
X2097Y569D01*
X2139Y569D02*
X2141Y569D01*
X2196Y569D02*
X2197Y569D01*
X2458Y569D02*
X2465Y569D01*
X1Y568D02*
X8Y568D01*
X53Y568D02*
X59Y568D01*
X2039Y568D02*
X2041Y568D01*
X2096Y568D02*
X2097Y568D01*
X2139Y568D02*
X2141Y568D01*
X2196Y568D02*
X2197Y568D01*
X2458Y568D02*
X2465Y568D01*
X1Y567D02*
X8Y567D01*
X54Y567D02*
X58Y567D01*
X2039Y567D02*
X2041Y567D01*
X2096Y567D02*
X2097Y567D01*
X2139Y567D02*
X2141Y567D01*
X2196Y567D02*
X2197Y567D01*
X2458Y567D02*
X2465Y567D01*
X1Y566D02*
X8Y566D01*
X2039Y566D02*
X2041Y566D01*
X2096Y566D02*
X2097Y566D01*
X2139Y566D02*
X2141Y566D01*
X2196Y566D02*
X2197Y566D01*
X2458Y566D02*
X2465Y566D01*
X1Y565D02*
X8Y565D01*
X2039Y565D02*
X2042Y565D01*
X2094Y565D02*
X2097Y565D01*
X2139Y565D02*
X2142Y565D01*
X2194Y565D02*
X2197Y565D01*
X2458Y565D02*
X2465Y565D01*
X1Y564D02*
X8Y564D01*
X2039Y564D02*
X2042Y564D01*
X2094Y564D02*
X2097Y564D01*
X2139Y564D02*
X2142Y564D01*
X2194Y564D02*
X2197Y564D01*
X2458Y564D02*
X2465Y564D01*
X1Y563D02*
X8Y563D01*
X2039Y563D02*
X2042Y563D01*
X2094Y563D02*
X2097Y563D01*
X2139Y563D02*
X2142Y563D01*
X2194Y563D02*
X2197Y563D01*
X2458Y563D02*
X2465Y563D01*
X1Y562D02*
X8Y562D01*
X2039Y562D02*
X2042Y562D01*
X2094Y562D02*
X2097Y562D01*
X2139Y562D02*
X2142Y562D01*
X2194Y562D02*
X2197Y562D01*
X2458Y562D02*
X2465Y562D01*
X1Y561D02*
X8Y561D01*
X2039Y561D02*
X2042Y561D01*
X2094Y561D02*
X2097Y561D01*
X2139Y561D02*
X2142Y561D01*
X2194Y561D02*
X2197Y561D01*
X2458Y561D02*
X2465Y561D01*
X1Y560D02*
X8Y560D01*
X2039Y560D02*
X2042Y560D01*
X2094Y560D02*
X2097Y560D01*
X2139Y560D02*
X2142Y560D01*
X2194Y560D02*
X2197Y560D01*
X2458Y560D02*
X2465Y560D01*
X1Y559D02*
X8Y559D01*
X2039Y559D02*
X2042Y559D01*
X2094Y559D02*
X2097Y559D01*
X2139Y559D02*
X2142Y559D01*
X2194Y559D02*
X2197Y559D01*
X2458Y559D02*
X2465Y559D01*
X1Y558D02*
X8Y558D01*
X2039Y558D02*
X2042Y558D01*
X2094Y558D02*
X2097Y558D01*
X2139Y558D02*
X2142Y558D01*
X2194Y558D02*
X2197Y558D01*
X2458Y558D02*
X2465Y558D01*
X1Y557D02*
X8Y557D01*
X2039Y557D02*
X2042Y557D01*
X2094Y557D02*
X2097Y557D01*
X2139Y557D02*
X2142Y557D01*
X2194Y557D02*
X2197Y557D01*
X2458Y557D02*
X2465Y557D01*
X1Y556D02*
X8Y556D01*
X2039Y556D02*
X2042Y556D01*
X2094Y556D02*
X2097Y556D01*
X2139Y556D02*
X2142Y556D01*
X2194Y556D02*
X2197Y556D01*
X2458Y556D02*
X2465Y556D01*
X1Y555D02*
X8Y555D01*
X2039Y555D02*
X2041Y555D01*
X2095Y555D02*
X2097Y555D01*
X2139Y555D02*
X2141Y555D01*
X2195Y555D02*
X2197Y555D01*
X2458Y555D02*
X2465Y555D01*
X1Y554D02*
X8Y554D01*
X2039Y554D02*
X2041Y554D01*
X2096Y554D02*
X2097Y554D01*
X2139Y554D02*
X2141Y554D01*
X2196Y554D02*
X2197Y554D01*
X2458Y554D02*
X2465Y554D01*
X1Y553D02*
X8Y553D01*
X2039Y553D02*
X2041Y553D01*
X2096Y553D02*
X2097Y553D01*
X2139Y553D02*
X2141Y553D01*
X2196Y553D02*
X2197Y553D01*
X2458Y553D02*
X2465Y553D01*
X1Y552D02*
X8Y552D01*
X2039Y552D02*
X2041Y552D01*
X2096Y552D02*
X2097Y552D01*
X2139Y552D02*
X2141Y552D01*
X2196Y552D02*
X2197Y552D01*
X2458Y552D02*
X2465Y552D01*
X1Y551D02*
X8Y551D01*
X2039Y551D02*
X2041Y551D01*
X2096Y551D02*
X2097Y551D01*
X2139Y551D02*
X2141Y551D01*
X2196Y551D02*
X2197Y551D01*
X2458Y551D02*
X2465Y551D01*
X1Y550D02*
X8Y550D01*
X2039Y550D02*
X2041Y550D01*
X2096Y550D02*
X2097Y550D01*
X2139Y550D02*
X2141Y550D01*
X2196Y550D02*
X2197Y550D01*
X2458Y550D02*
X2465Y550D01*
X1Y549D02*
X8Y549D01*
X2039Y549D02*
X2041Y549D01*
X2096Y549D02*
X2097Y549D01*
X2139Y549D02*
X2141Y549D01*
X2196Y549D02*
X2197Y549D01*
X2458Y549D02*
X2465Y549D01*
X1Y548D02*
X8Y548D01*
X2039Y548D02*
X2041Y548D01*
X2096Y548D02*
X2097Y548D01*
X2139Y548D02*
X2141Y548D01*
X2196Y548D02*
X2197Y548D01*
X2458Y548D02*
X2465Y548D01*
X1Y547D02*
X8Y547D01*
X2039Y547D02*
X2041Y547D01*
X2096Y547D02*
X2097Y547D01*
X2139Y547D02*
X2141Y547D01*
X2196Y547D02*
X2197Y547D01*
X2458Y547D02*
X2465Y547D01*
X1Y546D02*
X8Y546D01*
X2039Y546D02*
X2041Y546D01*
X2096Y546D02*
X2097Y546D01*
X2139Y546D02*
X2141Y546D01*
X2196Y546D02*
X2197Y546D01*
X2458Y546D02*
X2465Y546D01*
X1Y545D02*
X8Y545D01*
X2039Y545D02*
X2041Y545D01*
X2096Y545D02*
X2097Y545D01*
X2139Y545D02*
X2141Y545D01*
X2196Y545D02*
X2197Y545D01*
X2458Y545D02*
X2465Y545D01*
X1Y544D02*
X8Y544D01*
X2039Y544D02*
X2041Y544D01*
X2096Y544D02*
X2097Y544D01*
X2139Y544D02*
X2141Y544D01*
X2196Y544D02*
X2197Y544D01*
X2458Y544D02*
X2465Y544D01*
X1Y543D02*
X8Y543D01*
X2039Y543D02*
X2041Y543D01*
X2096Y543D02*
X2097Y543D01*
X2139Y543D02*
X2141Y543D01*
X2196Y543D02*
X2197Y543D01*
X2458Y543D02*
X2465Y543D01*
X1Y542D02*
X8Y542D01*
X2039Y542D02*
X2041Y542D01*
X2096Y542D02*
X2097Y542D01*
X2139Y542D02*
X2141Y542D01*
X2196Y542D02*
X2197Y542D01*
X2458Y542D02*
X2465Y542D01*
X1Y541D02*
X8Y541D01*
X2039Y541D02*
X2041Y541D01*
X2096Y541D02*
X2097Y541D01*
X2139Y541D02*
X2141Y541D01*
X2196Y541D02*
X2197Y541D01*
X2458Y541D02*
X2465Y541D01*
X1Y540D02*
X8Y540D01*
X2039Y540D02*
X2041Y540D01*
X2096Y540D02*
X2097Y540D01*
X2139Y540D02*
X2141Y540D01*
X2196Y540D02*
X2197Y540D01*
X2458Y540D02*
X2465Y540D01*
X1Y539D02*
X8Y539D01*
X2039Y539D02*
X2041Y539D01*
X2096Y539D02*
X2097Y539D01*
X2139Y539D02*
X2141Y539D01*
X2196Y539D02*
X2197Y539D01*
X2458Y539D02*
X2465Y539D01*
X1Y538D02*
X8Y538D01*
X2039Y538D02*
X2041Y538D01*
X2096Y538D02*
X2097Y538D01*
X2139Y538D02*
X2141Y538D01*
X2196Y538D02*
X2197Y538D01*
X2458Y538D02*
X2465Y538D01*
X1Y537D02*
X8Y537D01*
X2039Y537D02*
X2041Y537D01*
X2096Y537D02*
X2097Y537D01*
X2139Y537D02*
X2141Y537D01*
X2196Y537D02*
X2197Y537D01*
X2458Y537D02*
X2465Y537D01*
X1Y536D02*
X8Y536D01*
X2039Y536D02*
X2041Y536D01*
X2096Y536D02*
X2097Y536D01*
X2139Y536D02*
X2141Y536D01*
X2196Y536D02*
X2197Y536D01*
X2458Y536D02*
X2465Y536D01*
X1Y535D02*
X8Y535D01*
X2039Y535D02*
X2041Y535D01*
X2096Y535D02*
X2097Y535D01*
X2139Y535D02*
X2141Y535D01*
X2196Y535D02*
X2197Y535D01*
X2458Y535D02*
X2465Y535D01*
X1Y534D02*
X8Y534D01*
X2039Y534D02*
X2041Y534D01*
X2096Y534D02*
X2097Y534D01*
X2139Y534D02*
X2141Y534D01*
X2196Y534D02*
X2197Y534D01*
X2458Y534D02*
X2465Y534D01*
X1Y533D02*
X8Y533D01*
X2039Y533D02*
X2041Y533D01*
X2096Y533D02*
X2097Y533D01*
X2139Y533D02*
X2141Y533D01*
X2196Y533D02*
X2197Y533D01*
X2458Y533D02*
X2465Y533D01*
X1Y532D02*
X8Y532D01*
X2039Y532D02*
X2041Y532D01*
X2096Y532D02*
X2097Y532D01*
X2139Y532D02*
X2141Y532D01*
X2196Y532D02*
X2197Y532D01*
X2458Y532D02*
X2465Y532D01*
X1Y531D02*
X8Y531D01*
X2039Y531D02*
X2041Y531D01*
X2096Y531D02*
X2097Y531D01*
X2139Y531D02*
X2141Y531D01*
X2196Y531D02*
X2197Y531D01*
X2458Y531D02*
X2465Y531D01*
X1Y530D02*
X8Y530D01*
X2039Y530D02*
X2041Y530D01*
X2096Y530D02*
X2097Y530D01*
X2139Y530D02*
X2141Y530D01*
X2196Y530D02*
X2197Y530D01*
X2458Y530D02*
X2465Y530D01*
X1Y529D02*
X8Y529D01*
X2039Y529D02*
X2041Y529D01*
X2096Y529D02*
X2097Y529D01*
X2139Y529D02*
X2141Y529D01*
X2196Y529D02*
X2197Y529D01*
X2458Y529D02*
X2465Y529D01*
X1Y528D02*
X8Y528D01*
X2039Y528D02*
X2041Y528D01*
X2096Y528D02*
X2097Y528D01*
X2139Y528D02*
X2141Y528D01*
X2196Y528D02*
X2197Y528D01*
X2458Y528D02*
X2465Y528D01*
X1Y527D02*
X8Y527D01*
X2039Y527D02*
X2041Y527D01*
X2096Y527D02*
X2097Y527D01*
X2139Y527D02*
X2141Y527D01*
X2196Y527D02*
X2197Y527D01*
X2458Y527D02*
X2465Y527D01*
X1Y526D02*
X8Y526D01*
X2039Y526D02*
X2041Y526D01*
X2096Y526D02*
X2097Y526D01*
X2139Y526D02*
X2141Y526D01*
X2196Y526D02*
X2197Y526D01*
X2458Y526D02*
X2465Y526D01*
X1Y525D02*
X8Y525D01*
X2039Y525D02*
X2041Y525D01*
X2096Y525D02*
X2097Y525D01*
X2139Y525D02*
X2141Y525D01*
X2196Y525D02*
X2197Y525D01*
X2458Y525D02*
X2465Y525D01*
X1Y524D02*
X8Y524D01*
X2039Y524D02*
X2041Y524D01*
X2096Y524D02*
X2097Y524D01*
X2139Y524D02*
X2141Y524D01*
X2196Y524D02*
X2197Y524D01*
X2458Y524D02*
X2465Y524D01*
X1Y523D02*
X8Y523D01*
X2039Y523D02*
X2041Y523D01*
X2096Y523D02*
X2097Y523D01*
X2139Y523D02*
X2141Y523D01*
X2196Y523D02*
X2197Y523D01*
X2458Y523D02*
X2465Y523D01*
X1Y522D02*
X8Y522D01*
X2039Y522D02*
X2041Y522D01*
X2096Y522D02*
X2097Y522D01*
X2139Y522D02*
X2141Y522D01*
X2196Y522D02*
X2197Y522D01*
X2458Y522D02*
X2465Y522D01*
X1Y521D02*
X8Y521D01*
X2039Y521D02*
X2041Y521D01*
X2096Y521D02*
X2097Y521D01*
X2139Y521D02*
X2141Y521D01*
X2196Y521D02*
X2197Y521D01*
X2458Y521D02*
X2465Y521D01*
X1Y520D02*
X8Y520D01*
X2039Y520D02*
X2041Y520D01*
X2096Y520D02*
X2097Y520D01*
X2139Y520D02*
X2141Y520D01*
X2196Y520D02*
X2197Y520D01*
X2458Y520D02*
X2465Y520D01*
X1Y519D02*
X8Y519D01*
X2039Y519D02*
X2041Y519D01*
X2096Y519D02*
X2097Y519D01*
X2139Y519D02*
X2141Y519D01*
X2196Y519D02*
X2197Y519D01*
X2458Y519D02*
X2465Y519D01*
X1Y518D02*
X8Y518D01*
X2039Y518D02*
X2041Y518D01*
X2096Y518D02*
X2097Y518D01*
X2139Y518D02*
X2141Y518D01*
X2196Y518D02*
X2197Y518D01*
X2458Y518D02*
X2465Y518D01*
X1Y517D02*
X8Y517D01*
X2039Y517D02*
X2041Y517D01*
X2096Y517D02*
X2097Y517D01*
X2139Y517D02*
X2141Y517D01*
X2196Y517D02*
X2197Y517D01*
X2458Y517D02*
X2465Y517D01*
X1Y516D02*
X8Y516D01*
X2039Y516D02*
X2041Y516D01*
X2096Y516D02*
X2097Y516D01*
X2139Y516D02*
X2141Y516D01*
X2196Y516D02*
X2197Y516D01*
X2458Y516D02*
X2465Y516D01*
X1Y515D02*
X8Y515D01*
X2039Y515D02*
X2041Y515D01*
X2096Y515D02*
X2097Y515D01*
X2139Y515D02*
X2141Y515D01*
X2196Y515D02*
X2197Y515D01*
X2458Y515D02*
X2465Y515D01*
X1Y514D02*
X8Y514D01*
X2039Y514D02*
X2041Y514D01*
X2096Y514D02*
X2097Y514D01*
X2139Y514D02*
X2141Y514D01*
X2196Y514D02*
X2197Y514D01*
X2458Y514D02*
X2465Y514D01*
X1Y513D02*
X8Y513D01*
X2039Y513D02*
X2041Y513D01*
X2096Y513D02*
X2097Y513D01*
X2139Y513D02*
X2141Y513D01*
X2196Y513D02*
X2197Y513D01*
X2458Y513D02*
X2465Y513D01*
X1Y512D02*
X8Y512D01*
X2039Y512D02*
X2041Y512D01*
X2096Y512D02*
X2097Y512D01*
X2139Y512D02*
X2141Y512D01*
X2196Y512D02*
X2197Y512D01*
X2458Y512D02*
X2465Y512D01*
X1Y511D02*
X8Y511D01*
X2039Y511D02*
X2041Y511D01*
X2096Y511D02*
X2097Y511D01*
X2139Y511D02*
X2141Y511D01*
X2196Y511D02*
X2197Y511D01*
X2458Y511D02*
X2465Y511D01*
X1Y510D02*
X8Y510D01*
X2039Y510D02*
X2041Y510D01*
X2096Y510D02*
X2097Y510D01*
X2139Y510D02*
X2141Y510D01*
X2196Y510D02*
X2197Y510D01*
X2458Y510D02*
X2465Y510D01*
X1Y509D02*
X8Y509D01*
X2039Y509D02*
X2041Y509D01*
X2096Y509D02*
X2097Y509D01*
X2139Y509D02*
X2141Y509D01*
X2196Y509D02*
X2197Y509D01*
X2458Y509D02*
X2465Y509D01*
X1Y508D02*
X8Y508D01*
X2039Y508D02*
X2041Y508D01*
X2096Y508D02*
X2097Y508D01*
X2139Y508D02*
X2141Y508D01*
X2196Y508D02*
X2197Y508D01*
X2458Y508D02*
X2465Y508D01*
X1Y507D02*
X8Y507D01*
X2039Y507D02*
X2041Y507D01*
X2096Y507D02*
X2097Y507D01*
X2139Y507D02*
X2141Y507D01*
X2196Y507D02*
X2197Y507D01*
X2458Y507D02*
X2465Y507D01*
X1Y506D02*
X8Y506D01*
X2039Y506D02*
X2041Y506D01*
X2096Y506D02*
X2097Y506D01*
X2139Y506D02*
X2141Y506D01*
X2196Y506D02*
X2197Y506D01*
X2458Y506D02*
X2465Y506D01*
X1Y505D02*
X8Y505D01*
X2039Y505D02*
X2041Y505D01*
X2096Y505D02*
X2097Y505D01*
X2139Y505D02*
X2141Y505D01*
X2196Y505D02*
X2197Y505D01*
X2458Y505D02*
X2465Y505D01*
X1Y504D02*
X8Y504D01*
X2039Y504D02*
X2041Y504D01*
X2096Y504D02*
X2097Y504D01*
X2139Y504D02*
X2141Y504D01*
X2196Y504D02*
X2197Y504D01*
X2458Y504D02*
X2465Y504D01*
X1Y503D02*
X8Y503D01*
X2039Y503D02*
X2041Y503D01*
X2096Y503D02*
X2097Y503D01*
X2139Y503D02*
X2141Y503D01*
X2196Y503D02*
X2197Y503D01*
X2458Y503D02*
X2465Y503D01*
X1Y502D02*
X8Y502D01*
X2039Y502D02*
X2041Y502D01*
X2096Y502D02*
X2097Y502D01*
X2139Y502D02*
X2141Y502D01*
X2196Y502D02*
X2197Y502D01*
X2458Y502D02*
X2465Y502D01*
X1Y501D02*
X8Y501D01*
X2039Y501D02*
X2041Y501D01*
X2096Y501D02*
X2097Y501D01*
X2139Y501D02*
X2141Y501D01*
X2196Y501D02*
X2197Y501D01*
X2458Y501D02*
X2465Y501D01*
X1Y500D02*
X8Y500D01*
X85Y500D02*
X99Y500D01*
X2039Y500D02*
X2041Y500D01*
X2096Y500D02*
X2097Y500D01*
X2139Y500D02*
X2141Y500D01*
X2196Y500D02*
X2197Y500D01*
X2458Y500D02*
X2465Y500D01*
X1Y499D02*
X8Y499D01*
X82Y499D02*
X100Y499D01*
X2039Y499D02*
X2041Y499D01*
X2096Y499D02*
X2097Y499D01*
X2139Y499D02*
X2141Y499D01*
X2196Y499D02*
X2197Y499D01*
X2458Y499D02*
X2465Y499D01*
X1Y498D02*
X8Y498D01*
X80Y498D02*
X101Y498D01*
X2039Y498D02*
X2097Y498D01*
X2139Y498D02*
X2197Y498D01*
X2458Y498D02*
X2465Y498D01*
X1Y497D02*
X8Y497D01*
X77Y497D02*
X101Y497D01*
X2039Y497D02*
X2097Y497D01*
X2139Y497D02*
X2197Y497D01*
X2458Y497D02*
X2465Y497D01*
X1Y496D02*
X8Y496D01*
X75Y496D02*
X101Y496D01*
X2039Y496D02*
X2097Y496D01*
X2139Y496D02*
X2197Y496D01*
X2458Y496D02*
X2465Y496D01*
X1Y495D02*
X8Y495D01*
X72Y495D02*
X100Y495D01*
X2458Y495D02*
X2465Y495D01*
X1Y494D02*
X8Y494D01*
X69Y494D02*
X99Y494D01*
X2458Y494D02*
X2465Y494D01*
X1Y493D02*
X8Y493D01*
X67Y493D02*
X85Y493D01*
X2458Y493D02*
X2465Y493D01*
X1Y492D02*
X8Y492D01*
X64Y492D02*
X83Y492D01*
X2458Y492D02*
X2465Y492D01*
X1Y491D02*
X8Y491D01*
X62Y491D02*
X80Y491D01*
X2458Y491D02*
X2465Y491D01*
X1Y490D02*
X8Y490D01*
X59Y490D02*
X78Y490D01*
X2458Y490D02*
X2465Y490D01*
X1Y489D02*
X8Y489D01*
X57Y489D02*
X75Y489D01*
X2458Y489D02*
X2465Y489D01*
X1Y488D02*
X8Y488D01*
X54Y488D02*
X73Y488D01*
X2458Y488D02*
X2465Y488D01*
X1Y487D02*
X8Y487D01*
X51Y487D02*
X70Y487D01*
X2458Y487D02*
X2465Y487D01*
X1Y486D02*
X8Y486D01*
X49Y486D02*
X67Y486D01*
X2458Y486D02*
X2465Y486D01*
X1Y485D02*
X8Y485D01*
X48Y485D02*
X65Y485D01*
X2458Y485D02*
X2465Y485D01*
X1Y484D02*
X8Y484D01*
X48Y484D02*
X62Y484D01*
X2458Y484D02*
X2465Y484D01*
X1Y483D02*
X8Y483D01*
X48Y483D02*
X61Y483D01*
X2136Y483D02*
X2151Y483D01*
X2166Y483D02*
X2181Y483D01*
X2198Y483D02*
X2211Y483D01*
X2458Y483D02*
X2465Y483D01*
X1Y482D02*
X8Y482D01*
X48Y482D02*
X63Y482D01*
X2033Y482D02*
X2051Y482D01*
X2063Y482D02*
X2081Y482D01*
X2095Y482D02*
X2111Y482D01*
X2135Y482D02*
X2153Y482D01*
X2165Y482D02*
X2183Y482D01*
X2196Y482D02*
X2213Y482D01*
X2458Y482D02*
X2465Y482D01*
X1Y481D02*
X8Y481D01*
X49Y481D02*
X66Y481D01*
X2033Y481D02*
X2052Y481D01*
X2063Y481D02*
X2082Y481D01*
X2094Y481D02*
X2112Y481D01*
X2135Y481D02*
X2154Y481D01*
X2165Y481D02*
X2184Y481D01*
X2196Y481D02*
X2214Y481D01*
X2458Y481D02*
X2465Y481D01*
X1Y480D02*
X8Y480D01*
X50Y480D02*
X68Y480D01*
X2033Y480D02*
X2052Y480D01*
X2063Y480D02*
X2082Y480D01*
X2093Y480D02*
X2112Y480D01*
X2135Y480D02*
X2154Y480D01*
X2165Y480D02*
X2184Y480D01*
X2195Y480D02*
X2214Y480D01*
X2458Y480D02*
X2465Y480D01*
X1Y479D02*
X8Y479D01*
X52Y479D02*
X71Y479D01*
X2034Y479D02*
X2052Y479D01*
X2064Y479D02*
X2083Y479D01*
X2093Y479D02*
X2113Y479D01*
X2137Y479D02*
X2154Y479D01*
X2167Y479D02*
X2185Y479D01*
X2195Y479D02*
X2215Y479D01*
X2458Y479D02*
X2465Y479D01*
X1Y478D02*
X8Y478D01*
X55Y478D02*
X73Y478D01*
X2049Y478D02*
X2052Y478D01*
X2079Y478D02*
X2083Y478D01*
X2093Y478D02*
X2096Y478D01*
X2109Y478D02*
X2113Y478D01*
X2151Y478D02*
X2154Y478D01*
X2181Y478D02*
X2185Y478D01*
X2195Y478D02*
X2198Y478D01*
X2211Y478D02*
X2215Y478D01*
X2458Y478D02*
X2465Y478D01*
X1Y477D02*
X8Y477D01*
X57Y477D02*
X76Y477D01*
X2049Y477D02*
X2052Y477D01*
X2079Y477D02*
X2083Y477D01*
X2093Y477D02*
X2096Y477D01*
X2109Y477D02*
X2113Y477D01*
X2151Y477D02*
X2154Y477D01*
X2181Y477D02*
X2185Y477D01*
X2195Y477D02*
X2198Y477D01*
X2211Y477D02*
X2215Y477D01*
X2458Y477D02*
X2465Y477D01*
X1Y476D02*
X8Y476D01*
X60Y476D02*
X78Y476D01*
X2049Y476D02*
X2052Y476D01*
X2079Y476D02*
X2083Y476D01*
X2093Y476D02*
X2096Y476D01*
X2109Y476D02*
X2113Y476D01*
X2151Y476D02*
X2154Y476D01*
X2181Y476D02*
X2185Y476D01*
X2195Y476D02*
X2198Y476D01*
X2211Y476D02*
X2215Y476D01*
X2458Y476D02*
X2465Y476D01*
X1Y475D02*
X8Y475D01*
X63Y475D02*
X81Y475D01*
X2049Y475D02*
X2052Y475D01*
X2079Y475D02*
X2083Y475D01*
X2093Y475D02*
X2096Y475D01*
X2109Y475D02*
X2113Y475D01*
X2151Y475D02*
X2154Y475D01*
X2181Y475D02*
X2185Y475D01*
X2195Y475D02*
X2198Y475D01*
X2211Y475D02*
X2215Y475D01*
X2458Y475D02*
X2465Y475D01*
X1Y474D02*
X8Y474D01*
X65Y474D02*
X83Y474D01*
X2049Y474D02*
X2052Y474D01*
X2079Y474D02*
X2083Y474D01*
X2093Y474D02*
X2096Y474D01*
X2109Y474D02*
X2113Y474D01*
X2151Y474D02*
X2154Y474D01*
X2181Y474D02*
X2185Y474D01*
X2195Y474D02*
X2198Y474D01*
X2211Y474D02*
X2215Y474D01*
X2458Y474D02*
X2465Y474D01*
X1Y473D02*
X8Y473D01*
X68Y473D02*
X86Y473D01*
X2049Y473D02*
X2052Y473D01*
X2079Y473D02*
X2083Y473D01*
X2093Y473D02*
X2096Y473D01*
X2109Y473D02*
X2113Y473D01*
X2151Y473D02*
X2154Y473D01*
X2181Y473D02*
X2185Y473D01*
X2195Y473D02*
X2198Y473D01*
X2211Y473D02*
X2215Y473D01*
X2458Y473D02*
X2465Y473D01*
X1Y472D02*
X8Y472D01*
X70Y472D02*
X100Y472D01*
X2049Y472D02*
X2052Y472D01*
X2079Y472D02*
X2083Y472D01*
X2093Y472D02*
X2096Y472D01*
X2109Y472D02*
X2113Y472D01*
X2151Y472D02*
X2154Y472D01*
X2181Y472D02*
X2185Y472D01*
X2195Y472D02*
X2198Y472D01*
X2211Y472D02*
X2215Y472D01*
X2458Y472D02*
X2465Y472D01*
X1Y471D02*
X8Y471D01*
X73Y471D02*
X101Y471D01*
X2049Y471D02*
X2052Y471D01*
X2079Y471D02*
X2083Y471D01*
X2093Y471D02*
X2096Y471D01*
X2109Y471D02*
X2113Y471D01*
X2151Y471D02*
X2154Y471D01*
X2181Y471D02*
X2185Y471D01*
X2195Y471D02*
X2198Y471D01*
X2211Y471D02*
X2215Y471D01*
X2458Y471D02*
X2465Y471D01*
X1Y470D02*
X8Y470D01*
X75Y470D02*
X101Y470D01*
X2049Y470D02*
X2052Y470D01*
X2079Y470D02*
X2082Y470D01*
X2093Y470D02*
X2096Y470D01*
X2109Y470D02*
X2113Y470D01*
X2151Y470D02*
X2154Y470D01*
X2181Y470D02*
X2185Y470D01*
X2195Y470D02*
X2198Y470D01*
X2211Y470D02*
X2215Y470D01*
X2458Y470D02*
X2465Y470D01*
X1Y469D02*
X8Y469D01*
X78Y469D02*
X101Y469D01*
X2048Y469D02*
X2052Y469D01*
X2078Y469D02*
X2082Y469D01*
X2093Y469D02*
X2096Y469D01*
X2109Y469D02*
X2113Y469D01*
X2139Y469D02*
X2154Y469D01*
X2169Y469D02*
X2185Y469D01*
X2195Y469D02*
X2198Y469D01*
X2211Y469D02*
X2215Y469D01*
X2458Y469D02*
X2465Y469D01*
X1Y468D02*
X8Y468D01*
X81Y468D02*
X101Y468D01*
X2037Y468D02*
X2052Y468D01*
X2067Y468D02*
X2082Y468D01*
X2093Y468D02*
X2096Y468D01*
X2109Y468D02*
X2113Y468D01*
X2136Y468D02*
X2154Y468D01*
X2166Y468D02*
X2184Y468D01*
X2195Y468D02*
X2198Y468D01*
X2211Y468D02*
X2215Y468D01*
X2458Y468D02*
X2465Y468D01*
X1Y467D02*
X8Y467D01*
X83Y467D02*
X100Y467D01*
X2037Y467D02*
X2051Y467D01*
X2067Y467D02*
X2081Y467D01*
X2093Y467D02*
X2096Y467D01*
X2109Y467D02*
X2113Y467D01*
X2135Y467D02*
X2154Y467D01*
X2166Y467D02*
X2184Y467D01*
X2195Y467D02*
X2198Y467D01*
X2211Y467D02*
X2215Y467D01*
X2458Y467D02*
X2465Y467D01*
X1Y466D02*
X8Y466D01*
X86Y466D02*
X98Y466D01*
X2037Y466D02*
X2051Y466D01*
X2067Y466D02*
X2081Y466D01*
X2093Y466D02*
X2096Y466D01*
X2109Y466D02*
X2113Y466D01*
X2135Y466D02*
X2153Y466D01*
X2165Y466D02*
X2183Y466D01*
X2195Y466D02*
X2198Y466D01*
X2211Y466D02*
X2215Y466D01*
X2458Y466D02*
X2465Y466D01*
X1Y465D02*
X8Y465D01*
X2038Y465D02*
X2052Y465D01*
X2068Y465D02*
X2082Y465D01*
X2093Y465D02*
X2096Y465D01*
X2109Y465D02*
X2113Y465D01*
X2135Y465D02*
X2151Y465D01*
X2165Y465D02*
X2181Y465D01*
X2195Y465D02*
X2198Y465D01*
X2211Y465D02*
X2215Y465D01*
X2458Y465D02*
X2465Y465D01*
X1Y464D02*
X8Y464D01*
X2048Y464D02*
X2052Y464D01*
X2079Y464D02*
X2082Y464D01*
X2093Y464D02*
X2096Y464D01*
X2109Y464D02*
X2113Y464D01*
X2135Y464D02*
X2138Y464D01*
X2165Y464D02*
X2168Y464D01*
X2195Y464D02*
X2198Y464D01*
X2211Y464D02*
X2215Y464D01*
X2458Y464D02*
X2465Y464D01*
X1Y463D02*
X8Y463D01*
X2049Y463D02*
X2052Y463D01*
X2079Y463D02*
X2083Y463D01*
X2093Y463D02*
X2096Y463D01*
X2109Y463D02*
X2113Y463D01*
X2135Y463D02*
X2138Y463D01*
X2165Y463D02*
X2168Y463D01*
X2195Y463D02*
X2198Y463D01*
X2211Y463D02*
X2215Y463D01*
X2458Y463D02*
X2465Y463D01*
X1Y462D02*
X8Y462D01*
X2049Y462D02*
X2052Y462D01*
X2079Y462D02*
X2083Y462D01*
X2093Y462D02*
X2096Y462D01*
X2109Y462D02*
X2113Y462D01*
X2135Y462D02*
X2138Y462D01*
X2165Y462D02*
X2168Y462D01*
X2195Y462D02*
X2198Y462D01*
X2211Y462D02*
X2215Y462D01*
X2458Y462D02*
X2465Y462D01*
X1Y461D02*
X8Y461D01*
X2049Y461D02*
X2052Y461D01*
X2079Y461D02*
X2083Y461D01*
X2093Y461D02*
X2096Y461D01*
X2109Y461D02*
X2113Y461D01*
X2135Y461D02*
X2138Y461D01*
X2165Y461D02*
X2168Y461D01*
X2195Y461D02*
X2198Y461D01*
X2211Y461D02*
X2215Y461D01*
X2458Y461D02*
X2465Y461D01*
X1Y460D02*
X8Y460D01*
X2049Y460D02*
X2052Y460D01*
X2079Y460D02*
X2083Y460D01*
X2093Y460D02*
X2096Y460D01*
X2109Y460D02*
X2113Y460D01*
X2135Y460D02*
X2138Y460D01*
X2165Y460D02*
X2168Y460D01*
X2195Y460D02*
X2198Y460D01*
X2211Y460D02*
X2215Y460D01*
X2458Y460D02*
X2465Y460D01*
X1Y459D02*
X8Y459D01*
X2049Y459D02*
X2052Y459D01*
X2079Y459D02*
X2083Y459D01*
X2093Y459D02*
X2096Y459D01*
X2109Y459D02*
X2113Y459D01*
X2135Y459D02*
X2138Y459D01*
X2165Y459D02*
X2168Y459D01*
X2195Y459D02*
X2198Y459D01*
X2211Y459D02*
X2215Y459D01*
X2458Y459D02*
X2465Y459D01*
X1Y458D02*
X8Y458D01*
X2049Y458D02*
X2052Y458D01*
X2079Y458D02*
X2083Y458D01*
X2093Y458D02*
X2096Y458D01*
X2109Y458D02*
X2113Y458D01*
X2135Y458D02*
X2138Y458D01*
X2165Y458D02*
X2168Y458D01*
X2195Y458D02*
X2198Y458D01*
X2211Y458D02*
X2215Y458D01*
X2458Y458D02*
X2465Y458D01*
X1Y457D02*
X8Y457D01*
X2049Y457D02*
X2052Y457D01*
X2079Y457D02*
X2083Y457D01*
X2093Y457D02*
X2096Y457D01*
X2109Y457D02*
X2113Y457D01*
X2135Y457D02*
X2138Y457D01*
X2165Y457D02*
X2168Y457D01*
X2195Y457D02*
X2198Y457D01*
X2211Y457D02*
X2215Y457D01*
X2458Y457D02*
X2465Y457D01*
X1Y456D02*
X8Y456D01*
X2049Y456D02*
X2052Y456D01*
X2079Y456D02*
X2083Y456D01*
X2093Y456D02*
X2096Y456D01*
X2109Y456D02*
X2113Y456D01*
X2135Y456D02*
X2138Y456D01*
X2165Y456D02*
X2168Y456D01*
X2195Y456D02*
X2198Y456D01*
X2211Y456D02*
X2215Y456D01*
X2458Y456D02*
X2465Y456D01*
X1Y455D02*
X8Y455D01*
X2049Y455D02*
X2052Y455D01*
X2079Y455D02*
X2083Y455D01*
X2093Y455D02*
X2096Y455D01*
X2109Y455D02*
X2113Y455D01*
X2135Y455D02*
X2138Y455D01*
X2165Y455D02*
X2168Y455D01*
X2195Y455D02*
X2198Y455D01*
X2211Y455D02*
X2215Y455D01*
X2458Y455D02*
X2465Y455D01*
X1Y454D02*
X8Y454D01*
X2033Y454D02*
X2052Y454D01*
X2064Y454D02*
X2082Y454D01*
X2093Y454D02*
X2113Y454D01*
X2135Y454D02*
X2154Y454D01*
X2165Y454D02*
X2184Y454D01*
X2195Y454D02*
X2215Y454D01*
X2458Y454D02*
X2465Y454D01*
X1Y453D02*
X8Y453D01*
X2033Y453D02*
X2052Y453D01*
X2063Y453D02*
X2082Y453D01*
X2093Y453D02*
X2112Y453D01*
X2135Y453D02*
X2154Y453D01*
X2165Y453D02*
X2185Y453D01*
X2195Y453D02*
X2214Y453D01*
X2458Y453D02*
X2465Y453D01*
X1Y452D02*
X8Y452D01*
X2033Y452D02*
X2051Y452D01*
X2063Y452D02*
X2082Y452D01*
X2094Y452D02*
X2112Y452D01*
X2135Y452D02*
X2154Y452D01*
X2165Y452D02*
X2184Y452D01*
X2196Y452D02*
X2213Y452D01*
X2458Y452D02*
X2465Y452D01*
X1Y451D02*
X8Y451D01*
X2033Y451D02*
X2050Y451D01*
X2064Y451D02*
X2080Y451D01*
X2095Y451D02*
X2110Y451D01*
X2135Y451D02*
X2153Y451D01*
X2173Y451D02*
X2184Y451D01*
X2198Y451D02*
X2212Y451D01*
X2458Y451D02*
X2465Y451D01*
X1Y450D02*
X8Y450D01*
X50Y450D02*
X52Y450D01*
X97Y450D02*
X99Y450D01*
X2458Y450D02*
X2465Y450D01*
X1Y449D02*
X8Y449D01*
X49Y449D02*
X53Y449D01*
X96Y449D02*
X100Y449D01*
X2458Y449D02*
X2465Y449D01*
X1Y448D02*
X8Y448D01*
X48Y448D02*
X54Y448D01*
X95Y448D02*
X101Y448D01*
X2458Y448D02*
X2465Y448D01*
X1Y447D02*
X8Y447D01*
X48Y447D02*
X54Y447D01*
X95Y447D02*
X101Y447D01*
X2458Y447D02*
X2465Y447D01*
X1Y446D02*
X8Y446D01*
X48Y446D02*
X54Y446D01*
X95Y446D02*
X101Y446D01*
X2458Y446D02*
X2465Y446D01*
X1Y445D02*
X8Y445D01*
X48Y445D02*
X54Y445D01*
X95Y445D02*
X101Y445D01*
X2458Y445D02*
X2465Y445D01*
X1Y444D02*
X8Y444D01*
X48Y444D02*
X54Y444D01*
X95Y444D02*
X101Y444D01*
X2458Y444D02*
X2465Y444D01*
X1Y443D02*
X8Y443D01*
X48Y443D02*
X54Y443D01*
X95Y443D02*
X101Y443D01*
X2458Y443D02*
X2465Y443D01*
X1Y442D02*
X8Y442D01*
X48Y442D02*
X54Y442D01*
X95Y442D02*
X101Y442D01*
X2458Y442D02*
X2465Y442D01*
X1Y441D02*
X8Y441D01*
X48Y441D02*
X54Y441D01*
X95Y441D02*
X101Y441D01*
X2458Y441D02*
X2465Y441D01*
X1Y440D02*
X8Y440D01*
X48Y440D02*
X54Y440D01*
X95Y440D02*
X101Y440D01*
X2458Y440D02*
X2465Y440D01*
X1Y439D02*
X8Y439D01*
X48Y439D02*
X54Y439D01*
X95Y439D02*
X101Y439D01*
X2458Y439D02*
X2465Y439D01*
X1Y438D02*
X8Y438D01*
X48Y438D02*
X54Y438D01*
X95Y438D02*
X101Y438D01*
X2458Y438D02*
X2465Y438D01*
X1Y437D02*
X8Y437D01*
X48Y437D02*
X54Y437D01*
X95Y437D02*
X101Y437D01*
X2458Y437D02*
X2465Y437D01*
X1Y436D02*
X8Y436D01*
X48Y436D02*
X101Y436D01*
X2458Y436D02*
X2465Y436D01*
X1Y435D02*
X8Y435D01*
X48Y435D02*
X101Y435D01*
X2458Y435D02*
X2465Y435D01*
X1Y434D02*
X8Y434D01*
X48Y434D02*
X101Y434D01*
X2458Y434D02*
X2465Y434D01*
X1Y433D02*
X8Y433D01*
X48Y433D02*
X101Y433D01*
X2458Y433D02*
X2465Y433D01*
X1Y432D02*
X8Y432D01*
X48Y432D02*
X101Y432D01*
X2458Y432D02*
X2465Y432D01*
X1Y431D02*
X8Y431D01*
X48Y431D02*
X101Y431D01*
X2458Y431D02*
X2465Y431D01*
X1Y430D02*
X8Y430D01*
X48Y430D02*
X101Y430D01*
X2458Y430D02*
X2465Y430D01*
X1Y429D02*
X8Y429D01*
X48Y429D02*
X54Y429D01*
X2458Y429D02*
X2465Y429D01*
X1Y428D02*
X8Y428D01*
X48Y428D02*
X54Y428D01*
X2458Y428D02*
X2465Y428D01*
X1Y427D02*
X8Y427D01*
X48Y427D02*
X54Y427D01*
X2458Y427D02*
X2465Y427D01*
X1Y426D02*
X8Y426D01*
X48Y426D02*
X54Y426D01*
X2458Y426D02*
X2465Y426D01*
X1Y425D02*
X8Y425D01*
X48Y425D02*
X54Y425D01*
X2458Y425D02*
X2465Y425D01*
X1Y424D02*
X8Y424D01*
X48Y424D02*
X54Y424D01*
X2458Y424D02*
X2465Y424D01*
X1Y423D02*
X8Y423D01*
X48Y423D02*
X54Y423D01*
X2458Y423D02*
X2465Y423D01*
X1Y422D02*
X8Y422D01*
X48Y422D02*
X70Y422D01*
X2458Y422D02*
X2465Y422D01*
X1Y421D02*
X8Y421D01*
X48Y421D02*
X71Y421D01*
X2458Y421D02*
X2465Y421D01*
X1Y420D02*
X8Y420D01*
X48Y420D02*
X71Y420D01*
X2458Y420D02*
X2465Y420D01*
X1Y419D02*
X8Y419D01*
X48Y419D02*
X72Y419D01*
X2458Y419D02*
X2465Y419D01*
X1Y418D02*
X8Y418D01*
X48Y418D02*
X71Y418D01*
X2458Y418D02*
X2465Y418D01*
X1Y417D02*
X8Y417D01*
X49Y417D02*
X71Y417D01*
X2458Y417D02*
X2465Y417D01*
X1Y416D02*
X8Y416D01*
X50Y416D02*
X69Y416D01*
X2458Y416D02*
X2465Y416D01*
X1Y415D02*
X8Y415D01*
X2458Y415D02*
X2465Y415D01*
X1Y414D02*
X8Y414D01*
X2458Y414D02*
X2465Y414D01*
X1Y413D02*
X8Y413D01*
X2458Y413D02*
X2465Y413D01*
X1Y412D02*
X8Y412D01*
X2458Y412D02*
X2465Y412D01*
X1Y411D02*
X8Y411D01*
X2458Y411D02*
X2465Y411D01*
X1Y410D02*
X8Y410D01*
X2458Y410D02*
X2465Y410D01*
X1Y409D02*
X8Y409D01*
X2458Y409D02*
X2465Y409D01*
X1Y408D02*
X8Y408D01*
X2458Y408D02*
X2465Y408D01*
X1Y407D02*
X8Y407D01*
X2458Y407D02*
X2465Y407D01*
X1Y406D02*
X8Y406D01*
X2458Y406D02*
X2465Y406D01*
X1Y405D02*
X8Y405D01*
X2458Y405D02*
X2465Y405D01*
X1Y404D02*
X8Y404D01*
X2458Y404D02*
X2465Y404D01*
X1Y403D02*
X8Y403D01*
X2458Y403D02*
X2465Y403D01*
X1Y402D02*
X8Y402D01*
X2458Y402D02*
X2465Y402D01*
X1Y401D02*
X8Y401D01*
X2458Y401D02*
X2465Y401D01*
X1Y400D02*
X8Y400D01*
X2458Y400D02*
X2465Y400D01*
X1Y399D02*
X8Y399D01*
X2458Y399D02*
X2465Y399D01*
X1Y398D02*
X8Y398D01*
X2458Y398D02*
X2465Y398D01*
X1Y397D02*
X8Y397D01*
X2458Y397D02*
X2465Y397D01*
X1Y396D02*
X8Y396D01*
X2458Y396D02*
X2465Y396D01*
X1Y395D02*
X8Y395D01*
X2458Y395D02*
X2465Y395D01*
X1Y394D02*
X8Y394D01*
X2458Y394D02*
X2465Y394D01*
X1Y393D02*
X8Y393D01*
X2458Y393D02*
X2465Y393D01*
X1Y392D02*
X8Y392D01*
X2458Y392D02*
X2465Y392D01*
X1Y391D02*
X8Y391D01*
X2458Y391D02*
X2465Y391D01*
X1Y390D02*
X8Y390D01*
X2458Y390D02*
X2465Y390D01*
X1Y389D02*
X8Y389D01*
X2458Y389D02*
X2465Y389D01*
X1Y388D02*
X8Y388D01*
X2458Y388D02*
X2465Y388D01*
X1Y387D02*
X8Y387D01*
X2458Y387D02*
X2465Y387D01*
X1Y386D02*
X8Y386D01*
X2458Y386D02*
X2465Y386D01*
X1Y385D02*
X8Y385D01*
X2458Y385D02*
X2465Y385D01*
X1Y384D02*
X8Y384D01*
X2458Y384D02*
X2465Y384D01*
X1Y383D02*
X8Y383D01*
X2458Y383D02*
X2465Y383D01*
X1Y382D02*
X8Y382D01*
X2458Y382D02*
X2465Y382D01*
X1Y381D02*
X8Y381D01*
X2458Y381D02*
X2465Y381D01*
X1Y380D02*
X8Y380D01*
X2458Y380D02*
X2465Y380D01*
X1Y379D02*
X8Y379D01*
X2458Y379D02*
X2465Y379D01*
X1Y378D02*
X8Y378D01*
X2458Y378D02*
X2465Y378D01*
X1Y377D02*
X8Y377D01*
X2458Y377D02*
X2465Y377D01*
X1Y376D02*
X8Y376D01*
X2458Y376D02*
X2465Y376D01*
X1Y375D02*
X8Y375D01*
X2458Y375D02*
X2465Y375D01*
X1Y374D02*
X8Y374D01*
X2458Y374D02*
X2465Y374D01*
X1Y373D02*
X8Y373D01*
X2458Y373D02*
X2465Y373D01*
X1Y372D02*
X8Y372D01*
X2458Y372D02*
X2465Y372D01*
X1Y371D02*
X8Y371D01*
X2458Y371D02*
X2465Y371D01*
X1Y370D02*
X8Y370D01*
X2458Y370D02*
X2465Y370D01*
X1Y369D02*
X8Y369D01*
X2458Y369D02*
X2465Y369D01*
X1Y368D02*
X8Y368D01*
X2458Y368D02*
X2465Y368D01*
X1Y367D02*
X8Y367D01*
X2458Y367D02*
X2465Y367D01*
X1Y366D02*
X8Y366D01*
X2458Y366D02*
X2465Y366D01*
X1Y365D02*
X8Y365D01*
X2458Y365D02*
X2465Y365D01*
X1Y364D02*
X8Y364D01*
X2458Y364D02*
X2465Y364D01*
X1Y363D02*
X8Y363D01*
X2458Y363D02*
X2465Y363D01*
X1Y362D02*
X8Y362D01*
X2458Y362D02*
X2465Y362D01*
X1Y361D02*
X8Y361D01*
X2458Y361D02*
X2465Y361D01*
X1Y360D02*
X8Y360D01*
X2458Y360D02*
X2465Y360D01*
X1Y359D02*
X8Y359D01*
X2458Y359D02*
X2465Y359D01*
X1Y358D02*
X8Y358D01*
X2458Y358D02*
X2465Y358D01*
X1Y357D02*
X8Y357D01*
X2458Y357D02*
X2465Y357D01*
X1Y356D02*
X8Y356D01*
X2458Y356D02*
X2465Y356D01*
X1Y355D02*
X8Y355D01*
X2458Y355D02*
X2465Y355D01*
X1Y354D02*
X8Y354D01*
X2458Y354D02*
X2465Y354D01*
X1Y353D02*
X8Y353D01*
X2458Y353D02*
X2465Y353D01*
X1Y352D02*
X8Y352D01*
X2458Y352D02*
X2465Y352D01*
X1Y351D02*
X8Y351D01*
X2458Y351D02*
X2465Y351D01*
X1Y350D02*
X8Y350D01*
X2458Y350D02*
X2465Y350D01*
X1Y349D02*
X8Y349D01*
X48Y349D02*
X74Y349D01*
X96Y349D02*
X100Y349D01*
X2458Y349D02*
X2465Y349D01*
X1Y348D02*
X8Y348D01*
X48Y348D02*
X75Y348D01*
X95Y348D02*
X101Y348D01*
X2458Y348D02*
X2465Y348D01*
X1Y347D02*
X8Y347D01*
X48Y347D02*
X76Y347D01*
X95Y347D02*
X101Y347D01*
X2458Y347D02*
X2465Y347D01*
X1Y346D02*
X8Y346D01*
X48Y346D02*
X77Y346D01*
X95Y346D02*
X101Y346D01*
X2458Y346D02*
X2465Y346D01*
X1Y345D02*
X8Y345D01*
X48Y345D02*
X77Y345D01*
X95Y345D02*
X101Y345D01*
X2458Y345D02*
X2465Y345D01*
X1Y344D02*
X8Y344D01*
X48Y344D02*
X77Y344D01*
X95Y344D02*
X101Y344D01*
X2458Y344D02*
X2465Y344D01*
X1Y343D02*
X8Y343D01*
X48Y343D02*
X77Y343D01*
X95Y343D02*
X101Y343D01*
X2458Y343D02*
X2465Y343D01*
X1Y342D02*
X8Y342D01*
X48Y342D02*
X54Y342D01*
X71Y342D02*
X77Y342D01*
X95Y342D02*
X101Y342D01*
X2458Y342D02*
X2465Y342D01*
X1Y341D02*
X8Y341D01*
X48Y341D02*
X54Y341D01*
X71Y341D02*
X77Y341D01*
X95Y341D02*
X101Y341D01*
X2458Y341D02*
X2465Y341D01*
X1Y340D02*
X8Y340D01*
X48Y340D02*
X54Y340D01*
X71Y340D02*
X77Y340D01*
X95Y340D02*
X101Y340D01*
X2458Y340D02*
X2465Y340D01*
X1Y339D02*
X8Y339D01*
X48Y339D02*
X54Y339D01*
X71Y339D02*
X77Y339D01*
X95Y339D02*
X101Y339D01*
X2458Y339D02*
X2465Y339D01*
X1Y338D02*
X8Y338D01*
X48Y338D02*
X54Y338D01*
X71Y338D02*
X77Y338D01*
X95Y338D02*
X101Y338D01*
X2458Y338D02*
X2465Y338D01*
X1Y337D02*
X8Y337D01*
X48Y337D02*
X54Y337D01*
X71Y337D02*
X77Y337D01*
X95Y337D02*
X101Y337D01*
X2458Y337D02*
X2465Y337D01*
X1Y336D02*
X8Y336D01*
X48Y336D02*
X54Y336D01*
X71Y336D02*
X77Y336D01*
X95Y336D02*
X101Y336D01*
X2458Y336D02*
X2465Y336D01*
X1Y335D02*
X8Y335D01*
X48Y335D02*
X54Y335D01*
X71Y335D02*
X77Y335D01*
X95Y335D02*
X101Y335D01*
X2458Y335D02*
X2465Y335D01*
X1Y334D02*
X8Y334D01*
X48Y334D02*
X54Y334D01*
X71Y334D02*
X77Y334D01*
X95Y334D02*
X101Y334D01*
X2458Y334D02*
X2465Y334D01*
X1Y333D02*
X8Y333D01*
X48Y333D02*
X54Y333D01*
X71Y333D02*
X77Y333D01*
X95Y333D02*
X101Y333D01*
X2458Y333D02*
X2465Y333D01*
X1Y332D02*
X8Y332D01*
X48Y332D02*
X54Y332D01*
X71Y332D02*
X77Y332D01*
X95Y332D02*
X101Y332D01*
X2458Y332D02*
X2465Y332D01*
X1Y331D02*
X8Y331D01*
X48Y331D02*
X54Y331D01*
X71Y331D02*
X77Y331D01*
X95Y331D02*
X101Y331D01*
X2458Y331D02*
X2465Y331D01*
X1Y330D02*
X8Y330D01*
X48Y330D02*
X54Y330D01*
X71Y330D02*
X77Y330D01*
X95Y330D02*
X101Y330D01*
X2458Y330D02*
X2465Y330D01*
X1Y329D02*
X8Y329D01*
X48Y329D02*
X54Y329D01*
X71Y329D02*
X77Y329D01*
X95Y329D02*
X101Y329D01*
X2458Y329D02*
X2465Y329D01*
X1Y328D02*
X8Y328D01*
X48Y328D02*
X54Y328D01*
X71Y328D02*
X77Y328D01*
X95Y328D02*
X101Y328D01*
X2458Y328D02*
X2465Y328D01*
X1Y327D02*
X8Y327D01*
X48Y327D02*
X54Y327D01*
X71Y327D02*
X77Y327D01*
X95Y327D02*
X101Y327D01*
X2458Y327D02*
X2465Y327D01*
X1Y326D02*
X8Y326D01*
X48Y326D02*
X54Y326D01*
X71Y326D02*
X77Y326D01*
X95Y326D02*
X101Y326D01*
X2458Y326D02*
X2465Y326D01*
X1Y325D02*
X8Y325D01*
X48Y325D02*
X54Y325D01*
X71Y325D02*
X77Y325D01*
X95Y325D02*
X101Y325D01*
X2458Y325D02*
X2465Y325D01*
X1Y324D02*
X8Y324D01*
X48Y324D02*
X54Y324D01*
X71Y324D02*
X77Y324D01*
X95Y324D02*
X101Y324D01*
X2458Y324D02*
X2465Y324D01*
X1Y323D02*
X8Y323D01*
X48Y323D02*
X54Y323D01*
X71Y323D02*
X77Y323D01*
X95Y323D02*
X101Y323D01*
X2458Y323D02*
X2465Y323D01*
X1Y322D02*
X8Y322D01*
X48Y322D02*
X54Y322D01*
X71Y322D02*
X101Y322D01*
X2458Y322D02*
X2465Y322D01*
X1Y321D02*
X8Y321D01*
X48Y321D02*
X54Y321D01*
X72Y321D02*
X101Y321D01*
X2458Y321D02*
X2465Y321D01*
X1Y320D02*
X8Y320D01*
X48Y320D02*
X54Y320D01*
X72Y320D02*
X101Y320D01*
X2458Y320D02*
X2465Y320D01*
X1Y319D02*
X8Y319D01*
X48Y319D02*
X54Y319D01*
X72Y319D02*
X100Y319D01*
X2458Y319D02*
X2465Y319D01*
X1Y318D02*
X8Y318D01*
X48Y318D02*
X54Y318D01*
X73Y318D02*
X99Y318D01*
X2458Y318D02*
X2465Y318D01*
X1Y317D02*
X8Y317D01*
X48Y317D02*
X53Y317D01*
X74Y317D02*
X98Y317D01*
X2458Y317D02*
X2465Y317D01*
X1Y316D02*
X8Y316D01*
X49Y316D02*
X52Y316D01*
X75Y316D02*
X97Y316D01*
X2458Y316D02*
X2465Y316D01*
X1Y315D02*
X8Y315D01*
X2458Y315D02*
X2465Y315D01*
X1Y314D02*
X8Y314D01*
X2458Y314D02*
X2465Y314D01*
X1Y313D02*
X8Y313D01*
X2458Y313D02*
X2465Y313D01*
X1Y312D02*
X8Y312D01*
X2458Y312D02*
X2465Y312D01*
X1Y311D02*
X8Y311D01*
X2458Y311D02*
X2465Y311D01*
X1Y310D02*
X8Y310D01*
X2458Y310D02*
X2465Y310D01*
X1Y309D02*
X8Y309D01*
X2458Y309D02*
X2465Y309D01*
X1Y308D02*
X8Y308D01*
X2458Y308D02*
X2465Y308D01*
X1Y307D02*
X8Y307D01*
X2458Y307D02*
X2465Y307D01*
X1Y306D02*
X8Y306D01*
X2458Y306D02*
X2465Y306D01*
X1Y305D02*
X8Y305D01*
X2458Y305D02*
X2465Y305D01*
X1Y304D02*
X8Y304D01*
X2458Y304D02*
X2465Y304D01*
X1Y303D02*
X8Y303D01*
X2458Y303D02*
X2465Y303D01*
X1Y302D02*
X8Y302D01*
X2458Y302D02*
X2465Y302D01*
X1Y301D02*
X8Y301D01*
X2458Y301D02*
X2465Y301D01*
X1Y300D02*
X8Y300D01*
X2458Y300D02*
X2465Y300D01*
X1Y299D02*
X8Y299D01*
X52Y299D02*
X97Y299D01*
X2458Y299D02*
X2465Y299D01*
X1Y298D02*
X8Y298D01*
X50Y298D02*
X98Y298D01*
X2458Y298D02*
X2465Y298D01*
X1Y297D02*
X8Y297D01*
X49Y297D02*
X99Y297D01*
X2458Y297D02*
X2465Y297D01*
X1Y296D02*
X8Y296D01*
X49Y296D02*
X100Y296D01*
X2458Y296D02*
X2465Y296D01*
X1Y295D02*
X8Y295D01*
X48Y295D02*
X101Y295D01*
X2458Y295D02*
X2465Y295D01*
X1Y294D02*
X8Y294D01*
X48Y294D02*
X101Y294D01*
X2458Y294D02*
X2465Y294D01*
X1Y293D02*
X8Y293D01*
X48Y293D02*
X101Y293D01*
X2458Y293D02*
X2465Y293D01*
X1Y292D02*
X8Y292D01*
X48Y292D02*
X54Y292D01*
X95Y292D02*
X101Y292D01*
X2458Y292D02*
X2465Y292D01*
X1Y291D02*
X8Y291D01*
X48Y291D02*
X54Y291D01*
X95Y291D02*
X101Y291D01*
X2458Y291D02*
X2465Y291D01*
X1Y290D02*
X8Y290D01*
X48Y290D02*
X54Y290D01*
X95Y290D02*
X101Y290D01*
X2458Y290D02*
X2465Y290D01*
X1Y289D02*
X8Y289D01*
X48Y289D02*
X54Y289D01*
X95Y289D02*
X101Y289D01*
X2458Y289D02*
X2465Y289D01*
X1Y288D02*
X8Y288D01*
X48Y288D02*
X54Y288D01*
X95Y288D02*
X101Y288D01*
X2458Y288D02*
X2465Y288D01*
X1Y287D02*
X8Y287D01*
X48Y287D02*
X54Y287D01*
X95Y287D02*
X101Y287D01*
X2458Y287D02*
X2465Y287D01*
X1Y286D02*
X8Y286D01*
X48Y286D02*
X54Y286D01*
X95Y286D02*
X101Y286D01*
X2458Y286D02*
X2465Y286D01*
X1Y285D02*
X8Y285D01*
X48Y285D02*
X54Y285D01*
X95Y285D02*
X101Y285D01*
X2458Y285D02*
X2465Y285D01*
X1Y284D02*
X8Y284D01*
X48Y284D02*
X54Y284D01*
X95Y284D02*
X101Y284D01*
X2458Y284D02*
X2465Y284D01*
X1Y283D02*
X8Y283D01*
X48Y283D02*
X54Y283D01*
X95Y283D02*
X101Y283D01*
X2458Y283D02*
X2465Y283D01*
X1Y282D02*
X8Y282D01*
X48Y282D02*
X54Y282D01*
X95Y282D02*
X101Y282D01*
X2458Y282D02*
X2465Y282D01*
X1Y281D02*
X8Y281D01*
X48Y281D02*
X54Y281D01*
X95Y281D02*
X101Y281D01*
X2458Y281D02*
X2465Y281D01*
X1Y280D02*
X8Y280D01*
X48Y280D02*
X54Y280D01*
X95Y280D02*
X101Y280D01*
X2458Y280D02*
X2465Y280D01*
X1Y279D02*
X8Y279D01*
X48Y279D02*
X54Y279D01*
X95Y279D02*
X101Y279D01*
X2458Y279D02*
X2465Y279D01*
X1Y278D02*
X8Y278D01*
X48Y278D02*
X54Y278D01*
X95Y278D02*
X101Y278D01*
X2458Y278D02*
X2465Y278D01*
X1Y277D02*
X8Y277D01*
X48Y277D02*
X54Y277D01*
X95Y277D02*
X101Y277D01*
X2458Y277D02*
X2465Y277D01*
X1Y276D02*
X8Y276D01*
X48Y276D02*
X54Y276D01*
X95Y276D02*
X101Y276D01*
X2458Y276D02*
X2465Y276D01*
X1Y275D02*
X8Y275D01*
X48Y275D02*
X54Y275D01*
X95Y275D02*
X101Y275D01*
X2458Y275D02*
X2465Y275D01*
X1Y274D02*
X8Y274D01*
X48Y274D02*
X54Y274D01*
X95Y274D02*
X101Y274D01*
X2458Y274D02*
X2465Y274D01*
X1Y273D02*
X8Y273D01*
X48Y273D02*
X54Y273D01*
X95Y273D02*
X101Y273D01*
X2458Y273D02*
X2465Y273D01*
X1Y272D02*
X8Y272D01*
X48Y272D02*
X101Y272D01*
X2458Y272D02*
X2465Y272D01*
X1Y271D02*
X8Y271D01*
X48Y271D02*
X101Y271D01*
X2458Y271D02*
X2465Y271D01*
X1Y270D02*
X8Y270D01*
X48Y270D02*
X101Y270D01*
X2458Y270D02*
X2465Y270D01*
X1Y269D02*
X8Y269D01*
X49Y269D02*
X100Y269D01*
X2458Y269D02*
X2465Y269D01*
X1Y268D02*
X8Y268D01*
X49Y268D02*
X100Y268D01*
X2458Y268D02*
X2465Y268D01*
X1Y267D02*
X8Y267D01*
X50Y267D02*
X99Y267D01*
X2458Y267D02*
X2465Y267D01*
X1Y266D02*
X8Y266D01*
X52Y266D02*
X97Y266D01*
X2458Y266D02*
X2465Y266D01*
X1Y265D02*
X8Y265D01*
X2458Y265D02*
X2465Y265D01*
X1Y264D02*
X8Y264D01*
X2458Y264D02*
X2465Y264D01*
X1Y263D02*
X8Y263D01*
X2458Y263D02*
X2465Y263D01*
X1Y262D02*
X8Y262D01*
X2458Y262D02*
X2465Y262D01*
X1Y261D02*
X8Y261D01*
X2458Y261D02*
X2465Y261D01*
X1Y260D02*
X8Y260D01*
X2458Y260D02*
X2465Y260D01*
X1Y259D02*
X8Y259D01*
X2458Y259D02*
X2465Y259D01*
X1Y258D02*
X8Y258D01*
X2458Y258D02*
X2465Y258D01*
X1Y257D02*
X8Y257D01*
X2458Y257D02*
X2465Y257D01*
X1Y256D02*
X8Y256D01*
X2458Y256D02*
X2465Y256D01*
X1Y255D02*
X8Y255D01*
X2458Y255D02*
X2465Y255D01*
X1Y254D02*
X8Y254D01*
X2458Y254D02*
X2465Y254D01*
X1Y253D02*
X8Y253D01*
X2458Y253D02*
X2465Y253D01*
X1Y252D02*
X8Y252D01*
X2458Y252D02*
X2465Y252D01*
X1Y251D02*
X8Y251D01*
X2458Y251D02*
X2465Y251D01*
X1Y250D02*
X8Y250D01*
X2458Y250D02*
X2465Y250D01*
X1Y249D02*
X8Y249D01*
X48Y249D02*
X73Y249D01*
X97Y249D02*
X99Y249D01*
X2458Y249D02*
X2465Y249D01*
X1Y248D02*
X8Y248D01*
X48Y248D02*
X75Y248D01*
X96Y248D02*
X100Y248D01*
X2458Y248D02*
X2465Y248D01*
X1Y247D02*
X8Y247D01*
X48Y247D02*
X76Y247D01*
X95Y247D02*
X101Y247D01*
X2458Y247D02*
X2465Y247D01*
X1Y246D02*
X8Y246D01*
X48Y246D02*
X76Y246D01*
X95Y246D02*
X101Y246D01*
X2458Y246D02*
X2465Y246D01*
X1Y245D02*
X8Y245D01*
X48Y245D02*
X77Y245D01*
X95Y245D02*
X101Y245D01*
X2458Y245D02*
X2465Y245D01*
X1Y244D02*
X8Y244D01*
X48Y244D02*
X77Y244D01*
X95Y244D02*
X101Y244D01*
X2458Y244D02*
X2465Y244D01*
X1Y243D02*
X8Y243D01*
X48Y243D02*
X77Y243D01*
X95Y243D02*
X101Y243D01*
X2458Y243D02*
X2465Y243D01*
X1Y242D02*
X8Y242D01*
X48Y242D02*
X54Y242D01*
X71Y242D02*
X77Y242D01*
X95Y242D02*
X101Y242D01*
X2458Y242D02*
X2465Y242D01*
X1Y241D02*
X8Y241D01*
X48Y241D02*
X54Y241D01*
X71Y241D02*
X77Y241D01*
X95Y241D02*
X101Y241D01*
X2458Y241D02*
X2465Y241D01*
X1Y240D02*
X8Y240D01*
X48Y240D02*
X54Y240D01*
X71Y240D02*
X77Y240D01*
X95Y240D02*
X101Y240D01*
X2458Y240D02*
X2465Y240D01*
X1Y239D02*
X8Y239D01*
X48Y239D02*
X54Y239D01*
X71Y239D02*
X77Y239D01*
X95Y239D02*
X101Y239D01*
X2458Y239D02*
X2465Y239D01*
X1Y238D02*
X8Y238D01*
X48Y238D02*
X54Y238D01*
X71Y238D02*
X77Y238D01*
X95Y238D02*
X101Y238D01*
X2458Y238D02*
X2465Y238D01*
X1Y237D02*
X8Y237D01*
X48Y237D02*
X54Y237D01*
X71Y237D02*
X77Y237D01*
X95Y237D02*
X101Y237D01*
X2458Y237D02*
X2465Y237D01*
X1Y236D02*
X8Y236D01*
X48Y236D02*
X54Y236D01*
X71Y236D02*
X77Y236D01*
X95Y236D02*
X101Y236D01*
X2458Y236D02*
X2465Y236D01*
X1Y235D02*
X8Y235D01*
X48Y235D02*
X54Y235D01*
X71Y235D02*
X77Y235D01*
X95Y235D02*
X101Y235D01*
X2458Y235D02*
X2465Y235D01*
X1Y234D02*
X8Y234D01*
X48Y234D02*
X54Y234D01*
X71Y234D02*
X77Y234D01*
X95Y234D02*
X101Y234D01*
X2458Y234D02*
X2465Y234D01*
X1Y233D02*
X8Y233D01*
X48Y233D02*
X54Y233D01*
X71Y233D02*
X77Y233D01*
X95Y233D02*
X101Y233D01*
X2458Y233D02*
X2465Y233D01*
X1Y232D02*
X8Y232D01*
X48Y232D02*
X54Y232D01*
X71Y232D02*
X77Y232D01*
X95Y232D02*
X101Y232D01*
X2458Y232D02*
X2465Y232D01*
X1Y231D02*
X8Y231D01*
X48Y231D02*
X54Y231D01*
X71Y231D02*
X77Y231D01*
X95Y231D02*
X101Y231D01*
X2458Y231D02*
X2465Y231D01*
X1Y230D02*
X8Y230D01*
X48Y230D02*
X54Y230D01*
X71Y230D02*
X77Y230D01*
X95Y230D02*
X101Y230D01*
X2458Y230D02*
X2465Y230D01*
X1Y229D02*
X8Y229D01*
X48Y229D02*
X54Y229D01*
X71Y229D02*
X77Y229D01*
X95Y229D02*
X101Y229D01*
X2458Y229D02*
X2465Y229D01*
X1Y228D02*
X8Y228D01*
X48Y228D02*
X54Y228D01*
X71Y228D02*
X77Y228D01*
X95Y228D02*
X101Y228D01*
X2458Y228D02*
X2465Y228D01*
X1Y227D02*
X8Y227D01*
X48Y227D02*
X54Y227D01*
X71Y227D02*
X77Y227D01*
X95Y227D02*
X101Y227D01*
X2458Y227D02*
X2465Y227D01*
X1Y226D02*
X8Y226D01*
X48Y226D02*
X54Y226D01*
X71Y226D02*
X77Y226D01*
X95Y226D02*
X101Y226D01*
X2458Y226D02*
X2465Y226D01*
X1Y225D02*
X8Y225D01*
X48Y225D02*
X54Y225D01*
X71Y225D02*
X77Y225D01*
X95Y225D02*
X101Y225D01*
X2458Y225D02*
X2465Y225D01*
X1Y224D02*
X8Y224D01*
X48Y224D02*
X54Y224D01*
X71Y224D02*
X77Y224D01*
X95Y224D02*
X101Y224D01*
X2458Y224D02*
X2465Y224D01*
X1Y223D02*
X8Y223D01*
X48Y223D02*
X54Y223D01*
X71Y223D02*
X77Y223D01*
X95Y223D02*
X101Y223D01*
X2458Y223D02*
X2465Y223D01*
X1Y222D02*
X8Y222D01*
X48Y222D02*
X54Y222D01*
X71Y222D02*
X78Y222D01*
X95Y222D02*
X101Y222D01*
X2458Y222D02*
X2465Y222D01*
X1Y221D02*
X8Y221D01*
X48Y221D02*
X54Y221D01*
X72Y221D02*
X101Y221D01*
X2458Y221D02*
X2465Y221D01*
X1Y220D02*
X8Y220D01*
X48Y220D02*
X54Y220D01*
X72Y220D02*
X101Y220D01*
X2458Y220D02*
X2465Y220D01*
X1Y219D02*
X8Y219D01*
X48Y219D02*
X54Y219D01*
X72Y219D02*
X100Y219D01*
X2458Y219D02*
X2465Y219D01*
X1Y218D02*
X8Y218D01*
X48Y218D02*
X54Y218D01*
X73Y218D02*
X100Y218D01*
X2458Y218D02*
X2465Y218D01*
X1Y217D02*
X8Y217D01*
X48Y217D02*
X54Y217D01*
X74Y217D02*
X99Y217D01*
X2458Y217D02*
X2465Y217D01*
X1Y216D02*
X8Y216D01*
X49Y216D02*
X53Y216D01*
X75Y216D02*
X98Y216D01*
X2458Y216D02*
X2465Y216D01*
X1Y215D02*
X8Y215D01*
X51Y215D02*
X51Y215D01*
X78Y215D02*
X95Y215D01*
X2458Y215D02*
X2465Y215D01*
X1Y214D02*
X8Y214D01*
X2458Y214D02*
X2465Y214D01*
X1Y213D02*
X8Y213D01*
X2458Y213D02*
X2465Y213D01*
X1Y212D02*
X8Y212D01*
X2458Y212D02*
X2465Y212D01*
X1Y211D02*
X8Y211D01*
X2458Y211D02*
X2465Y211D01*
X1Y210D02*
X8Y210D01*
X2458Y210D02*
X2465Y210D01*
X1Y209D02*
X8Y209D01*
X2458Y209D02*
X2465Y209D01*
X1Y208D02*
X8Y208D01*
X2458Y208D02*
X2465Y208D01*
X1Y207D02*
X8Y207D01*
X2458Y207D02*
X2465Y207D01*
X1Y206D02*
X8Y206D01*
X2458Y206D02*
X2465Y206D01*
X1Y205D02*
X8Y205D01*
X2458Y205D02*
X2465Y205D01*
X1Y204D02*
X8Y204D01*
X2458Y204D02*
X2465Y204D01*
X1Y203D02*
X8Y203D01*
X2458Y203D02*
X2465Y203D01*
X1Y202D02*
X8Y202D01*
X2458Y202D02*
X2465Y202D01*
X1Y201D02*
X8Y201D01*
X2458Y201D02*
X2465Y201D01*
X1Y200D02*
X8Y200D01*
X2458Y200D02*
X2465Y200D01*
X1Y199D02*
X8Y199D01*
X50Y199D02*
X52Y199D01*
X97Y199D02*
X99Y199D01*
X2458Y199D02*
X2465Y199D01*
X1Y198D02*
X8Y198D01*
X49Y198D02*
X53Y198D01*
X96Y198D02*
X100Y198D01*
X2458Y198D02*
X2465Y198D01*
X1Y197D02*
X8Y197D01*
X48Y197D02*
X54Y197D01*
X95Y197D02*
X101Y197D01*
X2458Y197D02*
X2465Y197D01*
X1Y196D02*
X8Y196D01*
X48Y196D02*
X54Y196D01*
X95Y196D02*
X101Y196D01*
X2458Y196D02*
X2465Y196D01*
X1Y195D02*
X8Y195D01*
X48Y195D02*
X54Y195D01*
X95Y195D02*
X101Y195D01*
X2458Y195D02*
X2465Y195D01*
X1Y194D02*
X8Y194D01*
X48Y194D02*
X54Y194D01*
X95Y194D02*
X101Y194D01*
X2458Y194D02*
X2465Y194D01*
X1Y193D02*
X8Y193D01*
X48Y193D02*
X54Y193D01*
X95Y193D02*
X101Y193D01*
X2458Y193D02*
X2465Y193D01*
X1Y192D02*
X8Y192D01*
X48Y192D02*
X54Y192D01*
X73Y192D02*
X76Y192D01*
X95Y192D02*
X101Y192D01*
X2458Y192D02*
X2465Y192D01*
X1Y191D02*
X8Y191D01*
X48Y191D02*
X54Y191D01*
X72Y191D02*
X77Y191D01*
X95Y191D02*
X101Y191D01*
X2458Y191D02*
X2465Y191D01*
X1Y190D02*
X8Y190D01*
X48Y190D02*
X54Y190D01*
X72Y190D02*
X77Y190D01*
X95Y190D02*
X101Y190D01*
X2458Y190D02*
X2465Y190D01*
X1Y189D02*
X8Y189D01*
X48Y189D02*
X54Y189D01*
X71Y189D02*
X77Y189D01*
X95Y189D02*
X101Y189D01*
X2458Y189D02*
X2465Y189D01*
X1Y188D02*
X8Y188D01*
X48Y188D02*
X54Y188D01*
X71Y188D02*
X77Y188D01*
X95Y188D02*
X101Y188D01*
X2458Y188D02*
X2465Y188D01*
X1Y187D02*
X8Y187D01*
X48Y187D02*
X54Y187D01*
X71Y187D02*
X77Y187D01*
X95Y187D02*
X101Y187D01*
X2458Y187D02*
X2465Y187D01*
X1Y186D02*
X8Y186D01*
X48Y186D02*
X54Y186D01*
X71Y186D02*
X77Y186D01*
X95Y186D02*
X101Y186D01*
X2458Y186D02*
X2465Y186D01*
X1Y185D02*
X8Y185D01*
X48Y185D02*
X54Y185D01*
X71Y185D02*
X77Y185D01*
X95Y185D02*
X101Y185D01*
X2458Y185D02*
X2465Y185D01*
X1Y184D02*
X8Y184D01*
X48Y184D02*
X54Y184D01*
X71Y184D02*
X77Y184D01*
X95Y184D02*
X101Y184D01*
X2458Y184D02*
X2465Y184D01*
X1Y183D02*
X8Y183D01*
X48Y183D02*
X54Y183D01*
X71Y183D02*
X77Y183D01*
X95Y183D02*
X101Y183D01*
X2458Y183D02*
X2465Y183D01*
X1Y182D02*
X8Y182D01*
X48Y182D02*
X54Y182D01*
X71Y182D02*
X77Y182D01*
X95Y182D02*
X101Y182D01*
X2458Y182D02*
X2465Y182D01*
X1Y181D02*
X8Y181D01*
X48Y181D02*
X54Y181D01*
X71Y181D02*
X77Y181D01*
X95Y181D02*
X101Y181D01*
X2458Y181D02*
X2465Y181D01*
X1Y180D02*
X8Y180D01*
X48Y180D02*
X54Y180D01*
X71Y180D02*
X77Y180D01*
X95Y180D02*
X101Y180D01*
X2458Y180D02*
X2465Y180D01*
X1Y179D02*
X8Y179D01*
X48Y179D02*
X54Y179D01*
X71Y179D02*
X77Y179D01*
X95Y179D02*
X101Y179D01*
X1968Y179D02*
X1983Y179D01*
X1999Y179D02*
X2000Y179D01*
X2015Y179D02*
X2016Y179D01*
X2028Y179D02*
X2043Y179D01*
X2067Y179D02*
X2068Y179D01*
X2099Y179D02*
X2107Y179D01*
X2118Y179D02*
X2123Y179D01*
X2136Y179D02*
X2137Y179D01*
X2149Y179D02*
X2159Y179D01*
X2188Y179D02*
X2189Y179D01*
X2210Y179D02*
X2225Y179D01*
X2240Y179D02*
X2255Y179D01*
X2278Y179D02*
X2279Y179D01*
X2300Y179D02*
X2316Y179D01*
X2330Y179D02*
X2346Y179D01*
X2369Y179D02*
X2369Y179D01*
X2390Y179D02*
X2406Y179D01*
X2424Y179D02*
X2438Y179D01*
X2458Y179D02*
X2465Y179D01*
X1Y178D02*
X8Y178D01*
X48Y178D02*
X54Y178D01*
X71Y178D02*
X77Y178D01*
X95Y178D02*
X101Y178D01*
X1968Y178D02*
X1985Y178D01*
X1998Y178D02*
X2001Y178D01*
X2014Y178D02*
X2017Y178D01*
X2028Y178D02*
X2045Y178D01*
X2066Y178D02*
X2069Y178D01*
X2097Y178D02*
X2107Y178D01*
X2118Y178D02*
X2123Y178D01*
X2135Y178D02*
X2138Y178D01*
X2148Y178D02*
X2161Y178D01*
X2187Y178D02*
X2190Y178D01*
X2209Y178D02*
X2227Y178D01*
X2239Y178D02*
X2257Y178D01*
X2277Y178D02*
X2280Y178D01*
X2299Y178D02*
X2317Y178D01*
X2329Y178D02*
X2347Y178D01*
X2368Y178D02*
X2370Y178D01*
X2389Y178D02*
X2408Y178D01*
X2423Y178D02*
X2439Y178D01*
X2458Y178D02*
X2465Y178D01*
X1Y177D02*
X8Y177D01*
X48Y177D02*
X54Y177D01*
X71Y177D02*
X77Y177D01*
X95Y177D02*
X101Y177D01*
X1968Y177D02*
X1986Y177D01*
X1998Y177D02*
X2001Y177D01*
X2014Y177D02*
X2017Y177D01*
X2028Y177D02*
X2046Y177D01*
X2066Y177D02*
X2069Y177D01*
X2096Y177D02*
X2108Y177D01*
X2118Y177D02*
X2124Y177D01*
X2135Y177D02*
X2138Y177D01*
X2148Y177D02*
X2162Y177D01*
X2187Y177D02*
X2190Y177D01*
X2209Y177D02*
X2228Y177D01*
X2239Y177D02*
X2258Y177D01*
X2277Y177D02*
X2280Y177D01*
X2299Y177D02*
X2318Y177D01*
X2329Y177D02*
X2348Y177D01*
X2367Y177D02*
X2370Y177D01*
X2389Y177D02*
X2408Y177D01*
X2423Y177D02*
X2439Y177D01*
X2458Y177D02*
X2465Y177D01*
X1Y176D02*
X8Y176D01*
X48Y176D02*
X54Y176D01*
X71Y176D02*
X77Y176D01*
X95Y176D02*
X101Y176D01*
X1968Y176D02*
X1986Y176D01*
X1998Y176D02*
X2001Y176D01*
X2014Y176D02*
X2017Y176D01*
X2028Y176D02*
X2047Y176D01*
X2066Y176D02*
X2069Y176D01*
X2095Y176D02*
X2107Y176D01*
X2118Y176D02*
X2124Y176D01*
X2135Y176D02*
X2138Y176D01*
X2149Y176D02*
X2162Y176D01*
X2187Y176D02*
X2190Y176D01*
X2209Y176D02*
X2228Y176D01*
X2239Y176D02*
X2258Y176D01*
X2277Y176D02*
X2280Y176D01*
X2299Y176D02*
X2318Y176D01*
X2329Y176D02*
X2348Y176D01*
X2367Y176D02*
X2370Y176D01*
X2390Y176D02*
X2409Y176D01*
X2423Y176D02*
X2439Y176D01*
X2458Y176D02*
X2465Y176D01*
X1Y175D02*
X8Y175D01*
X48Y175D02*
X54Y175D01*
X71Y175D02*
X78Y175D01*
X95Y175D02*
X101Y175D01*
X1968Y175D02*
X1971Y175D01*
X1982Y175D02*
X1987Y175D01*
X1998Y175D02*
X2001Y175D01*
X2014Y175D02*
X2017Y175D01*
X2028Y175D02*
X2031Y175D01*
X2042Y175D02*
X2047Y175D01*
X2066Y175D02*
X2069Y175D01*
X2094Y175D02*
X2099Y175D01*
X2118Y175D02*
X2125Y175D01*
X2135Y175D02*
X2138Y175D01*
X2152Y175D02*
X2156Y175D01*
X2158Y175D02*
X2163Y175D01*
X2187Y175D02*
X2190Y175D01*
X2225Y175D02*
X2228Y175D01*
X2255Y175D02*
X2258Y175D01*
X2277Y175D02*
X2280Y175D01*
X2315Y175D02*
X2319Y175D01*
X2345Y175D02*
X2349Y175D01*
X2367Y175D02*
X2370Y175D01*
X2405Y175D02*
X2409Y175D01*
X2423Y175D02*
X2427Y175D01*
X2458Y175D02*
X2465Y175D01*
X1Y174D02*
X8Y174D01*
X48Y174D02*
X54Y174D01*
X71Y174D02*
X78Y174D01*
X95Y174D02*
X101Y174D01*
X1968Y174D02*
X1971Y174D01*
X1984Y174D02*
X1987Y174D01*
X1998Y174D02*
X2001Y174D01*
X2014Y174D02*
X2017Y174D01*
X2028Y174D02*
X2031Y174D01*
X2044Y174D02*
X2047Y174D01*
X2066Y174D02*
X2069Y174D01*
X2093Y174D02*
X2098Y174D01*
X2118Y174D02*
X2125Y174D01*
X2135Y174D02*
X2138Y174D01*
X2152Y174D02*
X2156Y174D01*
X2160Y174D02*
X2164Y174D01*
X2187Y174D02*
X2190Y174D01*
X2225Y174D02*
X2228Y174D01*
X2255Y174D02*
X2258Y174D01*
X2277Y174D02*
X2280Y174D01*
X2315Y174D02*
X2319Y174D01*
X2345Y174D02*
X2349Y174D01*
X2367Y174D02*
X2370Y174D01*
X2406Y174D02*
X2409Y174D01*
X2423Y174D02*
X2427Y174D01*
X2458Y174D02*
X2465Y174D01*
X1Y173D02*
X8Y173D01*
X48Y173D02*
X54Y173D01*
X70Y173D02*
X78Y173D01*
X95Y173D02*
X101Y173D01*
X1968Y173D02*
X1971Y173D01*
X1984Y173D02*
X1987Y173D01*
X1998Y173D02*
X2001Y173D01*
X2014Y173D02*
X2017Y173D01*
X2028Y173D02*
X2031Y173D01*
X2044Y173D02*
X2047Y173D01*
X2066Y173D02*
X2069Y173D01*
X2092Y173D02*
X2097Y173D01*
X2118Y173D02*
X2125Y173D01*
X2135Y173D02*
X2138Y173D01*
X2152Y173D02*
X2156Y173D01*
X2160Y173D02*
X2164Y173D01*
X2187Y173D02*
X2190Y173D01*
X2225Y173D02*
X2228Y173D01*
X2255Y173D02*
X2258Y173D01*
X2277Y173D02*
X2280Y173D01*
X2315Y173D02*
X2319Y173D01*
X2345Y173D02*
X2349Y173D01*
X2367Y173D02*
X2370Y173D01*
X2406Y173D02*
X2409Y173D01*
X2423Y173D02*
X2427Y173D01*
X2458Y173D02*
X2465Y173D01*
X1Y172D02*
X8Y172D01*
X48Y172D02*
X54Y172D01*
X69Y172D02*
X80Y172D01*
X95Y172D02*
X101Y172D01*
X1968Y172D02*
X1971Y172D01*
X1984Y172D02*
X1987Y172D01*
X1998Y172D02*
X2001Y172D01*
X2014Y172D02*
X2017Y172D01*
X2028Y172D02*
X2031Y172D01*
X2044Y172D02*
X2048Y172D01*
X2066Y172D02*
X2069Y172D01*
X2092Y172D02*
X2096Y172D01*
X2118Y172D02*
X2126Y172D01*
X2135Y172D02*
X2138Y172D01*
X2152Y172D02*
X2156Y172D01*
X2161Y172D02*
X2165Y172D01*
X2187Y172D02*
X2190Y172D01*
X2225Y172D02*
X2228Y172D01*
X2255Y172D02*
X2258Y172D01*
X2277Y172D02*
X2280Y172D01*
X2315Y172D02*
X2319Y172D01*
X2345Y172D02*
X2349Y172D01*
X2367Y172D02*
X2370Y172D01*
X2406Y172D02*
X2409Y172D01*
X2423Y172D02*
X2427Y172D01*
X2458Y172D02*
X2465Y172D01*
X1Y171D02*
X8Y171D01*
X48Y171D02*
X101Y171D01*
X1968Y171D02*
X1971Y171D01*
X1984Y171D02*
X1987Y171D01*
X1998Y171D02*
X2001Y171D01*
X2014Y171D02*
X2017Y171D01*
X2028Y171D02*
X2031Y171D01*
X2044Y171D02*
X2048Y171D01*
X2066Y171D02*
X2069Y171D01*
X2091Y171D02*
X2095Y171D01*
X2118Y171D02*
X2126Y171D01*
X2135Y171D02*
X2138Y171D01*
X2152Y171D02*
X2156Y171D01*
X2161Y171D02*
X2165Y171D01*
X2187Y171D02*
X2190Y171D01*
X2225Y171D02*
X2228Y171D01*
X2255Y171D02*
X2258Y171D01*
X2277Y171D02*
X2280Y171D01*
X2315Y171D02*
X2319Y171D01*
X2345Y171D02*
X2349Y171D01*
X2367Y171D02*
X2370Y171D01*
X2406Y171D02*
X2409Y171D01*
X2423Y171D02*
X2427Y171D01*
X2458Y171D02*
X2465Y171D01*
X1Y170D02*
X8Y170D01*
X48Y170D02*
X101Y170D01*
X1968Y170D02*
X1971Y170D01*
X1984Y170D02*
X1987Y170D01*
X1998Y170D02*
X2001Y170D01*
X2014Y170D02*
X2017Y170D01*
X2028Y170D02*
X2031Y170D01*
X2044Y170D02*
X2047Y170D01*
X2066Y170D02*
X2069Y170D01*
X2090Y170D02*
X2094Y170D01*
X2118Y170D02*
X2121Y170D01*
X2123Y170D02*
X2127Y170D01*
X2135Y170D02*
X2138Y170D01*
X2152Y170D02*
X2156Y170D01*
X2162Y170D02*
X2166Y170D01*
X2187Y170D02*
X2190Y170D01*
X2225Y170D02*
X2228Y170D01*
X2255Y170D02*
X2258Y170D01*
X2277Y170D02*
X2280Y170D01*
X2315Y170D02*
X2319Y170D01*
X2345Y170D02*
X2349Y170D01*
X2367Y170D02*
X2370Y170D01*
X2406Y170D02*
X2409Y170D01*
X2423Y170D02*
X2427Y170D01*
X2458Y170D02*
X2465Y170D01*
X1Y169D02*
X8Y169D01*
X48Y169D02*
X100Y169D01*
X1968Y169D02*
X1971Y169D01*
X1984Y169D02*
X1987Y169D01*
X1998Y169D02*
X2001Y169D01*
X2014Y169D02*
X2017Y169D01*
X2028Y169D02*
X2031Y169D01*
X2043Y169D02*
X2047Y169D01*
X2066Y169D02*
X2069Y169D01*
X2089Y169D02*
X2094Y169D01*
X2118Y169D02*
X2121Y169D01*
X2124Y169D02*
X2127Y169D01*
X2135Y169D02*
X2138Y169D01*
X2152Y169D02*
X2156Y169D01*
X2162Y169D02*
X2166Y169D01*
X2187Y169D02*
X2190Y169D01*
X2225Y169D02*
X2228Y169D01*
X2255Y169D02*
X2258Y169D01*
X2277Y169D02*
X2280Y169D01*
X2315Y169D02*
X2319Y169D01*
X2345Y169D02*
X2349Y169D01*
X2367Y169D02*
X2370Y169D01*
X2406Y169D02*
X2409Y169D01*
X2423Y169D02*
X2427Y169D01*
X2458Y169D02*
X2465Y169D01*
X1Y168D02*
X8Y168D01*
X49Y168D02*
X100Y168D01*
X1968Y168D02*
X1971Y168D01*
X1984Y168D02*
X1987Y168D01*
X1998Y168D02*
X2001Y168D01*
X2007Y168D02*
X2008Y168D01*
X2014Y168D02*
X2017Y168D01*
X2028Y168D02*
X2047Y168D01*
X2066Y168D02*
X2069Y168D01*
X2089Y168D02*
X2093Y168D01*
X2118Y168D02*
X2121Y168D01*
X2124Y168D02*
X2128Y168D01*
X2135Y168D02*
X2138Y168D01*
X2152Y168D02*
X2156Y168D01*
X2163Y168D02*
X2167Y168D01*
X2187Y168D02*
X2190Y168D01*
X2225Y168D02*
X2228Y168D01*
X2255Y168D02*
X2258Y168D01*
X2277Y168D02*
X2280Y168D01*
X2315Y168D02*
X2319Y168D01*
X2345Y168D02*
X2349Y168D01*
X2367Y168D02*
X2370Y168D01*
X2406Y168D02*
X2409Y168D01*
X2423Y168D02*
X2427Y168D01*
X2458Y168D02*
X2465Y168D01*
X1Y167D02*
X8Y167D01*
X50Y167D02*
X73Y167D01*
X76Y167D02*
X99Y167D01*
X1968Y167D02*
X1971Y167D01*
X1984Y167D02*
X1987Y167D01*
X1998Y167D02*
X2001Y167D01*
X2006Y167D02*
X2009Y167D01*
X2014Y167D02*
X2017Y167D01*
X2028Y167D02*
X2046Y167D01*
X2066Y167D02*
X2069Y167D01*
X2088Y167D02*
X2092Y167D01*
X2118Y167D02*
X2121Y167D01*
X2124Y167D02*
X2128Y167D01*
X2135Y167D02*
X2138Y167D01*
X2152Y167D02*
X2156Y167D01*
X2163Y167D02*
X2167Y167D01*
X2187Y167D02*
X2190Y167D01*
X2225Y167D02*
X2228Y167D01*
X2255Y167D02*
X2258Y167D01*
X2277Y167D02*
X2280Y167D01*
X2315Y167D02*
X2319Y167D01*
X2345Y167D02*
X2349Y167D01*
X2367Y167D02*
X2370Y167D01*
X2406Y167D02*
X2409Y167D01*
X2423Y167D02*
X2427Y167D01*
X2458Y167D02*
X2465Y167D01*
X1Y166D02*
X8Y166D01*
X51Y166D02*
X72Y166D01*
X77Y166D02*
X98Y166D01*
X1968Y166D02*
X1971Y166D01*
X1984Y166D02*
X1987Y166D01*
X1998Y166D02*
X2001Y166D01*
X2006Y166D02*
X2009Y166D01*
X2014Y166D02*
X2017Y166D01*
X2028Y166D02*
X2045Y166D01*
X2066Y166D02*
X2069Y166D01*
X2088Y166D02*
X2092Y166D01*
X2118Y166D02*
X2121Y166D01*
X2125Y166D02*
X2128Y166D01*
X2135Y166D02*
X2138Y166D01*
X2152Y166D02*
X2156Y166D01*
X2164Y166D02*
X2167Y166D01*
X2187Y166D02*
X2190Y166D01*
X2224Y166D02*
X2228Y166D01*
X2255Y166D02*
X2258Y166D01*
X2277Y166D02*
X2280Y166D01*
X2315Y166D02*
X2318Y166D01*
X2345Y166D02*
X2349Y166D01*
X2367Y166D02*
X2370Y166D01*
X2405Y166D02*
X2409Y166D01*
X2423Y166D02*
X2427Y166D01*
X2458Y166D02*
X2465Y166D01*
X1Y165D02*
X8Y165D01*
X53Y165D02*
X69Y165D01*
X80Y165D02*
X96Y165D01*
X1968Y165D02*
X1971Y165D01*
X1984Y165D02*
X1987Y165D01*
X1998Y165D02*
X2001Y165D01*
X2006Y165D02*
X2009Y165D01*
X2014Y165D02*
X2017Y165D01*
X2028Y165D02*
X2044Y165D01*
X2088Y165D02*
X2091Y165D01*
X2118Y165D02*
X2121Y165D01*
X2125Y165D02*
X2129Y165D01*
X2135Y165D02*
X2138Y165D01*
X2152Y165D02*
X2156Y165D01*
X2164Y165D02*
X2168Y165D01*
X2214Y165D02*
X2228Y165D01*
X2244Y165D02*
X2258Y165D01*
X2304Y165D02*
X2318Y165D01*
X2333Y165D02*
X2349Y165D01*
X2395Y165D02*
X2408Y165D01*
X2423Y165D02*
X2435Y165D01*
X2458Y165D02*
X2465Y165D01*
X1Y164D02*
X8Y164D01*
X1968Y164D02*
X1971Y164D01*
X1983Y164D02*
X1987Y164D01*
X1998Y164D02*
X2001Y164D01*
X2006Y164D02*
X2009Y164D01*
X2014Y164D02*
X2017Y164D01*
X2028Y164D02*
X2031Y164D01*
X2035Y164D02*
X2039Y164D01*
X2088Y164D02*
X2091Y164D01*
X2118Y164D02*
X2121Y164D01*
X2126Y164D02*
X2129Y164D01*
X2135Y164D02*
X2138Y164D01*
X2152Y164D02*
X2156Y164D01*
X2165Y164D02*
X2168Y164D01*
X2213Y164D02*
X2227Y164D01*
X2243Y164D02*
X2257Y164D01*
X2303Y164D02*
X2318Y164D01*
X2330Y164D02*
X2348Y164D01*
X2394Y164D02*
X2408Y164D01*
X2423Y164D02*
X2438Y164D01*
X2458Y164D02*
X2465Y164D01*
X1Y163D02*
X8Y163D01*
X1968Y163D02*
X1987Y163D01*
X1998Y163D02*
X2001Y163D01*
X2006Y163D02*
X2009Y163D01*
X2014Y163D02*
X2017Y163D01*
X2028Y163D02*
X2031Y163D01*
X2036Y163D02*
X2040Y163D01*
X2088Y163D02*
X2091Y163D01*
X2118Y163D02*
X2121Y163D01*
X2126Y163D02*
X2130Y163D01*
X2135Y163D02*
X2138Y163D01*
X2152Y163D02*
X2156Y163D01*
X2165Y163D02*
X2168Y163D01*
X2213Y163D02*
X2227Y163D01*
X2243Y163D02*
X2257Y163D01*
X2303Y163D02*
X2317Y163D01*
X2330Y163D02*
X2348Y163D01*
X2393Y163D02*
X2407Y163D01*
X2423Y163D02*
X2438Y163D01*
X2458Y163D02*
X2465Y163D01*
X1Y162D02*
X8Y162D01*
X1968Y162D02*
X1986Y162D01*
X1998Y162D02*
X2001Y162D01*
X2006Y162D02*
X2009Y162D01*
X2014Y162D02*
X2017Y162D01*
X2028Y162D02*
X2031Y162D01*
X2036Y162D02*
X2040Y162D01*
X2088Y162D02*
X2091Y162D01*
X2118Y162D02*
X2121Y162D01*
X2127Y162D02*
X2130Y162D01*
X2135Y162D02*
X2138Y162D01*
X2152Y162D02*
X2156Y162D01*
X2165Y162D02*
X2168Y162D01*
X2213Y162D02*
X2227Y162D01*
X2243Y162D02*
X2257Y162D01*
X2303Y162D02*
X2318Y162D01*
X2329Y162D02*
X2347Y162D01*
X2394Y162D02*
X2408Y162D01*
X2423Y162D02*
X2439Y162D01*
X2458Y162D02*
X2465Y162D01*
X1Y161D02*
X8Y161D01*
X1968Y161D02*
X1985Y161D01*
X1998Y161D02*
X2001Y161D01*
X2006Y161D02*
X2009Y161D01*
X2014Y161D02*
X2017Y161D01*
X2028Y161D02*
X2031Y161D01*
X2037Y161D02*
X2041Y161D01*
X2088Y161D02*
X2091Y161D01*
X2099Y161D02*
X2108Y161D01*
X2118Y161D02*
X2121Y161D01*
X2127Y161D02*
X2131Y161D01*
X2135Y161D02*
X2138Y161D01*
X2152Y161D02*
X2156Y161D01*
X2164Y161D02*
X2168Y161D01*
X2214Y161D02*
X2228Y161D01*
X2244Y161D02*
X2258Y161D01*
X2305Y161D02*
X2318Y161D01*
X2329Y161D02*
X2345Y161D01*
X2395Y161D02*
X2408Y161D01*
X2424Y161D02*
X2439Y161D01*
X2458Y161D02*
X2465Y161D01*
X1Y160D02*
X8Y160D01*
X1968Y160D02*
X1984Y160D01*
X1998Y160D02*
X2001Y160D01*
X2006Y160D02*
X2009Y160D01*
X2014Y160D02*
X2017Y160D01*
X2028Y160D02*
X2031Y160D01*
X2037Y160D02*
X2041Y160D01*
X2066Y160D02*
X2069Y160D01*
X2088Y160D02*
X2091Y160D01*
X2098Y160D02*
X2108Y160D01*
X2118Y160D02*
X2121Y160D01*
X2127Y160D02*
X2131Y160D01*
X2135Y160D02*
X2138Y160D01*
X2152Y160D02*
X2156Y160D01*
X2164Y160D02*
X2167Y160D01*
X2187Y160D02*
X2190Y160D01*
X2225Y160D02*
X2228Y160D01*
X2255Y160D02*
X2258Y160D01*
X2277Y160D02*
X2280Y160D01*
X2315Y160D02*
X2318Y160D01*
X2329Y160D02*
X2332Y160D01*
X2367Y160D02*
X2370Y160D01*
X2405Y160D02*
X2409Y160D01*
X2436Y160D02*
X2439Y160D01*
X2458Y160D02*
X2465Y160D01*
X1Y159D02*
X8Y159D01*
X1968Y159D02*
X1971Y159D01*
X1998Y159D02*
X2001Y159D01*
X2006Y159D02*
X2009Y159D01*
X2014Y159D02*
X2017Y159D01*
X2028Y159D02*
X2031Y159D01*
X2038Y159D02*
X2042Y159D01*
X2066Y159D02*
X2069Y159D01*
X2088Y159D02*
X2091Y159D01*
X2098Y159D02*
X2108Y159D01*
X2118Y159D02*
X2121Y159D01*
X2128Y159D02*
X2132Y159D01*
X2135Y159D02*
X2138Y159D01*
X2152Y159D02*
X2156Y159D01*
X2163Y159D02*
X2167Y159D01*
X2187Y159D02*
X2190Y159D01*
X2225Y159D02*
X2228Y159D01*
X2255Y159D02*
X2258Y159D01*
X2277Y159D02*
X2280Y159D01*
X2315Y159D02*
X2319Y159D01*
X2329Y159D02*
X2332Y159D01*
X2367Y159D02*
X2370Y159D01*
X2406Y159D02*
X2409Y159D01*
X2436Y159D02*
X2439Y159D01*
X2458Y159D02*
X2465Y159D01*
X1Y158D02*
X8Y158D01*
X1968Y158D02*
X1971Y158D01*
X1998Y158D02*
X2001Y158D01*
X2006Y158D02*
X2009Y158D01*
X2014Y158D02*
X2017Y158D01*
X2028Y158D02*
X2031Y158D01*
X2039Y158D02*
X2042Y158D01*
X2066Y158D02*
X2069Y158D01*
X2088Y158D02*
X2091Y158D01*
X2099Y158D02*
X2108Y158D01*
X2118Y158D02*
X2121Y158D01*
X2128Y158D02*
X2132Y158D01*
X2135Y158D02*
X2138Y158D01*
X2152Y158D02*
X2156Y158D01*
X2163Y158D02*
X2167Y158D01*
X2187Y158D02*
X2190Y158D01*
X2225Y158D02*
X2228Y158D01*
X2255Y158D02*
X2258Y158D01*
X2277Y158D02*
X2280Y158D01*
X2315Y158D02*
X2319Y158D01*
X2329Y158D02*
X2332Y158D01*
X2367Y158D02*
X2370Y158D01*
X2406Y158D02*
X2409Y158D01*
X2436Y158D02*
X2439Y158D01*
X2458Y158D02*
X2465Y158D01*
X1Y157D02*
X8Y157D01*
X1968Y157D02*
X1971Y157D01*
X1998Y157D02*
X2001Y157D01*
X2006Y157D02*
X2009Y157D01*
X2014Y157D02*
X2017Y157D01*
X2028Y157D02*
X2031Y157D01*
X2039Y157D02*
X2043Y157D01*
X2066Y157D02*
X2069Y157D01*
X2088Y157D02*
X2091Y157D01*
X2104Y157D02*
X2108Y157D01*
X2118Y157D02*
X2121Y157D01*
X2129Y157D02*
X2132Y157D01*
X2135Y157D02*
X2138Y157D01*
X2152Y157D02*
X2156Y157D01*
X2162Y157D02*
X2166Y157D01*
X2187Y157D02*
X2190Y157D01*
X2225Y157D02*
X2228Y157D01*
X2255Y157D02*
X2258Y157D01*
X2277Y157D02*
X2280Y157D01*
X2315Y157D02*
X2319Y157D01*
X2329Y157D02*
X2332Y157D01*
X2367Y157D02*
X2370Y157D01*
X2406Y157D02*
X2409Y157D01*
X2436Y157D02*
X2439Y157D01*
X2458Y157D02*
X2465Y157D01*
X1Y156D02*
X8Y156D01*
X1968Y156D02*
X1971Y156D01*
X1998Y156D02*
X2001Y156D01*
X2006Y156D02*
X2009Y156D01*
X2014Y156D02*
X2017Y156D01*
X2028Y156D02*
X2031Y156D01*
X2040Y156D02*
X2044Y156D01*
X2066Y156D02*
X2069Y156D01*
X2088Y156D02*
X2091Y156D01*
X2105Y156D02*
X2108Y156D01*
X2118Y156D02*
X2121Y156D01*
X2129Y156D02*
X2133Y156D01*
X2135Y156D02*
X2138Y156D01*
X2152Y156D02*
X2156Y156D01*
X2162Y156D02*
X2166Y156D01*
X2187Y156D02*
X2190Y156D01*
X2225Y156D02*
X2228Y156D01*
X2255Y156D02*
X2258Y156D01*
X2277Y156D02*
X2280Y156D01*
X2315Y156D02*
X2319Y156D01*
X2329Y156D02*
X2332Y156D01*
X2367Y156D02*
X2370Y156D01*
X2406Y156D02*
X2409Y156D01*
X2436Y156D02*
X2439Y156D01*
X2458Y156D02*
X2465Y156D01*
X1Y155D02*
X8Y155D01*
X1968Y155D02*
X1971Y155D01*
X1998Y155D02*
X2001Y155D01*
X2006Y155D02*
X2009Y155D01*
X2014Y155D02*
X2017Y155D01*
X2028Y155D02*
X2031Y155D01*
X2040Y155D02*
X2044Y155D01*
X2066Y155D02*
X2069Y155D01*
X2088Y155D02*
X2091Y155D01*
X2105Y155D02*
X2108Y155D01*
X2118Y155D02*
X2121Y155D01*
X2130Y155D02*
X2138Y155D01*
X2152Y155D02*
X2156Y155D01*
X2161Y155D02*
X2165Y155D01*
X2187Y155D02*
X2190Y155D01*
X2225Y155D02*
X2228Y155D01*
X2255Y155D02*
X2258Y155D01*
X2277Y155D02*
X2280Y155D01*
X2315Y155D02*
X2319Y155D01*
X2329Y155D02*
X2332Y155D01*
X2367Y155D02*
X2370Y155D01*
X2406Y155D02*
X2409Y155D01*
X2436Y155D02*
X2439Y155D01*
X2458Y155D02*
X2465Y155D01*
X1Y154D02*
X8Y154D01*
X1968Y154D02*
X1971Y154D01*
X1998Y154D02*
X2001Y154D01*
X2006Y154D02*
X2009Y154D01*
X2014Y154D02*
X2017Y154D01*
X2028Y154D02*
X2031Y154D01*
X2041Y154D02*
X2045Y154D01*
X2066Y154D02*
X2069Y154D01*
X2088Y154D02*
X2091Y154D01*
X2105Y154D02*
X2108Y154D01*
X2118Y154D02*
X2121Y154D01*
X2130Y154D02*
X2138Y154D01*
X2152Y154D02*
X2156Y154D01*
X2161Y154D02*
X2165Y154D01*
X2187Y154D02*
X2190Y154D01*
X2225Y154D02*
X2228Y154D01*
X2255Y154D02*
X2258Y154D01*
X2277Y154D02*
X2280Y154D01*
X2315Y154D02*
X2319Y154D01*
X2329Y154D02*
X2332Y154D01*
X2367Y154D02*
X2370Y154D01*
X2406Y154D02*
X2409Y154D01*
X2436Y154D02*
X2439Y154D01*
X2458Y154D02*
X2465Y154D01*
X1Y153D02*
X8Y153D01*
X1968Y153D02*
X1971Y153D01*
X1998Y153D02*
X2001Y153D01*
X2006Y153D02*
X2009Y153D01*
X2014Y153D02*
X2017Y153D01*
X2028Y153D02*
X2031Y153D01*
X2042Y153D02*
X2045Y153D01*
X2066Y153D02*
X2069Y153D01*
X2088Y153D02*
X2091Y153D01*
X2104Y153D02*
X2108Y153D01*
X2118Y153D02*
X2121Y153D01*
X2131Y153D02*
X2138Y153D01*
X2152Y153D02*
X2156Y153D01*
X2160Y153D02*
X2164Y153D01*
X2187Y153D02*
X2190Y153D01*
X2225Y153D02*
X2228Y153D01*
X2255Y153D02*
X2258Y153D01*
X2277Y153D02*
X2280Y153D01*
X2315Y153D02*
X2319Y153D01*
X2329Y153D02*
X2332Y153D01*
X2367Y153D02*
X2370Y153D01*
X2406Y153D02*
X2409Y153D01*
X2436Y153D02*
X2439Y153D01*
X2458Y153D02*
X2465Y153D01*
X1Y152D02*
X8Y152D01*
X1968Y152D02*
X1971Y152D01*
X1998Y152D02*
X2001Y152D01*
X2005Y152D02*
X2010Y152D01*
X2014Y152D02*
X2017Y152D01*
X2028Y152D02*
X2031Y152D01*
X2042Y152D02*
X2046Y152D01*
X2066Y152D02*
X2069Y152D01*
X2088Y152D02*
X2092Y152D01*
X2104Y152D02*
X2108Y152D01*
X2118Y152D02*
X2121Y152D01*
X2131Y152D02*
X2138Y152D01*
X2152Y152D02*
X2156Y152D01*
X2160Y152D02*
X2164Y152D01*
X2187Y152D02*
X2190Y152D01*
X2225Y152D02*
X2228Y152D01*
X2255Y152D02*
X2258Y152D01*
X2277Y152D02*
X2280Y152D01*
X2315Y152D02*
X2319Y152D01*
X2329Y152D02*
X2332Y152D01*
X2367Y152D02*
X2370Y152D01*
X2406Y152D02*
X2409Y152D01*
X2420Y152D02*
X2423Y152D01*
X2436Y152D02*
X2439Y152D01*
X2458Y152D02*
X2465Y152D01*
X1Y151D02*
X8Y151D01*
X1968Y151D02*
X1971Y151D01*
X1998Y151D02*
X2002Y151D01*
X2004Y151D02*
X2011Y151D01*
X2013Y151D02*
X2017Y151D01*
X2028Y151D02*
X2031Y151D01*
X2043Y151D02*
X2047Y151D01*
X2066Y151D02*
X2069Y151D01*
X2088Y151D02*
X2093Y151D01*
X2102Y151D02*
X2107Y151D01*
X2118Y151D02*
X2121Y151D01*
X2131Y151D02*
X2138Y151D01*
X2152Y151D02*
X2156Y151D01*
X2158Y151D02*
X2163Y151D01*
X2187Y151D02*
X2190Y151D01*
X2225Y151D02*
X2228Y151D01*
X2255Y151D02*
X2258Y151D01*
X2277Y151D02*
X2280Y151D01*
X2315Y151D02*
X2319Y151D01*
X2329Y151D02*
X2333Y151D01*
X2367Y151D02*
X2370Y151D01*
X2405Y151D02*
X2409Y151D01*
X2419Y151D02*
X2425Y151D01*
X2435Y151D02*
X2439Y151D01*
X2458Y151D02*
X2465Y151D01*
X1Y150D02*
X8Y150D01*
X1968Y150D02*
X1971Y150D01*
X1999Y150D02*
X2016Y150D01*
X2028Y150D02*
X2031Y150D01*
X2043Y150D02*
X2047Y150D01*
X2066Y150D02*
X2069Y150D01*
X2089Y150D02*
X2107Y150D01*
X2118Y150D02*
X2121Y150D01*
X2132Y150D02*
X2138Y150D01*
X2149Y150D02*
X2163Y150D01*
X2187Y150D02*
X2190Y150D01*
X2209Y150D02*
X2228Y150D01*
X2239Y150D02*
X2258Y150D01*
X2277Y150D02*
X2280Y150D01*
X2299Y150D02*
X2318Y150D01*
X2329Y150D02*
X2348Y150D01*
X2367Y150D02*
X2370Y150D01*
X2390Y150D02*
X2409Y150D01*
X2419Y150D02*
X2439Y150D01*
X2458Y150D02*
X2465Y150D01*
X1Y149D02*
X8Y149D01*
X1968Y149D02*
X1971Y149D01*
X1999Y149D02*
X2016Y149D01*
X2028Y149D02*
X2031Y149D01*
X2044Y149D02*
X2047Y149D01*
X2066Y149D02*
X2069Y149D01*
X2090Y149D02*
X2106Y149D01*
X2118Y149D02*
X2121Y149D01*
X2132Y149D02*
X2138Y149D01*
X2148Y149D02*
X2162Y149D01*
X2187Y149D02*
X2190Y149D01*
X2209Y149D02*
X2228Y149D01*
X2239Y149D02*
X2258Y149D01*
X2277Y149D02*
X2280Y149D01*
X2299Y149D02*
X2318Y149D01*
X2329Y149D02*
X2349Y149D01*
X2367Y149D02*
X2370Y149D01*
X2389Y149D02*
X2408Y149D01*
X2420Y149D02*
X2438Y149D01*
X2458Y149D02*
X2465Y149D01*
X1Y148D02*
X8Y148D01*
X1968Y148D02*
X1970Y148D01*
X2000Y148D02*
X2015Y148D01*
X2028Y148D02*
X2031Y148D01*
X2044Y148D02*
X2047Y148D01*
X2066Y148D02*
X2069Y148D01*
X2091Y148D02*
X2105Y148D01*
X2118Y148D02*
X2121Y148D01*
X2133Y148D02*
X2138Y148D01*
X2148Y148D02*
X2161Y148D01*
X2187Y148D02*
X2190Y148D01*
X2209Y148D02*
X2227Y148D01*
X2239Y148D02*
X2257Y148D01*
X2277Y148D02*
X2280Y148D01*
X2299Y148D02*
X2317Y148D01*
X2329Y148D02*
X2348Y148D01*
X2368Y148D02*
X2370Y148D01*
X2389Y148D02*
X2408Y148D01*
X2422Y148D02*
X2438Y148D01*
X2458Y148D02*
X2465Y148D01*
X1Y147D02*
X8Y147D01*
X1969Y147D02*
X1969Y147D01*
X2001Y147D02*
X2006Y147D01*
X2009Y147D02*
X2014Y147D01*
X2029Y147D02*
X2030Y147D01*
X2046Y147D02*
X2046Y147D01*
X2067Y147D02*
X2068Y147D01*
X2093Y147D02*
X2103Y147D01*
X2119Y147D02*
X2120Y147D01*
X2133Y147D02*
X2138Y147D01*
X2149Y147D02*
X2159Y147D01*
X2188Y147D02*
X2189Y147D01*
X2210Y147D02*
X2225Y147D01*
X2240Y147D02*
X2255Y147D01*
X2278Y147D02*
X2279Y147D01*
X2300Y147D02*
X2316Y147D01*
X2329Y147D02*
X2347Y147D01*
X2369Y147D02*
X2369Y147D01*
X2390Y147D02*
X2406Y147D01*
X2425Y147D02*
X2436Y147D01*
X2458Y147D02*
X2465Y147D01*
X1Y146D02*
X8Y146D01*
X2458Y146D02*
X2465Y146D01*
X1Y145D02*
X8Y145D01*
X2458Y145D02*
X2465Y145D01*
X1Y144D02*
X8Y144D01*
X2458Y144D02*
X2465Y144D01*
X1Y143D02*
X8Y143D01*
X2458Y143D02*
X2465Y143D01*
X1Y142D02*
X8Y142D01*
X2458Y142D02*
X2465Y142D01*
X1Y141D02*
X8Y141D01*
X2458Y141D02*
X2465Y141D01*
X1Y140D02*
X8Y140D01*
X2458Y140D02*
X2465Y140D01*
X1Y139D02*
X8Y139D01*
X2458Y139D02*
X2465Y139D01*
X1Y138D02*
X8Y138D01*
X2458Y138D02*
X2465Y138D01*
X1Y137D02*
X8Y137D01*
X2458Y137D02*
X2465Y137D01*
X1Y136D02*
X8Y136D01*
X2458Y136D02*
X2465Y136D01*
X1Y135D02*
X8Y135D01*
X2458Y135D02*
X2465Y135D01*
X1Y134D02*
X8Y134D01*
X2458Y134D02*
X2465Y134D01*
X1Y133D02*
X8Y133D01*
X2458Y133D02*
X2465Y133D01*
X1Y132D02*
X8Y132D01*
X2458Y132D02*
X2465Y132D01*
X1Y131D02*
X8Y131D01*
X2411Y131D02*
X2412Y131D01*
X2458Y131D02*
X2465Y131D01*
X1Y130D02*
X8Y130D01*
X2410Y130D02*
X2413Y130D01*
X2458Y130D02*
X2465Y130D01*
X1Y129D02*
X8Y129D01*
X2409Y129D02*
X2414Y129D01*
X2458Y129D02*
X2465Y129D01*
X1Y128D02*
X8Y128D01*
X2409Y128D02*
X2415Y128D01*
X2458Y128D02*
X2465Y128D01*
X1Y127D02*
X8Y127D01*
X2410Y127D02*
X2416Y127D01*
X2458Y127D02*
X2465Y127D01*
X1Y126D02*
X8Y126D01*
X2411Y126D02*
X2417Y126D01*
X2458Y126D02*
X2465Y126D01*
X1Y125D02*
X8Y125D01*
X2412Y125D02*
X2418Y125D01*
X2458Y125D02*
X2465Y125D01*
X1Y124D02*
X8Y124D01*
X2413Y124D02*
X2419Y124D01*
X2458Y124D02*
X2465Y124D01*
X1Y123D02*
X8Y123D01*
X2414Y123D02*
X2420Y123D01*
X2458Y123D02*
X2465Y123D01*
X1Y122D02*
X8Y122D01*
X2415Y122D02*
X2421Y122D01*
X2458Y122D02*
X2465Y122D01*
X1Y121D02*
X8Y121D01*
X2416Y121D02*
X2422Y121D01*
X2458Y121D02*
X2465Y121D01*
X1Y120D02*
X8Y120D01*
X2417Y120D02*
X2423Y120D01*
X2458Y120D02*
X2465Y120D01*
X1Y119D02*
X8Y119D01*
X2418Y119D02*
X2424Y119D01*
X2458Y119D02*
X2465Y119D01*
X1Y118D02*
X8Y118D01*
X2419Y118D02*
X2425Y118D01*
X2458Y118D02*
X2465Y118D01*
X1Y117D02*
X8Y117D01*
X2420Y117D02*
X2426Y117D01*
X2458Y117D02*
X2465Y117D01*
X1Y116D02*
X8Y116D01*
X2421Y116D02*
X2427Y116D01*
X2458Y116D02*
X2465Y116D01*
X1Y115D02*
X8Y115D01*
X2422Y115D02*
X2428Y115D01*
X2458Y115D02*
X2465Y115D01*
X1Y114D02*
X8Y114D01*
X2424Y114D02*
X2429Y114D01*
X2458Y114D02*
X2465Y114D01*
X1Y113D02*
X8Y113D01*
X2425Y113D02*
X2430Y113D01*
X2458Y113D02*
X2465Y113D01*
X1Y112D02*
X8Y112D01*
X2426Y112D02*
X2431Y112D01*
X2458Y112D02*
X2465Y112D01*
X1Y111D02*
X8Y111D01*
X2427Y111D02*
X2432Y111D01*
X2458Y111D02*
X2465Y111D01*
X1Y110D02*
X8Y110D01*
X2428Y110D02*
X2433Y110D01*
X2458Y110D02*
X2465Y110D01*
X1Y109D02*
X8Y109D01*
X2429Y109D02*
X2434Y109D01*
X2458Y109D02*
X2465Y109D01*
X1Y108D02*
X8Y108D01*
X2430Y108D02*
X2435Y108D01*
X2458Y108D02*
X2465Y108D01*
X1Y107D02*
X8Y107D01*
X2430Y107D02*
X2436Y107D01*
X2458Y107D02*
X2465Y107D01*
X1Y106D02*
X8Y106D01*
X2431Y106D02*
X2437Y106D01*
X2458Y106D02*
X2465Y106D01*
X1Y105D02*
X8Y105D01*
X2432Y105D02*
X2438Y105D01*
X2458Y105D02*
X2465Y105D01*
X1Y104D02*
X8Y104D01*
X2433Y104D02*
X2439Y104D01*
X2458Y104D02*
X2465Y104D01*
X1Y103D02*
X8Y103D01*
X2434Y103D02*
X2440Y103D01*
X2458Y103D02*
X2465Y103D01*
X1Y102D02*
X8Y102D01*
X2435Y102D02*
X2441Y102D01*
X2458Y102D02*
X2465Y102D01*
X1Y101D02*
X8Y101D01*
X2436Y101D02*
X2442Y101D01*
X2458Y101D02*
X2465Y101D01*
X1Y100D02*
X8Y100D01*
X2437Y100D02*
X2443Y100D01*
X2458Y100D02*
X2465Y100D01*
X1Y99D02*
X8Y99D01*
X2438Y99D02*
X2444Y99D01*
X2458Y99D02*
X2465Y99D01*
X1Y98D02*
X8Y98D01*
X2439Y98D02*
X2445Y98D01*
X2458Y98D02*
X2465Y98D01*
X1Y97D02*
X8Y97D01*
X2440Y97D02*
X2446Y97D01*
X2458Y97D02*
X2465Y97D01*
X1Y96D02*
X8Y96D01*
X2441Y96D02*
X2445Y96D01*
X2458Y96D02*
X2465Y96D01*
X1Y95D02*
X8Y95D01*
X2442Y95D02*
X2444Y95D01*
X2458Y95D02*
X2465Y95D01*
X1Y94D02*
X8Y94D01*
X2443Y94D02*
X2443Y94D01*
X2458Y94D02*
X2465Y94D01*
X1Y93D02*
X8Y93D01*
X2458Y93D02*
X2465Y93D01*
X1Y92D02*
X8Y92D01*
X2458Y92D02*
X2465Y92D01*
X1Y91D02*
X8Y91D01*
X2458Y91D02*
X2465Y91D01*
X1Y90D02*
X8Y90D01*
X2458Y90D02*
X2465Y90D01*
X1Y89D02*
X8Y89D01*
X2458Y89D02*
X2465Y89D01*
X1Y88D02*
X8Y88D01*
X2458Y88D02*
X2465Y88D01*
X1Y87D02*
X8Y87D01*
X2458Y87D02*
X2465Y87D01*
X1Y86D02*
X8Y86D01*
X2458Y86D02*
X2465Y86D01*
X1Y85D02*
X8Y85D01*
X2458Y85D02*
X2465Y85D01*
X1Y84D02*
X8Y84D01*
X2458Y84D02*
X2465Y84D01*
X1Y83D02*
X8Y83D01*
X2458Y83D02*
X2465Y83D01*
X1Y82D02*
X8Y82D01*
X2458Y82D02*
X2465Y82D01*
X1Y81D02*
X8Y81D01*
X2458Y81D02*
X2465Y81D01*
X1Y80D02*
X8Y80D01*
X2458Y80D02*
X2465Y80D01*
X1Y79D02*
X8Y79D01*
X2458Y79D02*
X2465Y79D01*
X1Y78D02*
X8Y78D01*
X2458Y78D02*
X2465Y78D01*
X1Y77D02*
X8Y77D01*
X2458Y77D02*
X2465Y77D01*
X1Y76D02*
X8Y76D01*
X2458Y76D02*
X2465Y76D01*
X1Y75D02*
X8Y75D01*
X2458Y75D02*
X2465Y75D01*
X1Y74D02*
X8Y74D01*
X2458Y74D02*
X2465Y74D01*
X1Y73D02*
X8Y73D01*
X2458Y73D02*
X2465Y73D01*
X1Y72D02*
X8Y72D01*
X2458Y72D02*
X2465Y72D01*
X1Y71D02*
X8Y71D01*
X2458Y71D02*
X2465Y71D01*
X1Y70D02*
X8Y70D01*
X2458Y70D02*
X2465Y70D01*
X1Y69D02*
X8Y69D01*
X2458Y69D02*
X2465Y69D01*
X1Y68D02*
X8Y68D01*
X2458Y68D02*
X2465Y68D01*
X1Y67D02*
X8Y67D01*
X2458Y67D02*
X2465Y67D01*
X1Y66D02*
X8Y66D01*
X2458Y66D02*
X2465Y66D01*
X1Y65D02*
X8Y65D01*
X2458Y65D02*
X2465Y65D01*
X1Y64D02*
X8Y64D01*
X2458Y64D02*
X2465Y64D01*
X1Y63D02*
X8Y63D01*
X2458Y63D02*
X2465Y63D01*
X1Y62D02*
X8Y62D01*
X2458Y62D02*
X2465Y62D01*
X1Y61D02*
X8Y61D01*
X2458Y61D02*
X2465Y61D01*
X1Y60D02*
X8Y60D01*
X2458Y60D02*
X2465Y60D01*
X1Y59D02*
X8Y59D01*
X2458Y59D02*
X2465Y59D01*
X1Y58D02*
X8Y58D01*
X2458Y58D02*
X2465Y58D01*
X1Y57D02*
X8Y57D01*
X2458Y57D02*
X2465Y57D01*
X1Y56D02*
X8Y56D01*
X2458Y56D02*
X2465Y56D01*
X1Y55D02*
X8Y55D01*
X2458Y55D02*
X2465Y55D01*
X1Y54D02*
X8Y54D01*
X2458Y54D02*
X2465Y54D01*
X1Y53D02*
X8Y53D01*
X2458Y53D02*
X2465Y53D01*
X1Y52D02*
X8Y52D01*
X2458Y52D02*
X2465Y52D01*
X1Y51D02*
X8Y51D01*
X2458Y51D02*
X2465Y51D01*
X1Y50D02*
X8Y50D01*
X2458Y50D02*
X2465Y50D01*
X1Y49D02*
X8Y49D01*
X2458Y49D02*
X2465Y49D01*
X1Y48D02*
X8Y48D01*
X2458Y48D02*
X2465Y48D01*
X1Y47D02*
X8Y47D01*
X2458Y47D02*
X2465Y47D01*
X1Y46D02*
X8Y46D01*
X2458Y46D02*
X2465Y46D01*
X1Y45D02*
X8Y45D01*
X2458Y45D02*
X2465Y45D01*
X1Y44D02*
X8Y44D01*
X2458Y44D02*
X2465Y44D01*
X1Y43D02*
X8Y43D01*
X2458Y43D02*
X2465Y43D01*
X1Y42D02*
X8Y42D01*
X2458Y42D02*
X2465Y42D01*
X1Y41D02*
X8Y41D01*
X2458Y41D02*
X2465Y41D01*
X1Y40D02*
X8Y40D01*
X2458Y40D02*
X2465Y40D01*
X1Y39D02*
X8Y39D01*
X2458Y39D02*
X2465Y39D01*
X1Y38D02*
X8Y38D01*
X2458Y38D02*
X2465Y38D01*
X1Y37D02*
X8Y37D01*
X2458Y37D02*
X2465Y37D01*
X1Y36D02*
X8Y36D01*
X2458Y36D02*
X2465Y36D01*
X1Y35D02*
X8Y35D01*
X2458Y35D02*
X2465Y35D01*
X1Y34D02*
X8Y34D01*
X2458Y34D02*
X2465Y34D01*
X1Y33D02*
X8Y33D01*
X2458Y33D02*
X2465Y33D01*
X1Y32D02*
X8Y32D01*
X2458Y32D02*
X2465Y32D01*
X1Y31D02*
X8Y31D01*
X2458Y31D02*
X2465Y31D01*
X1Y30D02*
X8Y30D01*
X2458Y30D02*
X2465Y30D01*
X1Y29D02*
X8Y29D01*
X2458Y29D02*
X2465Y29D01*
X1Y28D02*
X8Y28D01*
X2458Y28D02*
X2465Y28D01*
X1Y27D02*
X8Y27D01*
X2458Y27D02*
X2465Y27D01*
X1Y26D02*
X8Y26D01*
X2458Y26D02*
X2465Y26D01*
X1Y25D02*
X8Y25D01*
X2458Y25D02*
X2465Y25D01*
X1Y24D02*
X8Y24D01*
X2458Y24D02*
X2465Y24D01*
X1Y23D02*
X8Y23D01*
X2458Y23D02*
X2465Y23D01*
X1Y22D02*
X8Y22D01*
X2458Y22D02*
X2465Y22D01*
X1Y21D02*
X8Y21D01*
X2458Y21D02*
X2465Y21D01*
X1Y20D02*
X8Y20D01*
X2458Y20D02*
X2465Y20D01*
X1Y19D02*
X8Y19D01*
X2458Y19D02*
X2465Y19D01*
X1Y18D02*
X8Y18D01*
X2458Y18D02*
X2465Y18D01*
X1Y17D02*
X8Y17D01*
X2458Y17D02*
X2465Y17D01*
X1Y16D02*
X8Y16D01*
X2458Y16D02*
X2465Y16D01*
X1Y15D02*
X8Y15D01*
X2458Y15D02*
X2465Y15D01*
X1Y14D02*
X8Y14D01*
X2458Y14D02*
X2465Y14D01*
X1Y13D02*
X8Y13D01*
X2458Y13D02*
X2465Y13D01*
X1Y12D02*
X8Y12D01*
X2458Y12D02*
X2465Y12D01*
X1Y11D02*
X8Y11D01*
X2458Y11D02*
X2465Y11D01*
X1Y10D02*
X8Y10D01*
X2458Y10D02*
X2465Y10D01*
X1Y9D02*
X8Y9D01*
X2458Y9D02*
X2465Y9D01*
X1Y8D02*
X2465Y8D01*
X1Y7D02*
X2465Y7D01*
X1Y6D02*
X2465Y6D01*
X1Y5D02*
X2465Y5D01*
X1Y4D02*
X2465Y4D01*
X1Y3D02*
X2465Y3D01*
X1Y2D02*
X2465Y2D01*
X1Y1D02*
X2465Y1D01*
D02*
G04 End of Silk1*
M02*