G04 MADE WITH FRITZING*
G04 WWW.FRITZING.ORG*
G04 DOUBLE SIDED*
G04 HOLES PLATED*
G04 CONTOUR ON CENTER OF CONTOUR VECTOR*
%ASAXBY*%
%FSLAX23Y23*%
%MOIN*%
%OFA0B0*%
%SFA1.0B1.0*%
%ADD10C,0.039370*%
%ADD11C,0.078000*%
%ADD12C,0.024000*%
%LNCOPPER0*%
G90*
G70*
G54D10*
X1668Y826D03*
X1368Y426D03*
X2268Y676D03*
X1167Y927D03*
X2193Y776D03*
X2068Y676D03*
X1868Y926D03*
X1868Y526D03*
X1868Y726D03*
X1468Y826D03*
X1668Y376D03*
X1968Y476D03*
X868Y826D03*
X768Y876D03*
X1418Y876D03*
X1018Y401D03*
X1218Y401D03*
X1868Y176D03*
X1168Y476D03*
X1318Y376D03*
X1268Y925D03*
X968Y726D03*
X618Y976D03*
X2218Y276D03*
X1868Y376D03*
X1768Y376D03*
X1768Y526D03*
X1793Y226D03*
X2268Y577D03*
X1068Y326D03*
X1468Y226D03*
X1668Y226D03*
G54D11*
X1468Y1106D03*
X1368Y1106D03*
X1268Y1106D03*
X1168Y1106D03*
X1068Y1106D03*
X968Y1106D03*
X868Y1106D03*
X768Y1106D03*
X668Y1106D03*
X568Y1106D03*
X468Y1106D03*
X368Y1106D03*
X268Y1106D03*
X168Y1106D03*
X68Y1106D03*
X1486Y80D03*
X1386Y80D03*
X1286Y80D03*
X1186Y80D03*
X1086Y80D03*
X986Y80D03*
X886Y80D03*
X786Y80D03*
X686Y80D03*
X586Y80D03*
X486Y80D03*
X386Y80D03*
X286Y80D03*
X186Y80D03*
X86Y80D03*
X2395Y80D03*
X2295Y80D03*
X2195Y80D03*
X2095Y80D03*
X1995Y80D03*
X1895Y80D03*
X1568Y426D03*
X1568Y526D03*
X1568Y626D03*
X1568Y726D03*
X1568Y826D03*
X1568Y426D03*
X1568Y526D03*
X1568Y626D03*
X1568Y726D03*
X1568Y826D03*
X568Y326D03*
X568Y426D03*
X568Y326D03*
X568Y426D03*
X566Y760D03*
X566Y860D03*
X566Y760D03*
X566Y860D03*
X868Y326D03*
X868Y426D03*
X868Y526D03*
X868Y626D03*
X868Y326D03*
X868Y426D03*
X868Y526D03*
X868Y626D03*
X2393Y1101D03*
X2293Y1101D03*
X2193Y1101D03*
X2093Y1101D03*
X1993Y1101D03*
X368Y976D03*
X268Y976D03*
X368Y976D03*
X268Y976D03*
G54D10*
X1968Y276D03*
X2118Y376D03*
X1368Y226D03*
X968Y476D03*
G54D12*
X1668Y475D02*
X1586Y435D01*
D02*
X1668Y819D02*
X1668Y475D01*
D02*
X1376Y426D02*
X1549Y426D01*
D02*
X1868Y777D02*
X1868Y734D01*
D02*
X2186Y776D02*
X1868Y777D01*
D02*
X2076Y676D02*
X2261Y676D01*
D02*
X168Y1087D02*
X169Y852D01*
D02*
X169Y852D02*
X169Y227D01*
D02*
X169Y227D02*
X169Y126D01*
D02*
X169Y126D02*
X180Y98D01*
D02*
X169Y227D02*
X768Y226D01*
D02*
X518Y852D02*
X169Y852D01*
D02*
X547Y857D02*
X518Y852D01*
D02*
X1361Y226D02*
X768Y226D01*
D02*
X768Y226D02*
X768Y426D01*
D02*
X768Y426D02*
X849Y426D01*
D02*
X2393Y926D02*
X1876Y926D01*
D02*
X2393Y1082D02*
X2393Y926D01*
D02*
X2118Y426D02*
X2118Y384D01*
D02*
X2018Y426D02*
X2118Y426D01*
D02*
X2019Y577D02*
X2018Y426D01*
D02*
X1718Y576D02*
X2019Y577D01*
D02*
X1969Y327D02*
X1893Y327D01*
D02*
X1893Y327D02*
X1799Y232D01*
D02*
X1968Y469D02*
X1969Y327D01*
D02*
X1549Y626D02*
X1269Y625D01*
D02*
X1269Y625D02*
X887Y626D01*
D02*
X876Y826D02*
X1461Y826D01*
D02*
X1718Y426D02*
X1674Y382D01*
D02*
X1718Y576D02*
X1718Y426D01*
D02*
X776Y876D02*
X1411Y876D01*
D02*
X1211Y401D02*
X1026Y401D01*
D02*
X2118Y176D02*
X2268Y175D01*
D02*
X2268Y175D02*
X2380Y91D01*
D02*
X1876Y176D02*
X2118Y176D01*
D02*
X469Y1087D02*
X470Y926D01*
D02*
X470Y926D02*
X1159Y927D01*
D02*
X669Y1087D02*
X669Y1027D01*
D02*
X1994Y1027D02*
X1994Y1082D01*
D02*
X669Y1027D02*
X1994Y1027D01*
D02*
X882Y313D02*
X919Y277D01*
D02*
X919Y277D02*
X1568Y276D01*
D02*
X1768Y176D02*
X1790Y219D01*
D02*
X1568Y176D02*
X1768Y176D01*
D02*
X1568Y276D02*
X1568Y176D01*
D02*
X1269Y327D02*
X1269Y625D01*
D02*
X1076Y326D02*
X1269Y327D01*
D02*
X1161Y476D02*
X976Y476D01*
D02*
X1368Y326D02*
X1324Y371D01*
D02*
X1718Y326D02*
X1368Y326D01*
D02*
X1763Y371D02*
X1718Y326D01*
D02*
X1468Y726D02*
X1549Y726D01*
D02*
X976Y726D02*
X1468Y726D01*
D02*
X2294Y976D02*
X2294Y1082D01*
D02*
X626Y976D02*
X2294Y976D01*
D02*
X1469Y126D02*
X1468Y219D01*
D02*
X1480Y98D02*
X1469Y126D01*
D02*
X1276Y925D02*
X1768Y926D01*
D02*
X2218Y626D02*
X2263Y583D01*
D02*
X1768Y626D02*
X2218Y626D01*
D02*
X1768Y926D02*
X1768Y626D01*
D02*
X2118Y276D02*
X2211Y276D01*
D02*
X1976Y276D02*
X2118Y276D01*
D02*
X1719Y227D02*
X1676Y226D01*
D02*
X1768Y276D02*
X1719Y227D01*
D02*
X1818Y326D02*
X1768Y276D01*
D02*
X1818Y476D02*
X1818Y326D01*
D02*
X1774Y521D02*
X1818Y476D01*
D02*
X1868Y426D02*
X1868Y384D01*
D02*
X1868Y519D02*
X1868Y426D01*
G04 End of Copper0*
M02*